<?xml version="1.0" encoding="utf-8"?>
<!-- Generator: Adobe Illustrator 18.1.1, SVG Export Plug-In . SVG Version: 6.00 Build 0)  -->
<svg version="1.1" id="Layer_1" xmlns="http://www.w3.org/2000/svg" xmlns:xlink="http://www.w3.org/1999/xlink" x="0px" y="0px"
	 viewBox="0 0 100 100" enable-background="new 0 0 100 100" xml:space="preserve">
<path fill="#282828" d="M98.4,90.8L58.2,50.6C58.1,50.4,58,50.2,58,50c0-0.2,0.1-0.4,0.2-0.6L98.4,9.2c2.1-2.1,2.1-5.5,0-7.6
	c-1-1-2.4-1.6-3.8-1.6s-2.8,0.6-3.8,1.6L50.6,41.8c-0.3,0.3-0.9,0.3-1.2,0L9.2,1.6C8.2,0.5,6.8,0,5.4,0C3.9,0,2.6,0.5,1.6,1.6
	c-2.1,2.1-2.1,5.5,0,7.6l40.2,40.2c0.2,0.2,0.2,0.4,0.2,0.6c0,0.2-0.1,0.4-0.2,0.6L1.6,90.8c-1,1-1.6,2.4-1.6,3.8s0.6,2.8,1.6,3.8
	c1,1,2.4,1.6,3.8,1.6c1.4,0,2.8-0.6,3.8-1.6l40.2-40.2c0.3-0.3,0.9-0.3,1.2,0l40.2,40.2c1,1,2.4,1.6,3.8,1.6s2.8-0.6,3.8-1.6
	s1.6-2.4,1.6-3.8S99.4,91.8,98.4,90.8z"/>
</svg>
