<?xml version="1.0" encoding="utf-8"?>
<!-- Generator: Adobe Illustrator 18.1.1, SVG Export Plug-In . SVG Version: 6.00 Build 0)  -->
<svg version="1.1" id="Layer_1" xmlns="http://www.w3.org/2000/svg" xmlns:xlink="http://www.w3.org/1999/xlink" x="0px" y="0px"
	 viewBox="0 0 100 100" enable-background="new 0 0 100 100" xml:space="preserve">
<path fill="#282828" d="M45.8,0.3C23.6,2.5,5.8,20.8,4,43C2.9,57,8,69.9,16.8,79.1c-0.1,0-0.1,0,0,0.1c0.1,0.1,0.2,0.2,0.3,0.3
	c0.5,0.5,0.9,0.9,1.4,1.4c6,6.9,1.1,16.5-0.1,18.6c0,0.1,0,0.1,0.1,0.1c1.8-1.7,11.1-10.1,18.6-7.8c0.1,0,0.1,0,0.1,0
	c6.4,1.9,13.4,2.6,20.7,1.4c21.8-3.4,38.7-22.1,39.7-44.1C98.9,20.5,74.7-2.7,45.8,0.3z"/>
<g>
	<circle fill="#FFFFFF" cx="34.7" cy="46.9" r="3.7"/>
	<circle fill="#FFFFFF" cx="51.8" cy="46.9" r="3.7"/>
	<circle fill="#FFFFFF" cx="68.9" cy="46.9" r="3.7"/>
</g>
</svg>
