<?xml version="1.0" encoding="utf-8"?>
<!-- Generator: Adobe Illustrator 18.1.1, SVG Export Plug-In . SVG Version: 6.00 Build 0)  -->
<svg version="1.1" id="Layer_1" xmlns="http://www.w3.org/2000/svg" xmlns:xlink="http://www.w3.org/1999/xlink" x="0px" y="0px"
	 viewBox="0 0 100 100" enable-background="new 0 0 100 100" xml:space="preserve">
<path fill="#282828" d="M71.8,63.2L55,83.7c-0.6,0.7-1.7,0.3-1.7-0.6V3.3C53.3,1.5,51.8,0,50,0h0c-1.8,0-3.3,1.5-3.3,3.3v71.4
	c0,3.7-4.7,5.4-7,2.5l-11.5-14c-1.2-1.4-3.2-1.6-4.6-0.5l0,0c-1.4,1.2-1.6,3.2-0.5,4.6L49.8,100c0.1,0.1,0.3,0.1,0.4,0l26.7-32.6
	c1.2-1.4,0.9-3.5-0.5-4.6l0,0C75,61.6,72.9,61.8,71.8,63.2z"/>
</svg>
