<?xml version="1.0" encoding="utf-8"?>
<!-- Generator: Adobe Illustrator 18.0.0, SVG Export Plug-In . SVG Version: 6.00 Build 0)  -->
<!DOCTYPE svg PUBLIC "-//W3C//DTD SVG 1.1//EN" "http://www.w3.org/Graphics/SVG/1.1/DTD/svg11.dtd">
<svg version="1.1" id="state" xmlns="http://www.w3.org/2000/svg" xmlns:xlink="http://www.w3.org/1999/xlink" x="0px" y="0px"
	 viewBox="0 0 20.1 20" enable-background="new 0 0 20.1 20" xml:space="preserve">
<path id="District1" fill="none" stroke="#111111" stroke-width="1.607234e-02" stroke-miterlimit="10" d="M0.6,2.2L0.6,2.2
	C0.6,2.1,0.6,2.1,0.6,2.2c0-0.1,0-0.1,0-0.1c0,0-0.1-0.1-0.1-0.2c0-0.1,0.2-0.3,0.2-0.3c0,0,0-0.2-0.1-0.2c-0.1,0-0.2-0.1-0.2-0.2
	c0-0.1-0.1-0.2-0.2-0.2c0-0.1-0.1-0.1,0-0.3c0-0.1,0-0.2,0-0.2h5.3l0,0.1c0,0,0,0.1,0,0.2s-0.1,0-0.1,0.1c0,0.1-0.1,0-0.2,0
	C5,0.8,4.8,0.9,4.9,1C4.9,1,4.8,1,4.7,1c-0.1,0,0,0.2,0,0.2c0,0-0.1,0.1-0.1,0.1c0,0,0,0.1-0.1,0.1c0,0-0.1,0.1-0.1,0.2
	s0.1,0,0.1,0.1s0.1,0,0,0.1c0,0.1,0,0.1,0.1,0.1C4.7,2,4.6,2,4.5,2s0,0.1-0.1,0.1c-0.1,0-0.2,0.1-0.2,0.1l0,0.4l0,0
	C4.1,2.6,3.6,2.3,3,2.3c-0.5,0-0.8-0.1-1.4,0.1C1,2.6,0.8,2.5,0.8,2.5L0.1,2.7c0.1-0.1,0-0.1,0-0.1c0,0,0-0.2,0-0.1
	c0,0,0,0.1,0.1,0.1c0.1,0,0.1-0.1,0.1-0.1s0-0.1,0-0.1c0,0,0,0.1,0,0.1c0,0,0,0,0.1-0.1C0.5,2.2,0.5,2.2,0.6,2.2 M6.9,0.5 M0.6,2.2
	C0.6,2.2,0.6,2.2,0.6,2.2C0.5,2.2,0.6,2.2,0.6,2.2z"/>
<path id="District2" fill="none" stroke="#111111" stroke-width="1.607234e-02" stroke-miterlimit="10" d="M5.4,0.4l0,0.1
	c0,0,0,0.1,0,0.2s-0.1,0-0.1,0.1c0,0.1-0.1,0-0.2,0C5,0.8,4.8,0.9,4.9,1C4.9,1,4.8,1,4.7,1c-0.1,0,0,0.2,0,0.2c0,0-0.1,0.1-0.1,0.1
	c0,0,0,0.1-0.1,0.1c0,0-0.1,0.1-0.1,0.2s0.1,0,0.1,0.1s0.1,0,0,0.1c0,0.1,0,0.1,0.1,0.1C4.7,2,4.6,2,4.5,2s0,0.1-0.1,0.1
	c-0.1,0-0.2,0.1-0.2,0.1l0,0.4c0,0,0.4,0.2,0.6,0.4c0.3,0.2,0.5,0.2,0.5,0.3c0,0.1,0.1,0,0.2,0.2c0.1,0.1,0.1,0.1,0.2,0.1
	s0.1,0,0.2,0c0.1,0,0,0.2,0,0.2c0,0-0.1,0-0.1,0C5.8,4.5,6,4.5,6,4.5s0.2,0,0.3,0s0.1,0.1,0.2,0.1c0.1,0,0.1,0.1,0.2,0.2
	c0.1,0,0.5-0.2,0.6-0.2s0.4-0.4,0.5-0.4S8.2,4,8.2,3.9c0-0.1,0.3-0.1,0.4-0.1c0.1,0,0-0.2,0-0.2c0,0,0.1,0,0.1,0c0,0-0.1,0-0.1-0.1
	c-0.1,0,0,0,0-0.1c0-0.1,0.1,0,0.1-0.1c0-0.1,0,0,0-0.1c0-0.1,0,0,0.1,0c0.1,0,0.1,0.1,0.1,0c0,0,0-0.1,0-0.1c0,0,0,0,0,0
	c0,0,0.1,0.1,0.1,0.1c0,0,0,0,0.1,0c0.1,0-0.1,0.1,0,0.1c0,0,0.3-0.1,0.4-0.1c0.1,0,0.1,0.1,0.1,0.1c0.1,0,0.2,0,0.2,0.1
	c0,0.1,0.1,0,0.1,0.1c0.1,0,0,0.1,0.1,0c0.1,0,0.1,0.1,0.2,0.1c0,0,0.2,0,0.2,0.1c0,0.1,0.2,0.2,0.2,0.2c0.1,0,0,0,0,0
	c0,0.1,0,0.1,0.1,0.1c0,0,0,0.1,0,0.2c0,0.1,0.1,0.2,0.2,0.2c0,0,0.1,0,0.1,0.1c0,0,0.1,0.1,0.1,0.1l0.1,0c0,0,0,0,0.1,0
	c0,0,0-0.1,0-0.2c0-0.1,0.1-0.1,0.1-0.1V4h-0.1V3.8l-0.1,0l0-1.1h-0.3V2.4c0,0,0,0-0.1-0.1c0,0,0.1,0,0.1-0.1c0-0.1-0.1-0.1-0.1-0.1
	L11,2.1c0,0-0.1,0-0.1,0c0,0,0,0,0.1-0.1s-0.1-0.1,0-0.1c0.1-0.1,0-0.1,0-0.1s0-0.1,0-0.2c0,0,0,0,0.1,0c0.1,0,0-0.1,0-0.1
	C9.2,1.4,7.3,1.3,7.2,1.3c-0.1,0-0.1,0-0.1-0.1c-0.1,0,0-0.2,0-0.3C7.1,0.8,7,0.7,7,0.7c0-0.1,0-0.1-0.1-0.2c0,0,0-0.1,0-0.1l0,0
	L5.4,0.4z"/>
<path id="District3" fill="none" stroke="#111111" stroke-width="1.607234e-02" stroke-miterlimit="10" d="M10.8,2.1
	C10.8,2.1,10.9,2.1,10.8,2.1c0.1-0.1,0-0.1,0.1-0.2c0.1-0.1,0-0.1,0-0.1s0-0.1,0-0.2c0,0,0,0,0.1,0c0.1,0,0-0.1,0-0.1l2.6,0.1l0,1.3
	h1.1V2.9l1,0c0,0-0.1,0.1,0,0.1s0,0.3,0,0.3s0,0.1,0,0.1c0,0,0,0.1,0,0.2c0,0.1,0.1,0.3,0.1,0.3v0.1h-0.4c0,0-0.1,0.1-0.2,0.1
	S15,4.1,15,4.1c0,0.1-0.1,0.1-0.1,0.1s-0.1,0.1-0.2,0.1s0,0-0.1,0c-0.1,0-0.1,0-0.2,0c-0.1,0-0.3,0.1-0.3,0.1c0,0-0.2-0.1-0.2,0
	s0,0.2,0,0.2s0,0.1,0.1,0.1c0.1,0,0.2-0.1,0.1,0s0,0.1,0,0.1c0,0,0,0.1,0,0.1s0.1,0.1,0,0.1c0,0,0,0.1,0,0.2c0,0,0,0,0,0h-0.1
	c0,0,0.1,0.1,0.1,0.2s0.2,0.5,0.1,0.5s-0.2,0-0.2,0c0,0.1,0.1,0.1,0,0.1S14.1,6,14.1,6c0,0.1,0.1,0.1,0,0.1s-0.3,0.3-0.3,0.3
	s-0.1-0.1-0.1-0.1c0,0-0.1,0-0.1,0s-0.1-0.1-0.1-0.1c-0.1,0-0.1,0-0.1,0s0,0-0.1,0c-0.1,0-0.1-0.1-0.1,0c0,0.1,0,0.1,0,0
	c-0.1,0-0.1,0-0.1,0c0,0-0.1-0.1-0.1,0l-0.1,0.1c0-0.1,0-0.1,0-0.2c-0.1,0-0.2-0.1-0.1-0.2c0-0.1,0.1-0.2,0-0.2c0,0-0.1,0.1-0.2,0.1
	c-0.1,0-0.1-0.1-0.2-0.1c-0.1,0-0.1-0.1-0.1,0C12.1,6,12,6,12,6c0,0,0,0,0-0.1c0-0.1,0-0.2-0.1-0.2c-0.1,0-0.1-0.1-0.2-0.1
	c0,0,0-0.1,0-0.2c0-0.1-0.2-0.2-0.3-0.2c0,0-0.1,0-0.1-0.1c0,0-0.1-0.1-0.1-0.2c0,0-0.1-0.1,0-0.2c0-0.1,0-0.2,0-0.3l0,0
	c0,0,0,0,0.1,0c0,0,0-0.1,0-0.2c0-0.1,0.1-0.1,0.1-0.1V4h-0.1V3.8l-0.1,0l0-1.1h-0.3V2.4c0,0,0,0-0.1-0.1c0,0,0.1,0,0.1-0.1
	c0-0.1-0.1-0.1-0.1-0.1L11,2.1C11,2.1,10.8,2.2,10.8,2.1"/>
<path id="District4" fill="none" stroke="#111111" stroke-width="1.607234e-02" stroke-miterlimit="10" d="M16.1,1.3L15,0.9
	c0,0-0.1,0-0.1,0.1c0,0-0.1,0-0.1,0.1c0,0-0.1,0.1-0.1,0.2c0,0.1,0,0.2,0.1,0.3c0,0.1,0,0.2,0,0.3c0,0.1,0,0.2,0,0.4
	c0,0.1-0.1,0.1-0.1,0.1c0,0-0.2,0-0.2,0c0,0,0,0-0.1-0.1c0,0,0-0.2,0-0.2c0,0,0-0.1-0.1-0.2c-0.1,0,0-0.1,0-0.1l-0.6,0l0,1.3h1.1
	V2.9l1,0c0,0-0.1,0.1,0,0.1c0,0,0,0.1,0.1,0.1s0.3,0,0.3,0c0,0,0,0,0,0h0.3V2.7h0.2c0,0-0.1-0.3-0.1-0.4s0-0.2-0.1-0.3
	c-0.1-0.1,0-0.1,0-0.2c0-0.1,0-0.3,0-0.4s0.2,0,0.2,0c0-0.1-0.1-0.1-0.2-0.1C16.2,1.3,16.2,1.3,16.1,1.3z"/>
<path id="District5" fill="none" stroke="#111111" stroke-width="1.607234e-02" stroke-miterlimit="10" d="M15.5,5.4V5.2h-0.1l0-0.2
	h-0.2c0,0,0-0.2,0-0.1c0,0.1-0.2,0-0.2,0c0,0,0,0,0,0c0,0-0.1,0-0.2,0c0,0-0.1,0.1-0.1,0.1s0-0.4,0-0.4c0,0,0.1,0,0.2,0
	s0.1-0.1,0.1-0.1l0-0.1c0,0,0.1,0,0.1,0s0,0,0,0s0,0,0,0c0,0,0,0,0.1,0c0.1,0,0-0.1,0-0.1s0.3,0.1,0.3,0.2c0,0,0,0,0,0s0,0,0,0.1
	s0,0,0.1,0s0,0,0.1,0.1s0.1,0,0.1-0.1c0-0.1,0-0.1-0.1-0.1c-0.1-0.1,0-0.1,0-0.2c0,0,0.1,0,0.1,0s0,0,0,0c0,0,0-0.1,0-0.1
	s0,0,0.1,0.1s0-0.1,0-0.1s-0.1-0.3-0.1-0.4c0-0.1-0.1-0.2-0.2-0.2c-0.1,0-0.1-0.1-0.1-0.1c0,0,0,0.1,0,0.2c0,0.1,0.1,0.3,0.1,0.3
	v0.1h-0.4c0,0-0.1,0.1-0.2,0.1S15,4.1,15,4.1c0,0.1-0.1,0.1-0.1,0.1s-0.1,0.1-0.2,0.1s0,0-0.1,0c-0.1,0-0.1,0-0.2,0
	c-0.1,0-0.3,0.1-0.3,0.1c0,0-0.2-0.1-0.2,0s0,0.2,0,0.2s0,0.1,0.1,0.1c0.1,0,0.2-0.1,0.1,0s0,0.1,0,0.1c0,0,0,0.1,0,0.1
	s0.1,0.1,0,0.1c0,0,0,0.1,0,0.2c0,0,0,0,0,0h-0.1c0,0,0.1,0.1,0.1,0.2l0.2,0l-0.1-0.1l0.1,0l0-0.1c0,0,0.1,0,0.1,0
	c0,0,0.2-0.1,0.3-0.1c0.1,0,0.2,0,0.2,0.1c0,0,0,0.1,0,0.1h0.2v0.1h0l0.2,0.6h0.1v0.1c0,0,0.2,0,0.2,0c0,0,0,0.3,0,0.3h0.1v0.1
	l0.1,0.1v0.4H16V7h0v0.1h-0.3v0.1v0.5h0.3L16,7.6h0.1l0,0.2l0.1,0.1L16.2,8c0,0,0,0.1,0,0.1s0.1,0,0.1,0V8.1c0,0,0-0.1,0-0.1
	c0,0,0.1,0,0.1-0.1c0,0-0.1,0-0.1,0l0-0.1c0,0,0.1,0,0.1-0.1s0.1-0.1,0-0.1s-0.1,0.1-0.1,0.1c0,0-0.1,0-0.1-0.1c0,0,0-0.1,0-0.1
	s-0.1-0.1-0.1-0.1l0-0.2c0,0,0.1,0.1,0.1,0.1c0,0,0.2-0.1,0.2-0.1c0-0.1,0-0.2,0-0.2s0.1,0,0.1,0s0,0,0,0s0.1-0.1,0-0.1
	c-0.1,0,0-0.1,0-0.1s0-0.1,0-0.2c0,0,0-0.1,0-0.1c0.1,0-0.1-0.1-0.1-0.2c-0.1,0-0.3-0.2-0.3-0.2s0-0.1,0-0.2c0-0.1,0-0.1-0.1-0.1
	c-0.1,0-0.1,0-0.1,0c-0.1,0-0.1-0.1,0-0.2c0-0.1-0.1-0.2-0.1-0.2s-0.1-0.1-0.2-0.1c0,0,0.2,0,0.2,0s0-0.1,0-0.1L15.5,5.4z"/>
<path id="District6" fill="none" stroke="#111111" stroke-width="1.607234e-02" stroke-miterlimit="10" d="M15.2,4.9
	c0,0.1-0.2,0-0.2,0c0,0,0,0,0,0c0,0-0.1,0-0.2,0c0,0-0.1,0.1-0.1,0.1s0-0.4,0-0.4c0,0,0.1,0,0.2,0s0.1-0.1,0.1-0.1l0-0.1
	c0,0,0.1,0,0.1,0s0,0,0,0s0,0,0,0c0,0,0,0,0.1,0c0.1,0,0-0.1,0-0.1s0.3,0.1,0.3,0.2c0,0,0,0,0,0s0,0,0,0.1s0,0,0.1,0s0,0,0.1,0.1
	s0.1,0,0.1-0.1c0-0.1,0-0.1-0.1-0.1c-0.1-0.1,0-0.1,0-0.2c0,0,0.1,0,0.1,0s0,0,0,0c0,0,0-0.1,0-0.1s0,0,0.1,0.1s0-0.1,0-0.1
	s-0.1-0.3-0.1-0.4c0-0.1-0.1-0.2-0.2-0.2c-0.1,0-0.1-0.1-0.1-0.1s-0.1-0.1,0-0.1c0,0,0.1-0.1,0.1-0.2c0-0.1,0-0.1,0-0.1
	s0,0.1,0.1,0.1s0.3,0,0.3,0c0,0,0,0,0,0h0.3V2.7h0.2c0,0,0,0.5,0.2,1c0,0,0.1,0.3,0.1,0.3c0,0.1,0.5,1.4,0.5,1.4s0.3,0.6,0.3,0.7
	c0,0.1,0.3,0.5,0.6,0.9h-0.8c0,0,0-0.2,0-0.2s-0.3,0-0.3,0s0-0.2,0-0.3c0-0.1,0-0.1-0.1-0.1c-0.1,0,0,0-0.1,0c-0.1,0-0.2,0-0.2,0
	s-0.1,0-0.1,0c0,0-0.1-0.1-0.1-0.2c-0.1,0-0.3-0.2-0.3-0.2s0-0.1,0-0.2c0-0.1,0-0.1-0.1-0.1c-0.1,0-0.1,0-0.1,0
	c-0.1,0-0.1-0.1,0-0.2c0-0.1-0.1-0.2-0.1-0.2s-0.1-0.1-0.2-0.1c0,0,0.2,0,0.2,0s0-0.1,0-0.1l-0.2,0V5.2h-0.1l0-0.2h-0.2
	C15.2,5,15.2,4.9,15.2,4.9"/>
<path id="District7" fill="none" stroke="#111111" stroke-width="1.607234e-02" stroke-miterlimit="10" d="M16.4,6.7
	c0,0,0.1,0.1,0,0.2s-0.1,0,0,0.1c0.1,0,0,0.1,0,0.1s0,0,0,0s-0.1,0-0.1,0s0,0.1,0,0.2c0,0.1-0.1,0.1-0.2,0.1c0,0-0.1-0.1-0.1-0.1
	l0,0.2c0,0,0.1,0.1,0.1,0.1s0,0,0,0.1c0,0,0,0,0.1,0.1c0,0,0.1-0.1,0.1-0.1s0,0,0,0.1s-0.1,0.1-0.1,0.1l0,0.1c0.1-0.1,0.2,0,0.2,0
	c0,0,0.1,0,0.1-0.1s0.2,0,0.2,0c0.1,0,0,0.1,0,0.1s0.1,0,0.2,0s0,0,0.1,0s0,0,0-0.1c0,0,0-0.1,0-0.1h0.4V7.1h-0.1c0,0,0-0.2,0-0.2
	s-0.3,0-0.3,0s0-0.2,0-0.3c0-0.1,0-0.1-0.1-0.1c-0.1,0,0,0-0.1,0c-0.1,0-0.2,0-0.2,0c0,0,0,0-0.1,0C16.5,6.5,16.4,6.6,16.4,6.7z"/>
<path id="District8" fill="none" stroke="#111111" stroke-width="1.607234e-02" stroke-miterlimit="10" d="M18.2,7.1
	c0.3,0.4,0.5,0.8,0.5,0.8c0,0,0,0.2,0,0.2c0,0-0.1-0.1-0.1,0.2c0,0.3,0,0.5,0,0.7c0,0.2,0.5,1.1,0.5,1.2c0,0,0.1,0.4,0.2,0.6H18
	v-0.2l-0.3,0v-0.3c0,0,0,0,0-0.2s0-0.1,0-0.1l0,0l0-0.8l0-0.8l-0.6,0V8.1H17c0,0,0.1,0,0-0.1c0-0.1,0,0,0-0.1c0-0.1,0-0.1,0-0.1
	c0.1,0,0,0,0.1,0s0,0,0-0.1c0,0,0-0.1,0-0.1h0.4V7.1L18.2,7.1z"/>
<path id="District9" fill="none" stroke="#111111" stroke-width="1.607234e-02" stroke-miterlimit="10" d="M17.1,7.8
	c0,0,0,0.1,0,0.1C17.1,8,17,8,17,8c0,0.1,0,0.1,0,0.1h0.2v0.3l0.6,0l0,0.8l0,0.8l0,0c0,0,0,0,0,0.1s0,0.2,0,0.2v0.3l-0.7,0
	c0,0,0.1,0,0.1,0c0,0,0,0,0-0.1s0-0.1,0-0.1c0,0,0-0.1-0.1-0.1c0,0,0-0.1,0-0.1s-0.1-0.1-0.1-0.2c0-0.1-0.1-0.1-0.1-0.1
	c0,0,0,0-0.1-0.1c-0.1,0,0-0.1,0-0.2s-0.1,0-0.1,0c0,0,0-0.1,0-0.1s0,0-0.1-0.1c0,0-0.1,0-0.1,0c0,0-0.1-0.1-0.1-0.2c0,0,0,0,0,0.1
	s-0.1,0-0.1,0c0,0-0.1,0-0.2,0c0,0,0,0-0.1,0s0,0,0,0c0,0,0-0.1,0-0.1c0,0,0-0.1-0.1-0.1c0,0-0.1,0-0.1-0.1c0-0.1,0.1,0,0.1-0.1
	s0-0.1,0-0.1c0,0,0-0.1,0-0.1c0,0,0.1-0.1,0.1-0.1s-0.1,0-0.1,0V8.4h0.4c0,0,0-0.1,0-0.1c0,0,0.1,0.1,0.1,0.1s0,0,0-0.1
	c0-0.1,0.2-0.1,0.3-0.1c0.1,0,0-0.1,0.1-0.1s0-0.1-0.1-0.1s0-0.1,0-0.1c0,0,0.1,0,0.1-0.1s0.2,0,0.2,0c0.1,0,0,0.1,0,0.1
	S17,7.8,17.1,7.8"/>
<path id="District10" fill="none" stroke="#111111" stroke-width="1.607234e-02" stroke-miterlimit="10" d="M15.8,9.4l-0.3,0
	c0,0,0,0,0,0.1c0,0-0.1,0-0.1,0c0,0-0.1,0-0.1,0c0,0,0,0-0.1,0c0,0,0-0.1,0-0.1c0,0,0-0.2,0-0.2S15.1,9,15.1,9c0,0,0,0-0.1,0
	c-0.1,0,0-0.1,0-0.2c0-0.1-0.1-0.1-0.1-0.1c0-0.1,0-0.1,0-0.1V6.8l0.2,0V6.6h0.8v0.3H16V7h0v0.1h-0.3v0.1v0.5h0.3L16,7.6h0.1l0,0.2
	l0.1,0.1L16.2,8c0,0,0,0.1,0,0.1s0.1,0,0.1,0V8.1c0,0,0-0.1,0-0.1c0,0,0.1,0,0.1-0.1c0,0-0.1,0-0.1,0c0.1-0.1,0.2,0,0.2,0
	s0,0.1,0,0.1S16.6,8,16.6,8s0,0.1-0.1,0.1c-0.1,0-0.3,0.1-0.3,0.1c0,0.1,0,0.1,0,0.1s-0.1-0.1-0.1-0.1c0,0,0,0.1,0,0.1h-0.4v0.3
	c0,0,0.1,0,0.1,0s-0.1,0.1-0.1,0.1c0,0,0,0.1,0,0.1c0,0,0,0,0,0.1s-0.1,0-0.1,0.1c0,0.1,0,0.1,0.1,0.1c0,0,0.1,0.1,0.1,0.1
	C15.8,9.3,15.7,9.3,15.8,9.4C15.7,9.3,15.8,9.3,15.8,9.4z"/>
<path id="District11" fill="none" stroke="#111111" stroke-width="1.607234e-02" stroke-miterlimit="10" d="M12.6,6.7
	C12.6,6.7,12.6,6.8,12.6,6.7c0.1,0.1,0.1,0.1,0.1,0.1s0,0,0,0.1c0,0-0.1,0.2,0,0.2s0,0.1,0.1,0.2s0.1,0.1,0.1,0.2
	c0,0.1,0.1,0.1,0.1,0.2s0,0.1-0.1,0.1c0,0.1,0,0.2,0,0.2c0,0,0,0,0,0.1c0,0,0,0.1,0,0.1l1.3,0V8h0.5l0,0.5c0,0,0,0,0.1,0
	s0.1,0,0.1,0c0,0,0.1,0,0.1,0V6.8l0.2,0V6.6h0.8V6.5l-0.1-0.1V6.3h-0.1c0,0,0-0.2,0-0.3c0,0-0.2,0-0.2,0V5.9h-0.1l-0.2-0.6h0V5.3H15
	c0,0,0,0,0-0.1c0,0-0.1,0-0.2-0.1c-0.1,0-0.2,0.1-0.3,0.1c0,0-0.1,0-0.1,0l0,0.1l-0.1,0l0.1,0.1l-0.2,0c0,0.1,0.2,0.5,0.1,0.5
	s-0.2,0-0.2,0c0,0.1,0.1,0.1,0,0.1S14.1,6,14.1,6c0,0.1,0.1,0.1,0,0.1s-0.3,0.3-0.3,0.3s-0.1-0.1-0.1-0.1c0,0-0.1,0-0.1,0
	s-0.1-0.1-0.1-0.1c-0.1,0-0.1,0-0.1,0s0,0-0.1,0c-0.1,0-0.1-0.1-0.1,0c0,0.1,0,0.1,0,0c-0.1,0-0.1,0-0.1,0c0,0-0.1-0.1-0.1,0
	L12.6,6.7z"/>
<path id="District12" fill="none" stroke="#111111" stroke-width="1.607234e-02" stroke-miterlimit="10" d="M14.7,8.7l-0.1,0V9l-1,0
	l-0.1,0.1l0,0.1l-0.1,0c0,0-0.1,0-0.2,0c-0.1,0,0,0.1,0,0.1h-0.2c0,0,0,0.1,0,0.1c0,0.1-0.1-0.1-0.1-0.2c0,0-0.2,0-0.2,0
	c0,0,0,0-0.1,0c-0.1,0-0.1-0.1-0.1-0.1c0,0-0.1,0-0.1,0s-0.1,0-0.1,0c0,0,0-0.4,0-0.5c0-0.1,0.2-0.1,0.3-0.1c0.1,0,0-0.1,0-0.2
	s0.1-0.2,0.1-0.2l1.3,0V8h0.5L14.7,8.7z"/>
<path id="District13" fill="none" stroke="#111111" stroke-width="1.607234e-02" stroke-miterlimit="10" d="M12.9,10.6
	c0,0,0-0.1,0-0.1h-0.2c0-0.2,0-0.2,0-0.2c-0.3-0.3-0.3-0.7-0.2-0.8c0,0-0.1-0.3-0.1-0.3c0,0,0.1,0,0.1,0c0.1-0.1,0.1,0,0.1,0
	c0,0.1,0.1,0.1,0.1,0.1c0,0,0.1,0,0.2,0c0,0,0.1,0.2,0.1,0.2c0,0,0,0,0,0s-0.1,0.1-0.1,0.2c0,0,0,0.1,0.1,0.1c0.1,0,0.2,0.1,0.2,0.1
	c0,0.1,0.1,0.2,0,0.2c0,0.1-0.3,0-0.3,0.1c0,0,0,0.1,0.1,0.1c0,0,0,0.2,0,0.2L12.9,10.6z"/>
<path id="District14_2_" fill="none" stroke="#111111" stroke-width="1.607234e-02" stroke-miterlimit="10" d="M13.3,10.5l0.3,0
	c0,0,0.1-0.2,0.1-0.2c0,0,0-0.1,0-0.1c0,0,0.1-0.2,0.1-0.2s0-0.2,0-0.2l0.1,0l0-0.1c0,0,0,0,0.1,0c0.1,0-0.1-0.1-0.1-0.1
	s0-0.2,0-0.2c0,0,0,0-0.1,0s0-0.1,0-0.1l-0.1,0c0,0,0,0,0-0.1c0,0,0,0.1-0.1,0.1c-0.1,0.1-0.1-0.1-0.1-0.1l0,0l-0.1,0
	c0,0-0.1,0-0.2,0c-0.1,0,0,0.1,0,0.1h-0.2c0,0,0,0.2,0,0.1c0,0,0,0,0,0s-0.1,0.1-0.1,0.2c0,0,0,0.1,0.1,0.1c0.1,0,0.2,0.1,0.2,0.1
	c0,0.1,0.1,0.2,0,0.2c0,0.1-0.3,0-0.3,0.1c0,0,0,0.1,0.1,0.1c0,0,0,0.2,0,0.2l-0.1,0.1c0,0,0-0.1,0-0.1h-0.2c0,0,0,0.1,0,0.2h0.2
	L13.3,10.5z"/>
<path id="District15" fill="none" stroke="#111111" stroke-width="1.607234e-02" stroke-miterlimit="10" d="M13.5,9.2
	c0,0,0,0.2,0.1,0.1c0.1-0.1,0.1-0.2,0.1-0.1c0,0,0,0.1,0,0.1l0.1,0c0,0,0,0.1,0,0.1s0.1-0.1,0.1,0c0,0,0,0.2,0,0.2s0.2,0,0.1,0.1
	c-0.1,0-0.1,0-0.1,0l0,0.1l0.1,0.1c0,0,0-0.1,0.1,0c0,0,0.1,0,0.1,0c0,0,0-0.1,0,0c0,0,0,0,0.1,0c0.1,0,0.1,0,0.1,0s0,0,0-0.1
	c0,0,0.1,0,0.1,0c0,0,0.1-0.1,0.1-0.1v0.2h0.3c0,0,0,0.1,0.1,0.1s0.2,0,0.2,0s0,0.2,0,0.1c0,0,0-0.1,0-0.1c0.1,0,0.1,0.1,0.1,0.1
	h0.1c0,0,0,0,0-0.1c0,0,0-0.2,0-0.2s0.1,0,0.1,0c0,0-0.1,0-0.1-0.1s0-0.1-0.1,0c0,0,0-0.1,0-0.1s0-0.1,0-0.1c0,0,0,0-0.1,0
	c0,0,0-0.1,0-0.1c0,0,0-0.2,0-0.2S15.1,9,15.1,9c0,0,0,0-0.1,0c-0.1,0,0-0.1,0-0.2c0-0.1-0.1-0.1-0.1-0.1c0-0.1,0-0.1,0-0.1
	s-0.1,0.1-0.1,0c0,0,0-0.1-0.1-0.1c0,0-0.1,0-0.1,0l0,0.2l-0.1,0V9l-1,0l-0.1,0.1L13.5,9.2L13.5,9.2z"/>
<path id="District16" fill="none" stroke="#111111" stroke-width="1.607234e-02" stroke-miterlimit="10" d="M14.1,10.5v0.2l-0.1,0
	c-0.1,0-0.2,0-0.1,0.1c0,0,0,0.1,0,0.1c0.1,0,0.2,0.2,0.2,0.2h0.1l0,0.3l0,0l0,0.5h0.5v0.5h-0.5l0,0.3h-0.5
	c-0.1-0.1-0.3-0.7-0.3-0.8s-0.2-0.2-0.2-0.2c0-0.1-0.1-0.2-0.1-0.2c0,0-0.1-0.1-0.1-0.2c0,0-0.1-0.2-0.2-0.3s-0.1-0.2-0.1-0.2h0.2
	l0.5-0.2l0.3,0L14.1,10.5z"/>
<path id="District17" fill="none" stroke="#111111" stroke-width="1.607234e-02" stroke-miterlimit="10" d="M18,10.8v-0.2l-0.3,0
	l-0.7,0c0,0,0.1,0,0.1,0c0,0,0,0,0-0.1s0-0.1,0-0.1c0,0,0-0.1-0.1-0.1c0,0,0-0.1,0-0.1s-0.1-0.1-0.1-0.2c0-0.1-0.1-0.1-0.1-0.1
	c0,0,0,0-0.1-0.1c-0.1,0,0-0.1,0-0.2s-0.1,0-0.1,0c0,0,0-0.1,0-0.1s0,0-0.1-0.1c0,0-0.1,0-0.1,0c0,0-0.1-0.1-0.1-0.2c0,0,0,0,0,0.1
	s-0.1,0-0.1,0c0,0-0.1,0-0.2,0c0,0,0,0-0.1,0l0,0l-0.3,0c0,0,0,0,0,0.1c0,0-0.1,0-0.1,0c0,0-0.1,0-0.1,0c0,0,0,0.1,0,0.1
	c0,0,0,0.1,0,0.1c0,0,0.1,0,0.1,0s0,0,0.1,0.1c0,0-0.1,0-0.1,0s0,0.2,0,0.2c0,0,0,0.1,0,0.1h-0.1c0,0,0,0-0.1-0.1
	c-0.1,0,0,0.1,0,0.1c0,0,0-0.1,0-0.1S15,10,15,10s-0.1-0.1-0.1-0.1h-0.3V9.7c0,0,0,0.1-0.1,0.1c0,0-0.1,0-0.1,0c0,0,0,0.1,0,0.1
	s0,0-0.1,0c-0.1,0,0,0-0.1,0c0,0,0,0,0,0c0,0-0.1,0-0.1,0c0,0-0.1,0.1-0.1,0L14,9.8l-0.1,0c0,0,0,0.2,0,0.2s-0.1,0.2-0.1,0.2
	c0,0,0,0.1,0,0.1c0,0-0.1,0.2-0.1,0.2l0.4,0v0.2l-0.1,0c-0.1,0-0.2,0-0.1,0.1c0,0,0,0.1,0,0.1c0.1,0,0.2,0.2,0.2,0.2h0.1l0,0.3l0,0
	l0,0.5h0.5v0.5h-0.5l0,0.3h-0.5c0,0,0.3,0.4,0.3,0.5c0,0,0.2,0,0.3,0.1H15c0,0,0.1,0.2,0.1,0.2c0,0.1,0.1,0.1,0.1,0.1
	s0.1-0.2,0.4-0.1c0,0,0.1,0.1,0.1,0.2h0.2l0.2,0.1v-0.5l0.3,0l0-0.1h0.1l0,0.1l1.3,0l0.2-0.6l0.6-0.5v-1.3H18z"/>
<path id="District18" fill="none" stroke="#111111" stroke-width="1.607234e-02" stroke-miterlimit="10" d="M17.7,12.5l0.6-0.5v-1.3
	h1.1c0,0,0.4,1.1,0.4,1.1c0,0,0,0,0,0.1c0,0.1,0.3,0.7,0.3,1.1l-0.2,0c0,0,0-0.1-0.1-0.1c-0.1,0-0.1,0-0.1,0.1
	c0,0.1,0.2,0.2,0.1,0.2c-0.1,0-0.2,0-0.2,0c0,0.1-0.1,0-0.1,0c0,0-0.1,0-0.1,0c0,0,0,0,0,0c0-0.1-0.1-0.1-0.1,0s0,0,0,0.1
	c0,0,0-0.1,0-0.1l-0.1,0l-0.5-0.6h-0.1v-0.1L17.7,12.5z"/>
<path id="District19" fill="none" stroke="#111111" stroke-width="1.607234e-02" stroke-miterlimit="10" d="M16,13.6v0.5h-0.3l0,0.3
	h-0.2l0,0.2h-0.1l0,0.4h0.2v0.1l-0.1,0.1l0.3,0.2l-0.1,0l-0.1,0.2c0.1,0.1,0,0.2,0,0.2l0,0l0,0.3c-0.2,0-0.2,0-0.3-0.1
	s-0.1-0.2-0.1-0.3c-0.1-0.1-0.1-0.2-0.1-0.2c-0.2-0.2-0.2-0.5-0.2-0.7c0-0.1,0-0.2-0.2-0.4c-0.2-0.2-0.2-0.1-0.3,0
	c-0.1,0.1-0.2-0.1-0.3-0.2s-0.2-0.1-0.2-0.2s-0.1-0.2-0.1-0.3s-0.1-0.2-0.1-0.2c0-0.1,0-0.3,0-0.3s0.2,0,0.3,0.1H15
	c0,0,0.1,0.2,0.1,0.2c0,0.1,0.1,0.1,0.1,0.1s0.1-0.2,0.4-0.1c0,0,0.1,0.1,0.1,0.2h0.2L16,13.6L16,13.6z"/>
<path id="District20_1_" fill="none" stroke="#111111" stroke-width="1.607234e-02" stroke-miterlimit="10" d="M17.6,13.1l-0.6,0
	c0,0,0.1,0.1,0.1,0.1v0.2h0.1l0,0.1h-0.1l0,0.5l-0.4,0v0.5l1,0l0,0.2l0.4,0.1h0.7l0.2,0l0.2-0.2l0,0.1c0,0,0,0,0.1,0
	c0,0,0.2,0.1,0.2,0.1c0,0,0.1,0,0.1,0c0,0,0.1-0.1,0.1-0.1s0,0,0,0c0,0,0-0.1,0-0.2c0,0,0.1-0.1,0.1-0.1c0-0.1,0-0.1,0-0.1
	s-0.1,0.1-0.1,0.1c0,0-0.3,0-0.3,0s0-0.1,0-0.2s0-0.1,0.1-0.1s0-0.1,0-0.1c0-0.1,0.1-0.1,0.1-0.3c0-0.2-0.2-0.4-0.3-0.4
	c-0.1,0-0.1-0.2-0.1-0.2s0.6,0,0.7,0c0,0,0.1,0,0.1,0s0,0,0,0c0,0,0-0.1,0.1-0.1c0,0,0-0.2,0-0.2s0-0.1-0.1-0.1
	c-0.1,0-0.1,0-0.1,0.1c0,0.1,0.2,0.2,0.1,0.2c-0.1,0-0.2,0-0.2,0c0,0.1-0.1,0-0.1,0c0,0-0.1,0-0.1,0c0,0,0,0,0,0
	c0-0.1-0.1-0.1-0.1,0s0,0,0,0.1c0,0,0-0.1,0-0.1l-0.1,0l-0.5-0.6h-0.1v-0.1l-0.8,0L17.6,13.1z"/>
<path id="District21_1_" fill="none" stroke="#111111" stroke-width="1.607234e-02" stroke-miterlimit="10" d="M19.8,13.5l0,0.3l0,0
	v0.1l0,0l0,0.1h-0.1l0,0l0.1,0l0,0.1l-0.1,0c0,0,0,0.1,0,0.2c0,0,0.2,0.1,0.2,0.1c0,0-0.1,0.1-0.1,0.1c0,0-0.1,0.1-0.1,0.1
	c0,0-0.3,0-0.3,0s0-0.1,0-0.2s0-0.1,0.1-0.1s0-0.1,0-0.1c0-0.1,0.1-0.1,0.1-0.3c0-0.2-0.2-0.4-0.3-0.4c-0.1,0-0.1-0.2-0.1-0.2
	S19.7,13.4,19.8,13.5c0-0.1,0.1-0.1,0.1-0.1L19.8,13.5z"/>
<path id="District22" fill="none" stroke="#111111" stroke-width="1.607234e-02" stroke-miterlimit="10" d="M19.7,14.5
	c0,0,0.1,0,0,0.1c0,0.1-0.1,0.1-0.1,0.1c0,0,0,0.2,0,0.2c0,0,0,0,0,0s0,0.1-0.1,0.1c0,0-0.1,0.1-0.1,0c0,0-0.2-0.1-0.2-0.1
	c0,0-0.1,0-0.1,0l0-0.1l0,0.1V15l0.4,0.1h0.1l0,0h0.2c0,0,0.1-0.4,0.1-0.5c0-0.1,0.1-0.8,0.1-0.9c0-0.1,0-0.7,0-0.7l-0.2,0
	c0,0.2,0,0.1,0,0.2s0,0.1,0,0.1l-0.1,0.1l0,0.3l0,0v0.1l0,0l0,0.1h-0.1l0,0l0.1,0l0,0.1l-0.1,0c0,0,0,0.1,0,0.2c0,0,0.2,0.1,0.2,0.1
	S19.8,14.5,19.7,14.5z"/>
<path id="District23_3_" fill="none" stroke="#111111" stroke-width="1.607234e-02" stroke-miterlimit="10" d="M19.9,15.2
	c0,0.1,0,0.2,0,0.2c0,0,0,0.2,0,0.2c0,0.1,0,0.3,0,0.4c0,0.1-0.1,0.1-0.1,0.1L19.6,16c0,0,0-0.2,0-0.2c0-0.1,0.1-0.1,0.1-0.1
	c0,0,0-0.2,0-0.2l-0.1,0l0-0.1h-0.1v0l-0.2,0v0.1h-0.1l0,0h-0.1v-0.1h-0.2v-0.3h0l0.2,0l0.1-0.1V15l0.4,0.1h0.1l0,0h0.2
	C19.9,15.1,19.9,15.2,19.9,15.2z"/>
<path id="District24" fill="none" stroke="#111111" stroke-width="1.607234e-02" stroke-miterlimit="10" d="M19.6,16
	c0,0-0.1-0.1-0.2-0.1s0-0.1,0-0.1c0,0-0.1-0.1-0.1-0.1c0,0,0-0.1,0-0.1c0,0,0,0,0-0.1c0-0.1-0.1,0-0.1,0l-0.1,0c0,0,0-0.1,0-0.1h0.1
	v-0.1l0.2,0v0h0.1l0,0.1l0.1,0c0,0,0,0.1,0,0.2c0,0-0.1,0.1-0.1,0.1C19.6,15.9,19.6,16,19.6,16C19.6,16,19.6,16,19.6,16z"/>
<path id="District25" fill="none" stroke="#111111" stroke-width="1.607234e-02" stroke-miterlimit="10" d="M19.4,15.8
	C19.4,15.8,19.4,15.8,19.4,15.8c0,0-0.1-0.1-0.1-0.1c0,0,0-0.1,0-0.1c0,0,0,0,0-0.1c0-0.1-0.1,0-0.1,0l-0.1,0c0,0,0-0.1,0-0.1l0,0
	h-0.1v-0.1h-0.2v-0.3h-0.7l-0.4-0.1l0-0.2l-1,0v-0.5l0.4,0l0-0.5h0.1l0-0.1h-0.1v-0.2c0,0-0.1,0-0.1-0.1l-0.7,0l0-0.1h-0.1l0,0.1
	l-0.3,0v0.5l0,0v0.5h-0.3l0,0.3h-0.2l0,0.2h-0.1l0,0.4h0.2v0.1l-0.1,0.1l0.3,0.2l-0.1,0l-0.1,0.2c0.1,0.1,0,0.2,0,0.2l0,0l0,0.3
	c0,0,0.1,0,0.1-0.1h1.9v0.1h1.4l0-0.1h0.1l0-0.1h0v-0.1L19.4,15.8z"/>
<path id="District26" fill="none" stroke="#111111" stroke-width="1.607234e-02" stroke-miterlimit="10" d="M19.2,16.3
	C19.2,16.3,19.2,16.3,19.2,16.3c-0.1,0.1,0,0.2,0,0.2l-0.4,0.4c0,0,0,0,0,0c0,0,0.1,0,0.1,0.1c0,0.1-0.1,0-0.1,0l0.2,0.4l0-0.1
	l0.3-0.1c0,0.1,0.3,0.1,0.3,0.1v0c-0.1,0.1-0.2,0-0.2,0l-0.1,0.1c0,0,0-0.1,0,0.1c0,0.2-0.2,0.2-0.2,0.2s0,0,0,0.1
	c0,0.2-0.2,0.2-0.2,0.3c0,0.1-0.1,0.1-0.1,0.2c0,0.1-0.2,0.1-0.2,0.2c0,0-0.2,0.1-0.2,0.2c0,0.1-0.2,0.2-0.3,0.2
	c-0.1,0-0.1,0.1-0.2,0.1s-0.2,0.1-0.3,0.1c0,0-0.2,0.1-0.2,0.1c0,0-0.1,0-0.2,0.1c0,0.1-0.2,0.1-0.3,0s-0.1,0-0.1,0c0,0-0.1,0-0.2,0
	s0,0.1-0.1,0.1s-0.2,0-0.2,0.1c-0.1,0-0.2,0-0.2,0.1c0,0-0.1,0-0.2,0c-0.1,0,0,0.1,0,0.2s-0.1,0.1-0.2,0.1s-0.2,0.1-0.4,0.1
	c-0.2,0-0.1-0.2-0.1-0.2h-0.1c0,0,0,0.1,0.1,0.1c0,0.1-0.1,0.1-0.2,0.1c-0.1,0-0.1,0-0.3,0s-0.1-0.2-0.1-0.2c-0.1,0-0.2-0.1-0.2-0.1
	s0,0-0.1,0s-0.3,0-0.3-0.1s0.1-0.3,0.3-0.3c0.1,0,0.2,0.1,0.3,0.1s0.4-0.1,0.4-0.1c0.1-0.1,0.3-0.1,0.3-0.1s0.3-0.2,0.3-0.2
	c0,0,0.1,0,0.2-0.1c0.1,0,0.2-0.1,0.3-0.1c0,0,0.1,0,0.2,0s0.1,0,0.1,0c0.1,0,0.1,0,0.1,0c0,0,0.1,0,0.2,0c0.1,0,0.1,0.1,0.2,0.1
	c0.1,0,0,0,0.1,0.1c0,0.1,0,0,0.1,0c0.1,0,0.1,0.1,0.1,0.1c0,0,0.1-0.1,0.2-0.1c0.1,0,0.1,0,0.1-0.1c0,0,0.1,0,0.2-0.1
	c0,0,0,0-0.1,0c-0.1,0-0.2-0.1-0.2-0.1s-0.1-0.1-0.1-0.1c0,0-0.1,0-0.1-0.1c0-0.1-0.1-0.3-0.1-0.3c0,0-0.1-0.1-0.1-0.1
	c-0.1,0-0.1-0.1-0.1-0.2s-0.1-0.1-0.1-0.2c0-0.1,0.1-0.3,0.1-0.4c0-0.1,0-0.2-0.1-0.2c0,0-0.1-0.2-0.1-0.2s-0.1-0.2-0.1-0.3
	c0-0.1-0.1-0.1-0.1-0.1s-0.2-0.2-0.2-0.2s0-0.1-0.1-0.1c-0.1,0-0.1-0.1-0.2-0.1c0,0-0.1-0.1-0.1-0.1h1.9v0.1h1.4L19.2,16.3z"/>
<path id="District27_2_" fill="none" stroke="#111111" stroke-width="1.607234e-02" stroke-miterlimit="10" d="M19.6,16
	C19.6,16,19.6,16,19.6,16c-0.1,0-0.2-0.1-0.2-0.1s0-0.1,0-0.1l-0.1,0v0.1h0l0,0.1h-0.1l0,0.3c0,0,0,0,0,0.1c0,0.1,0,0.1,0,0.1
	l-0.4,0.4c0,0,0,0,0,0c0,0,0.1,0,0.1,0.1c0,0.1-0.1,0-0.1,0l0.2,0.4l0-0.1l0.3-0.1c0,0.1,0.3,0.1,0.3,0.1s0.1-0.1,0.1-0.2
	c0-0.1-0.1-0.1-0.1-0.1s0.1-0.1,0.1-0.2s0-0.1,0-0.1s0.2,0,0.2-0.1c0,0,0-0.2-0.1-0.2l-0.1,0c0,0,0-0.1,0-0.2l0,0L19.6,16z"/>
</svg>
