<?xml version="1.0" encoding="utf-8"?>
<!-- Generator: Adobe Illustrator 18.0.0, SVG Export Plug-In . SVG Version: 6.00 Build 0)  -->
<!DOCTYPE svg PUBLIC "-//W3C//DTD SVG 1.1//EN" "http://www.w3.org/Graphics/SVG/1.1/DTD/svg11.dtd">
<svg version="1.1" id="Layer_1" xmlns="http://www.w3.org/2000/svg" xmlns:xlink="http://www.w3.org/1999/xlink" x="0px" y="0px"
	 viewBox="0 0 397.7 381.8" enable-background="new 0 0 397.7 381.8" xml:space="preserve">
<path id="Florida-Base_2_" fill="#FFFFFF" d="M293.3,271.6c-0.4,0.6-0.5,0.9-1.2,1.6c-0.7,0.7-1.2,0-2.1,0c-1,0-2.5-1.4-3.4-2
	c-1-0.6-1.2-1-1.7-1.8s-2.3-5.2-2.6-6.5c0,0,2.7,4.1,3,4.9c0.3,0.8,0.7,1.2,1.4,2.1c0.6,0.9,1.1,1.1,2.1,1.4c1,0.3,1.6,0.2,2.4-0.1
	C292.1,271.1,293.7,271.1,293.3,271.6z M289.1,261.1c0.6-0.1,0-0.7-0.1-1.7c-0.1-1-0.3-2.6-1-2.6c-0.6,0-1.1,0-1.7,0
	c-0.6,0-1.3,0.3-1,0.7c1.2,1.2,1.2,1.8,1.8,2.5c0.6,0.6,0.9,1.4,0.9,2.9s0.3,2.3,0.9,3c0.6,0.7,0.4,2.3,1.1,2.8
	c0.7,0.5,1.2,0.6,1.1,0c-0.1-0.6-0.6-0.8-0.6-2.1c-0.1-1.3-0.1-1.4-0.5-2.3c-0.4-1,0.1-0.1,0.5-1c0.4-0.9,1.7-1.7,0.6-2.2
	c-1-0.5-1.7-0.9-1.5-0.1c0.2,0.8,0.3,1.4,0,1.8C289.3,263.2,288.6,261.2,289.1,261.1z M282.1,258.6c-0.2-1.1-0.3-1.6-0.6-2.2
	c-0.3-0.6-0.8-3.3-0.8-3.3c0,2.1-0.4,2.6,0,3.2c0.4,0.6,0.6,3.3,1.4,4.1C282.9,261.3,282.3,259.7,282.1,258.6z M310.6,302.5
	c0.9-0.1-2.4,1.6,0.6,4.3c0.6,0.5,1.4-3.7,1-4.8c-0.4-1.1-1.3-0.8-2.1-1.4c-0.8-0.6-1.7-1.6-1.7-1.6c-0.6,1-0.6,1.7,0,2.8
	c0.6,1.1,0.6,1.4,1,1.4S309.8,302.6,310.6,302.5z M309.7,379.9c-0.6,0.7,0.2,1.5,1.5,0.8c1.3-0.7,1.5-1.9,1.5-1.9
	C311.9,378.9,310.3,379.1,309.7,379.9z M307.3,380.3c-0.3-0.2-1.1,0-1.1,0c-1.1,0.5-2.5,0.2-1.5,1c1,0.8,0.4,0.9,1.5,0.4
	C307.3,381.1,307.7,380.4,307.3,380.3z M153.7,74.3c-0.8,0.2-4.9,4.5-4.9,4.5s-3.6,1.6-4.8,1.9c-1.2,0.3-4.6,3.2-5.6,3.5
	c-1,0.3-2.4,0.9-3.1,0.4c-0.7-0.5-2.3-1-2.3-1c0.7,0.6,1.9,1.9,1.9,1.9s2.8,0,3.8-0.6s4.3-3.3,5.5-3.7c1.2-0.4,2.9-1.1,3.7-1.3
	c0.7-0.2,5.6-4.5,5.6-4.9C153.8,74.6,154.5,74.1,153.7,74.3z M158.7,72.1c-0.7,0.1-2.5,1.4-2.5,1.4c0.9-0.1,3.4-0.7,3.7-1.2
	c0.2-0.3,0-0.8-0.1-1.2C159.5,71.5,159.1,72,158.7,72.1z M159.8,70.7c-0.1,0.1-0.1,0.2-0.1,0.5C159.9,70.8,159.9,70.6,159.8,70.7z
	 M317.1,375.7c-0.7,0.7-2.3,0.7-2.3,1.1c0.1,0.4,0,1,1.1,0.7c1.1-0.3,1.3-0.7,2-0.9C318.5,376.5,317.1,375.7,317.1,375.7z
	 M132.7,81.2c-0.9-0.3-1.6-0.9-1-1.2c0.6-0.3-0.7-0.9-1-0.6c-0.2,0.3,0.2,0.8-0.7,0.7c-1-0.1-0.8-1.1-1.9-0.7
	c-1.1,0.4-3.7,0.6-3.7,0.6c1.4,0.1,4.3,1.4,5.5,2.3c1.2,0.9,1.8,0.9,2.5,0.4C133,82.3,133.6,81.6,132.7,81.2z M377.1,183.6
	c0.5,0-1.4-2.3-1.4-2.3C376.6,183,376.6,183.6,377.1,183.6z M330.9,62.7c0,0.1,0,0.1,0,0.2C331,62.9,331,62.9,330.9,62.7z
	 M389.5,330c-1,0.9-1,0.5-1.2,1.3c-0.2,0.9-1,0.6-1.3,1.2c-0.3,0.6-0.3,1.4-0.5,1.8c-0.2,0.4,0,0.7-0.6,1.1
	c-0.6,0.4-0.6,0.7-0.6,1.1c0,0.4-0.4-0.6-1,0.5c-0.6,1.1-1.5,0.9-2.2,1.4c-0.7,0.5-1.8,0.4-1.9,0.7c-0.1,0.4,1.4,2.3,1.3,2.7
	c-0.1,0.5-0.3,0.7-0.6,1.5c-0.2,0.8-0.8,1.3-1.2,1.3c-0.4,0,0.3,0.4,0,0.7c-0.3,0.3-1.8,1.8-1.8,1.8l-5.3,6.6c0,0-2.5,2.7-2.6,3.2
	c-0.2,0.5,0.2,1-0.7,1.1c-1,0.2-1.5,0-1.8,0.4c-0.3,0.4-2.3,2.7-2.3,2.7l3-2.4c0,0,1.8,0.1,2-0.3c0.2-0.4,2.5-3.5,2.5-3.5l5.6-6.7
	c0,0,2.9-3.1,2.9-3.6s1.4-3.3,1.4-3.3s2.2-2,1.9-2.5c-0.3-0.4,0.2-1.4,0.2-1.4s1.8-2.2,1.8-2.1c0,0.1,0.6-1.4,0.7-1.9
	c0.1-0.5,0.9-1.7,1.3-1.6c0.4,0,0.6-1.3,0.6-1.3l1-1.1l-1-2.2C389.4,328.6,390.5,329,389.5,330z M397.5,264.8
	c-0.8,11.3-2.1,14.6-2.1,15.3c0,0.6-1,8.9-1.3,10c-0.3,1.1-0.2,7-0.2,8.1c0,1.1-0.5,7-0.3,8.1c0.2,1.1-1.9,9.1-1.9,10.7
	s-0.5-1-1-0.6s-0.3-0.3,0.2-2.2c0.5-1.9-0.5-4.3,0.6-5.4c1.1-1.1,0.8-3.5,0.6-4c-0.2-0.5-2.1,2.5-2.1,3.5c0,1,0.5,4.1-0.3,4.6
	c-0.8,0.5-3.8,3.4-4.3,4.7c-0.5,1.2-1.6,2.5-2.1,3.9c-0.5,1.4-1.6,4-1.6,4.8c0,0.8,0.8,5.7,0.5,6.4c-0.3,0.6-0.3,3.5-1.1,4
	c-0.8,0.5-2.1,0.6-2.9,2.5c-0.8,1.9-2.2,4.5-4.1,4.5c-1.9,0-4.1-1.3-5.6,0l-3.6,0.8c-0.9,0.1,0,1.8-0.3,2.4
	c-0.3,0.7-0.7-0.6-0.5-1.3s-2.2,1.1-2.5,1.4c-0.4,0.3-2.4-1.2-2.5-0.6c-0.1,0.7-2,0.1-2.7,0.2c-0.7,0.1-1.7-0.8-2.8-1.2
	c-1.1-0.4-2.1,0.5-2.1,2.1c0,1.6-0.8,0.5-1.6,0.4c-0.7-0.1-2.7,0-2.7,0.7c0,0.7-4.7,0.3-5.3,0.5c-0.7,0.2-1.6-2.6-2.4-2.7
	c-0.8-0.1-1.1-2.3-1.9-2.9c-0.7-0.6,1-6.5,1.1-7.5c0.1-1,1.4,0.6,2,0.7c0.6,0.1,0.3-2.2,0.3-2.9c0-0.7-1.3,0.1-2.1,0.1
	c-0.7,0-0.2-2.2-0.6-2.4c-0.4-0.2-0.7-2.1-0.5-2.6s-0.5-1-1.1-0.4c-0.7,0.7-1.4-3.7-1.7-4.2c-0.3-0.5-1.8-1.9-1-1.7
	c0.7,0.2-1.8-4.5-1.9-5.1c-0.1-0.7-2.5-2.9-3.6-3.2c-1-0.3-0.1-2.4-1-2.6c-0.9-0.2-0.5-0.9,0.7-1.1c1.1-0.2-0.5-2.5-1.1-3.1
	c-3.4-2.9-4.2-1.5-5.1-2.2c-5.5-4.1-8.7-2.5-9.2-3.7c-0.8-1.7-3.1-3.5-3.3-3.7c-0.5-0.6-2.7-0.7-3-1.5c-0.3-0.8-3-7.9-2.7-9.5
	c0.3-1.6-0.6-4-0.3-5.3c0.3-1.3-1.8-9.1-2.3-9.9c-0.5-0.8-0.4-1.5-2.8-1.5s-3.9-0.1-5-0.9c-1.1-0.8,1.2-1.2,2.1-1.6
	c1-0.5,1.3-0.6,1.9-1.3c0.6-0.6,0.8-1.9,1.4-1.9c0.6,0,1.8-2.4,1.8-3.2c0-0.8,3.2-3.7,4.1-3.7c1,0-0.5-1.8-1.3-1.1
	c-0.8,0.6-4.6,3.7-4.6,4.5c0,0.8-1.1,1.3-1,2.9c0.2,1.5-2.7,3.3-4.5,2.9c-1.8-0.5-2.4-1-1.6-2.4c0.8-1.4-0.2-3.5-0.6-5.1
	c-0.5-1.6,0-6.7,0.8-8.3c0.8-1.6-1-2.4-0.2-3.5c0.8-1.1,0.8-1.3-0.6-1.8c-1.4-0.5-2.4-1.8-0.8-2.2c1.6-0.5,3-1.6,3.8-1.8
	c0.8-0.2,1.9-0.3,1.8-1.6c-0.2-1.3-1.1-5.4-0.3-6c0.8-0.6-1.8-0.8-1.6,0.2c0.2,1,0.2,4.9,0.2,4.9s-0.8,1-1.8,1.6
	c-1,0.6-0.8,1.9-2.1,1.4c-1.3-0.5-1.9-1.4-2.4-0.3c-0.5,1.1-1.1,1.3-1,1.8c0.2,0.5-1-0.6-1.8-2.2c-0.8-1.6-1.3,0-1,0.5
	c0.3,0.5-1.6-0.2-2.1-1.4c-0.4-1.2-3.2-3.9-4.1-5.3c0.8,1.4,3.2,5.9,3.6,6.4c0.6,0.6,3,1,3.2,2.1c0.2,1.1,1.6,5.4,0.8,5.9
	c-0.8,0.5-3.3,1-4.8,0.3c-1.4-0.6-3.2-1.8-3.7-3.7c-0.5-1.9-2.7-5.6-3.7-6.5c-1-1-4-5.6-4.8-9.9c-0.8-4.3-1.6-3.8-2.5-4.6
	c-1-0.8-2.7-2.7-1.9-2.9c0.8-0.2-1.3-1.6-2.7-3.5c-1.4-1.9-3.2-3.8-4.2-5.4c-1-1.6-0.9-2.8-1.5-4.1c-0.6-1.3-1.3-2.5-0.3-2.1
	c1,0.5,1.8,3,1.8,4.1c0,2,8.2,10.9,8.3,10.3c1-6-8.3-8.7-6.9-12.3c0.5-1.2,1.6-2.5,2.5-1.4c1,1.1,0.5-0.3,1.8-1.1
	c1.3-0.8,0-2.4,1.4-4.6c1.4-2.2,3.5-3.8,5.4-5.1s2.9-2.2,3-3.8c0.2-1.6,2.1-3.3,0.5-5.4c-1.6-2.1-1.6-3.3-2.2-2.5
	c-0.6,0.8-1.1-1.9-1.8-0.3c-0.6,1.6-1.6,3.2-0.2,4.3c1.4,1.1,1.8-2.4,2.2-1.6c0.5,0.8,1.4,2.9,0.3,3.3c-1.1,0.5-1.9-0.6-3.3-0.5
	c-1.2,0.1-2,0.3-2.3,0.6c0.2-0.7,0.5-2.7,0.2-4.1c-0.3-1.9,1.8-0.9-1-3.2c-2.8-2.3-7-7.2-7.4-5.1c-0.2,0.8,1,2.1,1,2.1
	s-2.7,2.5-2.4,3c0.3,0.5,0.5,1.6,1.6,1.8c1.1,0.2,3,1.1,3.5,2.2s1.6,3,0.8,4.1c-0.8,1.1-1.6,3.3-1.3,4.5c0.3,1.1-0.3,2.2-2.4,1.6
	c-2.1-0.6-2.1-0.6-2.1-0.6s0,1.7-0.6,1.9c-1.3,0.5-1-0.9-1.1-2.9c-0.2-3.2-2.9-3.5-3.5-4.1c-0.6-0.6-2.5-4.6-1.4-6.2
	c1.1-1.6,4-9.2,3.5-11c-0.5-1.8-1.3-4-1-5.1c0.3-1.1,1.1-1.8,2.1-2.7c1-1,1.9-5.6,2.1-7c0.2-1.4,0.5-1.9,1.3-2.5
	c0.8-0.6,0.8-5.3,1.6-6.7c0.8-1.4-1-1.8,0.1-3.6c0.9-1.4,0-2.8,0.5-4c0.5-1.1-0.1-1.1,0.2-4.4c0.2-2.3-1.8-3.9-1.8-5.3
	s-2-2.3-2.5-3.9c-0.4-1.5,6.9-1.3,6.1-2.8c-0.8-1.4-2.2-1.1-3-1.4c-0.8-0.3-1.8-0.1-2.6-1.8c-0.8-1.8-1.6-1.9-1.9-3.6
	c-0.3-1.8,0.5-2.9-0.7-3.4c-1.1-0.5-3.1-2.2-2.4-3.3c0.6-1.1,1.5-4.4,0.5-3.5c-1,1-1.6,2.2-3.2,1.3c-1.6-1-2.9-1.6-4.9-1.4
	c-1.9,0.2-2.1-1.6-2.6-0.5c-0.5,1.1-2.1,0.8-2.7,0.8c-0.6,0-0.6-0.6,0.1-1.9c0.6-1.3-0.3-3.2-1.8-3.3c-2.6-0.3-2.8-2.8-3.6-2.2
	c-0.8,0.6-0.3-2.9-1-4.6c-0.6-1.8-4.2-4.4-5-4.1c-0.8,0.3-2.1-0.2-2.3-1.1c-0.2-1-2-2.2-3-3.2c-1-1-1.4-1.4-1-3.7
	c0.5-2.2-0.8-4.3,0-5.3c0.8-1-1.8-1.4-2.4-1.1c-0.6,0.3-1.9-0.9-2.4-1.4c-0.5-0.5-1-0.7-1.8-1c-0.8-0.3-3.2-2.2-3.5-3.8
	c-0.3-1.6,0.5-2.9-0.5-3c-1-0.2-1.4-0.2-1.4-1.4s0.5-0.3-0.8-1c-1.3-0.6-4.4-3.4-4.8-4.5c-0.5-1.1-2.8-1.5-3.6-1.3
	c-0.8,0.2-2.5-2.2-3.7-2c-1.1,0.2,0-0.3-1.1-0.9c-1.1-0.6-2.1-0.1-2.1-1.2c0-1.1-1.9-2.3-3-1.9c-1.1,0.5-0.6-2.8-2.2-2.3
	c-1.6,0.5-6.9,2.9-7.9,2.4c-1-0.5,1.7-2.1,0.2-1.6c-1.4,0.5-1.3,1.5-1.8,0.8c-0.5-0.6-2.8-2.8-3-2.2c-0.2,0.6-1.1-0.2-1,0.8
	c0.2,1,0.6,1.8,0.5,2.5c-0.2,0.8-0.5-0.3-1.6-1c-1.1-0.6-1.8-1.1-2.1,0c-0.3,1.1,0.3-0.8-0.3,1.1c-0.6,1.9-2.5,0.3-1.9,1.8
	c0.6,1.4-1,1.6,0.3,2.2c1.3,0.6,2.4,0.6,2.4,1.1c0,0.5-0.3,0.6-1.1,0.3c-0.8-0.3-1.9-0.8-3-0.8c-1.1,0-1.1,0.6-1.3-0.8
	c-0.2-1.4-1.1-0.2-1.1-1.6c0-1.4-1.1-0.8-1,0c0.2,0.8-0.5,0.8-1,0c-0.5-0.8,0.5,0.8,0.5,0.8s0.2,0.3-1.1,0.5
	c-1.3,0.2-1.3,0.2-2.1-1.3c-0.8-1.4-1.3-1-2.1-1.9c-0.8-1-1.4-0.5-2.2-1.3c-0.8-0.8,0.6,1.8,0.6,1.8s1.3,1.1,1.9,1.4
	c0.6,0.3,2.2,2.1,2.2,2.1s-1.9-0.3-1.9,0.3c0,0.6-0.2,1.8-0.2,2.2c0,0.5-1.4,1.3-0.8,1.8c0.6,0.5,1.9-1,1.9-1s0-0.6,0-1.6
	c0-1-0.6-1.1,0.6-1c1.3,0.2,2.9,0.6,3,0c0.2-0.6,0.6-1.4,1.1-0.3c0.5,1.1,1.4,1.1,2.4,1.1c1,0,1.9-0.6,2.7,0.3c0.8,1,1.6,1,1.6,1.8
	c0,0.8,0,1.9,0,1.9s-0.6,0-1.9-0.5c-1.3-0.5-0.8-1-2.7-0.6s-1.8-0.2-3.8,0.2c-2.1,0.3-7.5,3.2-7.8,3.7c-0.3,0.5-4.8,2.9-5.4,3.8
	c-0.6,1-1,0.6-2.1,1c-1.1,0.3-4.9,1.4-4.9,2.4c0,1-1.4,0.5-1.3-0.5c0.2-1,0.3-1.1,1-1.8c0.6-0.6,0.2-0.3-0.3-0.8
	c-0.5-0.5-2.7,1.7-3,2.3c-0.3,0.6-1-1.9-1.9-1.9c-0.9,0,1.6,2.3,0.4,1.9c-2.1-0.8-4.2-0.9-5.1-1.9c-1-1.1-2.1-1.3-2.6-1.3
	c-0.5,0-1.3-1.7-2.1-2.1c-1.1-0.5-1.6,1.6-0.2,1.9c1.4,0.3-1.1,1.6,0.8,1.2c1.9-0.5,1.1,0.3,2.1,0.3c1,0,3.5,2.1,4.2,1.8
	c0.8-0.3,3.3,0.6,2.4,1.7c-1,1.1-4.2-0.6-5.2-0.3c-1,0.3-9.7,2.2-10.7,2.5c-1,0.3-2.4,1-2.4,1s-3.5-0.2-3.8-12.1
	c0,0,0.6-0.5,1.1-0.8c0.5-0.3,1-2.9-0.2-3.7c-1.1-0.8-2.1-1-3.5-1s-1.4,0.2-3.2-2.1c-1.8-2.2-2.7-2.1-3.2-3.2
	c-0.5-1.1-4.1-2.3-9.5-6c-5.4-3.7-10-6.7-13-7.6c-3-1-12.9-6.2-23.7-6.5s-15.9-1.4-28.3,2.1c-12.4,3.5-16.1,1.3-16.1,1.3L1.6,44.6
	c1.1-1.6,1-1.9,0-2.2c-1-0.3,0-3.5,0.4-2.7c0.4,0.8,0.2,2.9,1.5,2.4c1.3-0.5,2.7-1.8,2.7-1.8s-0.6-1.9,0-2.5c0.6-0.6,0,2.1,1,1.8
	c1-0.3,1-0.2,1.8-1.8c0.7-1.5,1.1-2.8,1.7-2.8c-0.5,0.2-1.3,2-1.3,3c0,1.1-1.4,2.5-2.2,2.1c-0.9-0.5-0.7,1-0.7,1
	c-4.9,2.1-3.4,2.9-3.4,2.9c8-1.9,6.6-1.8,6.8-2.6c0.2-0.8,0.6-0.9,1.2-1.3c0.6-0.4,0.8-1,0.3-1c-0.5,0-1,0.2-1.5-0.6
	c-0.4-0.8,0.8-1.1,1.1-1.8c0.3-0.6,1.4-0.6,1.9-1c0.5-0.5,2-0.2,2.7-0.7c0.7-0.5,0.1-0.8-0.6-0.6c-0.7,0.2-0.6-1.1-1.4-1.8
	s-2.1,0.5-2.9,0c-0.8-0.5-0.9-3.3-0.9-2.6c-0.1,4.5,2.1,3.3,2.7,3.9c0.4,0.3-0.1,0.8-0.7,1.1c0.3-0.2,0.5-0.6,0.2-1
	c-0.5-0.6-1.4-0.5-1.6-1c-0.2-0.5-2.2-2.7-1.4-4.1c0.8-1.4,3.6-5.4,3.2-6.4c-0.4-1-0.8-3-2.5-3.8c-1.8-0.8-4.3-2.5-4.9-4
	C4.1,13,2,11,1.1,9.9c-0.9-1.1-2.1-1.6,0-6C2,1.9,1.1,0,1.1,0h136.2c0,0-0.3,1.8,0.6,2.1c1,0.3,1.4,1.9,1.8,3s1.6,2.5,1.4,4.6
	c-0.2,2.1-1.2,4.6,0,5.3c1.3,0.6,0.8,1,2.5,1.6c1.8,0.6,138.8,10,138.8,10s-1.1,1.4,0,2.4c1.1,1,1.9,3,1.6,3.8
	c-0.3,0.8-0.8,3.8,0.1,4.6c0.9,0.8,1,1.3,1.8,1.3s3.5-0.5,4-0.2s2.4,0.3,2.5-1.8c0.2-2.1,0-4.9,1-7c1-2.1,1.6-3.7,0.6-5.6
	c-1-1.9-2.7-4-1.8-6.7c1-2.7,1.6-4.1,2.2-4.5c0.6-0.3,2.2-0.5,2.2-1.3s1.1-1.6,1.1-1.6l21.8,8.6c0,0,2.5,6.2,1.4,6.8
	c-1.1,0.6-2.4,0.5-2.4,1.3c0,0.8-1-4.8-1.9-5.6c-1-0.8,0.5,3.3,0.3,4.6c-0.2,1.3-1-0.8-1.6-1.4c-0.6-0.6-1.1,1.1-0.8,1.6
	c0.3,0.5-1.9-2.5-3.3-3.8c-1.4-1.3,2.4,3.5,1.6,3.7c-0.8,0.2-5.1-2.7-5.4-3.7c-0.3-1-0.8,1.1-2.1,0c-1.3-1.1,2.2,2.5,3.3,3
	c1.1,0.5,4.1,2.5,4.8,2.4c0.6-0.2,2.5-0.6,3.2,0.3c0.6,1-1.1,1.8,0.5,1.8s4.2,0,4.1,0.6c-0.1,0.6,1.9,0.3,1-1.1
	c-1-1.4,1.6,0.8,0.3,3.8c-1.4,3,0.1,0.2-1.2,0.2c-1.3,0-1.8,0.5-2.4,1.4c-0.6,1-2.1-0.3-2.7-1.1c-0.6-0.8,0,1.3-0.2,2.1
	c-0.2,0.8-1.3,0.3-2.1,0.8c-0.8,0.5-0.6,0.2-0.2,1.6c0.5,1.4-0.8,2.7-2.2,3.7c-1.4,1-1.8,2.7-0.5,4.1c1.3,1.4,0.8,1.4,0.2,2.5
	c-0.6,1,0.2,3.6-1,3.4c-1.1-0.2-4,0.8-3.7,1.6c0.3,0.8,3.2-1.1,3.7,0s1,3,0,3.7c-1,0.6-1-1.9-2.7-1.4c-1.8,0.5-1.6-1-3-0.2
	c-1.4,0.8,2.1,0,3.7,1.7c1.6,1.6,1.6,4.2,3.7,4.2s4.5,1,3.5,1.9c-1,1-3.2,0.3-2.4,1.4c0.8,1.1,2.7,8.8,3.8,8.9
	c1.1,0.2,1.3,1.9,0.5,3c-0.8,1.1-1,1.8-2.9,1.8s-3-1.7-3.5,0c-0.5,1.7,0.6,0.6,1.9,1.2c1.3,0.6,1.1,0.8,0.5,1.1
	c-0.6,0.3,0.6,1.3,1.6,2.1c1,0.8,1.8,2.4-0.3,2.1c-2.1-0.3-3.7-1-4.1,0c-0.5,1.1-2.2,1.7-1.1,2.7c1.1,1,2.9,3,0.8,3.3
	c-2.1,0.3-2.5,0.8-2.7,1.3c-0.2,0.5,1.1-0.3,1.9,0.8c0.8,1.1,3,1.3,3.2,2.5c0.2,1.3-2.5,0.2-2.1,1.3c0.5,1.1,1.9,1.6,1.4,2.4
	c-0.5,0.8-1,1.4-1,1.4s-2.9-0.8-2.1,0c0.8,0.8,3.5,2.2,3.5,2.2s1.9,2.1,1.8,3.3c-0.2,1.3-1.1,3,0.5,3.2c1.6,0.2,1.6,1,2.7,1
	c1.1,0,1.6-0.3,2.1,1s0,2.4,0.5,3.3c0.5,1,4.6,3.7,5.7,4.5c1.1,0.8,3.5,2.5,2.4,3c-1.1,0.5-2.1,1.6-1.6,5.6c0.2,1.3,0.7,2.9,1.9,2.9
	s-0.2-1.3,0-3.2c0.2-1.9,1.3-5.7,1.3-5.7s-1.4-2.5-2.4-3c-1-0.5,0.3-1,0.5-1.9c0.2-1,1.4-4.8-0.6-4.6c-2.1,0.2-3.7,0.3-4.6,1.1
	c-1,0.8-3.3-3.7-3.5-4.3c-0.2-0.6,1.6-2.1,1.6-2.9c0-0.8-1.1-0.2-1.6-1c-0.5-0.8,1.9-2.4,1.9-2.4l-2.7-1.6c0,0-2.5-4-3.8-3.2
	c-1.3,0.8-2.5-0.3-1.4-1c1.1-0.6,0.2-3.7-0.5-4c-0.6-0.3-0.5-4.9-1.1-5.3c-0.6-0.3-1-1.9,1-1.8s3.2,0,4.1,1.1c1,1.1,1.4,1.6,1.3,2.9
	c-0.2,1.3,0.3,2.2,1.3,2.4c1,0.2,2.1,1.3,2.1,2.5s0.8,4,2.7,3.8c1.9-0.2,3.7,0,2.9-1.6c-0.8-1.6-1.4-2.7-2.5-2.7
	c-1.1,0-1.8-0.8-1.8-1.6s-1.4-2.5-2.2-3.3c-0.8-0.8-1.6-1.4-2.1-2.5c-0.5-1.1-0.6-1.8-1.1-1.6c-0.5,0.2,0.8-2.2,0-2.9
	c-0.8-0.6-3.8-2.4-2.1-2.7c1.8-0.3,2.5-2,3.3-1.4c0.8,0.6,0.8-4.2,1.4-3.2c0.6,1,2.1,3.1,2.5,3.2c0.5,0.1-1.9-3.2-1.8-3.9
	c0.2-0.6-1-1.9-1.6-1.9c-0.6,0-0.8-4.5-0.2-4.5c0.6,0-3-1.9-2.2-2.9c0.8-1,1.3-3.5,2.2-2.2c1,1.3,1.4,1.6,1.4,2.2
	c0,0.6,0.6-2.5-1.4-3.5c-2.1-1-6.2-2.1-6.2-3.5s0.5-3.5,1.4-3.3c1,0.2-1.8-3.3,0.6-2.9c2.4,0.5,4.1,1.9,4.5,1.3
	c0.3-0.6-3.7-2.5-4.8-2.4c-1.1,0.2-3.8,2.3-2.2-0.2c1.6-2.5,2.4-2.5,2.9-2.5c0.5,0-0.2-2-0.8-2.8c-0.6-0.8-2.4-1.9-1.6-2.7
	c0.8-0.8,1.6-2.2,2.9-1.8c1.3,0.5,0.6-0.6,0.2-1.9s-0.5-1.8,1-1.6c1.4,0.2,2.2-2.2,3.7-1.6c1.4,0.6,2.9,1,3.2,2.4
	c0.3,1.4,0.6,3,1,4.3c0.3,1.3,0.5,2.5-0.5,3.3c-1,0.8-1.6,4.3-0.2,2.3c0,0,1.4-3.1,1.6-2.5c0.1,0.5,0.8,1.4,0.9,2.1
	c0.1-1,0.2-3.1-0.1-3.8c-0.5-1-1.8-5.4-1.8-7c0-1.6,0.8-5.9,0.8-5.9s1,1.6,1,4.6c0,2.9,4.3,24.8,4.9,26.9c-0.5-1.2-3.1-7.5-3.1-9.1
	c0,0-1.8,5.8,2.2,10.7c0.8,1,0.7,6.2,1,7c0.3,0.8,3,5.7,3,7c0,1.4,0.8,5.4,1.6,6.3c0,0,0.8-3.5,0-5.6c-0.8-2.1-0.8-2.1-0.8-2.1
	s-3.2-6.5-3-7.8c0.2-1.3,0-4,0-4s2.1,5.4,2.2,6.8c0.2,1.4,10.2,28.6,10.2,28.6s5.1,11.5,6.5,14.5c1.4,3,21,33.9,21.2,34.9
	c0.2,1,1,3.2,0,3.8c-1,0.6-2.1-1.6-2.9,3.7c-0.8,5.3-0.5,9.1,0.5,13.7c1,4.6,9.1,22.8,9.5,23.7s8.8,25.2,8.8,25.2s8.9,21.6,9.1,23.6
	C397,245.9,398.3,253.5,397.5,264.8z M83,34.6c-1.1,0.2-2.5-0.2-3.6-0.2c-1.1,0.1-3.7-0.5-3.1-1.1c0.6-0.6,1.9-1.7,1.6-2.3
	c-0.3-0.6-2.3,2.7-3.1,2.2c-0.8-0.5-1-1-0.5-2.1c0.6-1.1-0.7,1.1-1.8,0.9c-0.6-0.1-0.9-0.2-0.9-0.5c0.8-0.6,0.7-1.8,0.3-1
	c-0.2,0.5-0.3,0.8-0.3,1c-0.3,0.2-0.7,0.3-1.2,0.2c-2.1-0.3-3.9-0.2-4.5,0.6c-0.6,0.7-0.7,1.6-2,0.9c-1.3-0.7-3.5-1.4-2.1-2.3
	c1.4-0.9,1.2-1.9,1.8-1.4c0.6,0.5-0.2-0.7-1.5,0C61,30.3,61,31.4,60.4,31c-0.2-0.1-0.4-0.4-0.5-0.7c-0.2-0.6-0.4-1.2-0.4-1.2
	s0.1,0.6,0.4,1.2c0.2,0.6,0.2,1.3,0,1.7c-0.5,0.7-0.2,1-1.4,1.1c-1.3,0.2-1,1.4-2.5,0.9c-1.5-0.6-2.2,0.8-1.9-0.7
	c0.3-1.5,0.7-1.8,0.7-1.8s-2.5,2.1-1.7,2.9c0.8,0.8,0.4,1-0.4,1.1C52,35.5,41.3,35.6,39.6,36c-1.8,0.4-8.9,0.9-12.8,2.2
	c-3.9,1.4-5.3,0.8-4.4,0.2c0.9-0.6,1.8,0.2,2.7-0.5c1-0.6,2.3-1.8,3.3-1.8s2.9,0,3.7-0.4c0.8-0.4,1.1-1.3,2.2-1.4
	c1.1-0.1,3.3-0.3,4.2-0.3c1,0,1.4,0,2,0.1c0.6,0.1-5.8-1.7-6.6-2.5c-0.8-0.9-1-1.2-1.6-1.5c-0.6-0.3-1.1-0.1,0.1-1
	c1.2-1,1.2-2.2,2.1-2.2c0.9,0,1.4,0.2,1.8-0.2c0.4-0.4,0.4-1.3,0.2-1.6c-0.2-0.3-1.2,0.8-1.2,0.8s-1.5,0.3-2.1,0.6
	c0.3-0.4,0.6-1.1,0.1-1.5c-0.8-0.6-1.4-0.7-1.7-1.8c-0.3-1-0.9-1,0.2-1.4c1.1-0.3,2.9-1.8,2.9-2.4s-0.7,1.2-2.6,1.5
	s-1.6,2.5-0.6,3.5c1,1,0.9,2,0.2,2.2c-0.6,0.2-1.4,0.2-1.4,1c0.1,0.7-0.5,1.5-0.6,2.7c-0.1,1.2-0.7,1.3-1,1.8
	c-0.3,0.6-0.7,1.7-1.1,0.8c-0.4-0.9-0.2-1.3-0.2-2.1c0-0.8-0.2-1.8-0.1-2.5c0.2-0.7-0.6-0.2-1.5-1.4c-0.9-1.1,0.3-1-1.2-1.7
	s-0.7-0.6-2.1-1c-1.4-0.4-1.7-0.2-2.5-1.4s-2-3.5-2-3.5c0,1.8,2.3,6.2,3.8,7.2c1.5,1,3.8,2.9,3.5,4.2c-0.3,1.3-0.6,2.7-1.7,3.5
	c-1.1,0.8-1.8,0.4-2.5,1.1c-0.7,0.7-1.4,0.4-1.9,1c-0.6,0.6-3,0.7-3.5,1.2c-0.6,0.5,2.9-1,3.1,0c0.2,1-0.8,2-1.7,1.9
	c-0.9-0.1-4.3,0.8-4.7,1.1c-0.4,0.3-0.9,0.7-0.9,0.7s4.2-1.3,5.4-0.9c1.2,0.4,8.1-0.3,10-1c1.9-0.7,15-3.3,17.9-3.5
	c2.9-0.2,5.6-0.1,6,0.2c0.4,0.2,7.3-0.1,7.3-0.1s4.1-1.2,4.7-0.9c0.6,0.3,3.6,1.9,4.4,1.8c0.8-0.2-0.6-3.3,0.9-2.3
	c1.4,1,3.7,2.2,4.1,1.9c0.4-0.4-1.1-2.7,0-2.3c1.1,0.5,1.8,1.8,2.9,2.3c0.9,0.3,2.5,0.2,3.3,0.5c0.2,0.5,0.8,1,0.6,0.4
	c-0.1-0.2-0.3-0.4-0.6-0.4c-0.1-0.4-0.1-0.8,0.6-0.8c1.6-0.2,2.6,0.2,3.4,0.8C83.5,37.7,84.1,34.5,83,34.6z M117.1,57.1
	c-0.1-1-1.2,0.2-2.2-0.2c-1-0.5,0.3-1,0.9-1.5c0.6-0.6-0.3-2.2-0.1-1.4c0.2,0.8,0,0.9-1.1,1.5c-1.1,0.6-0.4,2.9-1,3
	c-0.6,0.2-0.8-0.2-1.7-1c-0.9-0.7,0.2-1.9,0-2.9c-0.2-1-0.9-0.1-1.8,0c-1,0.1,1.8-2.6,1.8-2.6s-0.8,0.4-1.7,1
	c-0.9,0.6-0.6,0.3-1.4-0.3c-0.7-0.6-0.8,0.1-1.7,0.6c-0.9,0.6-1-0.2-1-1c0-0.8-0.6-0.2-1.3-0.5c-0.6-0.3-0.6,0.3-1.1,0.7
	c-0.6,0.4-1.3-0.1-1.5-0.5c-0.2-0.4-0.5-0.4-0.9-1.4c-0.4-1-2.4-1.2-2.4-1.2s0.8-0.6,1.3-1c0.5-0.5,1.1-1.3,1.7-2.3
	c0.6-1,0.6-0.2,1.3-0.7c0.7-0.5,1.6,0.2,1.5-0.3c-0.1-0.5,1.3,0.4,1.3,0.1c0-0.3,0.4-1,1-1.8c0.6-0.7,1.7,1,1.4,0.5
	c-0.2-0.5-1.4-1-1.5-2.2c0-0.7,0.5-1,1-1.1c0.8-0.1,0.8-0.1,0.8-0.1s-0.4,0-0.8,0.1c-0.2,0-0.4,0-0.6,0.1c-1.4,0.2-1.4,1.4-1.5,2.6
	c-0.2,1.3-0.7,0.8-1.4,0.7c-0.7-0.1-0.8-1.3-1.1-0.6c-0.3,0.6,0,0-0.7,1c-0.7,1-1.2,0.1-2.1,0.9c-1,0.8-0.7,1.1-0.7,0.6
	s-0.2-1.8-1.4-3.1c-1.1-1.3-1-2.6-1.1-1.8c-0.1,0.8,0.2,1.7-0.5,1.8c-0.6,0.2-1.8-1.5-1.5-1c0.3,0.5-0.1,1.1-1,1.4
	c-0.9,0.3-1.4,0.2-2.3,1.4c-0.9,1.3,1.5,2.3,2.3,2.8c0,0,0.2-1.2,0.6-1.4c0.5-0.2,1.2,0.1,1.9,0.1s0.4,0.5,0.6,1.3
	c0.2,0.8,1.3-0.2,0.7,1.2c-0.6,1.4,0.4,2.1,1.2,2.4c0.8,0.2,0.6,0.6,0.6,1.3s-2.9-1.3-2.9-1.3s1.3,1.1,1.8,1.8
	c0.5,0.7,4.1,1.8,3.5,1.6c-0.6-0.2-0.9-1.4-0.5-1.5c0.4-0.2,1,0.7,1.3,0.6c0.3-0.1,1.1-0.2,1.8,0.8c0.6,1,0.2,0.6,1.6,0.3
	s2.5,1.5,2.5,2.5c-0.1,1,0.5,0.2,1.4,0.4c0.9,0.2,1,1,1.6,2c0.6,1,1.2,0.5,2.1,0.5c1,0,0.5-0.3,0.7-1.2c0.2-0.8,0.4,0.2,0.8-0.5
	c0.4-0.7,1.5,0.5,1.5,0.5S117.2,58.1,117.1,57.1z M121.5,71.4c-0.6-0.6-0.9-0.7-1.4-1.3c-0.5-0.6-2.1-3.9-2.1-3.9
	c-0.1,1.3-1.2,1.9-1.4,3c-0.2,1.1-0.5,10.3,2.4,10.3c0.9,0,2,0,2,0s0-5.3,0.4-5.9C121.9,73,122.2,71.9,121.5,71.4z M347,109.6
	c0,0,2.6,5.9,3,6.4s4.5,10,4.9,11.4c0.4,1.4,3,5.6,3.5,6.1c0.5,0.5,3.2,4.2,3.6,5.2c0.4,1,1.8,1.8,3.4,2.2c0,0-2.2-4.1-2.4-4.3
	c-0.2-0.2-3.8-5.6-4.1-6.1C358.6,130,347,109.6,347,109.6z M345.8,140.6c0.4-0.1,1.1,1.2,1.1,0.6c0-0.6-0.2-0.8-0.3-1.1
	c-0.2-0.3-0.5-1.1-0.8-1.4C345.8,138.7,345.4,140.7,345.8,140.6z M342.7,135.6c0.3,0.7-0.2,1.2,0.6,1.4c0.8,0.2,1.5,0.7,1.7,0
	c0.2-0.7-0.6-1.5,0-2.1c0.6-0.6,0-1.2,0-1.2c-0.4,0.1-1.5-0.6-1.7,0C343.2,134.4,342.4,134.9,342.7,135.6z M334.8,136.5
	c-1.1,0.2-1,0.4-2.5,0.7c-1.5,0.3-0.6,0.6,0,0.8c0.6,0.2,0.9,0.6,2.2,0.7c1.4,0.2,1.2-0.4,2.2-0.9c1-0.5,0.7-1.1,1.3-1.8
	c0.6-0.6-0.6-4.2-1.3-5.6c0,0,0.5,4.4,0,5.1C336.3,136.3,335.9,136.2,334.8,136.5z M330.8,131.2c0.9,0.4,1,0.2,1.9,0.7
	c0.9,0.5,1.4,0.5,1.9,0.4s1-0.6,0.7-1.4c-0.3-0.9-0.6-1.8-1.1-1.8c-0.5,0-0.5,0-0.5,0c-1-0.2-2.1-1-2.5,0
	C330.7,130,329.9,130.8,330.8,131.2z M341.5,323.9c-0.2,0.3,2.7,1.4,3.6,1.7s-0.4-2.7-1.1-3c-0.7-0.3-3-1.6-3.9-1.6s0.3-1.6,0-1.6
	s-1.6-2.2-2.2-2.2c-0.7,0-0.1-1.6-0.7-1.6c-0.7,0,0-1.2,0-1.6c0-0.4-1.3-1.6-2.3-1.7c-1-0.1-2.2-2.1-2.8-2.2c0,0-0.2,0.6-0.7,0.7
	c-0.5,0.1,1.1,1.3,1.4,1.6s1.5,1.5,2.1,1s1.5,2.3,1.7,2.7c0.2,0.4,2.1,2.4,2.3,3.5c0.2,1-0.2,1.8,0,2.5c0.2,0.7-1.4,1.1-2,1.2
	c-0.6,0.1,1.6,0,2.7-0.4C340.5,322.7,341.7,323.6,341.5,323.9z M354.1,341.2c-0.7-1.1-0.5-1.9-2.1-1.9c-1.6,0-2.7-1.3-2.7-2
	c0-0.7,0.1-1.5-0.7-1.5c-0.7,0.1-2.2-0.6-2.2,0c-0.1,0.6-2.3-0.9-2.3-0.2s-1.9-1.5-1.9-0.6c0,0.9-0.1,2.3-0.1,2.3c-1,0.3-0.5,2,0,2
	c0.5,0,0.8,2.2,1.7,2.2s3.4,1.9,4.6,1.9c1.2,0,2.6,0.9,1.5,0.9c-1.1,0-3.8,1.1-2.9,1.1c0.9,0,2.5,1.2,2.5,0.5c0-0.7,2.8-1.2,2.4-1.7
	c-0.4-0.5-1.9-1.4-1.3-1.5s-0.1-1.7,1.3-1.6C353.4,341.2,354.8,342.3,354.1,341.2z M359.2,343.6c0-0.5-0.7-1.2-1.3-1
	c-0.6,0.2-0.8,0.9-0.8,0.9c-0.7-0.5-3.5-0.4-2.8,0c0.7,0.4,3.7,1.7,3.7,1.1S359.2,344,359.2,343.6z M393.3,236.2l-9.2-23.8
	l-7.7-21.2l-5.1-11.7c0,0-4.4-8.9-4.3-10c0.1-1.1,0-7.2,0-7.2l1.4-9.9l0.9-3.5c0,0-1-3.6-1.6-4c-0.6-0.4-0.6,1.8-0.7,2.5
	c-0.2,0.7-2.1,6.8-2.1,7.3c0,0.5,0.2,6.4,0.5,7.5c0.2,1-1.5-3.9-1.5-4.5c0-0.1,0-0.1,0,0c0,0,0,0,0,0c0,0.4,0,4.2,0.4,5.1
	c0.4,1,1,3.5,1.4,4.2c0.4,0.7-3.6-6.2-3.6-8.1c0-1.9,0.4-5.9,0-6.6c-0.4-0.7-1.2-1-0.6-2.1c0.6-1.1-0.2-3.3,1-4.1
	c1.1-0.7,1.8-1.5,2.3-1.3c0.6,0.2,1.4-0.1,1.5-0.5c0.2-0.4-3.7,1.1-4.2,0.7c-0.6-0.4,0.3-1-0.7-0.8c-1.1,0.2-1.6,0.2-2,0
	c-0.4-0.3-1.4-2.6-1-3.4c0.4-0.8,0.1-1.4,1-1.6c1-0.2,1.7,0.6,1.5-0.5c-0.2-1-1.4-2.9-2.6-3.8c-1.3-0.9-3.4-2.5-3.4-2.5l1,7.1
	c0,0,2,6.4,2,7.6s0.9,3.8,1.3,4.2c0.4,0.4,0.8,3.5,0.9,4.6c0.1,1.1,1.1,3.3,1.5,3.9c0.4,0.6,3.9,8,4.1,8.8
	c0.2,0.7,4.3,11.9,6.6,16.2c2.3,4.4,5.3,11.1,5.3,11.1s4.4,12.8,4.9,14.6c0.5,1.8,1,5.5,1.4,6.1c0.5,0.6,2.5,5.7,3.1,6.4
	c0.6,0.6,1.8,2.4,1.7,2.7C388.5,226,393.3,236.2,393.3,236.2z M266.6,190.9c-0.1,0.1-0.1,0.1-0.1,0.2
	C266.5,191.2,266.6,191.1,266.6,190.9z M11.3,34.9c-0.2,0-0.3,0-0.5-0.1C10.9,34.9,11.1,35,11.3,34.9z M363.4,361.1
	c-0.2,0.1-0.6,0-0.6,0c-0.2,0.6-0.8,1,0,0.8S363.7,361,363.4,361.1z M349.7,368.6c-0.6,0.8-1.3,1-1.8,1.5c-0.5,0.6,0.4,1.1-0.9,0.9
	c-1.3-0.2-1.4-0.8-2-0.2c-0.7,0.6-0.4,0.7-1.4,1c-1,0.2-0.6,0.6-1.5,0.6c-1,0.1-1.1-0.4-1.7,0s0.9,0.6,1.4,1
	c0.5,0.5,0.8,1.2,1.2,0.7c0.4-0.5-0.2-0.8,0.6-1.3c0.9-0.5,0.7-1.2,1.5-1.1c0.8,0.1,0.1,0.2,0.8,0.3c0.8,0.1,2.2,0,2-0.2
	c-0.2-0.2-0.1-0.6,0.6-1.1c0.6-0.5,0.4-0.4,0.9-0.8c0.5-0.4,0.5-0.9,1.2-0.6c0.7,0.3,1.3,0.6,1.4,0.2c0.1-0.4-0.4-0.9-0.4-0.9
	C351.2,368.7,350.3,367.8,349.7,368.6z M332.4,373.6c-1,0.2-1.4,0.8-0.8,0.8s1.3,0.8,1.6,0C333.4,373.6,332.4,373.6,332.4,373.6z
	 M360.2,364.5c-0.1,0.3,0.8,0.4,1.2,0c0.4-0.4,1.5-0.9,1.5-0.9h-1.5C360.8,363.9,360.3,364.2,360.2,364.5z M328.5,373.6
	c-0.9-0.7-3.3-3.7-3.6-3.5c-0.3,0.2-0.8,0.4,0,1.1c0.8,0.7,1.9,2.3,1.4,2.4c-0.6,0.1-1,0.5-1.4-0.5c-0.5-1-2-3-2.2-2.6
	c-0.2,0.4-0.2,0.2,0.5,1.2c0.7,1,1.7,2.3,1.2,2.5s-0.7,1-1.5,0.6c-0.8-0.4-1.5-1.1-1.5-1.1s1.4-0.5,0.3-0.9c-1-0.4-1.5-0.3-1.8,0.4
	c-0.2,0.7,0.2,1.3-0.9,1.1c-1-0.3-2.1-1.2-1.8-0.6c0.3,0.6,1,1.8,1.8,1.8c0.8,0,2.5,0,2.5,0s2.7,0.6,3.2,0c0.5-0.6,0.8-1.5,1.6-1.2
	c0.8,0.3,1.6-0.9,1.6,0c0,0.9-0.4,1.7,0.2,1.4c0.6-0.2,0.6-0.2,0.6-0.2C329,374.5,329.4,374.4,328.5,373.6z"/>
</svg>
