<?xml version="1.0" encoding="utf-8"?>
<!-- Generator: Adobe Illustrator 18.0.0, SVG Export Plug-In . SVG Version: 6.00 Build 0)  -->
<!DOCTYPE svg PUBLIC "-//W3C//DTD SVG 1.1//EN" "http://www.w3.org/Graphics/SVG/1.1/DTD/svg11.dtd">
<svg version="1.1" id="state" xmlns="http://www.w3.org/2000/svg" xmlns:xlink="http://www.w3.org/1999/xlink" x="0px" y="0px"
	 viewBox="0 0 20.1 20" enable-background="new 0 0 20.1 20" xml:space="preserve">
<path id="Florida-Base" fill="#B7B7B7" d="M14.7,14.1C14.7,14.1,14.7,14.1,14.7,14.1c-0.1,0.1-0.1,0.1-0.2,0.1c0,0-0.1-0.1-0.2-0.1
	c0,0-0.1,0-0.1-0.1c0,0-0.1-0.3-0.1-0.3c0,0,0.1,0.2,0.2,0.2c0,0,0,0.1,0.1,0.1c0,0,0.1,0.1,0.1,0.1c0.1,0,0.1,0,0.1,0
	C14.7,14,14.7,14,14.7,14.1z M14.5,13.5C14.5,13.5,14.5,13.5,14.5,13.5c0-0.1,0-0.2-0.1-0.2c0,0-0.1,0-0.1,0c0,0-0.1,0,0,0
	C14.4,13.4,14.4,13.4,14.5,13.5C14.4,13.5,14.5,13.5,14.5,13.5c-0.1,0.2,0,0.2,0,0.2c0,0,0,0.1,0.1,0.1c0,0,0.1,0,0.1,0
	c0,0,0,0,0-0.1c0-0.1,0-0.1,0-0.1c0,0,0,0,0,0c0,0,0.1-0.1,0-0.1C14.6,13.5,14.5,13.5,14.5,13.5C14.5,13.6,14.6,13.6,14.5,13.5
	C14.5,13.6,14.5,13.5,14.5,13.5z M14.2,13.4c0-0.1,0-0.1,0-0.1c0,0,0-0.2,0-0.2c0,0.1,0,0.1,0,0.2C14.1,13.3,14.1,13.4,14.2,13.4
	C14.2,13.5,14.2,13.5,14.2,13.4z M15.6,15.6c0,0-0.1,0.1,0,0.2C15.7,15.8,15.7,15.6,15.6,15.6C15.7,15.5,15.6,15.5,15.6,15.6
	c-0.1-0.1-0.1-0.2-0.1-0.2c0,0.1,0,0.1,0,0.1C15.5,15.6,15.5,15.6,15.6,15.6C15.6,15.6,15.6,15.6,15.6,15.6z M15.5,19.5
	C15.5,19.5,15.6,19.6,15.5,19.5c0.1,0,0.1-0.1,0.1-0.1C15.7,19.4,15.6,19.5,15.5,19.5z M15.4,19.5C15.4,19.5,15.4,19.5,15.4,19.5
	c-0.1,0-0.2,0-0.1,0C15.3,19.6,15.3,19.6,15.4,19.5C15.4,19.6,15.4,19.5,15.4,19.5z M7.7,4.1c0,0-0.2,0.2-0.2,0.2S7.3,4.5,7.2,4.5
	S7,4.6,7,4.6c0,0-0.1,0-0.2,0c0,0-0.1-0.1-0.1-0.1c0,0,0.1,0.1,0.1,0.1s0.1,0,0.2,0s0.2-0.2,0.3-0.2c0.1,0,0.1-0.1,0.2-0.1
	C7.5,4.4,7.7,4.2,7.7,4.1C7.7,4.2,7.8,4.1,7.7,4.1z M8,4c0,0-0.1,0.1-0.1,0.1C7.9,4.1,8,4.1,8,4C8,4,8,4,8,4C8,4,8,4,8,4z M8,4
	C8,4,8,4,8,4C8,4,8,4,8,4z M15.9,19.3c0,0-0.1,0-0.1,0.1C15.8,19.4,15.8,19.4,15.9,19.3C15.9,19.4,15.9,19.3,15.9,19.3
	C16,19.3,15.9,19.3,15.9,19.3z M6.7,4.5C6.6,4.5,6.6,4.5,6.7,4.5C6.6,4.4,6.6,4.4,6.7,4.5c-0.1-0.1-0.1,0-0.1-0.1c0,0,0-0.1-0.1,0
	c-0.1,0-0.2,0-0.2,0c0.1,0,0.2,0.1,0.3,0.1C6.6,4.6,6.6,4.6,6.7,4.5C6.7,4.5,6.7,4.5,6.7,4.5z M18.9,9.6c0,0-0.1-0.1-0.1-0.1
	C18.9,9.6,18.9,9.6,18.9,9.6z M16.6,3.6C16.6,3.6,16.6,3.6,16.6,3.6C16.6,3.6,16.6,3.6,16.6,3.6z M19.6,17C19.5,17,19.5,17,19.6,17
	c-0.1,0.1-0.1,0.1-0.1,0.1c0,0,0,0.1,0,0.1c0,0,0,0,0,0.1c0,0,0,0,0,0.1c0,0,0,0,0,0c0,0.1-0.1,0-0.1,0.1c0,0-0.1,0-0.1,0
	c0,0,0.1,0.1,0.1,0.1c0,0,0,0,0,0.1s0,0.1-0.1,0.1c0,0,0,0,0,0c0,0-0.1,0.1-0.1,0.1l-0.3,0.3c0,0-0.1,0.1-0.1,0.2c0,0,0,0,0,0.1
	c0,0-0.1,0-0.1,0c0,0-0.1,0.1-0.1,0.1l0.2-0.1c0,0,0.1,0,0.1,0c0,0,0.1-0.2,0.1-0.2l0.3-0.3c0,0,0.1-0.2,0.1-0.2
	c0,0,0.1-0.2,0.1-0.2s0.1-0.1,0.1-0.1c0,0,0-0.1,0-0.1s0.1-0.1,0.1-0.1c0,0,0-0.1,0-0.1S19.5,17.1,19.6,17
	C19.5,17.1,19.6,17,19.6,17L19.6,17v-0.1C19.6,16.9,19.6,16.9,19.6,17z M20,13.7c0,0.6-0.1,0.7-0.1,0.8c0,0,0,0.4-0.1,0.5
	c0,0.1,0,0.4,0,0.4c0,0.1,0,0.4,0,0.4c0,0.1-0.1,0.5-0.1,0.5c0,0.1,0,0,0,0s0,0,0-0.1c0-0.1,0-0.2,0-0.3c0.1-0.1,0-0.2,0-0.2
	c0,0-0.1,0.1-0.1,0.2c0,0,0,0.2,0,0.2c0,0-0.2,0.2-0.2,0.2c0,0.1-0.1,0.1-0.1,0.2c0,0.1-0.1,0.2-0.1,0.2c0,0,0,0.3,0,0.3
	c0,0,0,0.2-0.1,0.2s-0.1,0-0.1,0.1c0,0.1-0.1,0.2-0.2,0.2c-0.1,0-0.2-0.1-0.3,0l-0.2,0c0,0,0,0.1,0,0.1c0,0,0,0,0-0.1
	c0,0-0.1,0.1-0.1,0.1c0,0-0.1-0.1-0.1,0c0,0-0.1,0-0.1,0c0,0-0.1,0-0.1-0.1c-0.1,0-0.1,0-0.1,0.1c0,0.1,0,0-0.1,0c0,0-0.1,0-0.1,0
	c0,0-0.2,0-0.3,0c0,0-0.1-0.1-0.1-0.1c0,0-0.1-0.1-0.1-0.1c0,0,0.1-0.3,0.1-0.4c0-0.1,0.1,0,0.1,0c0,0,0-0.1,0-0.1c0,0-0.1,0-0.1,0
	c0,0,0-0.1,0-0.1c0,0,0-0.1,0-0.1s0-0.1-0.1,0c0,0-0.1-0.2-0.1-0.2c0,0-0.1-0.1-0.1-0.1c0,0-0.1-0.2-0.1-0.3c0,0-0.1-0.1-0.2-0.2
	c-0.1,0,0-0.1-0.1-0.1c0,0,0,0,0-0.1c0.1,0,0-0.1-0.1-0.2c-0.2-0.1-0.2-0.1-0.3-0.1c-0.3-0.2-0.4-0.1-0.5-0.2c0-0.1-0.2-0.2-0.2-0.2
	c0,0-0.1,0-0.2-0.1c0,0-0.2-0.4-0.1-0.5c0-0.1,0-0.2,0-0.3c0-0.1-0.1-0.5-0.1-0.5c0,0,0-0.1-0.1-0.1s-0.2,0-0.3,0
	c-0.1,0,0.1-0.1,0.1-0.1c0,0,0.1,0,0.1-0.1c0,0,0-0.1,0.1-0.1c0,0,0.1-0.1,0.1-0.2c0,0,0.2-0.2,0.2-0.2c0,0,0-0.1-0.1-0.1
	c0,0-0.2,0.2-0.2,0.2c0,0-0.1,0.1,0,0.1c0,0.1-0.1,0.2-0.2,0.1c-0.1,0-0.1,0-0.1-0.1c0-0.1,0-0.2,0-0.3c0-0.1,0-0.3,0-0.4
	c0-0.1,0-0.1,0-0.2c0-0.1,0-0.1,0-0.1s-0.1-0.1,0-0.1c0.1,0,0.2-0.1,0.2-0.1c0,0,0.1,0,0.1-0.1c0-0.1-0.1-0.3,0-0.3c0,0-0.1,0-0.1,0
	c0,0,0,0.2,0,0.2s0,0-0.1,0.1c0,0,0,0.1-0.1,0.1c-0.1,0-0.1-0.1-0.1,0c0,0.1-0.1,0.1,0,0.1c0,0,0,0-0.1-0.1c0-0.1-0.1,0,0,0
	c0,0-0.1,0-0.1-0.1c0-0.1-0.2-0.2-0.2-0.3c0,0.1,0.2,0.3,0.2,0.3c0,0,0.2,0,0.2,0.1c0,0.1,0.1,0.3,0,0.3c0,0-0.2,0-0.2,0
	c-0.1,0-0.2-0.1-0.2-0.2c0-0.1-0.1-0.3-0.2-0.3c0,0-0.2-0.3-0.2-0.5c0-0.2-0.1-0.2-0.1-0.2c0,0-0.1-0.1-0.1-0.1c0,0-0.1-0.1-0.1-0.2
	c-0.1-0.1-0.2-0.2-0.2-0.3c0-0.1,0-0.1-0.1-0.2c0-0.1-0.1-0.1,0-0.1c0,0,0.1,0.2,0.1,0.2c0,0.1,0.4,0.5,0.4,0.5
	c0.1-0.3-0.4-0.4-0.3-0.6c0-0.1,0.1-0.1,0.1-0.1c0,0.1,0,0,0.1-0.1c0.1,0,0-0.1,0.1-0.2c0.1-0.1,0.2-0.2,0.3-0.3
	c0.1-0.1,0.1-0.1,0.2-0.2c0-0.1,0.1-0.2,0-0.3c-0.1-0.1-0.1-0.2-0.1-0.1c0,0-0.1-0.1-0.1,0c0,0.1-0.1,0.2,0,0.2
	c0.1,0.1,0.1-0.1,0.1-0.1c0,0,0.1,0.1,0,0.2c-0.1,0-0.1,0-0.2,0c-0.1,0-0.1,0-0.1,0c0,0,0-0.1,0-0.2c0-0.1,0.1,0-0.1-0.2
	C13.2,9.5,13,9.3,13,9.4c0,0,0,0.1,0,0.1s-0.1,0.1-0.1,0.2c0,0,0,0.1,0.1,0.1c0.1,0,0.2,0.1,0.2,0.1c0,0.1,0.1,0.2,0,0.2
	c0,0.1-0.1,0.2-0.1,0.2c0,0.1,0,0.1-0.1,0.1c-0.1,0-0.1,0-0.1,0s0,0.1,0,0.1c-0.1,0,0,0-0.1-0.1c0-0.2-0.1-0.2-0.2-0.2
	c0,0-0.1-0.2-0.1-0.3c0.1-0.1,0.2-0.5,0.2-0.6c0-0.1-0.1-0.2,0-0.3c0-0.1,0.1-0.1,0.1-0.1c0,0,0.1-0.3,0.1-0.4c0-0.1,0-0.1,0.1-0.1
	c0,0,0-0.3,0.1-0.3c0-0.1-0.1-0.1,0-0.2c0-0.1,0-0.1,0-0.2c0-0.1,0-0.1,0-0.2c0-0.1-0.1-0.2-0.1-0.3c0-0.1-0.1-0.1-0.1-0.2
	c0-0.1,0.3-0.1,0.3-0.1c0-0.1-0.1-0.1-0.2-0.1c0,0-0.1,0-0.1-0.1c0-0.1-0.1-0.1-0.1-0.2c0-0.1,0-0.1,0-0.2c-0.1,0-0.2-0.1-0.1-0.2
	c0-0.1,0.1-0.2,0-0.2c0,0-0.1,0.1-0.2,0.1c-0.1,0-0.1-0.1-0.2-0.1c-0.1,0-0.1-0.1-0.1,0C12.1,6,12,6,12,6c0,0,0,0,0-0.1
	c0-0.1,0-0.2-0.1-0.2c-0.1,0-0.1-0.1-0.2-0.1c0,0,0-0.1,0-0.2c0-0.1-0.2-0.2-0.3-0.2c0,0-0.1,0-0.1-0.1c0,0-0.1-0.1-0.1-0.2
	c0,0-0.1-0.1,0-0.2c0-0.1,0-0.2,0-0.3c0,0-0.1-0.1-0.1-0.1c0,0-0.1,0-0.1-0.1c0,0,0,0-0.1-0.1c0,0-0.2-0.1-0.2-0.2s0-0.1,0-0.2
	c0,0-0.1,0-0.1-0.1s0,0,0,0c-0.1,0-0.2-0.2-0.2-0.2c0-0.1-0.1-0.1-0.2-0.1c0,0-0.1-0.1-0.2-0.1c-0.1,0,0,0-0.1,0
	c-0.1,0-0.1,0-0.1-0.1c0-0.1-0.1-0.1-0.2-0.1c-0.1,0,0-0.1-0.1-0.1c-0.1,0-0.3,0.1-0.4,0.1c0,0,0.1-0.1,0-0.1C9,3.2,9,3.2,9,3.2
	c0,0-0.1-0.1-0.1-0.1c0,0-0.1,0,0,0c0,0,0,0.1,0,0.1c0,0,0,0-0.1,0c-0.1,0-0.1-0.1-0.1,0c0,0.1,0,0,0,0.1c0,0.1-0.1,0-0.1,0.1
	c0,0.1,0,0.1,0,0.1c0.1,0,0.1,0,0.1,0.1c0,0,0,0-0.1,0c0,0-0.1,0-0.2,0c-0.1,0-0.1,0-0.1,0c0-0.1-0.1,0-0.1-0.1c0-0.1-0.1,0,0,0
	c0,0,0,0,0,0c0,0,0,0,0,0s0,0-0.1,0c-0.1,0-0.1,0-0.1-0.1c0-0.1-0.1,0-0.1-0.1c0,0-0.1,0-0.1-0.1c0,0,0,0.1,0,0.1S8,3.4,8,3.4
	c0,0,0.1,0.1,0.1,0.1S8,3.5,8,3.5c0,0,0,0.1,0,0.1c0,0-0.1,0.1,0,0.1c0,0,0.1,0,0.1,0s0,0,0-0.1c0,0,0-0.1,0,0c0.1,0,0.1,0,0.2,0
	c0,0,0-0.1,0.1,0c0,0.1,0.1,0.1,0.1,0.1c0,0,0.1,0,0.1,0c0,0,0.1,0,0.1,0.1c0,0,0,0.1,0,0.1s0,0-0.1,0c-0.1,0,0,0-0.1,0
	s-0.1,0-0.2,0c-0.1,0-0.4,0.2-0.4,0.2c0,0-0.2,0.1-0.3,0.2c0,0,0,0-0.1,0c-0.1,0-0.2,0.1-0.2,0.1c0,0-0.1,0-0.1,0c0,0,0-0.1,0-0.1
	c0,0,0,0,0,0c0,0-0.1,0.1-0.2,0.1c0,0-0.1-0.1-0.1-0.1c0,0,0.1,0.1,0,0.1c-0.1,0-0.2,0-0.3-0.1C6.6,4.1,6.6,4.1,6.6,4.1
	c0,0-0.1-0.1-0.1-0.1c-0.1,0-0.1,0.1,0,0.1c0.1,0-0.1,0.1,0,0.1c0.1,0,0.1,0,0.1,0c0,0,0.2,0.1,0.2,0.1c0,0,0.2,0,0.1,0.1
	c0,0.1-0.2,0-0.3,0c0,0-0.5,0.1-0.5,0.1c0,0-0.1,0-0.1,0s-0.2,0-0.2-0.6c0,0,0,0,0.1,0c0,0,0-0.1,0-0.2c-0.1,0-0.1,0-0.2,0
	s-0.1,0-0.2-0.1C5.4,3.4,5.4,3.4,5.4,3.3c0-0.1-0.2-0.1-0.5-0.3C4.6,2.8,4.4,2.7,4.2,2.6C4.1,2.6,3.6,2.3,3,2.3
	c-0.5,0-0.8-0.1-1.4,0.1C1,2.6,0.8,2.5,0.8,2.5L0.1,2.7c0.1-0.1,0-0.1,0-0.1c0,0,0-0.2,0-0.1c0,0,0,0.1,0.1,0.1
	c0.1,0,0.1-0.1,0.1-0.1s0-0.1,0-0.1c0,0,0,0.1,0,0.1c0,0,0,0,0.1-0.1c0-0.1,0.1-0.1,0.1-0.1c0,0-0.1,0.1-0.1,0.1
	c0,0.1-0.1,0.1-0.1,0.1c0,0,0,0,0,0C0.1,2.6,0.1,2.6,0.1,2.6c0.4-0.1,0.3-0.1,0.3-0.1c0,0,0,0,0.1-0.1c0,0,0-0.1,0-0.1
	c0,0-0.1,0-0.1,0c0,0,0-0.1,0.1-0.1c0,0,0.1,0,0.1-0.1c0,0,0.1,0,0.1,0c0,0,0,0,0,0c0,0,0-0.1-0.1-0.1c0,0-0.1,0-0.1,0
	c0,0,0-0.2,0-0.1c0,0.2,0.1,0.2,0.1,0.2c0,0,0,0,0,0.1c0,0,0,0,0,0c0,0-0.1,0-0.1,0c0,0-0.1-0.1-0.1-0.2c0-0.1,0.2-0.3,0.2-0.3
	c0,0,0-0.2-0.1-0.2c-0.1,0-0.2-0.1-0.2-0.2c0-0.1-0.1-0.2-0.2-0.2c0-0.1-0.1-0.1,0-0.3c0-0.1,0-0.2,0-0.2h6.8c0,0,0,0.1,0,0.1
	C7,0.5,7,0.6,7,0.7s0.1,0.1,0.1,0.2c0,0.1-0.1,0.2,0,0.3c0.1,0,0,0,0.1,0.1c0.1,0,7,0.5,7,0.5s-0.1,0.1,0,0.1c0.1,0,0.1,0.2,0.1,0.2
	c0,0,0,0.2,0,0.2c0,0,0.1,0.1,0.1,0.1s0.2,0,0.2,0c0,0,0.1,0,0.1-0.1c0-0.1,0-0.2,0-0.4c0-0.1,0.1-0.2,0-0.3c0-0.1-0.1-0.2-0.1-0.3
	c0-0.1,0.1-0.2,0.1-0.2c0,0,0.1,0,0.1-0.1c0,0,0.1-0.1,0.1-0.1L16,1.4c0,0,0.1,0.3,0.1,0.3S16,1.7,16,1.8c0,0,0-0.2-0.1-0.3
	c0,0,0,0.2,0,0.2c0,0.1,0,0-0.1-0.1c0,0-0.1,0.1,0,0.1c0,0-0.1-0.1-0.2-0.2c-0.1-0.1,0.1,0.2,0.1,0.2c0,0-0.3-0.1-0.3-0.2
	c0,0,0,0.1-0.1,0c-0.1-0.1,0.1,0.1,0.2,0.2c0.1,0,0.2,0.1,0.2,0.1c0,0,0.1,0,0.2,0c0,0-0.1,0.1,0,0.1c0.1,0,0.2,0,0.2,0
	c0,0,0.1,0,0-0.1c0-0.1,0.1,0,0,0.2c-0.1,0.2,0,0-0.1,0S16,2.1,16,2.2c0,0-0.1,0-0.1-0.1c0,0,0,0.1,0,0.1c0,0-0.1,0-0.1,0s0,0,0,0.1
	c0,0.1,0,0.1-0.1,0.2c-0.1,0-0.1,0.1,0,0.2c0.1,0.1,0,0.1,0,0.1c0,0.1,0,0.2,0,0.2c-0.1,0-0.2,0-0.2,0.1c0,0,0.2-0.1,0.2,0
	s0,0.2,0,0.2c0,0,0-0.1-0.1-0.1c-0.1,0-0.1,0-0.2,0c-0.1,0,0.1,0,0.2,0.1c0.1,0.1,0.1,0.2,0.2,0.2c0.1,0,0.2,0,0.2,0.1
	c0,0-0.2,0-0.1,0.1c0,0.1,0.1,0.4,0.2,0.4c0.1,0,0.1,0.1,0,0.2c0,0.1,0,0.1-0.1,0.1c-0.1,0-0.2-0.1-0.2,0c0,0.1,0,0,0.1,0.1
	c0.1,0,0.1,0,0,0.1c0,0,0,0.1,0.1,0.1c0,0,0.1,0.1,0,0.1c-0.1,0-0.2-0.1-0.2,0c0,0.1-0.1,0.1-0.1,0.1c0.1,0,0.1,0.2,0,0.2
	c-0.1,0-0.1,0-0.1,0.1c0,0,0.1,0,0.1,0c0,0.1,0.2,0.1,0.2,0.1c0,0.1-0.1,0-0.1,0.1c0,0.1,0.1,0.1,0.1,0.1c0,0,0,0.1,0,0.1
	s-0.1,0-0.1,0c0,0,0.2,0.1,0.2,0.1s0.1,0.1,0.1,0.2c0,0.1-0.1,0.2,0,0.2c0.1,0,0.1,0,0.1,0C16,6,16,5.9,16,6c0,0.1,0,0.1,0,0.2
	c0,0,0.2,0.2,0.3,0.2c0.1,0,0.2,0.1,0.1,0.2c-0.1,0-0.1,0.1-0.1,0.3c0,0.1,0,0.1,0.1,0.1s0-0.1,0-0.2c0-0.1,0.1-0.3,0.1-0.3
	s-0.1-0.1-0.1-0.2c0,0,0,0,0-0.1c0,0,0.1-0.2,0-0.2c-0.1,0-0.2,0-0.2,0.1c0,0-0.2-0.2-0.2-0.2c0,0,0.1-0.1,0.1-0.1c0,0-0.1,0-0.1,0
	c0,0,0.1-0.1,0.1-0.1L16,5.5c0,0-0.1-0.2-0.2-0.2c-0.1,0-0.1,0-0.1,0c0.1,0,0-0.2,0-0.2c0,0,0-0.2-0.1-0.3c0,0,0-0.1,0-0.1
	c0.1,0,0.2,0,0.2,0.1c0,0.1,0.1,0.1,0.1,0.1C15.9,5,16,5,16,5.1c0,0,0.1,0.1,0.1,0.1c0,0.1,0,0.2,0.1,0.2c0.1,0,0.2,0,0.1-0.1
	c0-0.1-0.1-0.1-0.1-0.1c-0.1,0-0.1,0-0.1-0.1c0,0-0.1-0.1-0.1-0.2c0,0-0.1-0.1-0.1-0.1c0-0.1,0-0.1-0.1-0.1c0,0,0-0.1,0-0.1
	c0,0-0.2-0.1-0.1-0.1c0.1,0,0.1-0.1,0.2-0.1c0,0,0-0.2,0.1-0.2c0,0,0.1,0.2,0.1,0.2c0,0-0.1-0.2-0.1-0.2c0,0,0-0.1-0.1-0.1
	c0,0,0-0.2,0-0.2c0,0-0.2-0.1-0.1-0.1c0,0,0.1-0.2,0.1-0.1c0,0.1,0.1,0.1,0.1,0.1c0,0,0-0.1-0.1-0.2c-0.1,0-0.3-0.1-0.3-0.2
	s0-0.2,0.1-0.2c0,0-0.1-0.2,0-0.1c0.1,0,0.2,0.1,0.2,0.1c0,0-0.2-0.1-0.2-0.1c-0.1,0-0.2,0.1-0.1,0c0.1-0.1,0.1-0.1,0.1-0.1
	c0,0,0-0.1,0-0.1c0,0-0.1-0.1-0.1-0.1c0,0,0.1-0.1,0.1-0.1c0.1,0,0,0,0-0.1c0-0.1,0-0.1,0-0.1c0.1,0,0.1-0.1,0.2-0.1
	c0.1,0,0.1,0,0.2,0.1c0,0.1,0,0.2,0,0.2c0,0.1,0,0.1,0,0.2c0,0-0.1,0.2,0,0.1c0,0,0.1-0.2,0.1-0.1c0,0,0,0.1,0,0.1c0,0,0-0.2,0-0.2
	c0,0-0.1-0.3-0.1-0.4c0-0.1,0-0.3,0-0.3s0,0.1,0,0.2c0,0.1,0.2,1.2,0.2,1.4c0-0.1-0.2-0.4-0.2-0.5c0,0-0.1,0.3,0.1,0.5
	c0,0,0,0.3,0,0.4c0,0,0.2,0.3,0.2,0.4c0,0.1,0,0.3,0.1,0.3c0,0,0-0.2,0-0.3c0-0.1,0-0.1,0-0.1S16.6,4,16.7,3.9c0-0.1,0-0.2,0-0.2
	S16.8,4,16.8,4c0,0.1,0.5,1.4,0.5,1.4s0.3,0.6,0.3,0.7c0.1,0.2,1.1,1.7,1.1,1.7c0,0,0,0.2,0,0.2c0,0-0.1-0.1-0.1,0.2
	c0,0.3,0,0.5,0,0.7c0,0.2,0.5,1.1,0.5,1.2c0,0,0.4,1.3,0.4,1.3s0.4,1.1,0.5,1.2C19.9,12.8,20,13.1,20,13.7z M4.2,2.2
	c-0.1,0-0.1,0-0.2,0c-0.1,0-0.2,0-0.2-0.1c0,0,0.1-0.1,0.1-0.1c0,0-0.1,0.1-0.2,0.1c0,0-0.1,0,0-0.1c0-0.1,0,0.1-0.1,0c0,0,0,0,0,0
	c0,0,0-0.1,0,0c0,0,0,0,0,0c0,0,0,0-0.1,0C3.4,2,3.3,2,3.3,2c0,0,0,0.1-0.1,0C3.2,2.1,3,2,3.1,2c0.1,0,0.1-0.1,0.1-0.1
	c0,0,0,0-0.1,0C3.1,1.9,3.1,2,3,2c0,0,0,0,0,0c0,0,0-0.1,0-0.1s0,0,0,0.1C3,2,3,2,3,2c0,0,0,0-0.1,0.1c-0.1,0,0,0.1-0.1,0
	c-0.1,0-0.1,0-0.1,0c0-0.1,0-0.1,0-0.1S2.6,2.1,2.7,2.1c0,0,0,0.1,0,0.1c0,0-0.6,0-0.7,0c-0.1,0-0.4,0-0.6,0.1c-0.2,0.1-0.3,0-0.2,0
	c0,0,0.1,0,0.1,0c0,0,0.1-0.1,0.2-0.1s0.1,0,0.2,0c0,0,0.1-0.1,0.1-0.1s0.2,0,0.2,0c0,0,0.1,0,0.1,0c0,0-0.3-0.1-0.3-0.1
	c0,0-0.1-0.1-0.1-0.1c0,0-0.1,0,0-0.1c0.1,0,0.1-0.1,0.1-0.1c0,0,0.1,0,0.1,0c0,0,0-0.1,0-0.1c0,0-0.1,0-0.1,0s-0.1,0-0.1,0
	c0,0,0-0.1,0-0.1c0,0-0.1,0-0.1-0.1c0-0.1,0-0.1,0-0.1c0.1,0,0.1-0.1,0.1-0.1s0,0.1-0.1,0.1c-0.1,0-0.1,0.1,0,0.2c0,0,0,0.1,0,0.1
	c0,0-0.1,0-0.1,0c0,0,0,0.1,0,0.1C1.5,2,1.5,2,1.5,2c0,0,0,0.1-0.1,0c0,0,0-0.1,0-0.1c0,0,0-0.1,0-0.1c0,0,0,0-0.1-0.1
	c0-0.1,0,0-0.1-0.1c-0.1,0,0,0-0.1-0.1c-0.1,0-0.1,0-0.1-0.1c0-0.1-0.1-0.2-0.1-0.2c0,0.1,0.1,0.3,0.2,0.4c0.1,0,0.2,0.1,0.2,0.2
	c0,0.1,0,0.1-0.1,0.2c-0.1,0-0.1,0-0.1,0.1c0,0-0.1,0-0.1,0c0,0-0.1,0-0.2,0.1c0,0,0.1,0,0.2,0c0,0,0,0.1-0.1,0.1s-0.2,0-0.2,0.1
	c0,0,0,0,0,0s0.2-0.1,0.3,0c0.1,0,0.4,0,0.5-0.1c0.1,0,0.8-0.2,0.9-0.2c0.1,0,0.3,0,0.3,0c0,0,0.4,0,0.4,0s0.2-0.1,0.2,0
	c0,0,0.2,0.1,0.2,0.1c0,0,0-0.2,0-0.1c0.1,0.1,0.2,0.1,0.2,0.1c0,0-0.1-0.1,0-0.1c0.1,0,0.1,0.1,0.1,0.1c0,0,0.1,0,0.2,0
	c0,0,0,0,0,0c0,0,0,0,0,0c0,0,0,0,0,0c0.1,0,0.1,0,0.2,0C4.2,2.3,4.2,2.1,4.2,2.2z M5.9,3.3c0,0-0.1,0-0.1,0
	C5.7,3.3,5.8,3.2,5.9,3.3c0-0.1-0.1-0.2-0.1-0.2c0,0,0,0-0.1,0.1c-0.1,0,0,0.1-0.1,0.2c0,0,0,0-0.1,0c0,0,0-0.1,0-0.1
	c0-0.1,0,0-0.1,0c0,0,0.1-0.1,0.1-0.1s0,0-0.1,0c0,0,0,0-0.1,0c0,0,0,0-0.1,0c0,0,0,0,0-0.1c0,0,0,0-0.1,0c0,0,0,0-0.1,0
	c0,0-0.1,0-0.1,0c0,0,0,0,0-0.1S5,2.9,5,2.9s0,0,0.1-0.1c0,0,0.1-0.1,0.1-0.1c0-0.1,0,0,0.1,0c0,0,0.1,0,0.1,0c0,0,0.1,0,0.1,0
	c0,0,0-0.1,0-0.1c0,0,0.1,0,0.1,0c0,0-0.1,0-0.1-0.1c0,0,0,0,0.1-0.1c0,0,0,0,0,0s0,0,0,0c0,0,0,0,0,0c-0.1,0-0.1,0.1-0.1,0.1
	c0,0.1,0,0-0.1,0c0,0,0-0.1-0.1,0c0,0,0,0,0,0.1c0,0.1-0.1,0-0.1,0c0,0,0,0.1,0,0c0,0,0-0.1-0.1-0.2C4.9,2.5,4.9,2.4,4.9,2.5
	c0,0,0,0.1,0,0.1c0,0-0.1-0.1-0.1-0.1c0,0,0,0.1,0,0.1c0,0-0.1,0-0.1,0.1c0,0.1,0.1,0.1,0.1,0.1c0,0,0-0.1,0-0.1c0,0,0.1,0,0.1,0
	c0,0,0,0,0,0.1c0,0,0.1,0,0,0.1C4.9,2.9,5,3,5,3C5,3,5,3,5,3C5,3.1,4.9,3,4.9,3S4.9,3,5,3.1c0,0,0.2,0.1,0.2,0.1c0,0,0-0.1,0-0.1
	c0,0,0,0,0.1,0c0,0,0.1,0,0.1,0c0,0,0,0,0.1,0c0.1,0,0.1,0.1,0.1,0.1c0,0,0,0,0.1,0c0,0,0.1,0.1,0.1,0.1c0,0,0.1,0,0.1,0
	c0,0,0,0,0-0.1C5.8,3.3,5.8,3.4,5.9,3.3C5.8,3.3,5.9,3.4,5.9,3.3C5.9,3.4,5.9,3.3,5.9,3.3z M6.1,4C6.1,4,6.1,4,6.1,4
	C6,3.9,5.9,3.7,5.9,3.7c0,0.1-0.1,0.1-0.1,0.2c0,0.1,0,0.5,0.1,0.5c0,0,0.1,0,0.1,0s0-0.3,0-0.3C6.1,4.1,6.1,4,6.1,4z M17.4,5.9
	c0,0,0.1,0.3,0.2,0.3c0,0,0.2,0.5,0.2,0.6c0,0.1,0.2,0.3,0.2,0.3c0,0,0.2,0.2,0.2,0.3c0,0,0.1,0.1,0.2,0.1c0,0-0.1-0.2-0.1-0.2
	C18.2,7.3,18,7,18,7C18,6.9,17.4,5.9,17.4,5.9z M17.4,7.5C17.4,7.5,17.4,7.5,17.4,7.5C17.4,7.5,17.4,7.5,17.4,7.5
	C17.4,7.4,17.4,7.4,17.4,7.5C17.4,7.4,17.3,7.5,17.4,7.5z M17.2,7.2C17.2,7.3,17.2,7.3,17.2,7.2c0.1,0.1,0.1,0.1,0.1,0.1
	c0,0,0-0.1,0-0.1c0,0,0-0.1,0-0.1C17.3,7.1,17.2,7.1,17.2,7.2C17.2,7.2,17.2,7.2,17.2,7.2z M16.8,7.3c-0.1,0-0.1,0-0.1,0
	c-0.1,0,0,0,0,0c0,0,0,0,0.1,0C16.9,7.4,16.9,7.4,16.8,7.3c0.1,0,0.1,0,0.2,0c0,0,0-0.2-0.1-0.3C16.9,7,16.9,7.2,16.8,7.3
	C16.9,7.3,16.9,7.3,16.8,7.3z M16.6,7C16.7,7,16.7,7,16.6,7c0.1,0.1,0.2,0.1,0.2,0.1c0,0,0.1,0,0-0.1c0,0,0-0.1-0.1-0.1c0,0,0,0,0,0
	c-0.1,0-0.1,0-0.1,0C16.6,6.9,16.6,7,16.6,7z M17.1,16.7c0,0,0.1,0.1,0.2,0.1s0-0.1-0.1-0.2c0,0-0.2-0.1-0.2-0.1s0-0.1,0-0.1
	S17,16.3,17,16.3s0-0.1,0-0.1c0,0,0-0.1,0-0.1s-0.1-0.1-0.1-0.1c-0.1,0-0.1-0.1-0.1-0.1c0,0,0,0,0,0c0,0,0.1,0.1,0.1,0.1
	c0,0,0.1,0.1,0.1,0.1c0,0,0.1,0.1,0.1,0.1c0,0,0.1,0.1,0.1,0.2c0,0.1,0,0.1,0,0.1c0,0-0.1,0.1-0.1,0.1c0,0,0.1,0,0.1,0
	C17.1,16.6,17.2,16.7,17.1,16.7z M17.8,17.5c0-0.1,0-0.1-0.1-0.1c-0.1,0-0.1-0.1-0.1-0.1s0-0.1,0-0.1c0,0-0.1,0-0.1,0
	c0,0-0.1,0-0.1,0c0,0-0.1-0.1-0.1,0c0,0,0,0.1,0,0.1c-0.1,0,0,0.1,0,0.1c0,0,0,0.1,0.1,0.1c0,0,0.2,0.1,0.2,0.1c0.1,0,0.1,0,0.1,0
	c-0.1,0-0.2,0.1-0.1,0.1c0,0,0.1,0.1,0.1,0c0,0,0.1-0.1,0.1-0.1c0,0-0.1-0.1-0.1-0.1c0,0,0-0.1,0.1-0.1
	C17.7,17.5,17.8,17.6,17.8,17.5z M18,17.7C18,17.6,18,17.6,18,17.7c-0.1,0-0.1,0-0.1,0c0,0-0.2,0-0.1,0C17.8,17.7,18,17.7,18,17.7
	C18,17.7,18,17.7,18,17.7z M19.7,12.3l-0.5-1.2L18.9,10l-0.3-0.6c0,0-0.2-0.4-0.2-0.5c0-0.1,0-0.4,0-0.4l0.1-0.5l0-0.2
	c0,0-0.1-0.2-0.1-0.2c0,0,0,0.1,0,0.1c0,0-0.1,0.3-0.1,0.4c0,0,0,0.3,0,0.4c0,0.1-0.1-0.2-0.1-0.2c0,0,0,0,0,0c0,0,0,0,0,0
	c0,0,0,0.2,0,0.3c0,0,0.1,0.2,0.1,0.2c0,0-0.2-0.3-0.2-0.4s0-0.3,0-0.3c0,0-0.1,0,0-0.1c0-0.1,0-0.2,0-0.2c0.1,0,0.1-0.1,0.1-0.1
	c0,0,0.1,0,0.1,0c0,0-0.2,0.1-0.2,0c0,0,0-0.1,0,0c-0.1,0-0.1,0-0.1,0c0,0-0.1-0.1-0.1-0.2c0,0,0-0.1,0.1-0.1c0,0,0.1,0,0.1,0
	c0-0.1-0.1-0.1-0.1-0.2c-0.1,0-0.2-0.1-0.2-0.1l0.1,0.4c0,0,0.1,0.3,0.1,0.4C18,7.9,18,8,18,8c0,0,0,0.2,0,0.2
	c0,0.1,0.1,0.2,0.1,0.2c0,0,0.2,0.4,0.2,0.4c0,0,0.2,0.6,0.3,0.8c0.1,0.2,0.3,0.6,0.3,0.6s0.2,0.6,0.2,0.7s0,0.3,0.1,0.3
	c0,0,0.1,0.3,0.2,0.3c0,0,0.1,0.1,0.1,0.1C19.5,11.8,19.7,12.3,19.7,12.3z M13.4,10C13.4,10,13.4,10,13.4,10
	C13.4,10,13.4,10,13.4,10z M0.6,2.2C0.6,2.2,0.5,2.2,0.6,2.2C0.5,2.2,0.6,2.2,0.6,2.2z M18.2,18.5C18.2,18.5,18.2,18.5,18.2,18.5
	C18.2,18.6,18.2,18.6,18.2,18.5C18.3,18.6,18.3,18.5,18.2,18.5z M17.6,18.9C17.5,19,17.5,19,17.6,18.9c-0.1,0.1-0.1,0.1-0.1,0.1
	c-0.1,0-0.1,0-0.1,0c0,0,0,0-0.1,0c0,0,0,0-0.1,0c0,0-0.1,0-0.1,0s0,0,0.1,0.1c0,0,0,0.1,0.1,0s0,0,0-0.1c0,0,0-0.1,0.1-0.1
	c0,0,0,0,0,0c0,0,0.1,0,0.1,0c0,0,0,0,0-0.1S17.5,19,17.6,18.9C17.6,19,17.6,18.9,17.6,18.9c0.1,0.1,0.1,0.1,0.1,0
	C17.7,18.9,17.7,18.9,17.6,18.9C17.6,18.9,17.6,18.9,17.6,18.9z M16.7,19.2C16.6,19.2,16.6,19.2,16.7,19.2
	C16.7,19.2,16.7,19.3,16.7,19.2C16.7,19.2,16.7,19.2,16.7,19.2z M18.1,18.7C18.1,18.7,18.1,18.7,18.1,18.7c0.1,0,0.1,0,0.1,0
	L18.1,18.7C18.1,18.7,18.1,18.7,18.1,18.7z M16.5,19.2c0,0-0.2-0.2-0.2-0.2c0,0,0,0,0,0.1c0,0,0.1,0.1,0.1,0.1c0,0,0,0-0.1,0
	c0,0-0.1-0.2-0.1-0.1c0,0,0,0,0,0.1c0,0.1,0.1,0.1,0.1,0.1c0,0,0,0.1-0.1,0c0,0-0.1-0.1-0.1-0.1s0.1,0,0,0c-0.1,0-0.1,0-0.1,0
	c0,0,0,0.1,0,0.1c-0.1,0-0.1-0.1-0.1,0c0,0,0.1,0.1,0.1,0.1c0,0,0.1,0,0.1,0s0.1,0,0.2,0s0-0.1,0.1-0.1
	C16.4,19.2,16.5,19.2,16.5,19.2c0,0.1-0.1,0.1,0,0.1C16.5,19.3,16.5,19.3,16.5,19.2C16.5,19.2,16.5,19.2,16.5,19.2z"/>
</svg>
