<?xml version="1.0" encoding="utf-8"?>
<!-- Generator: Adobe Illustrator 18.0.0, SVG Export Plug-In . SVG Version: 6.00 Build 0)  -->
<!DOCTYPE svg PUBLIC "-//W3C//DTD SVG 1.1//EN" "http://www.w3.org/Graphics/SVG/1.1/DTD/svg11.dtd">
<svg version="1.1" id="state" xmlns="http://www.w3.org/2000/svg" xmlns:xlink="http://www.w3.org/1999/xlink" x="0px" y="0px"
	 viewBox="0 0 400 400" enable-background="new 0 0 400 400" xml:space="preserve">
<path fill="#69C8C9" d="M169.7,73.5L169.7,73.5C169.9,73.6,170,74,169.7,73.5z M224.4,89c-0.1,0.5-0.2,0.7,0,0.5
	C224.6,89.3,224.6,89.1,224.4,89z M133.6,74.8L133.6,74.8c0.1,0.1,0.2,0.2,0.4,0.3C133.8,74.9,133.7,74.8,133.6,74.8z M347.5,301.7
	c-1.9,0.3-3.6,1.7-3.8,3.1c-0.3,1.2-2.2,2.6-1.2,2.6c1,0,1.3-1.9,2.4-1c1.1,1,3.9,2.4,3.9,1c0-1.4-0.5-3.2-0.7-3.6s0.7-1.2,0.7-1.2
	L347.5,301.7z M311.4,310.9c-1.1,0.2,0.5,1.6,0.8,0.8C312.4,310.9,311.4,310.9,311.4,310.9z M350.2,151.8c0-0.1,0-0.2-0.1-0.3
	C350.2,151.8,350.2,152,350.2,151.8z M399.2,274.1c-0.8,11.3-3,13-3,13.6c0,0,1,4.3-0.1,5.5s-3.8-0.8-4.7-0.2s-1.6,0.3-2.4-0.2
	c-0.6-0.4-3.6-1.9-3.2-2.6c0.9-1.2,2.7-2.4,0.9-2.4s-2.9-0.2-5,0c-2.1,0.2-4,0.3-4.6,0.2c-0.7-0.2-3.7-4.6-2.4-4.6
	c1.4,0,2.4-2.6,3-2.9c0.7-0.3,0.4-6.1,0.4-6.1c-0.5-4.8,1.4-3.1,0.8-4.3c-0.7-1.2,1.3-1,1.7-2.9c0.3-1.9,1-1.7,1.9-2s-3.5-1-3.5-1.8
	c0-0.8-1.2-2-2-3.9c0,0-6.1-6-6.4-5.3c0,0-0.7,2.4,0.2,3.6c0.8,1.2-0.3,2.1-1.9,2.4c-1.6,0.3-1.2-1.7-1.2-1.7s1.6-3.5,1.4-5.4
	c-0.5-4.8-1.2-3.5-0.9-5.4c0.3-1.9-6.5-11.9-9.7-10.6c-0.8,0.3-1.2,2.8-1.2,3.6c0.1,0.8-0.9,2.9-0.9,3.5c0,0.7-0.6-0.1-2.7,2.2
	c-3.3,3.7-8.8,1.6-8.9,4.3c-0.1,1.7,6.2,3.7,7.6,7.9c1.3,4.1,7.3,8.3,10,7.6c1.1-0.3,0.7-2.1,2.3-3.8c1-1,1.6,1.4,0.9,1.8
	c-0.8,0.3-1,2.2-0.2,2.1c0.8-0.2-1,1.3-2,1.4c-3.2,0.2-9.1-4.6-9.2-1.9c0,0.7-2.1,2.1,0.7,4.1c2.5,1.9-2.3,8.4-1.4,10.3
	c0.4,0.8,4.4-1.1,4.9-0.4c0.7,0.9,2.8,7.4,2.8,6.8c-0.2-4.1,2.4-6,4.1-5.3c0,0-0.9,1.9,0.6,2.7c1.4,0.8,2.5,2.6,2.5,2.6
	c0.8,1.2-8.4,1.8-9.7,2.9c-3.6,2.9,0.5,8.4-2.2,8.6c-1.8,0.2-4.3-2.4-5.6,0.3c-0.8,1.5-7.9,2.6-8,1.4c-0.1-0.7,0.5,3.9-0.7,5.5
	c-0.7,0.9-2.3-0.8-4.1-1.4c-4.2-1.5-9.3-5.8-9.6-4.8c-0.3,1-3.6-0.2-5.5-0.7c-1.9-0.5-4.7-2.1-6.8-2.1c-2.1,0-6.3,1.3-6-0.2
	c0.3-1.6-2.6-4-2.2-5.4c0.3-1.2-1.9-9.2-2.4-10c-0.5-0.8,2.1-2.4-0.3-2.4s-3.8-3.8-3.2-3.8s0.8-3.1,0.8-3.8c0-0.8,3.2-3.6,4.1-3.6
	c0.6,0,13.9-1.4,13.3-1.8c-0.3-0.2-11.2-1.7-14.6,0.8c-0.9,0.6-6.2,2.7-6.2,3.5c0,0.8-0.3,2.7-1.7,3.2c-2.1,0.6-2.7-1.5-1.7-4.7
	c0.5-1.6-2.1-4.4-1.3-6c0.8-1.6-0.1-2.6,0.8-3.7c0.8-1.2,0-5.8,0.8-6c0.8-0.2,4.1-1.3,3.1-2.2c-5.2-4.6,1.8-10.8,3.2-12.4
	c-1.2,1-6.2,5.4-6.1,6c0.2,1,0.2,5,0.2,5s-0.8,1-1.7,1.6s-1.7-0.6-3.1-1.1c-1.2-0.5-1.9,1.2-2.8-0.4c-0.8-1.6-3,0-3.5-1.3
	c-0.5-1.2-6.2-4.6-7.1-6c0.8,1.4-0.8,4.8-0.2,5.3c0.7,0.7,5.6,4.5,5.8,5.7c0.2,1.2-2.6,0.4-3.1-1.5c-0.5-1.9-3.4-1.3-4.3-2.3
	c-1-1-3-3.5-3.7-7.8c-0.8-4.3-3.3-5.4-4.2-6.2c-1-0.9-1.4-2.6-0.8-2.1c2.1,1.5,1.1-5.6-0.4-7.5c-1.4-1.9-3.3-0.9-4.2-2.4
	c-1-1.6-0.9-1.1-0.7-1.7c0.2-0.7,0.6-2.8,1.5-1.7c1,1.2,1.6,1.6,2.6,1c1-0.7,1.2-1.4,1.8-0.7c0.7,0.8,1.8,5,2.8,5
	c1,0,2.1-0.5,2.1-0.5s-2.1,0.5-2.4-1.6s-0.3-2.4,0.3-2.4c0.7,0,2.6-1.9,3.6-1.6c1,0.3,5,3.2,6.4,3.2c1.4,0-2.2-0.8-3.2-2.4
	c-1-1.6-2.1-2.7-2.6-2.7s-2.9,1.2-3.8,1.2s-1.2-0.7-2.3-0.7c-1.2,0-3.3-1.2-2.7-1.4c0.7-0.3,1.4-4.5,2.5-4c2.5,1,0.5-1.7,2.4-3
	c1.9-1.2,4.5,3.1,4.8-1.4c0.1-1.6,3.4-7.7,1.7-9.8s-2.1-4.7-2.8-3.9c-0.7,0.8-2.2-2.4-2.9-0.8c-0.7,1.6-2.5,1.5-1.7,3.2
	c0.8,1.8-0.8,1.7-1,0.3c-0.3-1.9,1.5-3.6-1.2-5.8c-2.8-2.2-7.8-4.4-8.2-2.3c-0.2,0.8,1,2.1,1,2.1s-4.1,2.8-3.7,3.3
	c0.3,0.5,0.9,1.4,2,1.6c0.3,0-1.2,1-0.8,1.7c0.2,0.5,2.2,0.8,2.5,1.3c0.9,2.3,1.9,4.7,2.1,5.4c0.3,1.2,0.3,1.8-1.8,1.2
	c-2.1-0.7-3,1.3-3,1.3s-0.7-6.6-1.8-8.2c-1.2-1.6-1.7,3.8-2.4,3.3c-0.7-0.7-3.2-4-2-5.6c1.2-1.6,4-9.3,3.6-11
	c-0.5-1.7,3.8,3.3,4.1,2.1c0.2-0.7,0-4.7-0.9-7.3c-0.6-1.6-2-2.3-1.6-2.7c1-1,2.1-3.8,2.2-5.3c0.1-1.4-0.2-3.6,0.6-4.3
	c0.8-0.7,2-3.4,2.8-4.8c0.8-1.4,2.7-2.1,2.5-4.1c-0.2-2.1-0.1-2.5,0.9-3.7c1-1.3,2-5.2,0.9-7.3c-1.2-2.1,1-1.9,0.7-3.2
	c-0.3-1.2-0.2-1-0.2-2.4s0.1-5.8-0.7-7.2s-3.6-1.1-4.4-2.9c-0.8-1.7-1.1-0.6-1.3-2.3c-0.3-1.7-0.2-1.2-1.1-3s0.6-3.4,1.2-4.4
	c0.7-1.2-1.2-6-2.4-6c-1.2,0-2.8-3.6-3.8-3.3c-1.2,0.3-0.6,1.7-1.5,2.7c-1,1-1.1-0.2-2.1-0.8c-1.6-1-1.6,2.1-3.6,2.2
	c-1.9,0.2-4.2-0.8-2.6-2.2c2.5-2.3-0.7,0.3-0.4-2.6c0.1-0.7,0.3-4.1,0.2-4.8c-0.1-2-1.1-3.6-0.6-4.4c0.5-0.8,2.2-4,2.4-6.2
	c0.1-1-1-2.2-0.8-4.8c0.3-3.5,1.7-8.5,1.2-9.5c-0.4-0.7-1.9,5.7-2.4,10.5c-0.4,3.4,0.1,5.6,0.1,6.1c0,1.4-3.2,4.5-2.7,5.8
	c0.5,1.2-0.5,1.4-1.6,1.9c-1.2,0.5-1.7,2.4-1.8,0.2c-0.1-1.1,0-5-1-6.1c-1-1.2-2.5-1-3.3-0.4c-0.8,0.7-2.1-0.5-3.6-0.3
	c-1.4,0.2-3,0.6-2.9-0.4c0.3-2.1-3.2-2.9-3.6-4.7c-0.1-0.7,1.4-7.8,1.3-8.3c-0.2-0.9-1.5,1.7-1.8,2.9c-0.6-0.7-2.4-0.4-2.6-1
	c-0.7-3-2.9-1.9-4.3-3.4c-0.6-0.6-4.1-4.9-4.1-6.1c0-1.2-1.5-2.1-2.8-2.7c-1.2-0.7-0.5-0.2-1.3-1.2c-0.9-1.2-4.2-8.4-5-8.2
	s-2.2-2.6-3.3-2.4c-1.2,0.2-5.6-3.7-5-4.7c0.6-1-3-2.7-4.6-2.2c-1.6,0.5-6,0.7-7.4,1.2c-0.3,0.1-2.8,3.7-2.8,2.6
	c0.1-1.4,2.8-6.4,2-6.7c-0.3-0.1-3,4.5-3.3,4.4c-1.2-0.7-3.9-3.7-4.1-4c-0.5-0.7,3.6,5.4,1.3,5.7c-0.7,0.1-0.9,2.2-0.7,3.2
	c0.2,1-0.7,0-1.8-0.7c-1.2-0.7-1.2-1.2-1.5,0c-0.3,1.2-0.6,0.4-1.2,2.3c-0.7,1.9-2.7,0.2-2,1.7c0.7,1.4-1.1,2.1,0.2,2.8
	c1.2,0.7,0.7,1.2-0.5,1.2c-1.2,0-0.4-1.7-0.6-3.1c-0.2-1.3-1.3,0.6-1.3-0.9s-1.2-0.1-1.1,0.8c0.2,0.8-1.2-0.5-1.6-1.3
	c-0.5-0.8-1.3,1.3-1.3,1.3s2.2,1.9,0.9,2.1c-1.3,0.2-1.2,0.2-2.1-1.2c-0.8-1.4-2.7-1.2-3.5-2.2s-2.7-4.5-3.6-5.4
	c-0.8-0.8,2.1,6,2.1,6s2,1.5,2.7,1.8s2.7,1.8,2.7,1.8s-1.9-0.3-1.9,0.3c0,0.7,0,1.8-0.2,2.2c-1.6,3.6-2.7,0.4-3,0.6
	c-0.5,0.3-3.2,4.6-4.4,3.6c-1.2-1-0.1-7.7-1-7c-0.3,0.3-1,7.4-1.3,7.6c-2,1.8-0.6,2.6-0.5,2.7c0.4,0.3,5.7-3.9,6.7-4.3
	c0.8-0.4,2.3-0.9,2.3-0.9s2.2-2.1,2.2-3.1c0-1-0.7-1.2,0.7-1c1.2,0.2,2.9,0.7,3.1,0c0.2-0.7,0.7-1.4,1.2-0.3
	c0.5,1.2,1.4,1.2,2.4,1.2c1,0,0.1,1.2,0.8,2.2c-0.4-0.3-1.1-0.7-1.9-0.5c-1.9,0.3-0.9,1.1-3,1.3c-2.1,0.3-7.5,3.2-7.9,3.6
	c-0.3,0.5-4.8,2.9-5.5,3.8s-1,0.7-2.1,1s-5,1.4-5,2.4s-1.4,0.5-1.2-0.5c0.2-1,0.3-1.2,1-1.7c0.7-0.7,4.5-1.8,4.5-1.8
	s0.7-3.2,0.2-3.6c-0.5-0.5-4-1.2-4.3-0.7c-0.3,0.7-4,1.2-4.8,0s-1-1.3-0.8-2.6s-1.4-4.5-2-5.2c-1-1.1-6.1-5.2-4.8-2.3
	c0.7,1.4-3.3-2.5-3.4-1.3c-0.1,0.8,2.5,4.8,3.6,6.3c1.2,1.5-0.4,2.3,0.3,2.7c0.4,0.2,0.7,0.4,1.1,0.6c-0.8,0.2-2.7-0.5-3.2-0.5
	s-3.1,0.5-3.6,1.1c-0.6,0.6-6.4-5-6-4c0.3,0.6,2.5,2.9,3.7,5.7c1,2.1,1.1,4.5,0.4,5.5c-2.7,3.6,4.6,2.9,5.6,2.9s5.7-0.5,6.4-0.8
	s4.7,3.2-2,1.6c-1-0.2-8.4,0-9.3,0.3s-2.6-2.1-5-9.2c0,0-2.1-3.8-3.2-4.6c-1.1-0.8-1.8-1.6-3.3-1.6c-1.4,0-0.8,0.4-2.5-1.8
	c-1.7-2.2-3.1-2.1-3.6-3.2c-0.3-0.6-1.6-1.1-3.6-2c0,0-0.7-0.9-1.5-1.6c-0.6-0.4-0.9-1.3-0.5-1.5c0.4-0.2,1,0.8,1.2,0.7
	c0.3-0.1,1.2-0.2,1.7,0.8c0.7,1,0.6,0.8,1.8,1.4c0.9,0.4,1.8,1.3,2.3,1.9c1,1.1,2.1,2.8,2.9,2.8c1.2,0,0.7-0.4,1.6-0.4
	c1,0,1,1.3,1.3,2.1c1.2,2.1,2.7,1.2,3.2,0.9c0.9-0.7,0.7-4.7,0.7-4.7s-1.5,0.1-1.6-0.9s0-0.2-1-0.7c-1-0.5-1-0.5-0.4-1.1
	c0.6-0.6-0.3-2.2-0.1-1.4s0,0.9-1.1,1.5c-1.1,0.7-0.4,2.9-1.1,3.1s-1.5-2.9-1.7-3.9c-0.2-1.1-0.9-0.1-1.8,0c-1,0.1,1.8-2.7,1.8-2.7
	s-0.7-0.8-1.5-0.2c-0.9,0.6-0.8,1.4-1.4,0.8s-0.8,0.1-1.7,0.7c-0.9,0.6-1-0.2-1-1.1c0-0.8-0.7-0.2-1.2-0.5c-0.7-0.3-0.6,0.3-1.2,0.8
	c-0.6,0.4-1.2-0.1-1.5-0.5c-0.2-0.4-0.5-0.4-0.9-1.4s-2.4-1.2-2.4-1.2s0.8-0.6,1.3-1.1c0.5-0.5,1.1-1.2,1.7-2.3
	c0.7-1.1,0.6-0.2,1.2-0.8c0.7-0.6,1.6,0.2,1.5-0.3c-0.1-0.5,1,0.1,1.2,0.1c0.8,0,0.1-0.6,0.7-1.3c0.6-0.8,1.9,1.9,2.1,1
	c0.1-0.6-1.8-1.8-1.8-3.1c0-0.7,3.3,0.1,3.7,0c0.8-0.1-2.7-4.5-2.7-4.5s0.4,3.3-0.1,3.4c-0.2,0-0.7-0.9-0.9-0.9
	c-1.4,0.2-1.1,2.3-1.2,3.6c-0.2,1.2-0.8,0.8-1.4,0.8c-0.7,0-0.8-1.2-1.2-0.7c-0.3,0.7,0,0-0.8,1.1s-3.1-0.4-4.2-1.7
	c-1.2-1.2-1.1-2.7-1.2-1.8c-0.1,0.8-2.3,0.3-2,0.8s-3.7-0.5-4.6-0.2c-0.9,0.3,2.2,1.7,1.3,3.1C92,55,94.6,56.6,95.3,57
	c0,0,4,2.8,4.8,3.1c0.8,0.2,0.7,0.7,0.7,1.2c0,0.7-3-1.2-3-1.2s-9.5-6-12.6-6.9c-3.1-1-11-6.1-24.1-6L59,45.5c0,0,4.1-0.2,4.7,0.1
	c0.6,0.3,3.6,1,4.4,0.8c0.8-0.2-0.6-3.4,0.9-2.3c1.4,1.1,3.6,2.2,4,1.9c0.4-0.4-1.2-2.8,0-2.3c1.2,0.5,2.1,1.3,3,2.3
	c0.8,0.9,1.7,2.2,3,1c0.5,2.1,3.5-0.7,4.3,0c0.8,0.7,2.9,0.6,3.5-0.1c0.6-0.7,4.7-2.7,4.5-3.5c-0.1-0.3,1.7-2.4,0.5-2.3
	c-0.4,0-3.7,2.2-4.2,2.3c-1.6,0.2-3.2,0.5-3.7,0.6c-1.2,0.2-2.5-0.2-3.6-0.2c-1.2,0.1-3.7-0.5-3.1-1.2c0.7-0.7,1.9-1.7,1.6-2.3
	c-0.3-0.7-2.3,2.7-3.1,2.2c-0.8-0.5,0.6-4.6,1.2-5.8c-0.4,0.8-2.6,4.7-3.4,4.5c-0.6-0.1,0.1-0.6,0.1-0.8c0.9-0.6-0.4-2.9-0.8-2
	c-0.3,0.5-1,1.3-0.9,1.5c-0.3,0.2,0,1.2-0.5,1.1c-2.1-0.3-3.9-0.2-4.5,0.6c-0.6,0.8-0.8,1.6-2,0.9c-1.2-0.8-3.6-1.4-2.1-2.3
	c1.4-0.9,1.2-1.8,1.8-1.3c0.7,0.5-0.2-0.8-1.5,0c-1.2,0.8-1.2,1.8-1.8,1.4c-0.2-0.1-1.3-0.6-1.5-0.9c-0.2-0.7-0.6-2.4-0.6-2.4
	s1.3,1.9,1.6,2.5c0.2,0.6-0.7,0.5-0.9,0.9c-0.5,0.8,0.8,1.7-0.6,1.9c-1.2,0.2-1,1.4-2.5,0.9c-1.5-0.6-2.2,0.8-1.9-0.8
	c0.3-1.5,0.8-1.8,0.8-1.8s-2.5,2.1-1.7,2.9c0.8,0.8,0.4,1.1-0.4,1.2c-0.8,0.1-11.5,0.2-13.3,0.7c-1.7,0.4-8.9,0.9-12.9,2.2
	c-3.9,1.3-2.7,0.4-1.7-0.2c1-0.6,2.1-1.2,3.2-1.2c1.1,0,4.5-0.8,5.3-1.2c0.8-0.4-0.3-1.1,0.9-1.2s3.5,0.2,4.4,0.2
	c1,0,3.4-0.2,3.9-0.2c0.6,0.1-8-1.9-8.7-2.8c-0.8-0.9-1.1-1.2-1.6-1.5c0,0-0.6,0.2,0.6-0.8c1.2-1,3-2.3,3.5-2.7
	c0.5-0.4,4.7-3.3,4.5-3.6c-0.7-1.3-6,1.7-6,1.7s-1.5-0.5-2-0.9c-0.8-0.7-0.2-0.3-0.6-1.3c-0.3-1.1-1.7-1.2-0.6-1.4
	c1.2-0.3,2.6-2.7,2.6-3.3c0-0.6-0.8,1.7-2.7,2.1c-1.9,0.3-4.2,2.9-2.9,2.9c2.3,0,3.1,2.7,2.4,2.9c-0.7,0.2-1.4,0.2-1.3,1
	c0.1,0.8-0.5,1.5-0.6,2.7c-0.1,1.2-0.8,1.2-1.1,1.8c-0.3,0.6-1-1.2-1-2s0.3-1.2,0.5-2c0.2-0.8-1.6,0-2.5-1.2c-0.9-1.2,0.3-1-1.2-1.7
	c-1.5-0.8-0.8-0.7-2.1-1.1c-1.4-0.4-0.1-0.9-1-2.1c-0.9-1.2-4.9-7.7-4.9-7.7c0,1.8,0.4,8.4,4.7,12c1.3,1.2,3.2,3.2,2.9,4.4
	c-0.3,1.2,0.6,2.6-0.6,3.4c-1.2,0.8-1.7,0.4-2.5,1.2c-0.8,0.8-1.3,0.4-1.9,1c-0.6,0.6-3.6,1.2-4,1.6s2.4-0.5,2.6,0.5
	c0.2,1,0.3,1-0.6,1l-1.9,0.8c-4.8,0.4-6.3,1.8-5.8,0.6c0.4-0.8,0.6-0.9,1.2-1.2s0.8-1.1,0.3-1.1s-0.7-1.7-0.3-2.3
	c0.3-0.7,1.3-0.6,1.9-1.1c0.6-0.5,2-0.2,2.7-0.8s0.1-0.8-0.7-0.6c-0.8,0.2,0.1-1.9-0.6-2.7c-0.7-0.8-3.1,1.1-3.5-0.8
	c-0.2-1-1.1-1.7-1.1-1.2c0,0-0.4,0-1.6-0.8s1.1,0.1,1.1,0.1c0.8-1.4,3.6-5.5,3.2-6.4s-0.8-3.1-2.5-3.8c-1.7-0.8-4.3-2.6-5-4
	C4.1,21,2,18.9,1.2,17.9c-0.9-1.1-2.1-1.6,0-6C2,9.9,1.1,8,1.1,8h137c0,0-0.3,1.7,0.7,2.1c1,0.3,1.4,1.9,1.7,3.1
	c0.3,1.2,1.6,2.6,1.4,4.6c-0.2,2.1-1.2,4.6,0,5.3c1.2,0.7,0.8,1,2.6,1.6C146.3,25.3,284,34.8,284,34.8s-1.2,1.4,0,2.4
	c1.2,1,1.9,3.1,1.6,3.8c-0.3,0.8-0.9,3.8,0.1,4.6c0.9,0.8,1.1,1.2,1.8,1.2c0.8,0,3.6-0.5,4-0.2s2.4,0.3,2.6-1.7c0.2-2.1,0-5,1-7
	c1-2.1,1.6-3.6,0.7-5.6c-1-1.9-2.7-4-1.7-6.7c1-2.7,1.6-4.1,2.2-4.5c0.7-0.3,2.2-0.5,2.2-1.2s1.2-1.6,1.2-1.6s1.9,1.5,2.2,2.6
	c0.3,1.2,1.2,0,3.4,0c2.2,0,0,1.6-0.8,1.6c-0.8,0-3.2-1.2-3.1-0.3c0.2,0.8,3.6,1.6,3.6,1.6s2.1,0,2.6,0s0.8,0.8,0.8,1.4
	c0,0.7-2.6,0-2.6,0l-4.3-0.8c0,0,1.2,1,1.2,2.1c0.2,1.2,1.7,0,4.3,0c2.6,0,2.1,0,2.6,0c0.5,0,0.8-1.4,1.9-2.6s2.2,2.6,3.1,1.6
	c0.8-1,3.4,1.2,5.3,1.5c0,0,3.5,6.3,2.4,7c-1.2,0.7-1.7,0.2-1.7,1c0,0.8-1-4.8-1.9-5.6s0.5,3.4,0.3,4.6s-1-0.8-1.6-1.4
	c-0.7-0.7-2.2-0.6-1.9-0.1c-0.3-0.5-3.9-3.7-5.2-4.9c-1.4-1.2,4.1,4.7,3.3,4.9c-0.8,0.2-7.7-3.7-8-4.7c-0.3-0.8,0,1.5-1,1.7
	c1.4,1,6.1,4.3,4.9,6.5c-0.7,1.2,2.7-1,6-0.2c0.7,0.2,2.6-0.7,3.2,0.3c0.7,1-1.2,1.7,0.5,1.7c1.6,0,3.4,1,3.3,1.6
	c-0.1,0.7,3.6-1.3,2.1,1.7c-1.3,3.1,0.1,0.2-1.2,0.2c-1.2,0-1.7,0.5-2.4,1.4c-0.7,1-2-1.5-2.7-2.4c-0.7-0.8-1.1,1.8-1.2,2.7
	c-0.2,0.8-6-0.9-6.7-0.4c-0.8,0.5,4.4,2.1,4.9,3.6c0.5,1.5-0.2,2.6-1.6,3.6c-1.3,0.9-5.6,3.7-3.4,3.6c1.5-0.1-1.2,3.4-3.6,5.1
	c-1.6,1.2-0.3,2.7-0.2,2.8c0.4,0.4,5.3-6.5,5.9-6.5c1.2,0.1,2.4-0.3,1.9,0.5c-0.7,1.1-0.8,4.8-1.9,4.6s-4,0.8-3.6,1.6
	c0.3,0.8,3.2-1.2,3.6,0c0.5,1.2,1,3.1,0,3.6c-1,0.7-1-1.9-2.7-1.4c-1.7,0.5-3.6-1.2-5-0.4c-1.4,0.8,4,0.3,5.7,1.9s1.6,4.2,3.6,4.2
	c2.1,0,4.5,1,3.6,1.9c-1,1-3.6,0.9-2.8,2c0.6,0.8,2.6,5.9,2.1,8.3c-0.3,1.2,1.8,0.1,2.2,0.1c1.2,0.2,1.2,1.9,0.5,3.1
	c-0.8,1.2-1,1.8-2.9,1.8c-1.9,0-4.2-1.2-4.7,0.5s1.8,0.2,3.1,0.8c1.2,0.7,1.2,0.8,0.5,1.2c-0.7,0.3,0.7,1.2,1.6,2.1
	c1,0.8,1.7,2.4-0.3,2.1c-2.1-0.3-3.6-1.1-4.1,0c-0.5,1.1-2.2,1.7-1.2,2.7c1.2,1,2.9,3.1,0.8,3.4s-6.2-0.7-6.4-0.2
	c-0.2,0.5,4.8,1.2,5.7,2.2c0.8,1.2,0.7,0.8,0.9,2.1c0.2,1.2-0.2,0.7,0.3,1.7s1.9,1.6,1.4,2.4c-0.5,0.8-2-0.2-2-0.2s-2.6,0-1.8,0.9
	c0.8,0.8,4.3,3.1,4.3,3.1s1.1,2.8,1,4c-0.2,1.2-0.3,2.4,1.3,2.5c1.6,0.2,1,2,2,2c1.2,0,2.3-1.4,2.8-0.1c0.5,1.2,0,2.4,0.5,3.4
	c0.5,1,4.6,3.6,5.8,4.5c1.2,0.8,2.1,2.5,1.1,3c-1.2,0.5-0.7,1.7-0.2,5.7c0,0-1.6,1.9-0.7,1.9c1,0,1.4,1.6,2.6,1.6s1.2,0.5,3.1,0.5
	c1.7,0,1.9,1.2,3.4,1.2c1.4,0,1.6,1.2,1.4,1.9s-0.7,1.2-2.2,1.7c-1.6,0.7-3.4,2.1-2.2,2.2c1.2,0.2,2.6,1.2,2.6,1.2s1.2-1,2.2-1.7
	c1.2-0.8,2.1,0,2.1-1c0-1-0.8-2.2-0.8-3.2c0-1,0.3-0.5,2.1-0.3c1.8,0.2,3.2-1,3.4-1.6c0.2-0.7-2.7-0.7-3.6-0.3
	c-0.8,0.3-2.4-0.7-2.9-1.7c-0.5-1.2-2.4-1-3.8-1.4c-1.4-0.5-2.1,1.2-3.1,1.6c-1,0.5-1.5-2.7-1.5-2.7c0.2-1.9,1.3-5.8,1.3-5.8
	s-1.4-2.6-2.4-3.1s0.3-1,0.5-1.9c0.2-1,1.4-4.8-0.7-4.6c-2.1,0.2-3.6,0.3-4.6,1.2c-1,0.8-3.3-3.2-3.4-3.8c-0.2-0.7,1.4-2.6,1.4-3.4
	s1.3-0.7,0.9-1.4c-0.5-0.8-0.5-1.9-0.5-1.9l-2.7-1.6c0,0-2.6-4-3.8-3.2c-1.2,0.8-2.6-0.3-1.4-1s0.2-3.6-0.5-4
	c-0.7-0.3-0.5-5-1.2-5.3s-1-1.9,1-1.7c1.9,0.2,3.2,0,4.1,1.2c1,1.2,1.4,1.6,1.2,2.9c-0.2,1.2,0.3,2.2,1.2,2.4c1,0.2,2.1,1.2,2.1,2.6
	s0.2,4.3,2,4.6c6.1,1.1,9.4-3.5,8.6-5.1c-0.8-1.6-4.9,5.9-7.6,0c-0.5-1.1-1.7-0.8-1.7-1.6c0-0.8-1.4-2.6-2.2-3.4
	c-0.8-0.8-1.6-1.4-2.1-2.6c-0.5-1.2-0.7-1.7-1.2-1.6c-0.5,0.1,0.8-2.2,0-2.9c-0.8-0.7-3.8-2.4-2.1-2.7c1.7-0.3,2.6-2,3.4-1.4
	c0.8,0.6,0.8-4.2,1.4-3.3c0.7,1,2.1,3.2,2.6,3.3c0.5,0.1-0.4-3.7-0.2-4.3c0.2-0.7-2.5-1.4-3.2-1.4s-0.8-4.5-0.2-4.5
	c0.7,0-3.1-1.9-2.2-2.9c0.9-1,1.2-2.7,2.2-1.4c1,1.2,1.4,0.8,1.4,1.4s0.7-2.6-1.4-3.6c-2.1-1-6.2-2.1-6.2-3.6s0.5-3.6,1.4-3.4
	c1,0.2-1.7-3.4,0.7-2.9c2.4,0.5,4.1,1.9,4.5,1.2c0.3-0.7-3.6-2.6-4.8-2.4s-3.8,2.3-2.2-0.2c1.6-2.5,2.4-2.5,2.9-2.5s-0.2-2-0.8-2.8
	c-0.7-0.8-2.4-1.9-1.6-2.7c0.6-0.6,1.2-1.6,2.1-1.8c0.9-0.2,1.2-1.2,1-1.9c-0.5-1.2-0.4-1.6,1-1.5c1.4,0.2,2.2-2.2,3.6-1.6
	c1.4,0.7,2.9,1,3.2,2.4c0.3,1.4,0.7,3.1,1,4.3c0.3,1.2,0.5,2.6-0.5,3.4c-1,0.8-1.6,4.3-0.2,2.3c0,0,1.4-3.2,1.6-2.5
	c0.1,0.6,1.1,14,4.8,18.5c0.8,1,0.7,6.2,1,7c0.3,0.8,1.8,4.6,1.8,6c0,1.4,1,7.4,1.8,8.4c0,0,4.2,6.3,5.2,11.9
	c0.3,0.9,3.2,6.9,3.2,6.9s5.4,12.7,5.8,13.3c0.4,0.6,6,8.6,6.3,10c0.4,1.2,2.9,6.3,3.7,7.6l-10.8-17.9l-0.8,0.8l8.2,21.3
	c0,0,2,6.4,2,7.7s0.9,3.8,1.2,4.2c0.4,0.4,0.8,3.6,0.9,4.6c0.1,1.2,1.2,3.4,1.5,3.9c0.4,0.6,2.8,8.2,3,8.8c0.2,0.8,5,12.1,7.3,16.5
	c2.3,4.4,5.1,10.8,5.1,10.8s4,13.2,4.5,15c0.5,1.8,1.9,5.5,2.4,6c0.5,0.7,2.5,5.8,3.1,6.4c0.7,0.7,1.2,6.1,1.2,6.5
	c-0.1,0.3,5.1,7.5,5.1,7.5s-3.1,2.5-2.7,3C394.6,251.7,400,262.8,399.2,274.1z M129.1,59.7c0-0.8-1.4-3.6-1.4-3.6
	c0.1,2,1.1,5.9,1.4,5.9C129.5,61.9,129.1,60.4,129.1,59.7z M332.1,260.1c-0.7-1.6-2.9,0.3-3.4,1.4c-0.5,1.2-1.9,0-3.6,0
	c-1.1,0-1.4,0.8-2,1.2c-0.7,0.2-1.2,0.4-1.2,0.4c0.5,0,0.9-0.2,1.2-0.4c0.6-0.2,1.2-0.3,2-0.3c1.6,0.1,3.1,0.2,4.4-0.2
	c1.5-0.4,0.6-0.5,1.5-0.2C332.1,262.5,332.7,261.6,332.1,260.1z M343.7,259.4c0-0.5-2.1,1-3.6,1c0,0,2.1,1.7,3,0.3
	c0.9-1.3,2.4,1.1,3.5,1.2s3,0,4.3,0c1.3,0-3.4-1.8-3.8-2.1C346.5,259.5,343.7,259.9,343.7,259.4z M356.7,160.7
	c-0.8-1.2-3.8-6-3.5-8.3c0.3-2.2,0.8-1.2,1.2-1.9s-0.5-1.4-1.2-1.2c-0.8,0.3-2.8-3.6-3.2-2.7c-0.3,0.8-0.1,3.6,0,4.7
	c-0.2-0.7-0.4-2.9-0.6-3.8c-0.2-1.2-1.8-1.2-2.1-2.1c-0.3-0.9,1.4-1.9,1-1.7s-1.4-0.2-1.4-0.2c0.7-0.6,0-1.2,0-1.2
	c-0.4,0.1-1.5-0.7-1.7,0c-0.2,0.7-1,1.2-0.7,1.8c0.3,0.7-0.2,1.2,0.7,1.4c0,0-0.3,2.4,0.3,3c0.7,0.7,1.5-0.6,1.1,0.4
	c-0.5,1,0.7,1,1.4,1.7c0.8,0.8,0.2,2.2,0.7,2.1c0.5-0.2,2,3,2,3.9C350.6,157.8,357.6,162.1,356.7,160.7z M381.9,218.2
	c-0.8-0.9-0.8-0.9-0.8-0.9c-0.5,1.4-0.8,2.8,0,3.1C381.9,220.7,382.6,219.1,381.9,218.2z M388.9,237c-0.5-0.4-3.1-3.5-3.3-4.1
	c-0.1-0.6-0.6-3.1-0.6-3.1s-2-6.2-2.8-5c-0.7,1.2,1.7,3.3,1.7,4.2c0,1,0.1,3.7,0,4.7c-0.1,1-0.8,2.9,0.1,2.1c0.8-0.8,2-1.4,2-0.8
	s0.9,2.7,0.9,3.7c0,1.1,2.5,5.4,2.5,5.4s-0.6-3.4-0.6-4.2S389.3,237.3,388.9,237z M268,200.2c0,0.1,0,0,0.1-0.2
	C268.1,200,268,200.1,268,200.2z M316.5,34.2L316.5,34.2C316.6,34.3,316.5,34.3,316.5,34.2z M332.8,71.1c0,0.1,0,0.1,0.1,0.2
	C332.9,71.2,332.8,71.2,332.8,71.1z M135,77.2c0.3-0.3-0.2-1.2-1.1-2C134.3,75.9,134.5,77.7,135,77.2z M360.6,143.7
	c0.1,0.1,0.2,0.3,0.2,0.3L360.6,143.7z M378.3,331.1c0.2,0.8,0.5,1.4,0,1.7c-0.5,0.3-0.2,0.9,0,1c0.2,0.1,1.3,2.1,1.3,1s0-1.6,0-1.6
	s1.2-1.2,0.6-1.2C379.6,331.9,378.3,331.1,378.3,331.1z M385.5,327.3c-0.6,1.2,0,2,0,2s1.4-1.8,1.2-2
	C386.4,327.1,385.5,327.3,385.5,327.3z M380.3,330c-0.2,1.9,0.9,1.1,0.9,1.1s0.4-0.8,0-1.1S380.3,330,380.3,330z M377.1,336.5
	c0.9-0.9,0,0-1.4,0C375.7,336.5,376.4,337.4,377.1,336.5z M388,321.1c-0.6,0.2-0.9-1.4-1.2,0c-0.4,1.4,0,1.3,0.7,1.2
	C388,322.1,388,321.1,388,321.1z M382.9,325.9c-0.2,0.6-0.4,1.2,0,1.3c0.4,0.1,1.1-0.2,1.1-0.7C384.1,326.2,382.9,325.9,382.9,325.9
	z"/>
</svg>
