<?xml version="1.0" encoding="utf-8"?>
<!-- Generator: Adobe Illustrator 18.0.0, SVG Export Plug-In . SVG Version: 6.00 Build 0)  -->
<!DOCTYPE svg PUBLIC "-//W3C//DTD SVG 1.1//EN" "http://www.w3.org/Graphics/SVG/1.1/DTD/svg11.dtd">
<svg version="1.1" id="Layer_1" xmlns="http://www.w3.org/2000/svg" xmlns:xlink="http://www.w3.org/1999/xlink" x="0px" y="0px"
	 viewBox="0 0 397.7 381.8" enable-background="new 0 0 397.7 381.8" xml:space="preserve">
<path fill="#FFFFFF" d="M169,65.1c0,0-0.1-0.1-0.1-0.1C169.4,65.3,169.5,65.6,169,65.1z M223.5,80.6c-0.1,0.4-0.2,0.7,0,0.5
	C223.7,80.9,223.7,80.7,223.5,80.6z M133.2,66.5C133.2,66.5,133.2,66.5,133.2,66.5c0.1,0.1,0.2,0.2,0.4,0.3
	C133.4,66.6,133.3,66.4,133.2,66.5z M345.8,292c-1.9,0.3-3.5,1.8-3.8,3c-0.3,1.3-2.2,2.5-1.3,2.5s1.3-1.9,2.4-1c1.1,1,4,2.4,4,1
	s-0.5-3.2-0.6-3.7c-0.2-0.5,0.6-1.3,0.6-1.3L345.8,292z M310,301.2c-1,0.2,0.5,1.6,0.8,0.8C311,301.2,310,301.2,310,301.2z
	 M348.6,143c0-0.1,0-0.2-0.1-0.3C348.5,143,348.6,143.2,348.6,143z M397.3,264.7c-0.8,11.3-3,12.9-3,13.5c0,0,1,4.3-0.1,5.4
	c-1.1,1.2-3.8-0.8-4.7-0.2s-1.7,0.3-2.4-0.2c-0.5-0.4-3.6-1.9-3.2-2.5c0.9-1.3,2.6-2.4,0.9-2.4c-1.8,0-2.9-0.2-4.9,0
	c-2.1,0.2-4,0.3-4.6,0.2c-0.6-0.2-3.7-4.6-2.3-4.6c1.4,0,2.3-2.5,3-2.9c0.6-0.3,0.4-6.1,0.4-6.1c-0.4-4.8,1.4-3,0.8-4.3
	c-0.6-1.3,1.4-1,1.7-2.9c0.3-1.9,1-1.7,1.9-2s-3.5-1-3.5-1.8c0-0.8-1.2-2-2-3.9c0,0-6.1-6-6.4-5.2c0,0-0.6,2.4,0.2,3.5
	c0.8,1.1-0.3,2.1-1.9,2.4c-1.6,0.3-1.3-1.8-1.3-1.8s1.6-3.4,1.4-5.4c-0.4-4.8-1.2-3.5-0.8-5.4c0.3-1.9-6.4-11.8-9.7-10.5
	c-0.8,0.3-1.2,2.8-1.2,3.6c0.1,0.7-0.8,2.8-0.8,3.5c0,0.6-0.6-0.1-2.7,2.2c-3.3,3.7-8.8,1.7-8.9,4.3c-0.1,1.7,6.2,3.7,7.5,7.9
	c1.3,4.1,7.2,8.2,10,7.5c1.1-0.3,0.7-2.1,2.3-3.8c0.9-1,1.6,1.5,0.8,1.8c-0.8,0.3-1,2.2-0.2,2.1c0.8-0.2-0.9,1.3-2,1.4
	c-3.1,0.2-9-4.5-9.2-1.9c0,0.7-2.1,2.1,0.6,4.1c2.5,1.9-2.2,8.3-1.4,10.2c0.3,0.8,4.4-1.1,4.9-0.4c0.6,0.9,2.7,7.4,2.7,6.8
	c-0.2-4.1,2.4-5.9,4.1-5.2c0,0-0.9,1.9,0.5,2.7c1.4,0.8,2.5,2.5,2.5,2.5c0.8,1.1-8.3,1.8-9.6,2.9c-3.7,2.9,0.5,8.3-2.2,8.6
	c-1.8,0.2-4.3-2.4-5.6,0.3c-0.7,1.6-7.8,2.5-8,1.4c-0.1-0.7,0.5,3.9-0.6,5.4c-0.7,0.9-2.3-0.8-4.1-1.4c-4.2-1.5-9.2-5.7-9.5-4.8
	c-0.3,1-3.5-0.2-5.4-0.6s-4.7-2.1-6.8-2.1c-2.1,0-6.3,1.4-6-0.2c0.3-1.6-2.5-4.1-2.2-5.3c0.3-1.3-1.9-9.1-2.4-9.9s2.1-2.4-0.2-2.4
	c-2.4,0-3.8-3.8-3.2-3.8s0.8-3,0.8-3.8c0-0.8,3.2-3.7,4.1-3.7c0.6,0,13.8-1.5,13.3-1.8c-0.3-0.2-11.2-1.7-14.6,0.7
	c-0.8,0.6-6.2,2.7-6.2,3.5s-0.3,2.7-1.8,3.1c-2.1,0.6-2.6-1.6-1.7-4.7c0.5-1.6-2.1-4.4-1.3-6c0.8-1.6-0.1-2.6,0.7-3.7
	c0.8-1.1,0-5.8,0.8-5.9c0.8-0.2,4.1-1.4,3.1-2.2c-5.1-4.5,1.8-10.8,3.1-12.3c-1.2,0.9-6.2,5.3-6.1,6c0.2,1,0.2,4.9,0.2,4.9
	s-0.8,1-1.8,1.6c-1,0.6-1.8-0.6-3-1.1c-1.3-0.5-1.9,1.2-2.7-0.4c-0.8-1.6-3,0-3.5-1.3c-0.4-1.2-6.2-4.6-7.1-6
	c0.8,1.4-0.7,4.8-0.2,5.3c0.6,0.6,5.6,4.5,5.7,5.6c0.2,1.1-2.6,0.4-3-1.6c-0.5-1.9-3.3-1.3-4.3-2.3c-1-1-3-3.5-3.8-7.8
	c-0.8-4.3-3.2-5.4-4.2-6.2c-1-0.8-1.5-2.5-0.8-2.1c2.1,1.5,1-5.6-0.4-7.5c-1.4-1.9-3.3-0.8-4.2-2.4c-1-1.6-0.8-1.1-0.7-1.7
	c0.2-0.6,0.6-2.8,1.6-1.7c1,1.1,1.6,1.6,2.6,1s1.2-1.4,1.9-0.6c0.7,0.8,1.8,4.9,2.8,4.9s2.1-0.5,2.1-0.5s-2.1,0.5-2.4-1.6
	c-0.3-2.1-0.3-2.4,0.3-2.4c0.6,0,2.5-1.9,3.5-1.6c1,0.3,4.9,3.2,6.4,3.2s-2.2-0.8-3.2-2.4c-1-1.6-2.1-2.7-2.5-2.7S271,208,270,208
	s-1.2-0.6-2.3-0.6c-1.1,0-3.3-1.1-2.6-1.4c0.6-0.3,1.5-4.5,2.5-4.1c2.5,1,0.5-1.7,2.4-2.9c1.9-1.3,4.5,3,4.8-1.4
	c0.1-1.6,3.3-7.6,1.8-9.7c-1.6-2.1-2.1-4.7-2.8-3.9c-0.6,0.8-2.2-2.4-2.9-0.8c-0.6,1.6-2.4,1.5-1.7,3.2c0.8,1.8-0.7,1.7-1,0.3
	c-0.3-1.9,1.5-3.5-1.3-5.8c-2.8-2.3-7.7-4.4-8.1-2.3c-0.2,0.8,1,2.1,1,2.1s-4.1,2.8-3.7,3.3c0.3,0.5,0.9,1.4,2,1.6
	c0.3,0-1.1,0.9-0.8,1.7c0.2,0.5,2.2,0.7,2.4,1.4c0.8,2.3,1.9,4.7,2.1,5.3c0.3,1.1,0.3,1.8-1.8,1.2c-2.1-0.6-2.9,1.4-2.9,1.4
	s-0.7-6.6-1.8-8.2c-1.1-1.6-1.7,3.9-2.4,3.2c-0.6-0.6-3.1-4-2-5.6c1.1-1.6,4-9.2,3.5-11c-0.5-1.8,3.8,3.2,4.1,2.1
	c0.2-0.7,0-4.7-0.9-7.3c-0.5-1.7-2-2.3-1.6-2.6c1-1,2.1-3.8,2.2-5.3c0.2-1.4-0.2-3.7,0.6-4.3c0.8-0.6,2-3.3,2.8-4.8
	c0.8-1.4,2.7-2.1,2.5-4.1c-0.2-2.1-0.1-2.5,0.8-3.7c1-1.3,2-5.2,0.9-7.2c-1.1-2.1,1-1.9,0.6-3.2c-0.3-1.3-0.2-0.9-0.2-2.3
	c0-1.4,0.1-5.7-0.7-7.2c-0.8-1.4-3.6-1.1-4.3-2.8c-0.8-1.8-1-0.6-1.4-2.3c-0.3-1.8-0.2-1.2-1-3s0.5-3.3,1.2-4.4c0.6-1.1-1.1-6-2.4-6
	c-1.3,0-2.7-3.6-3.9-3.3c-1.1,0.3-0.6,1.7-1.6,2.6s-1-0.2-2.1-0.8c-1.6-1-1.6,2.1-3.5,2.2c-1.9,0.2-4.2-0.8-2.6-2.2
	c2.5-2.3-0.6,0.3-0.4-2.5c0.1-0.7,0.3-4.1,0.2-4.8c-0.1-2-1-3.6-0.5-4.4s2.2-4,2.4-6.2c0.1-1-1-2.2-0.8-4.8c0.3-3.5,1.7-8.5,1.2-9.4
	c-0.4-0.6-1.9,5.6-2.4,10.4c-0.4,3.4,0.1,5.5,0.1,6.1c0,1.4-3.2,4.5-2.7,5.7c0.5,1.3-0.5,1.4-1.6,1.9c-1.1,0.5-1.7,2.4-1.8,0.2
	c-0.1-1,0-5-0.9-6.1c-1-1.1-2.5-1-3.3-0.4c-0.8,0.6-2.1-0.5-3.6-0.3c-1.4,0.2-3,0.6-2.9-0.4c0.3-2.1-3.2-2.8-3.5-4.7
	c-0.1-0.6,1.4-7.7,1.3-8.2c-0.2-0.8-1.5,1.7-1.9,2.9c-0.5-0.6-2.4-0.4-2.5-0.9c-0.7-3-2.9-1.9-4.3-3.3c-0.6-0.6-4.1-4.9-4.1-6.1
	c0-1.3-1.5-2.1-2.8-2.7c-1.3-0.6-0.5-0.2-1.4-1.3c-0.9-1.1-4.2-8.3-5-8.2c-0.8,0.2-2.2-2.5-3.3-2.4c-1.1,0.2-5.5-3.7-5-4.7
	c0.5-1-2.9-2.7-4.5-2.2c-1.6,0.5-5.9,0.6-7.3,1.1c-0.3,0.1-2.8,3.8-2.8,2.5c0-1.4,2.7-6.4,2-6.7c-0.3-0.1-3,4.5-3.3,4.4
	c-1.3-0.6-3.9-3.7-4.1-4c-0.5-0.6,3.5,5.4,1.4,5.6c-0.7,0.1-0.9,2.2-0.7,3.2c0.2,1-0.7,0-1.8-0.7c-1.1-0.6-1.2-1.1-1.6,0
	c-0.3,1.1-0.6,0.4-1.2,2.3c-0.6,1.9-2.7,0.2-2,1.7c0.6,1.4-1.1,2.1,0.2,2.8c1.3,0.6,0.6,1.3-0.5,1.3c-1.1,0-0.4-1.7-0.6-3.1
	s-1.3,0.6-1.3-0.8c0-1.4-1.2-0.1-1,0.7c0.2,0.8-1.1-0.5-1.6-1.3c-0.5-0.8-1.3,1.3-1.3,1.3s2.2,1.9,0.9,2.1c-1.3,0.2-1.3,0.2-2.1-1.3
	c-0.8-1.4-2.6-1.3-3.4-2.2c-0.8-1-2.7-4.5-3.5-5.3c-0.8-0.8,2.1,6,2.1,6s2,1.5,2.7,1.8c0.6,0.3,2.6,1.8,2.6,1.8s-1.9-0.3-1.9,0.3
	c0,0.6,0,1.8-0.2,2.2c-1.6,3.6-2.7,0.4-3,0.6c-0.4,0.3-3.1,4.5-4.4,3.7c-1.2-0.9-0.1-7.7-0.9-6.9c-0.3,0.3-1,7.3-1.3,7.6
	c-2,1.8-0.6,2.5-0.4,2.7c0.4,0.3,5.6-3.9,6.7-4.3c0.8-0.3,2.3-0.9,2.3-0.9S161,64,161,63c0-1-0.6-1.1,0.6-1c1.3,0.2,2.9,0.6,3,0
	c0.2-0.6,0.6-1.4,1.1-0.3c0.5,1.1,1.4,1.1,2.4,1.1c0.9,0,0.1,1.2,0.7,2.2c-0.4-0.3-1.1-0.6-1.9-0.5c-1.9,0.3-0.9,1-2.9,1.4
	c-2.1,0.3-7.5,3.2-7.8,3.7c-0.3,0.5-4.8,2.9-5.4,3.8c-0.6,1-1,0.6-2.1,1s-4.9,1.4-4.9,2.4c0,1-1.4,0.5-1.3-0.5s0.3-1.1,1-1.8
	c0.6-0.6,4.5-1.8,4.5-1.8s0.6-3.2,0.2-3.7c-0.5-0.5-4-1.3-4.3-0.6c-0.3,0.6-4,1.3-4.8,0c-0.8-1.3-1-1.3-0.8-2.6
	c0.2-1.3-1.4-4.5-2-5.1c-0.9-1.1-6.1-5.1-4.8-2.3c0.7,1.5-3.3-2.4-3.3-1.4c-0.1,0.8,2.5,4.8,3.6,6.3s-0.4,2.3,0.3,2.6
	c0.4,0.2,0.7,0.4,1,0.6c-0.8,0.2-2.7-0.5-3.2-0.5c-0.5,0-3.1,0.4-3.6,1.1c-0.5,0.6-6.4-5-5.9-4.1c0.3,0.5,2.5,2.9,3.7,5.6
	c0.9,2.1,1.1,4.5,0.4,5.4c-2.7,3.6,4.6,2.9,5.6,2.9c1,0,5.6-0.5,6.4-0.8c0.8-0.3,4.7,3.1-2,1.6c-1-0.2-8.3,0-9.3,0.3
	c-1,0.3-2.6-2.1-5-9.1c0,0-2.1-3.8-3.2-4.6c-1.1-0.8-1.9-1.6-3.3-1.6s-0.7,0.4-2.5-1.8c-1.8-2.2-3-2.1-3.5-3.2
	c-0.3-0.6-1.6-1.1-3.6-2c0,0-0.7-0.9-1.6-1.6c-0.5-0.4-0.9-1.4-0.5-1.5c0.4-0.2,1,0.7,1.3,0.6c0.3-0.1,1.1-0.2,1.8,0.8
	c0.6,1,0.5,0.8,1.9,1.4c0.9,0.4,1.8,1.4,2.3,1.9c1,1,2.1,2.8,2.8,2.8c1.1,0,0.7-0.4,1.6-0.4s0.9,1.3,1.3,2.1
	c1.1,2.1,2.6,1.2,3.1,0.8c0.8-0.7,0.7-4.7,0.7-4.7s-1.5,0.1-1.6-0.9c-0.1-1,0-0.2-1-0.7c-1-0.5-0.9-0.5-0.4-1.1
	c0.6-0.6-0.3-2.2-0.1-1.4c0.2,0.8,0,0.9-1.1,1.5c-1.1,0.6-0.4,2.9-1,3c-0.6,0.2-1.5-2.9-1.7-3.9c-0.2-1-0.9-0.1-1.8,0
	c-1,0.1,1.8-2.6,1.8-2.6s-0.7-0.7-1.6-0.2c-0.9,0.6-0.8,1.4-1.5,0.8c-0.7-0.6-0.8,0.1-1.7,0.6c-0.9,0.6-1-0.2-1-1
	c0-0.8-0.6-0.2-1.3-0.5c-0.6-0.3-0.6,0.3-1.1,0.7c-0.6,0.4-1.3-0.1-1.5-0.5c-0.2-0.4-0.5-0.4-0.9-1.4c-0.4-1-2.4-1.2-2.4-1.2
	s0.8-0.6,1.3-1c0.5-0.5,1.1-1.3,1.7-2.3c0.6-1,0.6-0.2,1.3-0.7c0.7-0.5,1.6,0.2,1.5-0.3c-0.1-0.5,1,0.1,1.3,0.1
	c0.7,0,0.1-0.6,0.6-1.3c0.6-0.7,1.9,1.9,2.1,0.9c0.1-0.5-1.8-1.8-1.9-3.1c0-0.7,3.2,0.1,3.7,0c0.8-0.1-2.7-4.5-2.7-4.5
	s0.4,3.3,0,3.4c-0.2,0-0.7-0.9-0.9-0.9c-1.4,0.2-1.1,2.3-1.2,3.6c-0.2,1.3-0.7,0.8-1.4,0.7c-0.7-0.1-0.8-1.3-1.1-0.6
	c-0.3,0.6,0,0-0.7,1c-0.7,1-3.1-0.4-4.2-1.7c-1.1-1.3-1-2.6-1.1-1.8c-0.1,0.8-2.3,0.3-2,0.8C96,42,92,41,91.1,41.4
	c-0.9,0.3,2.2,1.8,1.3,3c-0.9,1.3,1.7,2.8,2.5,3.3c0,0,4,2.8,4.8,3c0.8,0.2,0.6,0.6,0.6,1.3c0,0.6-2.9-1.3-2.9-1.3S88,44.8,85,43.8
	c-3-1-11-6.1-24-6l-2.1-1.7c0,0,4.1-0.2,4.7,0.1c0.6,0.3,3.6,1,4.4,0.8c0.8-0.2-0.6-3.3,0.9-2.3c1.4,1,3.7,2.2,4.1,1.9
	c0.4-0.4-1.1-2.7,0-2.3c1.1,0.5,2.1,1.3,2.9,2.3c0.8,0.9,1.7,2.2,2.9,0.9c0.5,2.1,3.5-0.6,4.3,0c0.8,0.6,2.9,0.6,3.4-0.1
	c0.6-0.6,4.7-2.7,4.5-3.4c-0.1-0.3,1.7-2.4,0.5-2.3c-0.4,0-3.7,2.2-4.2,2.3c-1.6,0.2-3.2,0.5-3.7,0.6c-1.1,0.2-2.5-0.2-3.6-0.2
	c-1.1,0.1-3.7-0.5-3.1-1.1c0.6-0.6,1.9-1.7,1.6-2.3c-0.3-0.6-2.3,2.7-3.1,2.2c-0.8-0.5,0.6-4.6,1.2-5.7c-0.4,0.7-2.6,4.7-3.4,4.5
	c-0.6-0.1,0.1-0.5,0.1-0.8c0.8-0.6-0.4-2.8-0.8-2c-0.2,0.5-0.9,1.3-0.9,1.5c-0.3,0.2,0,1.1-0.5,1c-2.1-0.3-3.9-0.2-4.5,0.6
	c-0.6,0.7-0.7,1.6-2,0.9c-1.3-0.7-3.5-1.4-2.1-2.3c1.4-0.9,1.2-1.9,1.8-1.4c0.6,0.5-0.2-0.7-1.5,0c-1.3,0.7-1.3,1.8-1.8,1.4
	c-0.2-0.1-1.4-0.5-1.5-0.8c-0.2-0.6-0.6-2.4-0.6-2.4s1.4,2,1.6,2.5c0.2,0.6-0.7,0.5-0.9,0.9c-0.5,0.7,0.7,1.8-0.5,1.9
	c-1.3,0.2-1,1.4-2.5,0.9c-1.5-0.6-2.2,0.8-1.9-0.7c0.3-1.5,0.7-1.8,0.7-1.8s-2.5,2.1-1.7,2.9c0.8,0.8,0.4,1-0.4,1.1
	C52.4,35.5,41.7,35.6,40,36c-1.8,0.4-8.9,0.9-12.8,2.2c-3.9,1.4-2.6,0.4-1.7-0.2c1-0.6,2.1-1.2,3.1-1.2c1,0,4.5-0.8,5.3-1.2
	c0.8-0.4-0.3-1,0.9-1.1c1.1-0.1,3.4,0.2,4.4,0.2c1,0,3.3-0.2,3.9-0.2c0.6,0.1-7.9-1.9-8.7-2.8c-0.8-0.9-1-1.2-1.6-1.5
	c0,0-0.6,0.2,0.6-0.7s3-2.3,3.4-2.7s4.6-3.3,4.5-3.6C41,22.9,35.7,26,35.7,26s-1.5-0.5-2-0.9c-0.8-0.6-0.2-0.3-0.5-1.4
	c-0.3-1-1.7-1.1-0.6-1.4c1.1-0.3,2.6-2.7,2.6-3.3c0-0.6-0.7,1.8-2.6,2.1c-1.9,0.3-4.2,2.8-2.8,2.8c2.3,0,3.1,2.6,2.4,2.9
	c-0.6,0.2-1.4,0.2-1.4,1c0.1,0.7-0.5,1.5-0.6,2.7c-0.1,1.2-0.7,1.3-1,1.8c-0.3,0.6-0.9-1.2-0.9-2c0-0.8,0.3-1.3,0.5-2
	c0.2-0.7-1.6,0-2.5-1.1c-0.9-1.1,0.3-1-1.2-1.7c-1.5-0.7-0.7-0.6-2.1-1c-1.4-0.4-0.1-0.9-0.9-2.1c-0.9-1.2-4.9-7.6-4.9-7.6
	c0,1.8,0.4,8.4,4.6,11.9c1.4,1.1,3.2,3.1,2.9,4.4c-0.3,1.3,0.6,2.5-0.5,3.3c-1.1,0.8-1.8,0.4-2.5,1.1s-1.4,0.4-1.9,1
	s-3.5,1.2-4.1,1.6s2.4-0.4,2.6,0.5c0.2,1,0.3,1-0.6,0.9l-1.9,0.8c-4.8,0.4-6.3,1.8-5.7,0.6c0.4-0.7,0.6-0.9,1.2-1.3
	c0.6-0.4,0.8-1,0.3-1s-0.6-1.7-0.3-2.3c0.3-0.6,1.4-0.6,1.9-1c0.5-0.5,2-0.2,2.7-0.7c0.7-0.5,0.1-0.8-0.6-0.6
	c-0.7,0.2,0.1-1.9-0.6-2.6c-0.7-0.7-3.1,1.1-3.5-0.7c-0.2-0.9-1-1.8-1-1.1c0,0-0.4,0-1.6-0.7c-1.2-0.7,0.8-0.3,0.8-0.3
	c0.8-1.4,3.6-5.4,3.2-6.4c-0.4-1-0.8-3-2.5-3.8c-1.8-0.8-4.3-2.5-4.9-4C4.5,13,2.4,11,1.5,9.9c-0.9-1.1-2.1-1.6,0-6
	C2.4,1.9,1.5,0,1.5,0h136.2c0,0-0.3,1.8,0.6,2.1c1,0.3,1.4,1.9,1.8,3c0.3,1.1,1.6,2.5,1.4,4.6c-0.2,2.1-1.2,4.6,0,5.3
	c1.3,0.6,0.8,1,2.5,1.6s138.7,10,138.7,10s-1.1,1.4,0,2.4c1.1,1,1.9,3,1.6,3.8c-0.3,0.8-0.8,3.8,0.1,4.6c0.9,0.8,1,1.3,1.8,1.3
	c0.8,0,3.5-0.5,4-0.2s2.4,0.3,2.5-1.8c0.2-2.1,0-4.9,1-7c1-2.1,1.6-3.7,0.6-5.6s-2.7-4-1.8-6.7s1.6-4.1,2.2-4.5
	c0.6-0.3,2.2-0.5,2.2-1.3s1.1-1.6,1.1-1.6s1.9,1.5,2.2,2.6c0.3,1.1,1.1,0,3.3,0c2.2,0,0,1.6-0.8,1.6c-0.8,0-3.2-1.1-3-0.3
	c0.2,0.8,3.7,1.6,3.7,1.6s2.1,0,2.5,0s0.8,0.8,0.8,1.4s-2.5,0-2.5,0l-4.3-0.8c0,0,1.1,1,1.3,2.1c0.2,1.1,1.8,0,4.3,0
	c2.5,0,2.1,0,2.5,0c0.5,0,0.8-1.4,1.9-2.5c1.1-1.1,2.2,2.5,3,1.6c0.8-1,3.3,1.3,5.3,1.6c0,0,3.5,6.3,2.4,6.9c-1.1,0.6-1.7,0.2-1.7,1
	c0,0.8-1-4.8-1.9-5.6c-1-0.8,0.5,3.3,0.3,4.6c-0.2,1.3-1-0.8-1.6-1.4c-0.6-0.6-2.1-0.6-1.9-0.1c-0.3-0.5-3.9-3.7-5.2-4.9
	c-1.4-1.3,4.1,4.7,3.3,4.9c-0.8,0.2-7.6-3.7-7.9-4.6c-0.3-0.8,0,1.6-1,1.7c1.5,1,6.1,4.3,4.8,6.4c-0.7,1.1,2.7-1,5.9-0.2
	c0.6,0.1,2.5-0.6,3.2,0.3c0.6,1-1.1,1.8,0.5,1.8c1.6,0,3.3,1,3.2,1.6c-0.1,0.6,3.5-1.3,2.1,1.7c-1.4,3,0.1,0.2-1.2,0.2
	c-1.3,0-1.8,0.5-2.4,1.4c-0.6,1-2-1.6-2.7-2.3c-0.6-0.8-1,1.8-1.2,2.6c-0.2,0.8-5.9-0.8-6.7-0.4c-0.8,0.5,4.4,2.1,4.9,3.6
	c0.5,1.4-0.2,2.5-1.7,3.5c-1.3,0.9-5.5,3.7-3.4,3.6c1.5-0.1-1.3,3.4-3.5,5c-1.6,1.2-0.3,2.6-0.2,2.7c0.4,0.4,5.2-6.5,5.8-6.5
	c1.2,0.1,2.4-0.2,2,0.5c-0.6,1-0.8,4.8-1.9,4.6c-1.1-0.2-4,0.8-3.7,1.6c0.3,0.8,3.2-1.1,3.7,0s1,3,0,3.7c-1,0.6-1-1.9-2.7-1.4
	c-1.8,0.5-3.5-1.2-5-0.4c-1.4,0.8,4,0.3,5.6,1.9s1.6,4.2,3.7,4.2c2.1,0,4.5,1,3.5,1.9c-1,1-3.6,0.9-2.8,2c0.5,0.7,2.6,5.8,2.1,8.2
	c-0.2,1.2,1.8,0.1,2.1,0.1c1.1,0.2,1.3,1.9,0.5,3c-0.8,1.1-1,1.8-2.9,1.8c-1.9,0-4.2-1.3-4.7,0.4c-0.5,1.7,1.8,0.2,3.1,0.8
	c1.3,0.6,1.1,0.8,0.5,1.1c-0.6,0.3,0.6,1.3,1.6,2.1c1,0.8,1.8,2.4-0.3,2.1c-2.1-0.3-3.7-1-4.1,0c-0.5,1.1-2.2,1.7-1.1,2.7
	c1.1,1,2.9,3,0.8,3.3c-2.1,0.3-6.2-0.6-6.4-0.2c-0.2,0.5,4.8,1.1,5.6,2.2c0.8,1.1,0.7,0.8,0.9,2.1c0.2,1.3-0.2,0.6,0.3,1.8
	c0.5,1.1,1.9,1.6,1.4,2.4c-0.5,0.8-2-0.2-2-0.2s-2.6,0-1.8,0.8c0.8,0.8,4.3,3,4.3,3s1.1,2.7,0.9,4c-0.2,1.3-0.3,2.3,1.3,2.5
	c1.6,0.2,0.9,2,2,2c1.1,0,2.2-1.4,2.7-0.1c0.5,1.3,0,2.4,0.5,3.3s4.6,3.7,5.7,4.5c1.1,0.8,2.1,2.5,1,2.9c-1.1,0.5-0.7,1.7-0.2,5.6
	c0,0-1.6,1.9-0.7,1.9c1,0,1.4,1.6,2.5,1.6s1.3,0.5,3,0.5c1.8,0,1.9,1.1,3.3,1.1s1.6,1.1,1.4,1.9c-0.2,0.8-0.6,1.1-2.2,1.8
	c-1.6,0.6-3.3,2.1-2.2,2.2c1.1,0.2,2.5,1.1,2.5,1.1s1.1-1,2.2-1.8c1.1-0.8,2.1,0,2.1-1c0-1-0.8-2.2-0.8-3.2c0-1,0.3-0.5,2.1-0.3
	c1.8,0.2,3.2-1,3.3-1.6c0.2-0.6-2.7-0.6-3.5-0.3c-0.8,0.3-2.4-0.6-2.9-1.8c-0.5-1.1-2.4-1-3.8-1.4c-1.4-0.5-2.1,1.1-3,1.6
	s-1.6-2.7-1.6-2.7c0.2-1.9,1.3-5.7,1.3-5.7s-1.4-2.5-2.4-3c-1-0.5,0.3-1,0.5-1.9c0.2-1,1.4-4.8-0.6-4.6c-2.1,0.2-3.7,0.3-4.6,1.1
	c-1,0.8-3.2-3.2-3.4-3.8c-0.2-0.6,1.5-2.5,1.5-3.3c0-0.8,1.3-0.6,0.8-1.4c-0.5-0.8-0.5-1.9-0.5-1.9l-2.7-1.6c0,0-2.5-4-3.8-3.2
	c-1.3,0.8-2.5-0.3-1.4-1c1.1-0.6,0.2-3.7-0.5-4c-0.6-0.3-0.5-4.9-1.1-5.3c-0.6-0.3-1-1.9,1-1.8c1.9,0.2,3.2,0,4.1,1.1
	c1,1.1,1.4,1.6,1.3,2.9c-0.2,1.3,0.3,2.2,1.3,2.4c1,0.2,2.1,1.3,2.1,2.5c0,1.3,0.2,4.3,2,4.6c6.1,1,9.4-3.5,8.6-5.1
	c-0.8-1.6-4.9,5.8-7.6,0c-0.5-1-1.8-0.8-1.8-1.6c0-0.8-1.4-2.5-2.2-3.3c-0.8-0.8-1.6-1.4-2.1-2.5c-0.5-1.1-0.6-1.8-1.1-1.6
	s0.8-2.2,0-2.9c-0.8-0.6-3.8-2.4-2.1-2.7c1.8-0.3,2.5-2,3.3-1.4c0.8,0.6,0.8-4.2,1.4-3.2c0.6,1,2.1,3.1,2.5,3.2
	c0.5,0.1-0.4-3.7-0.2-4.3c0.2-0.6-2.5-1.4-3.1-1.4s-0.8-4.5-0.2-4.5c0.6,0-3-1.9-2.2-2.9c0.8-1,1.2-2.7,2.2-1.4
	c1,1.3,1.5,0.8,1.5,1.4c0,0.6,0.6-2.5-1.4-3.5c-2.1-1-6.2-2.1-6.2-3.5c0-1.4,0.5-3.5,1.4-3.3c1,0.2-1.8-3.3,0.6-2.9
	c2.4,0.5,4.1,1.9,4.5,1.3c0.3-0.6-3.7-2.5-4.8-2.4c-1.1,0.2-3.8,2.3-2.2-0.2c1.6-2.5,2.4-2.5,2.9-2.5s-0.2-2-0.8-2.8
	c-0.6-0.8-2.4-1.9-1.6-2.7c0.6-0.6,1.2-1.6,2.1-1.8c0.8-0.2,1.2-1.1,0.9-1.9c-0.4-1.2-0.4-1.7,1-1.5c1.4,0.2,2.2-2.2,3.7-1.6
	c1.4,0.6,2.9,1,3.2,2.4c0.3,1.4,0.6,3,1,4.3c0.3,1.3,0.5,2.5-0.5,3.3c-1,0.8-1.6,4.3-0.2,2.3c0,0,1.4-3.1,1.6-2.5
	c0.1,0.5,1,13.9,4.8,18.5c0.8,1,0.7,6.2,1,7c0.3,0.8,1.8,4.5,1.8,5.9c0,1.4,1,7.4,1.8,8.3c0,0,4.2,6.3,5.1,11.9
	c0.3,0.9,3.1,6.9,3.1,6.9s5.3,12.6,5.7,13.1c0.4,0.6,5.9,8.6,6.3,9.9c0.4,1.2,2.9,6.3,3.7,7.6l-10-17.5l-0.8,0.7l8.1,21.2
	c0,0,2,6.4,2,7.6c0,1.3,0.9,3.8,1.3,4.2c0.4,0.4,0.8,3.5,0.9,4.6c0.1,1.1,1.1,3.3,1.5,3.9c0.4,0.6,2.8,8.1,2.9,8.8
	c0.2,0.7,5,12,7.3,16.4c2.3,4.4,5.1,10.7,5.1,10.7s4,13,4.5,14.9c0.5,1.8,1.9,5.4,2.4,6c0.5,0.6,2.5,5.7,3.1,6.4
	c0.6,0.6,1.3,6.1,1.2,6.4c-0.1,0.3,5.1,7.4,5.1,7.4s-3,2.5-2.7,2.9C392.7,242.3,398.1,253.4,397.3,264.7z M128.8,51.4
	c0-0.7-1.4-3.6-1.4-3.6c0.1,2,1.1,5.8,1.4,5.8S128.8,52.1,128.8,51.4z M330.6,250.7c-0.6-1.6-2.9,0.3-3.3,1.4s-1.9,0-3.5,0
	c-1.1,0-1.4,0.7-2,1.2c-0.7,0.2-1.1,0.4-1.1,0.4c0.5,0,0.9-0.2,1.1-0.4c0.6-0.2,1.3-0.3,2-0.2c1.7,0.1,3,0.2,4.4-0.2
	c1.6-0.4,0.6-0.5,1.5-0.2C330.6,253,331.2,252.3,330.6,250.7z M342.1,250c0-0.5-2.1,1-3.6,1c0,0,2.1,1.7,3,0.3
	c0.8-1.4,2.4,1,3.5,1.2c1.1,0.2,3,0,4.3,0c1.3,0-3.3-1.8-3.8-2.1S342.1,250.5,342.1,250z M355,151.9c-0.8-1.3-3.8-6-3.5-8.2
	c0.3-2.2,0.8-1.3,1.3-1.9c0.5-0.6-0.5-1.4-1.3-1.1c-0.8,0.3-2.8-3.6-3.1-2.6c-0.2,0.7-0.1,3.6,0,4.7c-0.2-0.7-0.4-2.9-0.6-3.8
	c-0.2-1.1-1.8-1.3-2.1-2.1c-0.3-0.8,1.4-1.9,1-1.8c-0.5,0.2-1.5-0.2-1.5-0.2c0.6-0.6,0-1.2,0-1.2c-0.4,0.1-1.5-0.6-1.7,0
	c-0.2,0.6-1,1.1-0.6,1.8s-0.2,1.2,0.6,1.4c0,0-0.3,2.3,0.3,3c0.6,0.6,1.5-0.6,1.1,0.4s0.6,1,1.4,1.8c0.8,0.8,0.2,2.2,0.6,2.1
	c0.5-0.2,2,2.9,2,3.9C349.1,149,355.8,153.2,355,151.9z M380.1,209.1c-0.7-0.8-0.7-0.8-0.7-0.8c-0.5,1.4-0.7,2.7,0,3.1
	S380.8,209.9,380.1,209.1z M387,227.7c-0.5-0.4-3.1-3.5-3.2-4.1c-0.1-0.6-0.6-3.1-0.6-3.1s-2-6.2-2.8-5c-0.7,1.1,1.7,3.2,1.7,4.2
	s0.1,3.7,0,4.7c-0.1,1-0.7,2.9,0.1,2.1c0.8-0.7,2-1.4,2-0.7c0,0.7,0.9,2.6,0.9,3.7c0,1.1,2.5,5.4,2.5,5.4s-0.5-3.3-0.5-4.2
	C387,229.8,387.5,228.1,387,227.7z M266.8,191.1c0,0.1,0,0,0.1-0.2C266.9,190.9,266.8,191,266.8,191.1z M315,26.1
	C315,26.1,315,26.1,315,26.1C315.1,26.1,315.1,26.1,315,26.1z M331.2,62.7c0,0.1,0,0.1,0,0.2C331.3,62.9,331.3,62.9,331.2,62.7z
	 M134.6,68.8c0.3-0.3-0.2-1.3-1.1-2C133.9,67.6,134.1,69.3,134.6,68.8z M358.9,134.9c0.1,0.1,0.2,0.2,0.2,0.3L358.9,134.9z
	 M376.5,321.2c0.2,0.7,0.5,1.4,0,1.7s-0.2,0.8,0,1s1.3,2.1,1.3,1c0-1.2,0-1.6,0-1.6s1.2-1.1,0.6-1.1S376.5,321.2,376.5,321.2z
	 M383.6,317.5c-0.6,1.2,0,2,0,2s1.4-1.8,1.2-2S383.6,317.5,383.6,317.5z M378.5,320.1c-0.2,1.9,0.9,1.1,0.9,1.1s0.4-0.7,0-1.1
	C379.1,319.8,378.5,320.1,378.5,320.1z M375.4,326.7c0.8-0.8,0,0-1.4,0C374,326.7,374.5,327.5,375.4,326.7z M386.1,311.3
	c-0.6,0.2-0.9-1.4-1.3,0c-0.4,1.4,0,1.3,0.6,1.2C386.1,312.4,386.1,311.3,386.1,311.3z M381.1,316.1c-0.2,0.6-0.4,1.2,0,1.3
	c0.4,0.1,1.1-0.2,1.1-0.7S381.1,316.1,381.1,316.1z"/>
</svg>
