<?xml version="1.0" encoding="utf-8"?>
<!-- Generator: Adobe Illustrator 18.0.0, SVG Export Plug-In . SVG Version: 6.00 Build 0)  -->
<!DOCTYPE svg PUBLIC "-//W3C//DTD SVG 1.1//EN" "http://www.w3.org/Graphics/SVG/1.1/DTD/svg11.dtd">
<svg version="1.1" id="state" xmlns="http://www.w3.org/2000/svg" xmlns:xlink="http://www.w3.org/1999/xlink" x="0px" y="0px"
	 viewBox="0 0 400 400" enable-background="new 0 0 400 400" xml:space="preserve">
<path fill="#69C8C9" d="M358.4,356.6c0.1,1.1-0.8-0.3-1.5-0.7c-0.8-0.4-1.1-0.2-1.6,0.5c-0.6,0.7-0.9-0.5-0.7-1.1c0,0,1.8-0.4,2.3,0
	S358.3,355.5,358.4,356.6z M319.9,386.8c-0.8,0.8-2.3,0.8-2.3,1.2c0.1,0.4,0,1.1,1.2,0.8c1.2-0.3,1.3-0.8,2-0.9
	C321.5,387.7,319.9,386.8,319.9,386.8z M336.1,322.6c-0.4-0.5-2.4-2.7-2.4-2.7c0.7,1.4,1.5,1.9,1.2,2.7c-0.4,0.8-1.4,1.7-0.5,2.1
	c1,0.4,1.1,1,1.5,0c0.5-1,0.6-1.2,1.2-1.3c0.7-0.1,1.3,0.2,1.3-0.2C338.5,322.7,336.5,323.1,336.1,322.6z M335.4,384.8
	c-1.1,0.2-1.4,0.8-0.8,0.8s1.2,0.8,1.5,0C336.4,384.8,335.4,384.8,335.4,384.8z M331.4,384.8c-0.9-0.8-3.3-3.7-3.6-3.5
	c-0.3,0.2-0.8,0.4,0,1.1c0.8,0.8,1.9,2.3,1.3,2.4c-0.6,0.1-1,0.5-1.4-0.5c-0.5-1-2-3.1-2.2-2.6c-0.2,0.4-0.2,0.2,0.5,1.2
	c0.8,1.1,1.7,2.3,1.2,2.5c-0.5,0.2-0.8,1.1-1.5,0.6c-0.8-0.5-1.5-1.2-1.5-1.2s1.3-0.5,0.3-0.9c-1.1-0.4-1.5-0.3-1.7,0.4
	s0.2,1.3-0.9,1.1c-1.1-0.3-2.1-1.2-1.8-0.6c0.3,0.7,1.1,1.7,1.8,1.7c0.8,0,2.5,0,2.5,0s2.7,0.6,3.2,0c0.5-0.6,0.8-1.4,1.6-1.2
	c0.9,0.3,1.6-1,1.6,0s-0.4,1.7,0.2,1.4c0.6-0.3,0.6-0.3,0.6-0.3C332,385.7,332.3,385.5,331.4,384.8z M347.7,343.1
	c-0.6,0.4-1,0.5-0.4,1.2c0.6,0.8-0.9,1.3,0.3,1.7c1.2,0.4,1.9,0.4,2.2,0c0.3-0.4,0.1-0.6-0.6-1.1s-1.2-0.7-0.8-1.2s1.2,0.5,0.7-0.8
	c-0.5-1.2-0.2-1.4-0.9-2.1c-0.6-0.7-0.6-0.7-0.6-0.7c-0.6,0.8-0.6,1,0,1.6C348.2,342.6,348.2,342.7,347.7,343.1z M11.3,43.1
	c-0.2,0-0.3,0-0.5-0.1C10.9,43.1,11.1,43.1,11.3,43.1z M351.9,336.7c-0.9,0.2-1.3,0.3-1.8,0.4s-1.1-1.5-1.1,0s-1.2,1.7-0.6,2
	c0.7,0.2,0.9-0.2,1.6-0.3c0.8-0.2,1.7-0.4,1.1,0.4c-0.7,0.8-1.2,0-1.4,1.2s-0.6,1.7,0.4,1.6c1-0.2,0.8-0.1,0.8,0.6s0.2,0.8,1.1,0
	s1.2-0.7,1.6-1.4c0.5-0.8,0.7-1,0.8-1.7c0.1-0.8-0.5-1.2-1.2-1.2s-2.3-0.2-1.7-0.6C351.8,337.3,351.9,336.7,351.9,336.7z
	 M356.1,354.3c0.2-0.8,0.1-0.7,0.8-0.9s1.5-0.9,0.8-1.1c-0.8-0.2-1.6-0.7-1.6-0.7c-0.8-0.6-1.6-0.7-1.5,0s-1.5,0.6-0.8,1.1
	c0.8,0.5-0.6,1.1,0.5,1.1S355.9,355.1,356.1,354.3z M355.7,344.9c-0.8,0.2-1.2-0.1-1.4,0.5c-0.2,0.6-0.2,0.4,0,1
	c0.2,0.6-0.5,1.3-0.2,1.8c0.3,0.5-0.4,1,0.3,0.5c0.7-0.5,0.8-1.2,0.9-1.6c0.1-0.3,0.9-1.2,1.2-1.2c0.3-0.1,0.6-0.6,0.7-0.9
	s-0.7-1.2,0-1.5c0.7-0.3,1.3-0.9,0.9-0.9c-0.5-0.1-0.6-1-1.2-0.7c-0.6,0.2-0.6,0.2-0.6,0.2l-0.5,0.1c-0.1-0.8-0.5,0.1-0.8,0
	c-0.3-0.1-0.2,1.2,0.4,1.1c0.6-0.1,1.3,0.1,1.1,0.6S356.5,344.7,355.7,344.9z M351.7,378.7c-0.6,0.8-1.3,1-1.8,1.5
	c-0.5,0.6,0.4,1.2-0.9,0.9c-1.2-0.3-1.3-0.8-2-0.2s-0.4,0.8-1.3,1c-1,0.2-0.6,0.6-1.5,0.7c-1,0.1-1.2-0.4-1.7,0
	c-0.6,0.4,0.9,0.6,1.3,1.1c0.5,0.5,0.8,1.2,1.2,0.8c0.4-0.4-0.2-0.8,0.7-1.2c0.9-0.5,0.7-1.2,1.4-1.2c0.8,0.1,0.1,0.2,0.9,0.3
	c0.8,0.1,2.2,0,2-0.2c-0.2-0.2-0.1-0.7,0.6-1.2s0.4-0.4,0.9-0.8c0.6-0.4,0.6-0.9,1.2-0.6c0.8,0.3,1.3,0.6,1.3,0.2
	c0.1-0.4-0.5-0.9-0.5-0.9C353.1,378.8,352.3,377.8,351.7,378.7z M311.9,310.2c-0.8-0.6-1.7-1.6-1.7-1.6c-0.7,1.1-0.7,1.7,0,2.8
	c0.7,1.2,0.7,1.3,1.1,1.4c0.4,0.1,0.2-1.4,1.1-1.5s1.2,0,1.3,0.8c0.2,0.8,0.8,0.6,0.4-0.6C313.5,310.5,312.6,310.8,311.9,310.2z
	 M159.6,80.5c-0.8,0.1-2.6,1.4-2.6,1.4c0.9-0.1,3.5-0.8,3.6-1.2c0.2-0.3,0-0.9-0.1-1.2C160.4,79.9,160,80.5,159.6,80.5z M133.5,89.7
	c-0.9-0.3-1.6-0.9-1.1-1.2c0.6-0.3-0.8-0.9-1-0.6c-0.2,0.3,0.2,0.8-0.8,0.8c-1-0.1-0.8-1.2-1.9-0.8c-1.2,0.4-3.7,0.6-3.7,0.6
	c1.4,0.1,4.3,1.4,5.6,2.3c1.2,0.9,1.7,0.9,2.5,0.4C133.8,90.7,134.3,90,133.5,89.7z M160.7,79c-0.1,0.1-0.1,0.2-0.1,0.5
	C160.8,79.2,160.8,78.9,160.7,79z M154.6,82.7c-0.8,0.2-4.9,4.6-4.9,4.6s-3.6,1.6-4.8,1.9s-4.6,3.2-5.6,3.6c-1,0.3-2.4,0.9-3.1,0.4
	c-0.7-0.5-2.3-1.1-2.3-1.1c0.7,0.7,1.9,1.9,1.9,1.9s2.8,0,3.8-0.7c1.1-0.7,4.3-3.3,5.6-3.6c1.2-0.4,3-1.2,3.6-1.2
	c0.8-0.2,5.6-4.6,5.7-5C154.6,83.1,155.4,82.5,154.6,82.7z M283.1,265.8c-0.3-0.7-0.9-3.3-0.9-3.3c0,2.1-0.4,2.7,0,3.2
	c0.4,0.6,0.7,3.3,1.4,4.1c0.8,0.9,0.2-0.8,0-1.8C283.4,266.9,283.3,266.4,283.1,265.8z M309.1,390.3c-0.3-0.2-1.2,0-1.2,0
	c-1.2,0.5-2.5,0.2-1.5,1c1,0.8,0.4,0.9,1.5,0.4C309.1,391.3,309.4,390.5,309.1,390.3z M290.7,270.6c0.6-0.1,0-0.8-0.1-1.7
	c-0.1-1-0.3-2.6-1-2.6s-1.2,0-1.7,0c-0.6,0-1.3,0.3-1,0.7c1.2,1.2,1.2,1.8,1.7,2.5c0.6,0.7,0.9,1.4,0.9,2.9c0,1.4,0.3,2.3,0.9,3.1
	c0.6,0.8,0.4,2.3,1.2,2.8c0.8,0.5,1.2,0.7,1.2,0c-0.1-0.7-0.6-0.8-0.7-2.1c-0.1-1.2-0.1-1.3-0.5-2.3c-0.4-1,0.1-0.1,0.5-1
	c0.4-0.9,1.7-1.7,0.7-2.2c-1.1-0.5-1.7-0.9-1.5-0.1c0.2,0.8,0.3,1.3,0,1.7C290.9,272.7,290.2,270.7,290.7,270.6z M292.8,280.8
	c-0.8,0.2-1.3,0.4-2.4,0.1c-1.1-0.3-1.5-0.5-2.1-1.4c-0.6-1-1.1-1.3-1.3-2.1c-0.3-0.8-1.1-1.4-1.1-1.4c0.3,1.2,0.1,2.2,0.6,3.1
	c0.5,0.8,0.8,1.2,1.7,1.7c1,0.6,2.5,2,3.5,2c1,0,1.4,0.8,2.1,0c0.7-0.8,0.8-1.1,1.2-1.6C295.3,280.6,293.7,280.6,292.8,280.8z
	 M345.8,350.6c-0.2-0.1-1-0.5-1-0.5c-0.2,0.6-0.2,1.1-1.1,1.4c-0.9,0.4-1.5,0.2-0.5,1c1.1,0.8,0.2,1.2,1.5,1.2
	c1.3,0.1,1-0.1,2.1,0.7c1.2,0.8,1.3,1,1.4,0.4c0-0.6,0.8-2.1,1.4-1.1s-0.8,1.8,0.4,1.4c1.2-0.4,1.4-0.3,1.2-1.4
	c-0.3-1.2-0.7-1.5-1.2-1.4c-0.6,0.1-1.4,0-2.1,0.4c-0.7,0.4-0.8,0.3-1.2-0.7C346.4,351.1,346,350.7,345.8,350.6z M332.8,71.1
	c0,0.1,0,0.1,0.1,0.2C332.9,71.2,332.8,71.2,332.8,71.1z M399.7,274.2c-0.8,11.3-2.1,14.7-2.1,15.4s-1,8.9-1.2,10.1s-0.2,7-0.2,8.2
	c0,1.2-0.5,7-0.3,8.2s-1.9,9.1-1.9,10.8c0,1.6-0.5-1-1-0.7c-0.5,0.3-0.3-0.3,0.2-2.2c0.5-1.9-0.5-4.3,0.7-5.5s0.8-3.6,0.7-4
	c-0.1-0.5-2.1,2.6-2.1,3.6c0,1,0.5,4.1-0.3,4.6c-0.8,0.5-3.8,3.5-4.3,4.7c-0.5,1.2-1.6,2.5-2.1,3.9c-0.5,1.4-1.6,4-1.6,4.8
	c0,0.8,0.8,5.8,0.5,6.4s-0.3,3.6-1.2,4s-2.1,0.7-2.9,2.6c-0.8,1.9-2.2,4.5-4.1,4.5c-1.9,0-4.1-1.2-5.6,0c-1.4,1.2-2.4-1.2-0.8-2.1
	c1.6-0.9,3.6-0.7,2.6-1.6c-1.2-1-1.9-1.2-3.2-1.2c-1.2,0-0.5-1.7,0.7-2.4s2.4-1,1.4-1.7c-1-0.8-3.2,1.7-4.5,2.6
	c-1.2,0.8-2.1,1.6-2.9,1.6c-0.8,0-0.7-0.8-2.4-1.4c-1.7-0.7-3.6-1.7-3.2-2.7c0.5-1,0.8-3.6,1.2-3.6c0.5-0.2-0.3-1-0.3-2.2
	c0-1.2-1-0.5-2.2-1.2c-1.2-0.8-1.7-2.7-3.1-2.9c-1.2-0.2-1.7-2.6-0.3-3.1c1.4-0.5,2.9-0.8,1.4-1.9c-1.4-1.2-2.4-0.7-3.4-2.1
	c-1-1.4-1-1.4-2.7-1.2s-4.5-1.6-4.6-2.7c-0.2-1.2-2.9-1.7-3.1-2.9c-0.2-1.2-3.6-6-6.2-6.5c-2.6-0.7-5.6-1.6-5.8-2.2
	c-0.2-0.7-2.2-2.4-2.6-1.4c-0.3,1-0.5,2.6-1.6,1.2c-1.2-1.2-1-1.7-2.9-2.2c-1.9-0.5-2.1-1.2-3.1-0.7c-1,0.5-1,0.3-2.2,0.2
	c-1.2-0.1-1-1.2-2.2-1.2s0.5,1.6-1,1.2c-1.4-0.4-2.4-0.7-2.4-1.4c0-0.8,0.3-0.8,0-1.6c-0.3-0.8,1.2-1.6-1-1.6
	c-2.1,0-2.1-0.8-2.7-0.7c-0.7,0.2-2.4-5.6-2.1-7.2s-0.7-4-0.3-5.3c0.3-1.2-0.5-9.1-1-9.9c-0.5-0.8-0.7-0.8-3.1-0.8
	c-2.4,0-2.2,0.5-3.4-0.3c-1.2-0.8-1.6-2.4-0.7-2.9c1-0.5,1.2-0.7,1.9-1.2c0.7-0.7,0.8-1.9,1.4-1.9c0.7,0,1.7-2.4,1.7-3.2
	c0-0.8,3.2-3.6,4.1-3.6s-0.5-1.7-1.2-1.2c-0.8,0.7-4.6,3.6-4.6,4.5s-1.2,1.3-1,2.9s-2.7,3.4-4.5,2.9c-1.7-0.5-2.4-1-1.6-2.4
	c0.8-1.4-0.2-3.6-0.7-5.1c-0.5-1.6,0-6.7,0.8-8.4c0.8-1.6-1-2.4-0.2-3.6c0.8-1.2,0.8-1.2-0.7-1.7c-1.4-0.5-2.4-1.7-0.8-2.2
	c1.6-0.5,3.1-1.6,3.8-1.7c0.8-0.2,1.9-0.3,1.7-1.6c-0.2-1.2-1.2-5.5-0.3-6c0.8-0.7-1.7-0.8-1.6,0.2c0.1,1,0.2,5,0.2,5
	s-0.8,1-1.7,1.6c-1,0.7-0.8,1.9-2.1,1.4c-1.2-0.5-1.9-1.4-2.4-0.3c-0.5,1.2-1.2,1.2-1,1.7c0.2,0.5-1-0.7-1.7-2.2
	c-0.8-1.6-1.2,0-1,0.5c0.3,0.5-1.6-0.2-2.1-1.4c-0.5-1.2-3.3-3.9-4.1-5.3c0.8,1.4,3.2,6,3.6,6.4c0.7,0.7,3.1,1,3.2,2.1
	c0.2,1.2,1.6,5.5,0.8,6c-0.8,0.5-3.4,1-4.8,0.3c-1.4-0.7-3.2-1.7-3.6-3.6c-0.5-1.9-2.7-5.6-3.6-6.5c-1-1-4-5.6-4.8-9.9
	c-0.8-4.3-1.6-3.8-2.6-4.6s-2.7-2.7-1.9-2.9c0.8-0.2-1-2.1-2.4-4c-1.4-1.9-2.9-3.2-3.8-4.8c-1-1.6-1.6-3.1-2.2-4.3
	c-0.7-1.2-1.2-2.6-0.3-2.1c1,0.5,1.6,3.4,2.6,3.6c1,0.3,1.9,1.2,2.1,0.7c0.2-0.7-2.6-1.6-1.4-2.2c1.2-0.7,1.6-2.6,2.6-1.4
	c1,1.2,0.5-0.3,1.7-1.2c1.2-0.8,0-2.4,1.4-4.6c1.4-2.2,3.6-3.8,5.5-5.1c1.9-1.2,2.9-2.2,3.1-3.8c0.2-1.6,2.1-3.4,0.5-5.5
	s-1.6-3.4-2.2-2.6c-0.7,0.8-1.2-1.9-1.7-0.3c-0.7,1.6-1.6,3.2-0.2,4.3c1.4,1.2,1.7-2.4,2.2-1.6c0.5,0.8,1.4,2.9,0.3,3.4
	c-1.2,0.5-1.9-0.7-3.4-0.5c-1.2,0.1-2,0.3-2.3,0.6c0.2-0.7,0.5-2.7,0.2-4.1c-0.3-1.9,1.8-1-1-3.2c-2.9-2.3-7-7.2-7.5-5.1
	c-0.2,0.8,1,2.1,1,2.1s-2.7,2.6-2.4,3.1c0.3,0.5,0.5,1.6,1.6,1.7s3.1,1.2,3.6,2.2c0.5,1.2,1.6,3.1,0.8,4.1c-0.8,1.2-1.6,3.4-1.2,4.5
	c0.3,1.2-0.3,2.2-2.4,1.6c-2.1-0.7-2.1-0.7-2.1-0.7s-0.7,1.2-0.7,1.9s0-1.2-1.2-2.9c-1.2-1.6-2.9-3.6-3.6-4.1s-2.6-4.6-1.4-6.2
	c1.2-1.6,4-9.3,3.6-11c-0.5-1.7-1.2-4-1-5.1c0.3-1.2,1.2-1.7,2.1-2.7c1-1,1.9-5.6,2.1-7c0.2-1.4,0.5-1.9,1.2-2.6
	c0.8-0.7,0.8-5.3,1.6-6.7c0.9-1.4,1.4-0.8,1.2-2.9s-0.2-3.6,0.7-5s0-2.2,0.5-3.4c0.5-1.2,1.9-0.7,0.8-2.7c-1.2-2.1-1.2-2.2-1.4-3.6
	c-0.3-1.2,0.3-1,0.3-2.4s1.6-1.4,0.3-2.4c-1.3-1,1.2-0.3,0.3-1.7c-0.8-1.4-2.2-1.2-3.1-1.4c-0.8-0.3-1.4-1-2.2-2.7
	c-0.8-1.7-1-1.4-1.2-3.2c-0.3-1.7,0.8-1.2,0-2.9c-0.8-1.7-0.5-1.9-1.6-2.4c-1.2-0.5-1.2-1.6-0.7-2.7c0.7-1.2,1-0.5,1.7-1.4
	c0.8-1,1-1.7-0.3-1.7c-1.2,0,0.3-2.4-0.8-2.1c-1.2,0.3-1.2,1-2.1,1.9c-1,1-1.2,2.6-2.9,1.6c-1.6-1-2.2-1.4-4.1-1.2
	c-1.9,0.2-2.9,0.5-3.4,1.6c-0.5,1.2-0.7,1.2-1.2,1.2s-1.4-1.2-0.8-2.6c0.7-1.2-1-1.9,0-3.8c1-1.9-0.5-0.8-0.3-3.1
	c0.2-2.2,0.3,0,0.2-2.2c-0.1-2.2,0.5-2.6,1.2-3.6c0.8-1.2,0.3-2.2,0.8-3.1c0.5-0.9,0.8,0.5,1-1.7c0.2-2.2,0.5-2.2,1.2-3.2
	c0.8-1-2.2,0.5-2.2,1.9s-1.7,3.6-1.2,4.8c0.5,1.2-0.5,1.4-1.6,1.9c-1.2,0.5-1.2,2.4-1.6,3.1c-0.4,0.7-0.5,1.7-1.4,1.2
	c-1-0.5-1.4-1.7-1.2-2.7c0.3-1,1-1.2,0-2.4c-1-1.2-1.9-2.2-2.7-1.6c-0.8,0.7-1.2,1.9-1.9,0.2s0.8-1.9-0.7-1.7
	c-1.4,0.2-1.2,0.8-1.9,1.2c-0.8,0.3-1.2,0-1.4-1c-0.2-1,0.7-1-0.7-1.7c-1.2-0.8-2.2-0.7-3.2-1.6c-1-1-1.4-1.4-1-3.6
	c0.5-2.2-0.8-4.3,0-5.3c0.8-1-1.7-1.4-2.4-1.2s-1.9-0.9-2.4-1.4c-0.5-0.5-1-0.7-1.7-1s-2.2-0.3-2.6-1.9c-0.3-1.6-1.2-1.7-0.8-3.1
	c0.5-1.2,0.3-1.7-0.7-1.9c-1-0.2-1.4-0.2-1.4-1.4c0-1.2,0.5-1.6-0.8-2.2c-1.2-0.7-0.5-0.2-1.3-1.2c-0.9-1.2-0.4-1-1.6-1.4
	s-1.2-0.2-1.7-1.2c-0.5-1.2,0.7-1-0.5-1.2c-1.2-0.2-0.7,1.4-1.2-0.2c-0.5-1.6-0.3-1.2-1.4-1.9c-1.2-0.7-1.4-1-2.2-0.8
	c-0.8,0.2-0.7-0.5-1.7-0.3c-1.2,0.2,0,0.8-1.2,0.2c-1.2-0.7-1-1.2-1-1.9c0-0.8-0.7-1.2-1.6-1.2c-1,0-2.1-0.5-2.1-1.6s-0.5-0.8,0-1.7
	c0.5-1-0.3-0.5-1.4,0s-1.2,0.7-2.7,1.2c-1.6,0.5-2.6,1.2-3.6,0.8c-1-0.5-0.3-1.6-1.7-1.2c-1.4,0.5-3.4,1.2-3.8,0.5
	c-0.5-0.7-2.1-0.7-2.2,0c-0.2,0.7-1.2-0.2-1,0.8c0.2,1,0.7,1.7,0.5,2.6c-0.2,0.8-0.5-0.3-1.6-1s-1.7-1.2-2.1,0
	c-0.3,1.2,0.3-0.8-0.3,1.2c-0.7,1.9-2.6,0.3-1.9,1.7s-1,1.6,0.3,2.2c1.2,0.7,2.4,0.7,2.4,1.2c0,0.5-0.3,0.7-1.2,0.3
	c-0.8-0.3-1.9-0.8-3.1-0.8c-1.2,0-1.2,0.7-1.2-0.8s-1.2-0.2-1.2-1.6c0-1.4-1.2-0.8-1,0c0.2,0.8-0.5,0.8-1,0
	c-0.5-0.8,0.5,0.8,0.5,0.8s0.2,0.3-1.2,0.5c-1.2,0.2-1.2,0.2-2.1-1.2c-0.9-1.4-1.2-1-2.1-1.9c-0.8-1-1.4-0.5-2.2-1.2
	c-0.8-0.8,0.7,1.7,0.7,1.7s1.2,1.2,1.9,1.4c0.7,0.3,2.2,2.1,2.2,2.1s-1.9-0.3-1.9,0.3c0,0.7-0.2,1.7-0.2,2.2c0,0.5-1.4,1.2-0.8,1.7
	c0.7,0.5,1.9-1,1.9-1s0-0.7,0-1.6s-0.7-1.2,0.7-1c1.2,0.2,2.9,0.7,3.1,0c0.2-0.7,0.7-1.4,1.2-0.3c0.5,1.2,1.4,1.2,2.4,1.2
	c1,0,1.9-0.7,2.7,0.3c0.8,1,1.6,1,1.6,1.7c0,0.8,0,1.9,0,1.9s-0.7,0-1.9-0.5c-1.2-0.5-0.8-1-2.7-0.7c-1.9,0.3-1.7-0.2-3.8,0.2
	c-2.1,0.3-7.5,3.2-7.9,3.6c-0.4,0.5-4.8,2.9-5.5,3.8c-0.7,1-1,0.7-2.1,1c-1.2,0.3-5,1.4-5,2.4s-1.4,0.5-1.2-0.5c0.2-1,0.3-1.2,1-1.7
	c0.7-0.7,1.4-1.4,1.4-1.4s-0.5-0.3-1-0.8c-0.5-0.5-1.4,0.3-1.7,1s-1.6-0.2-1.9-1c-0.3-0.8-0.5-0.8-1.7-1c-1.2-0.2-0.7-0.2-1-1.4
	c-0.3-1.2-0.2,0-1-1.2s-0.8-0.8-0.7-2.1c0.2-1.2,0.5-1.7-0.3-2.1c-0.8-0.3-1.9,0.5-1.2,1.7s1.4,2.4,1,2.9c-0.5,0.5-0.8,1-1.2,1
	c-0.5,0-0.2-1.2-1-1c-0.8,0.2-1.2-0.7-1.6-0.7c-0.5,0-0.3-2.2-0.8-0.8c-0.5,1.4,0.5,1.4-0.5,2.2c-1,0.8-2.2-0.5-2.7,0.2
	c-0.5,0.7-2.2-1.4-1.7-0.5c0.5,1,0.2,2.4,1.6,2.7s0.5,1.6,1,1.7c0.5,0.2-1.2,1.7,0.7,1.2c1.9-0.5,1-0.5,1.9-0.5s2.2,0.8,1.6-0.2
	c-0.7-1-0.2,0,1-0.2c1.2-0.2,1.4-0.3,2.2-0.7c0.8-0.3,1.2,0.8,2.1,0.2c0.8-0.7,2.1,0.8,2.7,1c0.7,0.2-0.5,0.7-0.8,1.4
	c-0.3,0.8,0.7-0.3-0.3,0.8c-1,1.2-5.5-0.2-6.4,0.2c-1,0.3-9.8,2.2-10.8,2.6c-1,0.3-2.4,1-2.4,1s-3.6-0.2-3.8-12.2
	c0,0,0.7-0.5,1.2-0.8c0.5-0.3,1-2.9-0.2-3.6c-1.2-0.8-2.1-1-3.6-1s-1.4,0.2-3.2-2.1c-1.7-2.3-2.7-2.1-3.2-3.2
	c-0.5-1.2-4.1-2.3-9.6-6c-5.5-3.7-10.1-6.7-13.2-7.7c-3.1-1-13.3-7.3-24.1-7.6c-10.8-0.3-16-1.4-28.5,2.1s-16.1,1.2-16.1,1.2
	L1.5,52.8c1.2-1.6,1-1.9,0-2.2c-1-0.3,0-3.6,0.4-2.7c0.4,0.8,0.3,2.9,1.5,2.4s2.7-1.8,2.7-1.8s-0.7-1.9,0-2.6c0.7-0.7,0,2.1,1,1.7
	c1-0.3,1-0.2,1.7-1.8c0.8-1.5,1.1-2.9,1.7-2.8c-0.5,0.2-1.3,2-1.3,3c0,1.1-1.3,2.6-2.2,2.1s-0.8,1-0.8,1c-5,2.1-3.5,2.9-3.5,2.9
	c8.1-1.9,6.6-1.8,6.8-2.7c0.2-0.8,0.6-0.9,1.2-1.2s0.8-1.1,0.3-1.1c-0.5,0-1.1,0.2-1.4-0.6c-0.4-0.8,0.9-1.2,1.2-1.7
	c0.3-0.7,1.3-0.6,1.9-1.1c0.6-0.5,2-0.2,2.7-0.8s0.1-0.8-0.7-0.6c-0.8,0.2-0.7-1.2-1.3-1.8c-0.7-0.7-2.1,0.5-2.9,0
	c-0.8-0.5-0.9-3.3-0.9-2.7c-0.1,4.5,2.1,3.4,2.7,3.9c0.4,0.3-0.1,0.9-0.7,1.2c0.3-0.2,0.5-0.6,0.2-1c-0.5-0.7-1.4-0.5-1.6-1
	c-0.2-0.5-2.2-2.7-1.4-4.1c0.8-1.4,3.6-5.5,3.2-6.4s-0.8-3.1-2.5-3.8s-4.3-2.6-5-4c-0.7-1.4-2.8-3.6-3.6-4.6c-0.6-1.1-1.8-1.6,0.3-6
	C2,9.9,1.1,8,1.1,8h137c0,0-0.3,1.7,0.7,2.1s1.4,1.9,1.7,3.1c0.3,1.2,1.6,2.6,1.4,4.6c-0.2,2-1.2,4.6,0,5.3c1.2,0.7,0.8,1,2.6,1.6
	C146.2,25.3,284,34.8,284,34.8s-1.2,1.4,0,2.4c1.2,1,1.9,3.1,1.6,3.8c-0.3,0.8-0.9,3.8,0.1,4.6c0.9,0.8,1.1,1.2,1.8,1.2
	c0.8,0,3.6-0.5,4-0.2s2.4,0.3,2.6-1.7c0.2-2.1,0-5,1-7c1-2,1.6-3.6,0.7-5.6c-1-1.9-2.7-4-1.7-6.7c1-2.7,1.6-4.1,2.2-4.5
	c0.6-0.4,2.2-0.5,2.2-1.2s1.2-1.6,1.2-1.6l21.9,8.6c0,0,2.6,6.2,1.4,6.9c-1.2,0.7-2.4,0.5-2.4,1.2c0,0.8-1-4.8-1.9-5.6
	c-1-0.8,0.5,3.4,0.3,4.6s-1-0.8-1.6-1.4s-1.2,1.2-0.8,1.6c0.3,0.5-1.9-2.6-3.4-3.8c-1.4-1.2,2.4,3.6,1.6,3.6
	c-0.8,0.1-5.1-2.7-5.5-3.6c-0.3-1-0.8,1.2-2.1,0c-1.2-1.2,2.2,2.6,3.4,3.1s4.1,2.6,4.8,2.4s2.6-0.7,3.2,0.3c0.6,1-1.2,1.7,0.5,1.7
	c1.6,0,4.2,0,4.1,0.7c-0.1,0.7,1.9,0.3,1-1.2c-1-1.4,1.6,0.8,0.3,3.8c-1.3,3.1,0.1,0.2-1.2,0.2c-1.2,0-1.7,0.5-2.4,1.4
	c-0.7,1-2.1-0.3-2.7-1.2c-0.6-0.9,0,1.2-0.2,2.1c-0.2,0.8-1.2,0.3-2.1,0.8c-0.8,0.5-0.7,0.2-0.2,1.6s-0.8,2.7-2.2,3.6
	c-1.4,1-1.7,2.7-0.5,4.1c1.2,1.4,0.8,1.4,0.2,2.5c-0.7,1.1,0.2,3.6-1,3.5c-1.2-0.2-4,0.8-3.6,1.6c0.3,0.8,3.2-1.2,3.6,0
	c0.5,1.2,1,3.1,0,3.6c-1,0.6-1-1.9-2.7-1.4c-1.7,0.5-1.6-1-3.1-0.2c-1.4,0.8,2.1,0,3.6,1.7c1.6,1.6,1.6,4.2,3.6,4.2s4.5,1,3.6,1.9
	c-1,1-3.2,0.3-2.4,1.4c0.8,1.2,2.7,8.8,3.8,8.9c1.2,0.2,1.2,1.9,0.5,3.1c-0.8,1.2-1,1.8-2.9,1.8c-1.9,0-3.1-1.7-3.6,0
	s0.7,0.6,1.9,1.2c1.2,0.7,1.2,0.8,0.5,1.2c-0.7,0.3,0.7,1.2,1.6,2.1c1,0.9,1.7,2.4-0.3,2.1c-2.1-0.3-3.6-1.1-4.1,0
	c-0.5,1.1-2.2,1.7-1.2,2.7c1.2,1,2.9,3.1,0.8,3.4c-2.1,0.3-2.6,0.8-2.7,1.2c-0.2,0.5,1.2-0.3,1.9,0.8c0.8,1.2,3.1,1.2,3.2,2.6
	c0.2,1.2-2.6,0.2-2.1,1.2c0.5,1.2,1.9,1.6,1.4,2.4c-0.5,0.8-1,1.4-1,1.4s-2.9-0.8-2.1,0c0.8,0.8,3.6,2.2,3.6,2.2s1.9,2.1,1.7,3.4
	c-0.2,1.2-1.2,3.1,0.5,3.2c1.6,0.2,1.6,1,2.7,1c1.2,0,1.6-0.3,2.1,1c0.5,1.2,0,2.4,0.5,3.4c0.5,1,4.6,3.6,5.8,4.5
	c1.2,0.8,3.6,2.6,2.4,3.1s-2.1,1.6-1.6,5.6c0.2,1.2,0.8,2.9,1.9,2.9c1.2,0-0.2-1.2,0-3.2c0.2-1.9,1.3-5.8,1.3-5.8s-1.4-2.6-2.4-3.1
	c-1-0.5,0.3-1,0.5-1.9s1.4-4.8-0.7-4.6c-2.1,0.2-3.6,0.3-4.6,1.2c-1,0.8-3.4-3.6-3.6-4.3s1.6-2.1,1.6-2.9c0-0.8-1.2-0.2-1.6-1
	s1.9-2.4,1.9-2.4l-2.7-1.6c0,0-2.6-4-3.8-3.2c-1.2,0.8-2.6-0.3-1.4-1c1.2-0.7,0.2-3.6-0.5-4c-0.7-0.3-0.5-5-1.2-5.3s-1-1.9,1-1.7
	s3.2,0,4.1,1.2c1,1.2,1.4,1.6,1.2,2.9c-0.2,1.2,0.3,2.2,1.2,2.4c1,0.2,2.1,1.2,2.1,2.6c0,1.2,0.8,4,2.7,3.8c1.9-0.2,3.6,0,2.9-1.6
	c-0.8-1.6-1.4-2.7-2.6-2.7c-1.2,0-1.7-0.8-1.7-1.6c0-0.9-1.4-2.6-2.2-3.4c-0.8-0.8-1.6-1.4-2.1-2.6c-0.5-1.2-0.7-1.7-1.2-1.6
	c-0.5,0.2,0.8-2.2,0-2.9c-0.8-0.7-3.8-2.4-2.1-2.7s2.6-2,3.4-1.4c0.8,0.6,0.8-4.2,1.4-3.3c0.7,1,2.1,3.2,2.6,3.3s-1.9-3.3-1.7-3.8
	c0.2-0.7-1-1.9-1.6-1.9s-0.8-4.5-0.2-4.5s-3.1-1.9-2.2-2.9c0.8-1,1.2-3.6,2.2-2.2c1,1.2,1.4,1.6,1.4,2.2c0,0.7,0.7-2.6-1.4-3.6
	c-2.1-1-6.2-2.1-6.2-3.6s0.5-3.6,1.4-3.4c1,0.2-1.7-3.4,0.7-2.9c2.4,0.5,4.1,1.9,4.5,1.2c0.3-0.7-3.6-2.6-4.8-2.4s-3.8,2.3-2.2-0.2
	c1.6-2.5,2.4-2.5,2.9-2.5s-0.2-2-0.8-2.8c-0.7-0.8-2.4-1.9-1.6-2.7c0.8-0.8,1.6-2.2,2.9-1.7c1.2,0.5,0.7-0.7,0.2-1.9s-0.5-1.7,1-1.6
	c1.4,0.2,2.2-2.2,3.6-1.6c1.4,0.6,2.9,1,3.2,2.4s0.7,3.1,1,4.3c0.3,1.2,0.5,2.6-0.5,3.4c-1,0.8-1.6,4.3-0.2,2.3c0,0,1.4-3.2,1.6-2.5
	c0.1,0.6,0.8,1.4,1,2.1c0.1-1,0.2-3.2-0.2-3.8c-0.5-1-1.7-5.5-1.7-7c0-1.6,0.8-6,0.8-6s1,1.6,1,4.6s4.3,25,4.9,27.1
	c-0.5-1.2-3.2-7.6-3.2-9.1c0,0-1.8,5.9,2.2,10.8c0.8,1,0.7,6.2,1,7c0.3,0.8,3,5.7,3,7.1s0.8,5.4,1.6,6.3c0,0,0.8-3.6,0-5.6
	c-0.8-2.1-0.8-2.1-0.8-2.1s-3.2-6.5-3.1-7.9c0.2-1.2,0-4,0-4s2.1,5.5,2.2,6.9c0.1,1.4,10.3,28.8,10.3,28.8s5.1,11.5,6.5,14.6
	c1.4,3.1,21.1,34.1,21.3,35c0.2,1,1,3.2,0,3.8s-2.1-1.6-2.9,3.6c-0.8,5.3-0.5,9.1,0.5,13.7c1,4.6,9.1,22.9,9.6,23.8
	c0.5,1,8.8,25.3,8.8,25.3s8.9,21.7,9.1,23.8C399.2,255.2,400.5,262.9,399.7,274.2z M86.8,44.4c-0.2-0.8-2.1-1.7-3.3-1.6
	c-1.2,0.2-2.5-0.2-3.6-0.2c-1.2,0.1-3.7-0.5-3.1-1.2c0.7-0.7,1.9-1.7,1.6-2.3c-0.3-0.7-2.3,2.7-3.1,2.2c-0.8-0.5-1.1-1-0.5-2.1
	c0.6-1.2-0.8,1.2-1.7,0.9c-0.6-0.1-0.9-0.2-1-0.5c0.9-0.6,0.7-1.8,0.3-1c-0.3,0.5-0.4,0.8-0.3,1c-0.3,0.2-0.7,0.3-1.2,0.3
	c-2.1-0.3-3.9-0.2-4.5,0.6c-0.6,0.8-0.8,1.6-2,0.9c-1.2-0.8-3.6-1.4-2.1-2.3c1.4-0.9,1.2-1.8,1.8-1.3c0.7,0.5-0.2-0.8-1.5,0
	c-1.2,0.8-1.2,1.8-1.8,1.4c-0.2-0.1-0.4-0.4-0.5-0.7c-0.2-0.7-0.4-1.2-0.4-1.2s0.1,0.7,0.4,1.2c0.2,0.6,0.3,1.3,0,1.6
	c-0.5,0.8-0.2,1-1.4,1.2s-1,1.4-2.5,0.9c-1.5-0.6-2.2,0.8-1.9-0.8c0.3-1.5,0.8-1.8,0.8-1.8s-2.5,2.1-1.7,2.9
	c0.8,0.8,0.4,1.1-0.4,1.2s-11.5,0.2-13.3,0.7c-1.7,0.4-8.9,0.9-12.9,2.2s-5.3,0.8-4.4,0.2c0.9-0.6,1.7,0.2,2.7-0.5s2.3-1.7,3.4-1.7
	s2.9,0,3.6-0.4c0.8-0.4,1.2-1.2,2.2-1.3c1.2-0.1,3.3-0.3,4.2-0.3c1,0,1.4,0,2,0.1c0.6,0.1-5.9-1.7-6.6-2.6c-0.8-0.9-1.1-1.2-1.6-1.5
	c-0.6-0.3-1.2-0.1,0.1-1.1c1.2-1,1.2-2.2,2.1-2.2c0.9,0,1.4,0.2,1.8-0.2c0.4-0.4,0.4-1.2,0.2-1.6c-0.2-0.4-1.2,0.9-1.2,0.9
	s-1.4,0.3-2.1,0.6c0.3-0.4,0.6-1.1,0.1-1.4c-0.8-0.7-1.3-0.8-1.7-1.7c-0.3-1.1-0.9-1.1,0.2-1.3c1.2-0.3,3-1.8,3-2.4
	s-0.8,1.2-2.7,1.5c-1.9,0.4-1.6,2.6-0.7,3.6c1,1,0.9,2,0.2,2.2c-0.7,0.2-1.4,0.2-1.3,1c0.1,0.8-0.5,1.5-0.6,2.7
	c-0.1,1.2-0.8,1.2-1.1,1.8s-0.8,1.7-1.2,0.8c-0.4-0.9-0.2-1.2-0.2-2.1c0-0.8-0.2-1.7-0.1-2.5c0.1-0.8-0.7-0.2-1.5-1.3
	c-0.9-1.2,0.3-1-1.2-1.7c-1.5-0.8-0.8-0.7-2.1-1.1c-1.4-0.4-1.7-0.2-2.6-1.4c-0.9-1.2-1.7-3.4-1.7-3.4c0,1.8,2.3,6.2,3.8,7.2
	c1.5,1,3.8,3,3.6,4.2s-0.6,2.7-1.7,3.6c-1.2,0.8-1.7,0.4-2.5,1.2c-0.8,0.8-1.3,0.4-1.9,1c-0.6,0.6-3,0.7-3.6,1.2
	c-0.6,0.5,2.9-1,3.2,0c0.3,1-0.8,2-1.7,1.9c-0.9-0.1-4.3,0.8-4.7,1.2c-0.4,0.3-0.9,0.8-0.9,0.8s4.2-1.2,5.5-0.9
	c1.2,0.4,8.2-0.3,10.1-1.1c1.9-0.8,15.1-3.4,18-3.6c3-0.2,5.7-0.1,6,0.2c0.4,0.3,7.4-0.1,7.4-0.1s4.1-1.2,4.7-0.9
	c0.6,0.3,3.6,1.9,4.4,1.7c0.8-0.2-0.6-3.4,0.9-2.3s3.6,2.2,4,1.9c0.4-0.4-1.2-2.8,0-2.3s1.7,1.8,3,2.3c0.9,0.4,2.5,0.2,3.4,0.5
	c0.2,0.5,0.8,1,0.6,0.5c-0.1-0.2-0.3-0.4-0.6-0.5c-0.2-0.4-0.1-0.8,0.6-0.9c1.6-0.2,2.7,0.2,3.5,0.8c0.8,0.7,2.1,1,2.7,0.3
	C86.4,44.9,87,45.1,86.8,44.4z M117.7,65.4c-0.1-1-1.2,0.2-2.2-0.2c-1.1-0.4,0.3-1,0.9-1.5c0.6-0.6-0.3-2.2-0.1-1.4
	c0.2,0.8,0,0.9-1.1,1.5c-1.1,0.7-0.4,2.9-1.1,3.1s-0.8-0.2-1.7-1c-0.9-0.8,0.2-1.9,0-3c-0.2-1.1-0.9-0.1-1.8,0
	c-1,0.1,1.8-2.7,1.8-2.7s-0.8,0.4-1.7,1c-0.9,0.6-0.7,0.3-1.3-0.3c-0.8-0.7-0.8,0.1-1.7,0.7c-0.9,0.6-1-0.2-1-1.1s-0.7-0.2-1.2-0.5
	c-0.7-0.3-0.6,0.3-1.2,0.8c-0.6,0.5-1.2-0.1-1.5-0.5c-0.3-0.4-0.5-0.4-0.9-1.4s-2.4-1.2-2.4-1.2s0.8-0.6,1.3-1.1
	c0.5-0.5,1.1-1.2,1.7-2.3c0.7-1.1,0.6-0.2,1.2-0.8c0.7-0.6,1.6,0.2,1.5-0.3s1.2,0.4,1.2,0.1c0-0.3,0.4-1.1,1-1.7
	c0.6-0.8,1.7,1,1.4,0.5c-0.2-0.5-1.4-1-1.5-2.2c0-0.7,0.5-1,1.1-1.2c0.8-0.1,0.9-0.1,0.9-0.1s-0.4,0-0.9,0.1c-0.2,0-0.4,0-0.6,0.1
	c-1.4,0.2-1.3,1.3-1.5,2.6c-0.2,1.2-0.8,0.8-1.4,0.8c-0.8-0.1-0.8-1.2-1.2-0.7c-0.3,0.7,0,0-0.8,1.1s-1.2,0.1-2.1,0.9
	c-1,0.8-0.8,1.2-0.8,0.6s-0.2-1.8-1.3-3.1c-1.2-1.2-1.1-2.7-1.2-1.8c-0.1,0.8,0.2,1.7-0.5,1.8c-0.7,0.2-1.8-1.5-1.5-1.1
	c0.3,0.5-0.1,1.2-1,1.4c-0.9,0.3-1.4,0.2-2.3,1.4c-0.9,1.2,1.5,2.3,2.3,2.8c0,0,0.2-1.2,0.7-1.4c0.5-0.3,1.2,0.1,1.9,0.1
	s0.4,0.5,0.6,1.2c0.2,0.8,1.2-0.2,0.8,1.2c-0.6,1.4,0.4,2.1,1.2,2.4c0.8,0.2,0.7,0.7,0.7,1.2c0,0.6-3-1.2-3-1.2s1.2,1.2,1.7,1.8
	c0.5,0.7,4.1,1.8,3.6,1.6c-0.7-0.2-0.9-1.3-0.5-1.5c0.4-0.2,1,0.8,1.2,0.7c0.3-0.1,1.2-0.2,1.7,0.8c0.7,1,0.2,0.6,1.6,0.3
	c1.4-0.3,2.6,1.5,2.5,2.5c-0.1,1,0.5,0.2,1.3,0.4c0.9,0.2,1.1,1.1,1.6,2c0.6,1,1.2,0.5,2.1,0.5s0.5-0.3,0.8-1.2
	c0.3-0.9,0.4,0.2,0.8-0.5c0.4-0.7,1.5,0.5,1.5,0.5S117.8,66.3,117.7,65.4z M122.2,79.8c-0.7-0.6-0.9-0.8-1.3-1.2
	c-0.5-0.5-2.1-3.9-2.1-3.9c-0.1,1.2-1.2,1.9-1.3,3.1S116.9,88,119.8,88c0.9,0,2,0,2,0s0-5.4,0.4-6C122.6,81.4,122.9,80.3,122.2,79.8
	z M332.7,139.9c0.9,0.4,1.1,0.2,1.9,0.8c0.9,0.5,1.3,0.5,1.9,0.4c0.6-0.1,1.1-0.6,0.8-1.4s-0.7-1.8-1.2-1.8c-0.5,0-0.5,0-0.5,0
	c-1.1-0.2-2.1-1-2.6,0C332.6,138.7,331.7,139.5,332.7,139.9z M338.6,139.1c0,0,0.5,4.4,0,5.2s-0.9,0.7-1.9,0.9s-1.1,0.4-2.5,0.8
	c-1.4,0.4-0.6,0.7,0,0.8c0.6,0.2,0.9,0.6,2.2,0.8s1.2-0.4,2.2-0.9s0.8-1.2,1.2-1.7C340.5,144.1,339.3,140.6,338.6,139.1z M347,143.6
	c0.7-0.6,0-1.2,0-1.2c-0.4,0.1-1.5-0.7-1.7,0s-1,1.2-0.7,1.8c0.3,0.8-0.2,1.2,0.7,1.4c0.8,0.2,1.5,0.8,1.7,0
	C347.1,145.1,346.3,144.2,347,143.6z M348.9,150c0-0.6-0.2-0.8-0.3-1.2c-0.2-0.3-0.5-1.2-0.8-1.4c0,0-0.4,2,0,1.9
	C348.2,149.3,348.9,150.6,348.9,150z M356.9,136.1c0.4,1.3,3.1,5.7,3.6,6.1c0.5,0.5,3.2,4.2,3.6,5.3c0.4,1,1.7,1.8,3.5,2.2
	c0,0-2.2-4-2.4-4.3c-0.2-0.2-3.8-5.7-4.1-6.1c-0.3-0.5-12-21-12-21s2.7,6,3.1,6.5C352.4,125.2,356.5,134.7,356.9,136.1z
	 M395.6,245.4l-9.2-23.9l-7.8-21.3l-5.1-11.7c0,0-4.4-8.9-4.3-10.1c0.1-1.2,0-7.3,0-7.3l1.4-10l0.9-3.6c0,0-1.1-3.6-1.6-4
	c-0.6-0.4-0.6,1.7-0.8,2.5c-0.2,0.8-2.1,6.9-2.1,7.4s0.2,6.5,0.5,7.5c0.2,1.1-1.5-3.9-1.5-4.5c0-0.1,0-0.1,0,0l0,0
	c0,0.5,0,4.2,0.4,5.1c0.4,1,1.1,3.6,1.4,4.2c0.4,0.8-3.6-6.2-3.6-8.2s0.4-6,0-6.6c-0.4-0.8-1.2-1-0.7-2.1c0.6-1.2-0.2-3.4,1-4
	c1.2-0.8,1.7-1.5,2.3-1.3c0.6,0.2,1.3-0.1,1.5-0.5c0.2-0.4-3.6,1.2-4.2,0.8c-0.6-0.4,0.3-1.1-0.8-0.8c-1.1,0.3-1.5,0.2-1.9-0.1
	c-0.4-0.3-1.4-2.6-1.1-3.4s0.1-1.4,1.1-1.6c1-0.2,1.7,0.6,1.5-0.5c-0.2-1.1-1.3-3-2.7-3.8c-1.2-0.9-3.5-2.6-3.5-2.6l1.1,7.1
	c0,0,2,6.4,2,7.7s0.9,3.8,1.2,4.2c0.4,0.4,0.8,3.6,0.9,4.6c0.1,1.2,1.2,3.4,1.5,3.9s3.9,8.1,4,8.8c0.2,0.8,4.3,11.9,6.6,16.3
	c2.3,4.4,5.3,11.1,5.3,11.1s4.4,12.9,4.9,14.7c0.5,1.8,1,5.6,1.4,6.1c0.5,0.7,2.5,5.8,3.1,6.4c0.7,0.7,1.7,2.4,1.7,2.7
	C390.7,235.2,395.6,245.4,395.6,245.4z M362.3,374.6c-0.1,0.3,0.8,0.4,1.2,0c0.4-0.4,1.5-0.9,1.5-0.9h-1.5
	C362.8,374,362.4,374.2,362.3,374.6z M268.1,199.9c-0.1,0.1-0.1,0.1-0.1,0.2C268,200.3,268.1,200.2,268.1,199.9z M391.7,339.8
	c-1,1-1,0.5-1.2,1.3s-1,0.7-1.2,1.2c-0.3,0.6-0.3,1.3-0.5,1.7c-0.2,0.4,0,0.8-0.6,1.2c-0.6,0.4-0.6,0.7-0.6,1.1s-0.4-0.6-1,0.5
	c-0.6,1.2-1.1,1.4-0.9,1.9s0.7,0.4,0,0.9c-0.7,0.5-0.8,0.8-0.9,1.2c-0.1,0.4-0.9,0.5-1,1c-0.1,0.5-0.3,0.8-0.6,1.5
	c-0.2,0.8-0.8,1.3-1.2,1.3c-0.4,0,0.3,0.4,0,0.7s-1.7,1.8-1.7,1.8l-5.4,6.6c0,0-2.5,2.7-2.7,3.2c-0.2,0.5,0.2,1-0.8,1.2
	c-1,0.2-1.5,0-1.8,0.4c-0.3,0.4-2.3,2.7-2.3,2.7l3.1-2.4c0,0,1.7,0.1,2-0.3c0.2-0.4,2.6-3.6,2.6-3.6l5.7-6.7c0,0,2.9-3.1,2.9-3.6
	s1.4-3.3,1.4-3.3s2.2-2,1.9-2.5s0.2-1.4,0.2-1.4s1.7-2.2,1.7-2.1c0,0.1,0.7-1.3,0.8-1.9c0.1-0.5,0.9-1.6,1.2-1.6
	c0.4,0,0.7-1.3,0.7-1.3l1.1-1.2l-1-2.2C391.6,338.5,392.7,338.8,391.7,339.8z M365.4,371.1c-0.2,0.1-0.7,0-0.7,0
	c-0.2,0.7-0.8,1.1,0,0.8C365.6,371.7,365.7,371,365.4,371.1z M377.8,190.4c1,1.6,1,2.3,1.4,2.3S377.8,190.4,377.8,190.4z
	 M339.2,328.5c0.9,0.9,1.2,1.3,1.2,1.8c0,0.5-1,0.9-0.6,1.5s-1,1.7,0.4,0.8c1.3-1,1.5-1.5,1.5-1.8c0-0.3-0.2-1-0.6-1.2
	S339.2,328.5,339.2,328.5z M342.3,327.7c0.2,0.8,0.9,0.2,1.2,0c0.4-0.2-0.1-1-0.8-1.1C342.8,326.5,342.1,326.9,342.3,327.7z
	 M346.1,329.6v1.2c0,0,1,0.2,1,0c0-0.2-0.1-1-0.1-1.2H346.1z"/>
</svg>
