<?xml version="1.0" encoding="utf-8"?>
<!-- Generator: Adobe Illustrator 18.0.0, SVG Export Plug-In . SVG Version: 6.00 Build 0)  -->
<!DOCTYPE svg PUBLIC "-//W3C//DTD SVG 1.1//EN" "http://www.w3.org/Graphics/SVG/1.1/DTD/svg11.dtd">
<svg version="1.1" id="Layer_1" xmlns="http://www.w3.org/2000/svg" xmlns:xlink="http://www.w3.org/1999/xlink" x="0px" y="0px"
	 viewBox="0 0 397.7 381.8" enable-background="new 0 0 397.7 381.8" xml:space="preserve">
<path fill="#FFFFFF" d="M353.6,346.4c-0.6,0.6-0.9-0.5-0.6-1.1C352.9,345.4,354.1,345.8,353.6,346.4z M362.2,336.9
	c-0.6,0.6-0.9-0.5-0.6-1.1C361.5,335.8,362.7,336.3,362.2,336.9z M360.3,336.9c-0.6,0.6-1.1,0.4-0.5-0.6
	C359.8,336.3,360.8,336.3,360.3,336.9z M318.4,376.7c-0.7,0.7-2.3,0.7-2.3,1.1c0.1,0.4,0,1,1.1,0.7c1.1-0.3,1.3-0.7,2-0.9
	C319.9,377.5,318.4,376.7,318.4,376.7z M333.8,374.7c-1,0.2,0.5,1.6,0.8,0.8C334.8,374.7,333.8,374.7,333.8,374.7z M329.9,374.7
	c-0.9-0.7-4.4-3.1-3.6-2.4c0.8,0.7,1.9,2.3,1.4,2.4c-0.6,0.1-1,0.5-1.4-0.5s-2.5-2.5-1.8-1.4c0.7,1,1.7,2.3,1.2,2.5
	c-0.5,0.2-2,1.1-2.8,0.7c-0.8-0.4-1.4-2.4-1.6-1.7c-0.2,0.7,0.3,0.9-0.5,1.6c-0.6,0.5,2.1,0.6,2.1,0.6s2.7,0.6,3.2,0
	c0.5-0.6,0.8-1.5,1.6-1.2s1.6-0.9,1.6,0c0,0.9-0.4,1.7,0.2,1.4C329.9,376.4,330.7,375.4,329.9,374.7z M354.4,344.3
	c0.2-0.8,0.1-0.6,0.8-0.9s-3.8-1.1-3.1-0.6s-0.5,1.1,0.5,1C353.6,343.8,354.2,345.1,354.4,344.3z M352.6,335.5
	c-0.2,0.6,0.9,1.9,1,1.6C353.7,336.7,352.8,334.9,352.6,335.5z M348.2,370.1c-0.5,0.6,0.4,1.1-0.9,0.9c-1.3-0.2-2.5,0.5-3.4,0.7
	s-0.6,0.6-1.5,0.6c-1,0.1-0.8,0.6-0.3,1s0.8,1.2,1.2,0.7s-0.2-0.8,0.6-1.3c0.9-0.5,0.7-1.2,1.5-1.1c0.8,0.1,0.1,0.2,0.8,0.3
	s1.9-0.9,2.5-1.4s0.4-0.4,0.9-0.8c0.5-0.4,0.5-0.9,1.2-0.6c0.7,0.3,1.3,0.6,1.4,0.2c0.1-0.4-0.4-0.9-0.4-0.9
	C351.4,368.6,348.7,369.5,348.2,370.1z M309.4,300.5c-0.8-0.6-0.8-0.6-0.8-0.6c-0.6,1-0.6,0.7,0,1.8c0.6,1.1,0.6,1.4,1,1.4
	c0.4,0.1,0.2-1.4,1-1.5c0.9-0.1,1.2,0,1.4,0.8c0.2,0.8,0.8,0.6,0.4-0.6C312.1,300.8,310.2,301.1,309.4,300.5z M159,72.1
	c-0.7,0.1-2.5,1.4-2.5,1.4c0.9-0.1,3.4-0.7,3.7-1.2c0.2-0.3,0-0.8-0.1-1.2C159.8,71.5,159.4,72,159,72.1z M130.3,80.2
	c-1-0.1-0.8-1.1-1.9-0.7c-1.1,0.4-3.7,0.6-3.7,0.6c1.4,0.1,4.3,1.4,5.5,2.3c1.2,0.9,1.8,0.9,2.5,0.4
	C133.3,82.3,131.2,80.3,130.3,80.2z M160.1,70.6c-0.1,0.1-0.1,0.2-0.1,0.5C160.2,70.8,160.2,70.6,160.1,70.6z M154,74.3
	c-0.8,0.2-4.9,4.5-4.9,4.5s-2.6,1.3-3.8,1.6c-1.2,0.3-5.8,4.1-6.8,4.4c-1,0.3-2.2,0.3-2.9-0.2s-2.3-1-2.3-1c0.7,0.6,1.9,1.9,1.9,1.9
	s2.8,0,3.8-0.6c1-0.6,4.3-3.3,5.5-3.7c1.2-0.4,2.9-1.1,3.7-1.3c0.7-0.2,5.6-4.5,5.6-4.9C154.1,74.6,154.8,74.1,154,74.3z
	 M281.8,256.3c-0.3-0.6-0.8-3.3-0.8-3.3c-0.7,0.7-0.4,2.6,0,3.2c0.4,0.6,0.6,3.3,1.4,4.1C283.2,261.2,282.1,256.9,281.8,256.3z
	 M305,381.1c1,0.8,0.4,0.9,1.5,0.4C307.6,381,304,380.3,305,381.1z M289,261c0.5-0.9-0.6-0.6-0.7-1.6c-0.1-1,0.6-1.7,0-1.6
	c-0.6,0-1.1-1-1.7-1c-0.6,0-1.3,0.3-1,0.7c1.2,1.2,1.2,1.8,1.8,2.5c0.6,0.6,0.9,1.4,0.9,2.9c0,1.4,0.3,2.3,0.9,3
	c0.6,0.7,0.4,2.3,1.1,2.8s1.2,0.6,1.1,0c-0.1-0.6-0.6-0.8-0.6-2.1c-0.1-1.3-0.1-1.4-0.5-2.3s-0.2-1.2,0.2-2.1c0.4-0.9,1.9-0.6,0.9-1
	c-1-0.5-1.1-0.9-0.9-0.1c0.2,0.8-0.5,2.5-0.8,2.9C289.4,264.3,288.8,261.5,289,261z M291.5,272.2c-0.8,0.2-1.4,0.4-2.4,0.1
	c-1-0.3-1.5-0.5-2.1-1.4s-1.5-0.7-1.8-1.5c-0.3-0.8-0.6-3-0.6-3c0.3,1.3,0.1,2.2,0.6,3c0.5,0.8,0.7,1.2,1.7,1.8c1,0.6,2.5,2,3.4,2
	c1,0,1.4,0.7,2.1,0s0.8-1,1.2-1.6C294,271,292.3,272,291.5,272.2z M331.2,62.7c0,0.1,0,0.1,0,0.2C331.3,62.9,331.2,62.9,331.2,62.7z
	 M86.6,36.2c-0.2-0.7-2.1-1.8-3.3-1.6c-1.1,0.2-2.5-0.2-3.6-0.2c-1.1,0.1-3.7-0.5-3.1-1.1c0.6-0.6,1.9-1.7,1.6-2.3
	c-0.3-0.6-2.3,2.7-3.1,2.2c-0.8-0.5,0.1-3.7,0.6-4.8c0.6-1.1-1.8,3.8-2.8,3.6c-0.6-0.1,0.1-0.5,0.1-0.8c0.8-0.6-0.4-2.8-0.8-2
	c-0.2,0.5-0.2,2.1-0.2,2.3c-0.3,0.2-0.7,0.3-1.2,0.2c-2.1-0.3-3.9-0.2-4.5,0.6c-0.6,0.7-0.7,1.6-2,0.9c-1.3-0.7-3.5-1.4-2.1-2.3
	c1.4-0.9,1.2-1.9,1.8-1.4c0.6,0.5-0.2-0.7-1.5,0c-1.3,0.7-1.3,1.8-1.8,1.4c-0.2-0.1-0.4-0.4-0.5-0.7c-0.2-0.6-0.4-1.2-0.4-1.2
	s0.1,0.6,0.4,1.2c0.2,0.6-0.7,0.5-0.9,0.9c-0.5,0.7,0.7,1.8-0.5,1.9c-1.3,0.2-1,1.4-2.5,0.9c-1.5-0.6-2.2,0.8-1.9-0.7
	c0.3-1.5,0.7-1.8,0.7-1.8s-2.5,2.1-1.7,2.9c0.8,0.8,0.4,1-0.4,1.1c-0.8,0.1-11.5,0.2-13.2,0.6c-1.8,0.4-8.9,0.9-12.8,2.2
	c-3.9,1.4-5.3,0.8-4.4,0.2c0.9-0.6,1.8,0.2,2.7-0.5c1-0.6,2.3-1.8,3.3-1.8c1,0,2.9,0,3.7-0.4c0.8-0.4,1.1-1.3,2.2-1.4
	c1.1-0.1,3.3-0.3,4.2-0.3c1,0,1.4,0,2,0.1c0.6,0.1-5.8-1.7-6.6-2.5c-0.8-0.9-1-1.2-1.6-1.5c-0.6-0.3-1.1-0.1,0.1-1s1.2-2.2,2.1-2.2
	c0.9,0,1.4,0.2,1.8-0.2c0.4-0.4,0.4-1.3,0.2-1.6c-0.2-0.3-1.2,0.8-1.2,0.8s-1.5,0.3-2.1,0.6c0.3-0.4,0.6-1.1,0.1-1.5
	c-0.8-0.6-1.4-0.7-1.7-1.8c-0.3-1-0.9-1,0.2-1.4c1.1-0.3,2.9-1.8,2.9-2.4c0-0.6-0.7,1.2-2.6,1.5c-1.9,0.3-1.6,2.5-0.6,3.5
	c1,1,0.9,2,0.2,2.2c-0.6,0.2-1.4,0.2-1.4,1c0.1,0.7-0.5,1.5-0.6,2.7c-0.1,1.2-0.7,1.3-1,1.8c-0.3,0.6-0.7,1.7-1.1,0.8
	c-0.4-0.9-0.2-1.3-0.2-2.1c0-0.8-0.2-1.8-0.1-2.5s-0.6-0.2-1.5-1.4c-0.9-1.1,0.3-1-1.2-1.7c-1.5-0.7-0.7-0.6-2.1-1
	c-1.4-0.4-0.8-0.9-1.7-2.1c-0.9-1.2-2.8-2.9-2.8-2.9c0,1.8,1.8,6.2,3.3,7.2c1.5,1,3.2,3.1,2.9,4.4c-0.3,1.3,0.6,2.5-0.5,3.3
	c-1.1,0.8-1.8,0.4-2.5,1.1s-1.4,0.4-1.9,1c-0.6,0.6-3,0.7-3.5,1.2c-0.6,0.5,2.9-1,3.1,0c0.2,1-0.8,2-1.7,1.9
	c-0.9-0.1-4.3,0.8-4.7,1.1c-0.4,0.3-0.9,0.7-0.9,0.7s4.4-0.8,5.6-0.4c1.2,0.4,7.9-0.8,9.8-1.5s15.4-2.9,18.4-3
	c2.9-0.2,5.2-0.6,5.6-0.3c0.4,0.2,7.3-0.1,7.3-0.1s4.1-0.2,4.7,0.1c0.6,0.3,3.6,1,4.4,0.8c0.8-0.2-0.6-3.3,0.9-2.3s3.7,2.2,4.1,1.9
	c0.4-0.4-1.1-2.7,0-2.3c1.1,0.5,2.1,1.3,2.9,2.3c0.8,0.9,1.7,2.2,2.9,0.9c0.2,0.5,1.2,0.5,1,0c-0.1-0.2,0.5-0.7,0.2-0.8
	c-0.1-0.4-0.9-0.4-0.2-0.5c1.6-0.2,2.6,0.2,3.4,0.8c0.8,0.6,2.1,1,2.6,0.3C86.2,36.8,86.8,36.9,86.6,36.2z M117.4,57.1
	c-0.1-1-1.2,0.2-2.2-0.2c-1-0.5,0.3-1,0.9-1.5c0.6-0.6-0.3-2.2-0.1-1.4c0.2,0.8,0,0.9-1.1,1.5c-1.1,0.6-0.4,2.9-1,3
	c-0.6,0.2-0.8-0.2-1.7-1c-0.9-0.7,0.2-1.9,0-2.9c-0.2-1-0.9-0.1-1.8,0c-1,0.1,1.8-2.6,1.8-2.6s-0.8,0.4-1.7,1
	c-0.9,0.6-0.6,0.3-1.4-0.3c-0.7-0.6-0.8,0.1-1.7,0.6c-0.9,0.6-1-0.2-1-1c0-0.8-0.6-0.2-1.3-0.5c-0.6-0.3-0.6,0.3-1.1,0.7
	c-0.6,0.4-1.3-0.1-1.5-0.5c-0.2-0.4-0.5-0.4-0.9-1.4s-2.4-1.2-2.4-1.2s0.8-0.6,1.3-1c0.5-0.5,1.1-1.3,1.7-2.3c0.6-1,0.6-0.2,1.3-0.7
	c0.7-0.5,1.6,0.2,1.5-0.3c-0.1-0.5,1.3,0.4,1.3,0.1s0.4-1,1-1.8c0.6-0.7,1.7,1,1.4,0.5c-0.2-0.5-1.4-1-1.5-2.2c0-0.7,0.5-1,1-1.1
	c0.8-0.1,0.8-0.1,0.8-0.1s-0.4,0-0.8,0.1c-0.2,0-0.4,0-0.6,0.1c-1.4,0.2-1.4,1.4-1.5,2.6c-0.2,1.3-0.7,0.8-1.4,0.7
	c-0.7-0.1-0.8-1.3-1.1-0.6c-0.3,0.6,0,0-0.7,1c-0.7,1-1.2,0.1-2.1,0.9c-1,0.8-0.7,1.1-0.7,0.6c0-0.6-0.2-1.8-1.4-3.1
	c-1.1-1.3-1-2.6-1.1-1.8c-0.1,0.8,0.2,1.7-0.5,1.8c-0.6,0.2-1.8-1.5-1.5-1c0.3,0.5-0.1,1.1-1,1.4c-0.9,0.3-1.4,0.2-2.3,1.4
	c-0.9,1.3,1.7,2.8,2.5,3.3c0,0,0.1-0.8,0.6-1c0.5-0.2,0.6-0.2,1.3-0.2c0.7,0,0,0.5,0.2,1.3c0.2,0.8,2.2-0.9,1.6,0.6
	c-0.6,1.4,0.4,2.1,1.2,2.4c0.8,0.2,0.6,0.6,0.6,1.3s-2.9-1.3-2.9-1.3s1.3,1.1,1.8,1.8c0.5,0.7,4.1,1.8,3.5,1.6
	c-0.6-0.2-0.9-1.4-0.5-1.5c0.4-0.2,1,0.7,1.3,0.6c0.3-0.1,1.1-0.2,1.8,0.8c0.6,1,0.4,0,1.7,0.6c0.9,0.4,1.6,2.2,2.3,2.1
	c1,0,0.5,0.2,1.4,0.4c0.9,0.2,1,1,1.6,2c0.6,1,1.2,0.5,2.1,0.5c1,0,1,0.6,1.2-0.2c0.2-0.8,0.4,0.1,0.8-0.6c0.4-0.7,1.8,1.4,1.8,1.4
	S117.5,58.1,117.4,57.1z M121.9,71.4c-0.6-0.6-0.9-0.7-1.4-1.3c-0.5-0.6-2.1-3.9-2.1-3.9c-0.1,1.3-1.2,1.9-1.4,3
	c-0.2,1.1-0.5,10.3,2.4,10.3c0.9,0,2,0,2,0s0-5.3,0.4-5.9C122.2,73,122.5,71.9,121.9,71.4z M331.1,131.2c0.9,0.4,1,0.2,1.9,0.7
	c0.9,0.5,1.4,0.5,1.9,0.4c0.6-0.1,1-0.6,0.7-1.4c-0.3-0.9-0.6-1.8-1.1-1.8s-0.5,0-0.5,0c-1-0.2-2.1-1-2.5,0
	C331,130,330.2,130.8,331.1,131.2z M337,130.4c0,0,0.5,4.4,0,5.1s-0.9,0.6-1.9,0.9c-1.1,0.2-1,0.4-2.5,0.7c-1.5,0.3-0.6,0.6,0,0.8
	c0.6,0.2,0.9,0.6,2.2,0.7c1.4,0.2,1.2-0.4,2.2-0.9c1-0.5,0.7-1.1,1.3-1.8C338.9,135.4,337.7,131.8,337,130.4z M345.3,134.9
	c0.6-0.6,0-1.2,0-1.2c-0.4,0.1-1.5-0.6-1.7,0c-0.2,0.6-1,1.1-0.6,1.8c0.3,0.7-0.2,1.2,0.6,1.4c0.8,0.2,1.5,0.7,1.7,0
	C345.5,136.3,344.7,135.5,345.3,134.9z M347.2,141.2c0-0.6-0.2-0.8-0.3-1.1c-0.2-0.3-0.5-1.1-0.8-1.4c0,0-0.4,2,0,1.9
	C346.5,140.5,347.2,141.8,347.2,141.2z M10.1,41c0.5-0.7,0.6-0.9,1.2-1.3c0.6-0.4,0.8-1,0.3-1s-1,0.2-1.5-0.6
	c-0.4-0.8,0.8-1.1,1.1-1.8c0.3-0.6,1.4-0.6,1.9-1c0.5-0.5,2-0.2,2.7-0.7s0.1-0.8-0.6-0.6c-0.7,0.2-0.6-1.1-1.4-1.8
	c-0.7-0.7-1.5-0.6-2.3-1.1c-0.8-0.5-1.5-2.2-1.5-1.5c0,0-0.4,0-1.6-0.7s0.8-0.3,0.8-0.3c0.8-1.4,3.6-5.4,3.2-6.4
	c-0.4-1-0.8-3-2.5-3.8c-1.8-0.8-4.3-2.5-4.9-4C4.4,13,2.3,11,1.5,9.9c-0.9-1.1-2.1-1.6,0-6C2.4,1.9,1.4,0,1.4,0h136.2
	c0,0-0.3,1.8,0.6,2.1s1.4,1.9,1.8,3c0.3,1.1,1.6,2.5,1.4,4.6s-1.2,4.6,0,5.3c1.3,0.6,0.8,1,2.5,1.6c1.8,0.6,138.7,10,138.7,10
	s-1.1,1.4,0,2.4s1.9,3,1.6,3.8c-0.3,0.8-0.8,3.8,0.1,4.6c0.9,0.8,1,1.3,1.8,1.3c0.8,0,3.5-0.5,4-0.2c0.5,0.3,2.4,0.3,2.5-1.8
	c0.2-2.1,0-4.9,1-7s1.6-3.7,0.6-5.6c-1-1.9-2.7-4-1.8-6.7c1-2.7,1.6-4.1,2.2-4.5c0.6-0.3,2.2-0.5,2.2-1.3c0-0.8,1.1-1.6,1.1-1.6
	l21.8,8.6c0,0,2.5,6.2,1.4,6.8c-1.1,0.6-2.4,0.5-2.4,1.3s-1-4.8-1.9-5.6c-1-0.8,0.5,3.3,0.3,4.6c-0.2,1.3-1-0.8-1.6-1.4
	c-0.6-0.6-1.1,1.1-0.8,1.6c0.3,0.5-1.9-2.5-3.3-3.8c-1.4-1.3,2.4,3.5,1.6,3.7s-5.1-2.7-5.4-3.7c-0.3-1-0.8,1.1-2.1,0
	c-1.3-1.1,3.3,4.5,2.2,5.6c-0.9,1,2.7-1,5.9-0.2c0.6,0.1,2.5-0.6,3.2,0.3s-1.1,1.8,0.5,1.8s4.2,0,4.1,0.6c-0.1,0.6,1.9,0.3,1-1.1
	c-1-1.4,1.6,0.8,0.3,3.8c-1.4,3,0.1,0.2-1.2,0.2c-1.3,0-1.8,0.5-2.4,1.4c-0.6,1-2.1-0.3-2.7-1.1c-0.6-0.8,0,1.3-0.2,2.1
	c-0.2,0.8-1.3,0.3-2.1,0.8c-0.8,0.5-0.6,0.2-0.2,1.6s-0.8,2.7-2.2,3.7s-2.8,1.8-0.5,4.1c1.4,1.3,0.8,1.4,0.2,2.5
	c-0.6,1,0.2,3.6-1,3.4c-1.1-0.2-4,0.8-3.7,1.6c0.3,0.8,3.2-1.1,3.7,0c0.5,1.1,1,3,0,3.7c-1,0.6-1-1.9-2.7-1.4c-1.8,0.5-1.6-1-3-0.2
	c-1.4,0.8,2.1,0,3.7,1.7c1.6,1.6,1.6,4.2,3.7,4.2s4.5,1,3.5,1.9c-1,1-3.6,0.9-2.8,2c0.8,1.1,3.1,8.2,4.2,8.4c1.1,0.2,1.3,1.9,0.5,3
	c-0.8,1.1-1,1.8-2.9,1.8c-1.9,0-3-1.7-3.5,0s0.6,0.6,1.9,1.2c1.3,0.6,1.1,0.8,0.5,1.1c-0.6,0.3,0.6,1.3,1.6,2.1
	c1,0.8,1.8,2.4-0.3,2.1c-2.1-0.3-3.7-1-4.1,0c-0.5,1.1-2.2,1.7-1.1,2.7c1.1,1,2.9,3,0.8,3.3c-2.1,0.3-3.8,1-4,1.5
	c-0.2,0.5,2.4-0.6,3.2,0.6c0.8,1.1,3,1.3,3.2,2.5c0.2,1.3-2.5,0.2-2.1,1.3c0.5,1.1,1.9,1.6,1.4,2.4c-0.5,0.8-1,1.4-1,1.4
	s-2.9-0.8-2.1,0c0.8,0.8,3.5,2.2,3.5,2.2s1.9,2.1,1.8,3.3c-0.2,1.3-1.1,3,0.5,3.2c1.6,0.2,1.6,1,2.7,1c1.1,0,1.6-0.3,2.1,1
	c0.5,1.3,0,2.4,0.5,3.3c0.5,1,4.6,3.7,5.7,4.5c1.1,0.8,2.1,2.5,1,2.9c-1.1,0.5-0.7,1.7-0.2,5.6c0.2,1.3,0.7,2.9,1.9,2.9
	c1.1,0-0.2-1.3,0-3.2c0.2-1.9,1.3-5.7,1.3-5.7s-1.4-2.5-2.4-3c-1-0.5,0.3-1,0.5-1.9s1.4-4.8-0.6-4.6c-2.1,0.2-3.7,0.3-4.6,1.1
	c-1,0.8-3.3-3.7-3.5-4.3c-0.2-0.6,1.6-2.1,1.6-2.9c0-0.8-1.1-0.2-1.6-1c-0.5-0.8,1.9-2.4,1.9-2.4l-2.7-1.6c0,0-2.5-4-3.8-3.2
	c-1.3,0.8-2.5-0.3-1.4-1c1.1-0.6,0.2-3.7-0.5-4c-0.6-0.3-0.5-4.9-1.1-5.3c-0.6-0.3-1-1.9,1-1.8c1.9,0.2,3.2,0,4.1,1.1
	s1.4,1.6,1.3,2.9s0.3,2.2,1.3,2.4c1,0.2,2.1,1.3,2.1,2.5c0,1.3,0.1,4.8,2,4.6c1.9-0.2,4.3-0.8,3.5-2.4c-0.8-1.6-1.4-2.7-2.5-2.7
	c-1.1,0-1.8-0.8-1.8-1.6c0-0.8-1.4-2.5-2.2-3.3c-0.8-0.8-1.6-1.4-2.1-2.5c-0.5-1.1-0.6-1.8-1.1-1.6c-0.5,0.2,0.8-2.2,0-2.9
	c-0.8-0.6-3.8-2.4-2.1-2.7c1.8-0.3,2.5-2,3.3-1.4c0.8,0.6,0.8-4.2,1.4-3.2c0.6,1,2.1,3.1,2.5,3.2c0.5,0.1-1.9-3.2-1.8-3.9
	c0.2-0.6-1-1.9-1.6-1.9c-0.6,0-0.8-4.5-0.2-4.5s-3-1.9-2.2-2.9c0.8-1,1.2-2.7,2.2-1.4c1,1.3,1.5,0.8,1.5,1.4c0,0.6,0.6-2.5-1.4-3.5
	c-2.1-1-6.2-2.1-6.2-3.5s0.5-3.5,1.4-3.3c1,0.2-1.8-3.3,0.6-2.9c2.4,0.5,4.1,1.9,4.5,1.3c0.3-0.6-3.7-2.5-4.8-2.4
	c-1.1,0.2-3.8,2.3-2.2-0.2s2.4-2.5,2.9-2.5c0.5,0-0.2-2-0.8-2.8c-0.6-0.8-2.4-1.9-1.6-2.7c0.6-0.6,1.2-1.6,2.1-1.8
	c0.8-0.2,1.2-1.1,0.9-1.9c-0.4-1.2-0.4-1.7,1-1.5c1.4,0.2,2.2-2.2,3.7-1.6c1.4,0.6,2.9,1,3.2,2.4c0.3,1.4,0.6,3,1,4.3
	c0.3,1.3,0.5,2.5-0.5,3.3c-1,0.8-1.6,4.3-0.2,2.3c0,0,1.4-3.1,1.6-2.5c0.1,0.5,0.1,1.7,0.9,2.1c0.1-1,0.2-3.1-0.1-3.8
	c-0.5-1-1.8-5.4-1.8-7c0-1.6,0.6-4.8,0.6-4.8s0.3,1.2,0.3,4.2c0,2.9,5.1,24.2,5.7,26.3c-0.5-1.2-4-8.4-4-10c0,0-0.9,6.7,3.1,11.5
	c0.8,1,0.7,6.2,1,7c0.3,0.8,3,5.7,3,7c0,1.4,0.8,5.4,1.6,6.3c0,0,0.2-3.2-0.6-5.3c-0.8-2.1-1.3-3.3-1.3-3.3s-2.1-5.6-2-6.8
	c0.2-1.3,0-4,0-4s1.2,5.5,1.5,6.9c0.2,1,7.5,22.2,8.4,27.8c0.3,0.9,2.2,1.1,2.2,1.1s5.8,14.4,6.1,15c0.4,0.6,4.5,10,4.9,11.4
	c0.4,1.4,3,5.6,3.5,6.1s3.2,4.2,3.6,5.2c0.4,1,1.6,3,3.2,3.4c0,0,2.7,2.2,2.9,2.5c0.2,0.3,1.4,2.1,1.8,2.6s0.4,2.4,0.6,3.2
	c0.2,0.9,1.6,3.2,0.6,3.8s-2.2-0.4-2.8,3.3c-0.8,5.2-0.6,9.3,0.3,13.9c1,4.6,9.3,22.7,9.8,23.6l2.1,7c0,0,1.9,5.3,2.1,6
	c0.2,0.7,1.6,4.8,1.9,5.7s0.7,1.8,0.7,1.8s-3.7-9.2-3.7-9.5c0-0.2-4.4-12.5-4.4-12.5l-0.6-1.6l-2.5-5.4c0,0-1.8-3.7-2-4.5
	s-1.1-2.2-1.1-2.2s-4-9.3-4-10.4c0.1-1.1,0-7.2,0-7.2l1.4-9.9l0.9-3.5c0,0-1.2-2.3-1.8-2.7c-0.6-0.4-0.4,0.5-0.5,1.2
	c-0.2,0.7-2.1,6.8-2.1,7.3s-0.4,6.3-0.2,7.3c0.2,1-0.2-4.2-1.5-6.1c-0.2-0.3,0.4,5.7,1.1,6.9c0.5,0.9-0.3,1,0.1,1.7
	c0.4,0.7-2.8-5.4-2.8-7.3s0.6-4,0.2-4.7c-0.4-0.7-0.9-1.1-0.3-2.2c0.6-1.1,0-2.7,1.1-3.4c1.1-0.7,1.8-1.5,2.4-1.3
	c0.6,0.2,1.1-0.8,1.3-1.2c0.2-0.4-3.7,1.1-4.2,0.7c-0.6-0.4,0.3-1-0.7-0.8s-1.6,0.2-2,0c-0.4-0.3-1.4-2.6-1-3.4
	c0.4-0.8,0.1-1.4,1-1.6c1-0.2,1.7,0.6,1.5-0.5c-0.2-1-1.4-2.9-2.6-3.8c-1.3-0.9-3.4-2.5-3.4-2.5l1,7.1c0,0,2,6.4,2,7.6
	c0,1.3,0.9,3.8,1.3,4.2c0.4,0.4,0.8,3.5,0.9,4.6c0.1,1.1,1.1,3.3,1.5,3.9c0.4,0.6,3.9,8,4.1,8.8c0.2,0.7,3.9,12.1,6.2,16.5
	c2.3,4.4,5.1,10.7,5.1,10.7s4,13,4.5,14.9c0.5,1.8,1.9,5.4,2.4,6c0.5,0.6,2.5,5.7,3.1,6.4c0.6,0.6,0.9,2.9,0.8,3.3
	c-0.1,0.3,5.5,10.6,5.5,10.6s2.5,6.6,2.5,7.2c0,2.1,2.1,9.5,1.4,20.8c-0.8,11.3-1.6,14.7-1.6,15.4c0,0.6-0.8,9-1.3,10
	c-1,2-1.7,5.3-1.4,8.2c0.1,1.1,0.7,6.9,0.9,8c0.2,1.1-1.7,4-2.5,10.7c-0.2,1.6-0.4-0.7-0.9-0.4c-0.5,0.3,0.2-0.6,0.6-2.5
	c0.5-1.9,0.3-4.5,1.4-5.6c1.1-1.1,0.2-5.3,0-5.7s-2.2,4.5-2.2,5.4c0,1,0.5,4.1-0.3,4.6c-0.8,0.5-4.3,3.2-4.8,4.4
	c-0.5,1.2-1.6,2.8-2.1,4.2c-0.5,1.4-1.1,4-1.1,4.8s-0.5,5-0.8,5.7c-0.3,0.6-2.1,3.7-2.9,4.2s-3-2.7-2.8-0.6c0.7,6.5-5.1-0.2-6-1
	c-1-0.8-2.3,0.1-3.6,0.9c-1.3,0.8-1.3,0.3-2.1,0.3c-0.8,0-1.9-2.5-3.1-1.1c-1.4,1.6-4.3,0.1-2.9-0.9c1.8-1.3,1.9-2.5,1.7-2.6
	c-0.5-0.1-0.3-1-0.3-2.2s-0.8-2.2-2.1-3c-1.3-0.8-2.6-1.4-3.9-1.5c-1.3-0.2-1.6-2.8-0.2-3.3c1.4-0.5,2.5-0.7,1.1-1.8
	c-1.4-1.1-1.2-1.3-2.9-2.4c-1.4-0.9-2-0.9-3.7-0.7c-1.8,0.2-3.3-1.8-3.4-2.9c-0.2-1.1-2.9-2.1-3.1-3.2c-0.2-1.1-4.3-5.7-6.8-6.4
	c-2.5-0.6-5.6-1.4-5.7-2.1c-0.2-0.6-2.7-2.2-3-1.3c-0.3,1-0.6,1.8-1.7,0.6c-1.1-1.3-0.9-1-2.8-1.5c-1.9-0.5-3.5-2-4.5-1.5
	c-1,0.5,0.5,1.2-0.8,1c-1.3-0.2-1-1.3-2.2-1.3c-1.3,0-0.1,0.2-1.5-0.2s-1.8,0.8-1.8,0c0-0.8,0.3-0.8,0-1.6c-0.3-0.8,1.1-1.6-1-1.6
	c-2.1,0-5.1-6.2-4.8-7.8c0.3-1.6-0.6-4-0.3-5.3c0.3-1.3-0.5-9.1-1-9.9c-0.5-0.8-0.6-0.8-3-0.8c-2.4,0-2.2,0.5-3.3-0.3
	c-1.1-0.8-1.6-2.4-0.6-2.9c1-0.5,1.3-0.6,1.9-1.3c0.6-0.6,0.8-1.9,1.4-1.9c0.6,0,1.8-2.4,1.8-3.2c0-0.8,3.2-3.7,4.1-3.7
	c1,0-0.5-1.8-1.3-1.1c-0.8,0.6-4.6,3.7-4.6,4.5s-1.1,1.3-1,2.9c0.2,1.5-2.7,3.3-4.5,2.9c-1.8-0.5-2.4-1-1.6-2.4
	c0.8-1.4-0.2-3.5-0.6-5.1c-0.5-1.6,0-6.7,0.8-8.3c0.8-1.6,0.1-2.2,0.9-3.3c0.8-1.1-0.3-1.4-1.7-1.9c-1.4-0.5-2.4-1.8-0.8-2.2
	c1.6-0.5,2.8-0.5,3.6-0.6c0.8-0.2,3.3-1,3.1-2.2c-0.2-1.3-2.2-5.9-1.4-6.5c0.8-0.6-1.8-0.8-1.6,0.2c0.2,1,0.2,4.9,0.2,4.9
	s-0.8,1-1.8,1.6c-1,0.6-0.8,1.9-2.1,1.4c-1.3-0.5-1.9-1.4-2.4-0.3c-0.5,1.1-1.1,1.3-1,1.8c0.2,0.5-1-0.6-1.8-2.2
	c-0.8-1.6-1.3,0-1,0.5c0.3,0.5-1.6-0.2-2.1-1.4c-0.4-1.2-4.4-4.6-5.3-6c0.8,1.4,4.3,6.6,4.8,7.1c0.6,0.6,1.8,1.6,2,2.7
	c0.2,1.1,1.2,4.5,0.4,4.9c-0.8,0.5-1.7,1.3-3.2,0.6c-1.4-0.6-3.2-1.8-3.7-3.7s-2.7-5.6-3.7-6.5c-1-1-4-5.6-4.8-9.9
	c-0.8-4.3-1.6-3.8-2.5-4.6c-1-0.8-2.6-3.3-1.9-2.9c2.1,1.5,1.7-3.3,0.3-5.3c-1.4-1.9-4.3-2.4-5.3-4c-1-1.6-2.2-2.5-1.2-2.2
	c1,0.3,1.9,1.3,2.1,0.6c0.2-0.6-2.5-1.6-1.4-2.2c1.1-0.6,2-0.6,3,0.6c1,1.1,0.6-1.1,1.9-1.9c1.3-0.8,1-4.1,2.5-6.4
	c1.4-2.2,1.9-3.3,3.8-4.5c1.9-1.3,2.9-2.2,3-3.8c0.2-1.6,2.1-3.3,0.5-5.4c-1.6-2.1-1.6-3.3-2.2-2.5c-0.6,0.8-1.1-1.9-1.8-0.3
	c-0.6,1.6-1.6,3.2-0.2,4.3c1.4,1.1,0.6,1.1-0.8,1.3c-1.2,0.1-2,0.3-2.3,0.6c0.2-0.7,0.5-2.7,0.2-4.1c-0.3-1.9,1.8-0.9-1-3.2
	c-2.8-2.3-7-7.2-7.4-5.1c-0.2,0.8,1,2.1,1,2.1s-2.7,2.5-2.4,3c0.3,0.5-0.5,1.7,0.6,1.8s2.6,1.4,3.1,2.5c0.5,1.1,2,2.4,1.2,3.5
	c-0.8,1.1-0.6,3.6-0.3,4.7c0.3,1.1-0.3,1.7-2.3,1c-2.1-0.6-2.6-0.9-2.6-0.9s-0.1,2.1-0.1,2.7c0,0.6-1-2.9-2.1-4.5
	c-1.1-1.6-1.5-2.1-2.1-2.7c-0.6-0.6-2.9-4.5-1.8-6c1.1-1.6,4-9.2,3.5-11s-1.3-4-1-5.1c0.3-1.1,1.6-1.8,2.6-2.7c1-1,1.4-5.6,1.5-7
	c0.2-1.4,0.5-1.9,1.3-2.5c0.8-0.6,1.6-4.9,2.4-6.4c0.8-1.4,1.5-0.6,1.4-2.7c-0.2-2.1-2.8-4.1,1-4.9c1.6-0.4-0.4-1.4,0.1-2.5
	c0.5-1.1,1.9-1.7,0.8-3.8c-1.1-2.1,0.4-1.9,0.1-3.2c-0.3-1.3-0.8-1.1-0.8-2.5c0-1.4,1-1.5-0.3-2.5c-1.3-1,0.5-0.6-0.3-2
	c-0.8-1.4-1.6-1.8-2.4-2.1c-0.8-0.3-1.2-1.4-2-3.1c-0.8-1.8-1.8-0.4-2.1-2.1c-0.3-1.8,0.8-1.1,0-2.9c-0.8-1.8,0.2-1.8-0.9-2.3
	c-1.1-0.5-1.3-1.6-0.6-2.7c0.6-1.1,0.3-0.6,1.1-1.5s1-1.8-0.3-1.8c-1.3,0,0.3-2.4-0.8-2.1c-1.1,0.3-1.5,0.2-2.5,1.1
	c-1,1-1.2,2.4-2.2,1.8c-1.6-1-2.4-0.8-4.4-0.6c-1.9,0.2-2.9-0.3-3.4,0.8c-0.5,1.1-2.7,0.8-2-0.5c0.6-1.3,0.2-1.8,1.2-3.7
	c1-2-1.1-1.2-0.7-4.1c0.1-0.7-0.6-0.9-0.6-1.6c-0.1-2,0.5-2.4,1.3-3.4c0.8-1.1,0.3-2.2,0.8-3c0.5-0.8,0.8,0.5,1-1.8
	c0.2-2.2,0.5-2.2,1.3-3.2c0.8-1-2.2,0.5-2.2,1.9c0,1.4-1.8,3.5-1.3,4.8c0.5,1.3-0.5,1.4-1.6,1.9c-1.1,0.5-1.3,2.4-1.6,3
	c-0.3,0.6-2.4,0.7-2.5-1.4c-0.1-1,0.9-2.9,0-4.1s-1.9-0.6-2.7,0.1c-0.8,0.6-1.5-2.6-3-2.5c-1.4,0.2-0.7,1.7-1.5,2
	c-0.8,0.3-1.3,0-1.4-1c-0.2-1,0.6-1-0.6-1.8c-1.3-0.8-1.7-0.9-2.6-1.8c-1-1-1.6-2-1.5-3.4c0.1-2.3-0.8-4.3,0-5.3
	c0.8-1-1.8-1.4-2.4-1.1c-0.6,0.3-1.9-0.9-2.4-1.4c-0.5-0.5-0.2-0.7-1-1c-0.8-0.3-2.1-0.8-2.5-2.4c-0.3-1.6-2.1-1.3-1.6-2.5
	c0.5-1.3,0.3-1.8-0.6-1.9c-1-0.2-1.4-0.2-1.4-1.4c0-1.3,0.5-1.6-0.8-2.2c-1.3-0.6-0.5-0.2-1.4-1.3c-0.9-1.1-0.4-1-1.7-1.4
	c-1.3-0.5-1.1-2.2-2.2-2.4c-1.1-0.2-0.9-1.9-2-2.5c-1.1-0.6-1.5-1-2.3-0.9s-1.4-0.9-2.5-0.7c-1.1,0.2-1.8,0-1.8-0.8
	c0-0.8-0.6-1.3-1.6-1.3c-1,0-1-0.7-1-1.8c0-1.1-1.6-0.6-1.1-1.5c0.5-1-0.3-0.5-1.4,0c-1.1,0.5-1.1,0.6-2.7,1.1
	c-1.6,0.5-2.3,0.6-3.3,0.2c-1-0.5-0.9-1.7-2.3-1.2c-1.4,0.5-2.6-0.3-3.1-1c-0.5-0.6-0.5,1.9-2.6,2.1c-0.7,0.1-1.1-0.2-1,0.8
	c0.2,1,0,1.1-0.2,1.9c-0.2,0.8,0.2,0.3-0.9-0.3c-1.1-0.6-1.8-1.1-2.1,0c-0.3,1.1,0.3-0.8-0.3,1.1c-0.6,1.9-2.5,0.3-1.9,1.8
	c0.6,1.4-1,1.6,0.3,2.2c1.3,0.6-0.6,0.6-1.8,0.6c-1.1,0-1.1,0.6-1.3-0.8s-1.1-0.2-1.1-1.6c0-1.4-1.1-0.8-1,0c0.2,0.8-0.5,0.8-1,0
	c-0.5-0.8,0.5,0.8,0.5,0.8s0.2,0.3-1.1,0.5c-1.3,0.2-1.3,0.2-2.1-1.3c-0.8-1.4-1.3-1-2.1-1.9c-0.8-1-3.2-1.5-4-2.3
	c-0.8-0.8,2.4,2.8,2.4,2.8s0.9,1.4,1.5,1.7c0.6,0.3,2.6,1.8,2.6,1.8s-1.9-0.3-1.9,0.3c0,0.6,0,1.8-0.2,2.2c-1.6,3.6-2.9,0.2-3,0.6
	c-0.2,1.5-2.5,2.8-2.1,3c0.4,0.3,1.3-1.2,2.3-1.7c0.8-0.3,1.8,0.4,1.8,0.4S161,64,161,63c0-1-0.6-1.1,0.6-1c1.3,0.2,2.9,0.6,3,0
	c0.2-0.6,0.6-1.4,1.1-0.3c0.5,1.1,1.4,1.1,2.4,1.1c1,0,1.2,0.2,2,1.1c0.8,1,2.3,0.2,2.3,1c0,0.8,0,1.9,0,1.9s-0.6,0-1.9-0.5
	c-1.3-0.5-0.8-1-2.7-0.6c-1.9,0.3-1.8-0.2-3.8,0.2c-2.1,0.3-7.5,3.2-7.8,3.7s-4.8,2.9-5.4,3.8c-0.6,1-1,0.6-2.1,1
	c-1.1,0.3-4.9,1.4-4.9,2.4c0,1-1.4,0.5-1.3-0.5c0.2-1,0.3-1.1,1-1.8c0.6-0.6,1.4-1.4,1.4-1.4s-0.5-0.3-1-0.8c-0.5-0.5-1.4,0.3-1.8,1
	c-0.3,0.6-1.6-0.2-1.9-1c-0.3-0.8-0.5-0.8-1.8-1c-1.3-0.2-0.6-0.2-1-1.4c-0.3-1.3,0.7-0.2-0.1-1.5c-0.8-1.3-0.6-0.8-0.4-2.1
	c0.2-1.3-0.1-2.5-0.7-3.1c-3.5-4-3.6,0-2.3,3.4c0.5,1.3,1,1.8,0.5,2.2c-0.5,0.5,0,1.2-0.5,1.2c-0.5,0-0.2-1.1-1-1
	c-0.8,0.2-1.1-0.6-1.6-0.6c-0.5,0-0.3-2.2-0.8-0.8c-0.5,1.4,0,0.9-1,1.7s-1.7,0.1-2.2,0.7c-0.5,0.6-2.2-1.4-1.8-0.5
	c0.5,1-0.6,2,0.8,2.3c1.4,0.3,0.5,1.5,1,1.7c0.5,0.2-1,2.8,1,2.3c1.9-0.5,1,0.3,2,0.3c1,0,2.6-0.6,1.9-1.5c-0.6-1,3.2,1.8,4,1.5
	c0.8-0.3,4.7,3.1-2,1.6c-1-0.2-11.3,1.8-12.2,2.1c-1,0.3-2.4,1-2.4,1s-3.5-0.2-3.8-12.1c0,0,0.6-0.5,1.1-0.8c0.5-0.3,1-2.9-0.2-3.7
	c-1.1-0.8-1.9-1.6-3.3-1.6s-0.7,0.4-2.5-1.8c-1.8-2.2-3-2.1-3.5-3.2c-0.5-1.1-4.7-1.9-10.2-5.6c-5.4-3.7-9.7-7.2-12.8-8.2
	c-3-1-13.2-5.6-24-6c-10.8-0.3-15.9-2.1-28.3,1.4c-12.4,3.5-16,2-16,2C11.7,41.6,7.7,44.7,10.1,41z M360.5,364.4
	c-0.1,0.3,0.8,0.4,1.2,0c0.4-0.4,0-0.9,0-0.9C361.1,363.9,360.6,364.1,360.5,364.4z M266.9,190.9c-0.1,0.1-0.1,0.1-0.1,0.2
	C266.8,191.2,266.8,191.1,266.9,190.9z M389.8,329.9c-1,0.9-1,0.5-1.2,1.3c-0.2,0.9-1,0.6-1.3,1.2c-0.3,0.6-0.3,1.4-0.5,1.8
	c-0.2,0.4,0,0.7-0.6,1.1c-0.6,0.4-0.6,0.7-0.6,1.1s-0.4-0.6-1,0.5c-0.6,1.1-1,1.4-0.9,1.9c0.2,0.5,0.7,0.4,0,0.8
	c-0.7,0.5-0.8,0.7-0.8,1.1c-0.1,0.4-0.9,0.5-1,1c-0.1,0.5-0.3,0.7-0.6,1.5c-0.2,0.8-0.8,1.3-1.2,1.3c-0.4,0,0.3,0.4,0,0.7
	s-1.8,1.8-1.8,1.8l-5.3,6.6c0,0-2.5,2.7-2.6,3.2c-0.2,0.5,0.2,1-0.7,1.1s-4.1,3.1-4.1,3.1l3-2.4c0,0,1.8,0.1,2-0.3
	c0.2-0.4,2.5-3.5,2.5-3.5l5.6-6.7c0,0,2.9-3.1,2.9-3.6c0-0.5,1.4-3.3,1.4-3.3s2.2-2,1.9-2.5c-0.3-0.4,0.2-1.4,0.2-1.4
	s1.8-2.2,1.8-2.1c0,0.1,0.6-1.4,0.7-1.9c0.1-0.5,0.9-1.7,1.3-1.6c0.4,0,0.6-1.3,0.6-1.3S390.7,329,389.8,329.9z M363.7,361
	c-0.2,0.1-1.4,1-0.6,0.8C363.8,361.6,363.9,360.9,363.7,361z M340.6,317.8c0.2,0.7,0.9,0.2,1.2,0s-0.1-1-0.8-1.1
	C341.1,316.8,340.5,317.1,340.6,317.8z M341.6,342.7c0.2,0.7,3.7,2.1,4.1,1.9c0.4-0.2-3-2.9-3.6-3
	C342.1,341.6,341.4,341.9,341.6,342.7z M344.5,319.7v1.2c0,0,1,0.2,0.9,0c0-0.2-0.1-0.9-0.1-1.2H344.5z M349.3,331.2v1.2
	c0,0,1,0.2,0.9,0c0-0.2-0.1-0.9-0.1-1.2H349.3z M351.2,329.3v1.2c0,0,1,0.2,0.9,0c0-0.2-0.1-0.9-0.1-1.2H351.2z M349.3,329.3v1.2
	c0,0,1,0.2,0.9,0c0-0.2-0.1-0.9-0.1-1.2H349.3z M356.5,125.8c0.2,0.7,1.3,2.9,1.8,3.1s0.3-0.2,0-0.7
	C357.9,127.7,356.5,125.8,356.5,125.8z M363.2,136.7c-0.1,0.5,0.2,1.6,0.4,1S363.2,136.7,363.2,136.7z M365.5,140.6
	c-0.4,0.4,0.7,0.7,0.7,0.7S365.9,140.2,365.5,140.6z M360.8,133.3c-0.2,0.5,0.2,0.8,0.4,0.5C361.4,133.5,360.8,133.3,360.8,133.3z
	 M351.3,117c0.4,0.8,3.9,6.8,3.9,6.8s-0.2-1.4-0.5-1.8c-0.3-0.5-3.2-5.6-4.1-6.4L351.3,117z M265.1,220.8c-0.6-0.9-4.3-4.6-4.6-5.3
	c-0.3-0.6-1.1-1.2-1.4-1.4c-0.3-0.2,0.1,0.8,0.6,1.2s1.7,3,2.4,3.3s1.9,2.8,2.3,2.7C264.7,221.3,265.1,220.8,265.1,220.8z"/>
</svg>
