<?xml version="1.0" encoding="utf-8"?>
<!-- Generator: Adobe Illustrator 18.0.0, SVG Export Plug-In . SVG Version: 6.00 Build 0)  -->
<!DOCTYPE svg PUBLIC "-//W3C//DTD SVG 1.1//EN" "http://www.w3.org/Graphics/SVG/1.1/DTD/svg11.dtd">
<svg version="1.1" id="state" xmlns="http://www.w3.org/2000/svg" xmlns:xlink="http://www.w3.org/1999/xlink" x="0px" y="0px"
	 viewBox="0 0 20 20" enable-background="new 0 0 20 20" xml:space="preserve">
<path fill="#FFFFFF" d="M17.8,17.8C17.7,17.9,17.7,17.8,17.8,17.8C17.7,17.8,17.8,17.8,17.8,17.8z M18.2,17.3
	C18.2,17.4,18.1,17.3,18.2,17.3C18.2,17.3,18.2,17.3,18.2,17.3z M18.1,17.3C18.1,17.4,18,17.4,18.1,17.3
	C18.1,17.3,18.1,17.3,18.1,17.3z M16,19.3c0,0-0.1,0-0.1,0.1c0,0,0,0.1,0.1,0C16,19.4,16,19.4,16,19.3C16.1,19.4,16,19.3,16,19.3z
	 M16.8,19.2C16.7,19.2,16.8,19.3,16.8,19.2C16.8,19.2,16.8,19.2,16.8,19.2z M16.6,19.2c0,0-0.2-0.2-0.2-0.1c0,0,0.1,0.1,0.1,0.1
	c0,0-0.1,0-0.1,0c0-0.1-0.1-0.1-0.1-0.1s0.1,0.1,0.1,0.1c0,0-0.1,0.1-0.1,0c0,0-0.1-0.1-0.1-0.1c0,0,0,0,0,0.1c0,0,0.1,0,0.1,0
	s0.1,0,0.2,0s0-0.1,0.1-0.1C16.5,19.3,16.5,19.2,16.6,19.2c0,0.1,0,0.1,0,0.1C16.6,19.3,16.6,19.3,16.6,19.2z M17.8,17.7
	C17.8,17.7,17.8,17.7,17.8,17.7c0.1-0.1-0.1-0.1-0.1-0.1C17.7,17.7,17.7,17.7,17.8,17.7C17.8,17.7,17.8,17.8,17.8,17.7z M17.7,17.3
	C17.7,17.3,17.8,17.4,17.7,17.3C17.8,17.3,17.7,17.2,17.7,17.3z M17.5,19C17.5,19,17.5,19.1,17.5,19c-0.1,0-0.2,0.1-0.2,0.1
	c0,0,0,0-0.1,0c0,0,0,0,0,0.1s0,0.1,0.1,0s0,0,0-0.1c0,0,0-0.1,0.1-0.1c0,0,0,0,0,0C17.4,19.1,17.5,19.1,17.5,19
	C17.6,19,17.5,19,17.5,19c0.1,0,0.1,0,0.1,0c0,0,0.1,0,0.1,0c0,0,0,0,0,0C17.7,18.9,17.5,19,17.5,19z M15.5,15.5
	C15.5,15.5,15.5,15.5,15.5,15.5C15.5,15.5,15.5,15.5,15.5,15.5c0,0.1,0,0.1,0,0.1C15.6,15.6,15.6,15.6,15.5,15.5
	c0.1,0,0.1,0,0.1,0.1c0,0,0,0,0,0C15.7,15.5,15.6,15.5,15.5,15.5z M8,4c0,0-0.1,0.1-0.1,0.1C7.9,4.1,8,4.1,8,4C8,4,8,4,8,4
	C8,4,8,4,8,4z M6.5,4.4C6.5,4.4,6.5,4.4,6.5,4.4c-0.2,0-0.3,0-0.3,0c0.1,0,0.2,0.1,0.3,0.1c0.1,0,0.1,0,0.1,0
	C6.7,4.5,6.6,4.4,6.5,4.4z M8,4C8,4,8,4,8,4C8,4,8,3.9,8,4z M7.7,4.1c0,0-0.2,0.2-0.2,0.2S7.4,4.4,7.3,4.4C7.2,4.5,7,4.6,7,4.7
	c0,0-0.1,0-0.1,0c0,0-0.1-0.1-0.1-0.1c0,0,0.1,0.1,0.1,0.1s0.1,0,0.2,0c0.1,0,0.2-0.2,0.3-0.2c0.1,0,0.2-0.1,0.2-0.1
	C7.5,4.4,7.7,4.2,7.7,4.1C7.7,4.2,7.8,4.1,7.7,4.1z M14.2,13.3c0,0,0-0.2,0-0.2C14.1,13.2,14.1,13.3,14.2,13.3c0,0,0,0.2,0,0.2
	C14.2,13.5,14.2,13.3,14.2,13.3z M15.3,19.6C15.4,19.6,15.3,19.6,15.3,19.6C15.5,19.6,15.3,19.5,15.3,19.6z M14.5,13.5
	C14.5,13.5,14.5,13.5,14.5,13.5c0-0.1,0-0.2,0-0.2c0,0-0.1-0.1-0.1-0.1c0,0-0.1,0-0.1,0C14.4,13.4,14.4,13.4,14.5,13.5
	C14.5,13.5,14.5,13.5,14.5,13.5c0,0.2,0,0.2,0,0.2c0,0,0,0.1,0.1,0.1c0,0,0.1,0,0.1,0c0,0,0,0,0-0.1c0-0.1,0-0.1,0-0.1
	S14.6,13.6,14.5,13.5c0.1,0,0.2,0,0.1,0C14.6,13.5,14.6,13.5,14.5,13.5c0.1,0,0.1,0.1,0,0.2C14.5,13.7,14.5,13.6,14.5,13.5z
	 M14.6,14.1c0,0-0.1,0-0.1,0s-0.1,0-0.1-0.1c0-0.1-0.1,0-0.1-0.1c0,0,0-0.2,0-0.2c0,0.1,0,0.1,0,0.2c0,0,0,0.1,0.1,0.1
	C14.5,14.1,14.5,14.1,14.6,14.1C14.6,14.1,14.7,14.2,14.6,14.1c0.1,0,0.1,0,0.1,0C14.8,14,14.7,14.1,14.6,14.1z M16.6,3.6
	C16.6,3.6,16.6,3.6,16.6,3.6C16.6,3.6,16.6,3.6,16.6,3.6z M4.3,2.2c0,0-0.1-0.1-0.2-0.1c-0.1,0-0.1,0-0.2,0c-0.1,0-0.2,0-0.2-0.1
	C3.9,2,3.9,2,3.9,2c0,0-0.1,0.1-0.2,0.1c0,0,0-0.2,0-0.2C3.8,1.8,3.7,2,3.7,2c0,0,0,0,0,0c0,0,0-0.1,0-0.1c0,0,0,0.1,0,0.1
	c0,0,0,0-0.1,0C3.4,2,3.4,2,3.3,2c0,0,0,0.1-0.1,0C3.2,2,3,2,3.1,2c0.1,0,0.1-0.1,0.1-0.1c0,0,0,0-0.1,0C3.1,1.9,3.1,2,3,2
	c0,0,0,0,0,0c0,0,0-0.1,0-0.1s0,0,0,0.1c0,0,0,0,0,0c0,0,0,0.1,0,0.1c-0.1,0,0,0.1-0.1,0c-0.1,0-0.1,0-0.1,0c0-0.1,0-0.1,0-0.1
	S2.6,2.1,2.7,2.1c0,0,0,0.1,0,0.1c0,0-0.6,0-0.7,0c-0.1,0-0.4,0-0.6,0.1c-0.2,0.1-0.3,0-0.2,0c0,0,0.1,0,0.1,0
	c0.1,0,0.1-0.1,0.2-0.1c0.1,0,0.1,0,0.2,0c0,0,0.1-0.1,0.1-0.1c0.1,0,0.2,0,0.2,0c0.1,0,0.1,0,0.1,0c0,0-0.3-0.1-0.3-0.1
	c0,0-0.1-0.1-0.1-0.1c0,0-0.1,0,0-0.1c0.1-0.1,0.1-0.1,0.1-0.1c0,0,0.1,0,0.1,0c0,0,0-0.1,0-0.1c0,0-0.1,0-0.1,0s-0.1,0-0.1,0
	c0,0,0-0.1,0-0.1c0,0-0.1,0-0.1-0.1c0-0.1,0-0.1,0-0.1c0.1,0,0.1-0.1,0.1-0.1c0,0,0,0.1-0.1,0.1c-0.1,0-0.1,0.1,0,0.2
	c0.1,0,0,0.1,0,0.1c0,0-0.1,0-0.1,0c0,0,0,0.1,0,0.1S1.5,2,1.4,2c0,0,0,0.1-0.1,0c0,0,0-0.1,0-0.1c0,0,0-0.1,0-0.1s0,0-0.1-0.1
	c0-0.1,0-0.1-0.1-0.1c-0.1,0,0,0-0.1-0.1c-0.1,0,0,0-0.1-0.1c0-0.1-0.1-0.2-0.1-0.2c0,0.1,0.1,0.3,0.2,0.4c0.1,0,0.2,0.2,0.1,0.2
	c0,0.1,0,0.1,0,0.2c-0.1,0-0.1,0-0.1,0.1S1,2.2,1,2.2s-0.1,0-0.2,0.1c0,0,0.1,0,0.2,0c0,0,0,0.1-0.1,0.1c0,0-0.2,0-0.2,0.1
	c0,0,0,0,0,0s0.2,0,0.3,0c0.1,0,0.4,0,0.5-0.1c0.1,0,0.8-0.1,0.9-0.2c0.2,0,0.3,0,0.3,0c0,0,0.4,0,0.4,0s0.2,0,0.2,0
	c0,0,0.2,0.1,0.2,0c0,0,0-0.2,0-0.1c0.1,0.1,0.2,0.1,0.2,0.1c0,0-0.1-0.1,0-0.1c0.1,0,0.1,0.1,0.2,0.1c0,0,0.1,0.1,0.1,0
	c0,0,0.1,0,0.1,0c0,0,0,0,0,0c0,0,0,0,0,0c0.1,0,0.1,0,0.2,0C4.2,2.3,4.3,2.3,4.3,2.2C4.3,2.2,4.3,2.3,4.3,2.2z M5.9,3.3
	c0-0.1-0.1,0-0.1,0C5.7,3.2,5.8,3.2,5.9,3.3c0-0.1-0.1-0.2-0.1-0.2s0,0-0.1,0.1c-0.1,0,0,0.1-0.1,0.2c0,0,0,0-0.1,0s0-0.1,0-0.1
	c0-0.1,0,0-0.1,0c0,0,0.1-0.1,0.1-0.1s0,0-0.1,0.1c0,0,0,0-0.1,0c0,0,0,0-0.1,0c0,0-0.1,0-0.1-0.1c0,0,0,0-0.1,0c0,0,0,0-0.1,0
	c0,0-0.1,0-0.1,0c0,0,0,0,0-0.1c0,0-0.1-0.1-0.1-0.1s0,0,0.1-0.1s0.1-0.1,0.1-0.1c0-0.1,0,0,0.1,0c0,0,0.1,0,0.1,0c0,0,0.1,0,0.1,0
	c0,0,0-0.1,0-0.1c0,0,0.1,0,0.1,0c0,0-0.1-0.1-0.1-0.1c0,0,0,0,0.1-0.1c0,0,0,0,0,0s0,0,0,0c0,0,0,0,0,0c-0.1,0-0.1,0.1-0.1,0.1
	c0,0.1,0,0-0.1,0c0,0,0-0.1-0.1,0c0,0,0,0,0,0.1c0,0.1-0.1,0-0.1,0c0,0,0,0.1,0,0c0,0,0-0.1-0.1-0.2C4.9,2.5,4.9,2.4,4.9,2.5
	c0,0,0,0.1,0,0.1c0,0-0.1-0.1-0.1-0.1c0,0,0,0.1-0.1,0.1c0,0-0.1,0-0.1,0.1c0,0.1,0.1,0.1,0.1,0.2c0,0,0,0,0-0.1s0,0,0.1,0
	c0,0,0,0,0,0.1c0,0,0.1,0,0.1,0c0,0.1,0,0.1,0.1,0.1C5,3,5,3,5,3c0,0-0.2-0.1-0.2-0.1S4.9,3,4.9,3c0,0,0.2,0.1,0.2,0.1
	c0,0,0-0.1,0-0.1s0,0,0.1,0c0,0,0.1,0,0.1,0c0,0,0,0,0.1,0c0,0,0.1,0.1,0.1,0.1c0,0,0,0,0.1,0c0,0,0.1,0.1,0.1,0.1c0,0,0.1,0,0.1,0
	c0,0,0.1,0,0.1,0C5.8,3.4,5.8,3.4,5.9,3.3c-0.1,0,0,0.2,0,0.2S5.9,3.3,5.9,3.3z M6.1,4C6.1,4,6.1,4,6.1,4C6,3.9,5.9,3.7,5.9,3.7
	c0,0.1-0.1,0.1-0.1,0.2c0,0.1,0,0.5,0.1,0.5c0,0,0.1,0,0.1,0s0-0.3,0-0.3C6.1,4.1,6.1,4,6.1,4z M16.6,7C16.7,7,16.7,7,16.6,7
	c0.1,0.1,0.2,0.1,0.2,0.1c0,0,0.1,0,0-0.1c0,0,0-0.1-0.1-0.1c0,0,0,0,0,0C16.7,6.9,16.7,6.8,16.6,7C16.6,6.9,16.6,7,16.6,7z M16.9,7
	c0,0,0,0.2,0,0.3c0,0,0,0-0.1,0c0,0-0.1,0-0.1,0c-0.1,0,0,0,0,0c0,0,0,0,0.1,0c0.1,0,0.1,0,0.1,0c0,0,0-0.1,0.1-0.1
	C17,7.2,17,7,16.9,7z M17.4,7.2C17.4,7.2,17.4,7.1,17.4,7.2C17.3,7.1,17.3,7.1,17.4,7.2c-0.1,0-0.1,0-0.1,0
	C17.2,7.3,17.2,7.3,17.4,7.2C17.3,7.3,17.3,7.3,17.4,7.2C17.4,7.3,17.3,7.2,17.4,7.2z M17.4,7.5C17.4,7.5,17.4,7.5,17.4,7.5
	c0-0.1,0-0.1-0.1-0.1C17.4,7.4,17.4,7.5,17.4,7.5C17.4,7.5,17.4,7.5,17.4,7.5z M0.5,2.5C0.5,2.4,0.5,2.4,0.5,2.5
	c0.1-0.1,0.1-0.1,0.1-0.1c0,0-0.1,0-0.1,0c0,0,0-0.1,0.1-0.1c0,0,0.1,0,0.1-0.1c0,0,0.1,0,0.1,0c0,0,0,0,0,0c0,0,0-0.1-0.1-0.1
	c0,0-0.1,0-0.1-0.1c0,0-0.1-0.1-0.1-0.1c0,0,0,0-0.1,0s0.1,0,0.1,0c0-0.1,0.2-0.3,0.2-0.3c0,0,0-0.2-0.1-0.2c-0.1,0-0.2-0.1-0.2-0.2
	c0-0.1-0.1-0.2-0.2-0.2c0-0.1-0.1-0.1,0-0.3c0-0.1,0-0.2,0-0.2h6.9c0,0,0,0.1,0,0.1C7,0.5,7,0.6,7,0.7s0.1,0.1,0.1,0.2
	c0,0.1-0.1,0.2,0,0.3c0.1,0,0,0.1,0.1,0.1c0.1,0,7,0.5,7,0.5s-0.1,0.1,0,0.1C14.3,1.9,14.3,2,14.3,2c0,0,0,0.2,0,0.2
	c0,0,0.1,0.1,0.1,0.1c0,0,0.2,0,0.2,0c0,0,0.1,0,0.1-0.1c0-0.1,0-0.2,0-0.4c0.1-0.1,0.1-0.2,0-0.3c-0.1-0.1-0.1-0.2-0.1-0.3
	c0-0.1,0.1-0.2,0.1-0.2c0,0,0.1,0,0.1-0.1c0,0,0.1-0.1,0.1-0.1l1.1,0.4c0,0,0.1,0.3,0.1,0.3c-0.1,0-0.1,0-0.1,0.1
	c0,0-0.1-0.2-0.1-0.3c-0.1,0,0,0.2,0,0.2s-0.1,0-0.1-0.1c0,0-0.1,0.1,0,0.1c0,0-0.1-0.1-0.2-0.2c-0.1-0.1,0.1,0.2,0.1,0.2
	c0,0-0.3-0.1-0.3-0.2c0-0.1,0,0.1-0.1,0c-0.1-0.1,0.2,0.2,0.1,0.3c-0.1,0.1,0.1,0,0.3,0c0,0,0.1,0,0.2,0c0,0.1-0.1,0.1,0,0.1
	c0.1,0,0.2,0,0.2,0c0,0,0.1,0,0.1-0.1c-0.1-0.1,0.1,0,0,0.2c-0.1,0.2,0,0-0.1,0c-0.1,0-0.1,0-0.1,0.1c0,0-0.1,0-0.1-0.1
	c0,0,0,0.1,0,0.1c0,0-0.1,0-0.1,0c0,0,0,0,0,0.1s0,0.1-0.1,0.2c-0.1,0-0.1,0.1,0,0.2c0.1,0.1,0,0.1,0,0.1c0,0.1,0,0.2-0.1,0.2
	c-0.1,0-0.2,0-0.2,0.1c0,0,0.2-0.1,0.2,0c0,0.1,0.1,0.2,0,0.2c-0.1,0-0.1-0.1-0.1-0.1c-0.1,0-0.1,0-0.2,0c-0.1,0,0.1,0,0.2,0.1
	c0.1,0.1,0.1,0.2,0.2,0.2c0.1,0,0.2,0,0.2,0.1c-0.1,0.1-0.2,0-0.1,0.1c0,0.1,0.2,0.4,0.2,0.4c0.1,0,0.1,0.1,0,0.2
	c0,0.1-0.1,0.1-0.1,0.1s-0.2-0.1-0.2,0c0,0.1,0,0,0.1,0.1c0.1,0,0.1,0,0,0.1c0,0,0,0.1,0.1,0.1c0.1,0,0.1,0.1,0,0.1
	c-0.1,0-0.2-0.1-0.2,0c0,0.1-0.1,0.1-0.1,0.1c0.1,0,0.1,0.2,0,0.2C15.5,5,15.4,5,15.4,5c0,0,0.1,0,0.2,0c0,0.1,0.2,0.1,0.2,0.1
	c0,0.1-0.1,0-0.1,0.1c0,0.1,0.1,0.1,0.1,0.1c0,0-0.1,0.1-0.1,0.1s-0.1,0-0.1,0c0,0,0.2,0.1,0.2,0.1s0.1,0.1,0.1,0.2
	c0,0.1-0.1,0.2,0,0.2c0.1,0,0.1,0,0.1,0c0.1,0,0.1,0,0.1,0.1c0,0.1,0,0.1,0,0.2c0,0,0.2,0.2,0.3,0.2c0.1,0,0.1,0.1,0.1,0.2
	c-0.1,0,0,0.1,0,0.3c0,0.1,0,0.1,0.1,0.1s0-0.1,0-0.2c0-0.1,0.1-0.3,0.1-0.3s-0.1-0.1-0.1-0.2c0,0,0,0,0-0.1c0,0,0.1-0.2,0-0.2
	c-0.1,0-0.2,0-0.2,0.1c-0.1,0-0.2-0.2-0.2-0.2c0,0,0.1-0.1,0.1-0.1c0,0-0.1,0-0.1-0.1c0,0,0.1-0.1,0.1-0.1L16,5.5
	c0,0-0.1-0.2-0.2-0.2c-0.1,0-0.1,0-0.1-0.1c0.1,0,0-0.2,0-0.2c0,0,0-0.2-0.1-0.3s-0.1-0.1,0.1-0.1c0.1,0,0.2,0,0.2,0.1
	c0,0.1,0.1,0.1,0.1,0.1C16,5,16,5,16,5c0.1,0,0.1,0.1,0.1,0.1c0,0.1,0,0.2,0.1,0.2c0.1,0,0.2,0,0.2-0.1c0-0.1-0.1-0.1-0.1-0.1
	s-0.1,0-0.1-0.1c0,0-0.1-0.1-0.1-0.2c0,0-0.1-0.1-0.1-0.1c0-0.1,0-0.1-0.1-0.1c0,0,0-0.1,0-0.1c0,0-0.2-0.1-0.1-0.1
	c0.1,0,0.1-0.1,0.2-0.1c0,0,0-0.2,0.1-0.2c0,0.1,0.1,0.2,0.1,0.2c0,0-0.1-0.2-0.1-0.2c0,0,0-0.1-0.1-0.1c0,0,0-0.2,0-0.2
	c0,0-0.2-0.1-0.1-0.1c0,0,0.1-0.1,0.1-0.1c0,0.1,0.1,0,0.1,0.1c0,0,0-0.1-0.1-0.2c-0.1-0.1-0.3-0.1-0.3-0.2s0-0.2,0.1-0.2
	c0,0-0.1-0.2,0-0.1C15.9,3,16,3.1,16,3.1c0,0-0.2-0.1-0.2-0.1c-0.1,0-0.2,0.1-0.1,0c0.1-0.1,0.1-0.1,0.1-0.1c0,0,0-0.1,0-0.1
	c0,0-0.1-0.1-0.1-0.1c0,0,0.1-0.1,0.1-0.1c0,0,0.1-0.1,0-0.1c0-0.1,0-0.1,0.1-0.1c0.1,0,0.1-0.1,0.2-0.1s0.1,0.1,0.2,0.1
	c0,0.1,0,0.2,0,0.2c0,0.1,0,0.1,0,0.2c-0.1,0-0.1,0.2,0,0.1c0,0,0.1-0.2,0.1-0.1c0,0,0,0.1,0,0.1c0,0,0-0.2,0-0.2
	c0,0-0.1-0.3-0.1-0.3c0-0.1,0-0.2,0-0.2s0,0.1,0,0.2s0.3,1.2,0.3,1.3c0-0.1-0.2-0.4-0.2-0.5c0,0,0,0.3,0.2,0.6c0,0,0,0.3,0,0.3
	c0,0,0.2,0.3,0.2,0.4s0,0.3,0.1,0.3c0,0,0-0.2,0-0.3c0-0.1-0.1-0.2-0.1-0.2s-0.1-0.3-0.1-0.3c0-0.1,0-0.2,0-0.2s0.1,0.3,0.1,0.3
	c0,0.1,0.4,1.1,0.4,1.4c0,0,0.1,0.1,0.1,0.1s0.3,0.7,0.3,0.8c0,0,0.2,0.5,0.2,0.6c0,0.1,0.2,0.3,0.2,0.3c0,0,0.2,0.2,0.2,0.3
	c0,0.1,0.1,0.2,0.2,0.2c0,0,0.1,0.1,0.1,0.1c0,0,0.1,0.1,0.1,0.1c0,0,0,0.1,0,0.2c0,0,0.1,0.2,0,0.2c0,0-0.1,0-0.1,0.2
	c0,0.3,0,0.5,0,0.7c0.1,0.2,0.5,1.1,0.5,1.2l0.1,0.4c0,0,0.1,0.3,0.1,0.3c0,0,0.1,0.2,0.1,0.3c0,0,0,0.1,0,0.1s-0.2-0.5-0.2-0.5
	c0,0-0.2-0.6-0.2-0.6l0-0.1l-0.1-0.3c0,0-0.1-0.2-0.1-0.2c0,0-0.1-0.1-0.1-0.1S18.5,9,18.5,8.9c0-0.1,0-0.4,0-0.4L18.5,8l0-0.2
	c0,0-0.1-0.1-0.1-0.1c0,0,0,0,0,0.1c0,0-0.1,0.3-0.1,0.4c0,0,0,0.3,0,0.4c0,0.1,0-0.2-0.1-0.3c0,0,0,0.3,0.1,0.3c0,0,0,0.1,0,0.1
	c0,0-0.1-0.3-0.1-0.4c0-0.1,0-0.2,0-0.2c0,0,0-0.1,0-0.1c0-0.1,0-0.1,0.1-0.2c0.1,0,0.1-0.1,0.1-0.1c0,0,0.1,0,0.1-0.1
	c0,0-0.2,0.1-0.2,0c0,0,0-0.1,0,0c-0.1,0-0.1,0-0.1,0c0,0-0.1-0.1-0.1-0.2s0-0.1,0.1-0.1c0.1,0,0.1,0,0.1,0S18.1,7.2,18,7.2
	C18,7.1,17.8,7,17.8,7l0.1,0.4c0,0,0.1,0.3,0.1,0.4C18,7.8,18,8,18.1,8c0,0,0,0.2,0,0.2c0,0.1,0.1,0.2,0.1,0.2c0,0,0.2,0.4,0.2,0.4
	c0,0,0.2,0.6,0.3,0.8s0.3,0.5,0.3,0.5s0.2,0.7,0.2,0.8c0,0.1,0.1,0.3,0.1,0.3c0,0,0.1,0.3,0.2,0.3c0,0,0,0.2,0,0.2
	c0,0,0.3,0.5,0.3,0.5s0.1,0.3,0.1,0.4c0,0.1,0.1,0.5,0.1,1c0,0.6-0.1,0.7-0.1,0.8c0,0,0,0.4-0.1,0.5c0,0.1-0.1,0.3-0.1,0.4
	c0,0.1,0,0.3,0,0.4c0,0.1-0.1,0.2-0.1,0.5c0,0.1,0,0,0,0c0,0,0,0,0-0.1s0-0.2,0.1-0.3c0.1-0.1,0-0.3,0-0.3c0,0-0.1,0.2-0.1,0.3
	s0,0.2,0,0.2c0,0-0.2,0.2-0.2,0.2s-0.1,0.1-0.1,0.2c0,0.1-0.1,0.2-0.1,0.2c0,0,0,0.3,0,0.3c0,0-0.1,0.2-0.1,0.2c0,0-0.2-0.1-0.1,0
	c0,0.3-0.3,0-0.3,0c0,0-0.1,0-0.2,0c-0.1,0-0.1,0-0.1,0c0,0-0.1-0.1-0.2-0.1c-0.1,0.1-0.2,0-0.2,0c0.1-0.1,0.1-0.1,0.1-0.1
	c0,0,0-0.1,0-0.1c0-0.1,0-0.1-0.1-0.2c-0.1,0-0.1-0.1-0.2-0.1c-0.1,0-0.1-0.1,0-0.2c0.1,0,0.1,0,0.1-0.1c-0.1-0.1-0.1-0.1-0.2-0.1
	c-0.1-0.1-0.1,0-0.2,0c-0.1,0-0.2-0.1-0.2-0.1c0-0.1-0.1-0.1-0.2-0.2c0-0.1-0.2-0.3-0.3-0.3c-0.1,0-0.3-0.1-0.3-0.1
	c0,0-0.1-0.1-0.1-0.1c0,0,0,0.1-0.1,0c-0.1-0.1,0-0.1-0.1-0.1s-0.2-0.1-0.2-0.1c0,0,0,0.1,0,0.1c-0.1,0-0.1-0.1-0.1-0.1s0,0-0.1,0
	c-0.1,0-0.1,0-0.1,0c0,0,0,0,0-0.1c0,0,0.1-0.1-0.1-0.1s-0.3-0.3-0.2-0.4c0-0.1,0-0.2,0-0.3c0-0.1,0-0.5,0-0.5c0,0,0,0-0.2,0
	s-0.1,0-0.2,0c-0.1,0-0.1-0.1,0-0.1c0,0,0.1,0,0.1-0.1c0,0,0-0.1,0.1-0.1s0.1-0.1,0.1-0.2c0,0,0.2-0.2,0.2-0.2c0.1,0,0-0.1-0.1-0.1
	c0,0-0.2,0.2-0.2,0.2c0,0-0.1,0.1-0.1,0.1c0,0.1-0.1,0.2-0.2,0.1c-0.1,0-0.1-0.1-0.1-0.1c0-0.1,0-0.2,0-0.3c0-0.1,0-0.3,0-0.4
	c0-0.1,0-0.1,0.1-0.2c0-0.1,0-0.1-0.1-0.1c-0.1,0-0.1-0.1,0-0.1c0.1,0,0.1,0,0.2,0c0,0,0.2,0,0.2-0.1c0-0.1-0.1-0.3-0.1-0.3
	c0,0-0.1,0-0.1,0c0,0,0,0.2,0,0.2s0,0-0.1,0.1c-0.1,0,0,0.1-0.1,0.1c-0.1,0-0.1-0.1-0.1,0c0,0.1-0.1,0.1-0.1,0.1c0,0-0.1,0-0.1-0.1
	c0-0.1-0.1,0-0.1,0c0,0-0.1,0-0.1-0.1c0-0.1-0.2-0.2-0.3-0.3c0,0.1,0.2,0.3,0.2,0.4c0,0,0.1,0.1,0.1,0.1c0,0.1,0.1,0.2,0,0.2
	c0,0-0.1,0.1-0.2,0c-0.1,0-0.2-0.1-0.2-0.2c0-0.1-0.1-0.3-0.2-0.3c-0.1,0-0.2-0.3-0.2-0.5c0-0.2-0.1-0.2-0.1-0.2s-0.1-0.2-0.1-0.1
	c0.1,0.1,0.1-0.2,0-0.3c-0.1-0.1-0.2-0.1-0.3-0.2C13,11,12.9,11,13,11s0.1,0.1,0.1,0c0,0-0.1-0.1-0.1-0.1c0.1,0,0.1,0,0.1,0
	c0.1,0.1,0-0.1,0.1-0.1c0.1,0,0.1-0.2,0.1-0.3c0.1-0.1,0.1-0.2,0.2-0.2c0.1-0.1,0.1-0.1,0.2-0.2c0-0.1,0.1-0.2,0-0.3
	c-0.1-0.1-0.1-0.2-0.1-0.1c0,0-0.1-0.1-0.1,0c0,0.1-0.1,0.2,0,0.2c0.1,0.1,0,0.1,0,0.1c-0.1,0-0.1,0-0.1,0c0,0,0-0.1,0-0.2
	c0-0.1,0.1-0.1,0-0.2C13.2,9.5,13,9.3,13,9.4c0,0,0,0.1,0,0.1s-0.1,0.1-0.1,0.2c0,0,0,0.1,0,0.1c0.1,0,0.1,0.1,0.2,0.1
	c0,0.1,0.1,0.1,0.1,0.2c0,0.1,0,0.2,0,0.2c0,0.1,0,0.1-0.1,0.1c-0.1,0-0.1,0-0.1,0s0,0.1,0,0.1c0,0-0.1-0.1-0.1-0.2
	c-0.1-0.1-0.1-0.1-0.1-0.1c0,0-0.1-0.2-0.1-0.3c0.1-0.1,0.2-0.5,0.2-0.6c0-0.1-0.1-0.2-0.1-0.3c0-0.1,0.1-0.1,0.1-0.1
	s0.1-0.3,0.1-0.3s0-0.1,0.1-0.1c0,0,0.1-0.2,0.1-0.3c0-0.1,0.1,0,0.1-0.1c0-0.1-0.1-0.2,0.1-0.2c0.1,0,0-0.1,0-0.1
	c0-0.1,0.1-0.1,0-0.2c-0.1-0.1,0-0.1,0-0.2c0-0.1,0-0.1,0-0.1c0-0.1,0.1-0.1,0-0.1c-0.1-0.1,0,0,0-0.1c0-0.1-0.1-0.1-0.1-0.1
	c0,0-0.1-0.1-0.1-0.2c0-0.1-0.1,0-0.1-0.1c0-0.1,0-0.1,0-0.1c0-0.1,0-0.1,0-0.1c-0.1,0-0.1-0.1,0-0.1c0-0.1,0,0,0.1-0.1
	c0-0.1,0-0.1,0-0.1c-0.1,0,0-0.1,0-0.1c-0.1,0-0.1,0-0.1,0.1c-0.1,0.1-0.1,0.1-0.1,0.1c-0.1-0.1-0.1,0-0.2,0c-0.1,0-0.1,0-0.2,0
	c0,0.1-0.1,0-0.1,0c0-0.1,0-0.1,0.1-0.2c0.1-0.1-0.1-0.1,0-0.2c0,0,0,0,0-0.1c0-0.1,0-0.1,0.1-0.2c0-0.1,0-0.1,0-0.2
	c0,0,0,0,0.1-0.1c0-0.1,0-0.1,0.1-0.2c0-0.1-0.1,0-0.1,0.1c0,0.1-0.1,0.2-0.1,0.2c0,0.1,0,0.1-0.1,0.1c-0.1,0-0.1,0.1-0.1,0.2
	c0,0-0.1,0-0.1-0.1c0-0.1,0.1-0.1,0-0.2c-0.1-0.1-0.1,0-0.1,0s-0.1-0.1-0.1-0.1c-0.1,0,0,0.1-0.1,0.1c0,0-0.1,0-0.1-0.1
	c0,0,0,0,0-0.1c-0.1,0-0.1,0-0.1-0.1c-0.1-0.1-0.1-0.1-0.1-0.2c0-0.1,0-0.2,0-0.3c0,0-0.1-0.1-0.1-0.1s-0.1,0-0.1-0.1
	c0,0,0,0-0.1-0.1c0,0-0.1,0-0.1-0.1c0-0.1-0.1-0.1-0.1-0.1c0-0.1,0-0.1,0-0.1c-0.1,0-0.1,0-0.1-0.1c0-0.1,0-0.1,0-0.1
	c-0.1,0,0,0-0.1-0.1c0-0.1,0,0-0.1-0.1c-0.1,0-0.1-0.1-0.1-0.1c-0.1,0,0-0.1-0.1-0.1c-0.1,0-0.1-0.1-0.1,0c0,0-0.1,0-0.1,0
	c-0.1,0-0.1,0-0.1,0s0-0.1-0.1-0.1c-0.1,0-0.1,0-0.1-0.1s-0.1,0-0.1-0.1c0,0,0,0-0.1,0c-0.1,0-0.1,0-0.1,0.1c-0.1,0-0.1,0-0.2,0
	c-0.1,0,0-0.1-0.1-0.1C9.1,3.1,9,3.1,9,3c0,0,0,0.1-0.1,0.1c0,0-0.1,0,0,0c0,0.1,0,0.1,0,0.1s0,0-0.1,0c-0.1,0-0.1-0.1-0.1,0
	c0,0.1,0,0,0,0.1c0,0.1-0.1,0-0.1,0.1s-0.1,0.1,0,0.1c0.1,0,0,0-0.1,0c-0.1,0-0.1,0-0.1,0s-0.1,0-0.1-0.1c0-0.1-0.1,0,0,0
	c0,0,0,0-0.1,0c0,0,0,0,0,0s0,0-0.1,0c-0.1,0-0.1,0-0.1-0.1C8.1,3.4,8,3.4,8,3.3c0,0-0.2-0.1-0.2-0.1c0,0,0.1,0.1,0.1,0.1
	S8,3.4,8,3.4c0,0,0.1,0.1,0.1,0.1S8,3.5,8,3.5c0,0,0,0.1,0,0.1c-0.1,0.2-0.2,0-0.2,0c0,0.1-0.1,0.1-0.1,0.2c0,0,0.1-0.1,0.1-0.1
	c0,0,0.1,0,0.1,0s0.1-0.1,0.1-0.2s0-0.1,0,0c0.1,0,0.1,0,0.2,0c0,0,0-0.1,0.1,0c0,0.1,0.1,0.1,0.1,0.1c0,0,0.1,0,0.1,0.1
	s0.1,0,0.1,0s0,0.1,0,0.1s0,0-0.1,0c-0.1,0,0-0.1-0.1,0c-0.1,0-0.1,0-0.2,0c-0.1,0-0.4,0.2-0.4,0.2c0,0-0.2,0.1-0.3,0.2
	s-0.1,0-0.1,0.1c-0.1,0-0.2,0.1-0.2,0.1s-0.1,0-0.1,0c0,0,0-0.1,0.1-0.1c0,0,0.1-0.1,0.1-0.1s0,0-0.1,0c0,0-0.1,0-0.1,0.1
	c0,0-0.1,0-0.1-0.1C7,4,7,4,7,4s0,0,0-0.1c0-0.1,0,0,0-0.1c0-0.1,0,0,0-0.1c0-0.1,0-0.1,0-0.2c-0.2-0.2-0.2,0-0.1,0.2
	c0,0.1,0,0.1,0,0.1c0,0,0,0.1,0,0.1c0,0,0-0.1-0.1,0s-0.1,0-0.1,0c0,0,0-0.1,0,0c0,0.1,0,0-0.1,0.1c0,0-0.1,0-0.1,0
	c0,0-0.1-0.1-0.1,0c0,0,0,0.1,0,0.1c0.1,0,0,0.1,0,0.1s0,0.1,0.1,0.1c0.1,0,0.1,0,0.1,0c0.1,0,0.1,0,0.1-0.1c0,0,0.2,0.1,0.2,0.1
	c0,0,0.2,0.2-0.1,0.1c-0.1,0-0.6,0.1-0.6,0.1c0,0-0.1,0.1-0.1,0.1s-0.2,0-0.2-0.6c0,0,0,0,0.1,0c0,0,0.1-0.1,0-0.2
	c-0.1,0-0.1-0.1-0.2-0.1c-0.1,0,0,0-0.1-0.1C5.5,3.4,5.4,3.4,5.4,3.4c0-0.1-0.2-0.1-0.5-0.3C4.6,2.9,4.4,2.7,4.3,2.7
	c-0.2,0-0.7-0.3-1.2-0.3S2.3,2.2,1.6,2.4C1,2.6,0.8,2.5,0.8,2.5C0.6,2.5,0.4,2.6,0.5,2.5z M18.1,18.7C18.1,18.7,18.2,18.8,18.1,18.7
	C18.2,18.7,18.2,18.7,18.1,18.7C18.1,18.7,18.1,18.7,18.1,18.7z M13.4,10C13.4,10,13.4,10,13.4,10C13.4,10,13.4,10,13.4,10z
	 M19.6,17C19.5,17,19.5,17,19.6,17c-0.1,0.1-0.1,0.1-0.1,0.1c0,0,0,0.1,0,0.1c0,0,0,0,0,0.1s0,0,0,0.1c0,0,0,0,0,0
	c0,0.1-0.1,0.1,0,0.1s0,0,0,0c0,0,0,0,0,0.1s0,0,0,0.1c0,0,0,0,0,0.1c0,0,0,0.1-0.1,0.1c0,0,0,0,0,0S19,17.9,19,17.9l-0.3,0.3
	c0,0-0.1,0.1-0.1,0.2c0,0,0,0.1,0,0.1c0,0-0.2,0.2-0.2,0.2l0.2-0.1c0,0,0.1,0,0.1,0c0,0,0.1-0.2,0.1-0.2l0.3-0.3
	c0,0,0.1-0.2,0.1-0.2c0,0,0.1-0.2,0.1-0.2s0.1-0.1,0.1-0.1c0,0,0-0.1,0-0.1s0.1-0.1,0.1-0.1c0,0,0-0.1,0-0.1c0,0,0-0.1,0.1-0.1
	C19.6,17.1,19.6,17,19.6,17C19.6,17,19.6,16.9,19.6,17z M18.3,18.6C18.3,18.6,18.2,18.6,18.3,18.6C18.3,18.6,18.3,18.6,18.3,18.6z
	 M17.1,16.4C17.1,16.4,17.2,16.4,17.1,16.4C17.2,16.4,17.2,16.3,17.1,16.4C17.1,16.3,17.1,16.3,17.1,16.4z M17.2,17.6
	c0,0,0.2,0.1,0.2,0.1C17.4,17.7,17.2,17.6,17.2,17.6C17.2,17.6,17.2,17.6,17.2,17.6z M17.3,16.5L17.3,16.5
	C17.3,16.5,17.4,16.6,17.3,16.5C17.4,16.5,17.4,16.5,17.3,16.5L17.3,16.5z M17.5,17.1L17.5,17.1C17.5,17.1,17.6,17.1,17.5,17.1
	C17.6,17.1,17.6,17.1,17.5,17.1L17.5,17.1z M17.6,17L17.6,17C17.6,17,17.7,17,17.6,17C17.7,17,17.7,17,17.6,17L17.6,17z M17.5,17
	L17.5,17C17.5,17,17.6,17,17.5,17C17.6,17,17.6,17,17.5,17L17.5,17z M17.9,6.7c0,0,0.1,0.1,0.1,0.2c0,0,0,0,0,0
	C18,6.8,17.9,6.7,17.9,6.7z M18.2,7.3C18.2,7.3,18.3,7.3,18.2,7.3C18.3,7.3,18.2,7.3,18.2,7.3z M18.4,7.5
	C18.3,7.5,18.4,7.5,18.4,7.5C18.4,7.5,18.4,7.5,18.4,7.5z M18.1,7.1C18.1,7.1,18.1,7.1,18.1,7.1C18.2,7.1,18.1,7.1,18.1,7.1z
	 M17.6,6.3c0,0,0.2,0.3,0.2,0.3s0-0.1,0-0.1S17.7,6.2,17.6,6.3L17.6,6.3z M13.3,11.5c0,0-0.2-0.2-0.2-0.3c0,0-0.1-0.1-0.1-0.1
	c0,0,0,0,0,0.1c0,0,0.1,0.2,0.1,0.2C13.2,11.4,13.3,11.5,13.3,11.5C13.3,11.5,13.3,11.5,13.3,11.5z"/>
</svg>
