<?xml version="1.0" encoding="utf-8"?>
<!-- Generator: Adobe Illustrator 18.0.0, SVG Export Plug-In . SVG Version: 6.00 Build 0)  -->
<!DOCTYPE svg PUBLIC "-//W3C//DTD SVG 1.1//EN" "http://www.w3.org/Graphics/SVG/1.1/DTD/svg11.dtd">
<svg version="1.1" id="state" xmlns="http://www.w3.org/2000/svg" xmlns:xlink="http://www.w3.org/1999/xlink" x="0px" y="0px"
	 viewBox="0 0 20 20" enable-background="new 0 0 20 20" xml:space="preserve">
<path fill="#FFFFFF" d="M18.2,17.3C18.2,17.4,18.1,17.3,18.2,17.3C18.2,17.3,18.2,17.3,18.2,17.3z M18.1,17.3
	C18.1,17.4,18,17.4,18.1,17.3C18.1,17.3,18.1,17.3,18.1,17.3z M17.2,19.1C17.2,19.2,17.3,19.2,17.2,19.1
	C17.3,19.1,17.2,19.1,17.2,19.1z M17.3,19.1C17.3,19.1,17.4,19.1,17.3,19.1C17.4,19.1,17.3,19.1,17.3,19.1z M18.3,18.6
	C18.2,18.6,18.3,18.7,18.3,18.6C18.3,18.6,18.3,18.6,18.3,18.6z M18.7,18.2C18.6,18.2,18.7,18.3,18.7,18.2
	C18.7,18.2,18.7,18.2,18.7,18.2z M18.8,18.1C18.8,18.1,18.9,18.2,18.8,18.1C18.9,18.1,18.8,18.1,18.8,18.1z M16.6,19.2
	c0,0-0.1,0-0.1,0c0,0-0.1,0-0.1,0c0,0,0,0.1,0,0.1c0,0,0-0.1,0.1-0.1C16.5,19.3,16.5,19.2,16.6,19.2c0,0.1-0.1,0.1,0,0.1
	C16.6,19.3,16.6,19.3,16.6,19.2z M15.5,15.5C15.5,15.5,15.5,15.5,15.5,15.5C15.5,15.5,15.5,15.5,15.5,15.5c0,0.1,0,0.1,0,0.1
	C15.6,15.6,15.6,15.6,15.5,15.5C15.7,15.6,15.6,15.5,15.5,15.5z M8,4c0,0-0.1,0.1-0.1,0.1C7.9,4.1,8,4.1,8,4C8,4,8,4,8,4
	C8,4,8,4,8,4z M6.5,4.4C6.5,4.4,6.5,4.4,6.5,4.4c-0.2,0-0.3,0-0.3,0c0.1,0,0.2,0.1,0.3,0.1c0.1,0,0.1,0,0.1,0
	C6.7,4.5,6.6,4.4,6.5,4.4z M8,4C8,4,8,4,8,4C8,4,8,3.9,8,4z M7.7,4.1c0,0-0.2,0.2-0.2,0.2S7.4,4.4,7.3,4.4C7.2,4.5,7,4.6,7,4.7
	c0,0-0.1,0-0.1,0c0,0-0.1-0.1-0.1-0.1c0,0,0.1,0.1,0.1,0.1s0.1,0,0.2,0c0.1,0,0.2-0.2,0.3-0.2c0.1,0,0.2-0.1,0.2-0.1
	C7.5,4.4,7.7,4.2,7.7,4.1C7.7,4.2,7.8,4.1,7.7,4.1z M14.5,13.5C14.5,13.5,14.5,13.5,14.5,13.5c0-0.1,0-0.2,0-0.2
	c0,0-0.1-0.1-0.1-0.1c0,0-0.1,0-0.1,0C14.4,13.4,14.4,13.4,14.5,13.5C14.5,13.5,14.5,13.5,14.5,13.5c0,0.2,0,0.2,0,0.2
	c0,0,0,0.1,0.1,0.1c0,0,0.1,0,0.1,0c0,0,0,0,0-0.1c0-0.1,0-0.1,0-0.1S14.6,13.6,14.5,13.5c0.1,0,0.2,0,0.1,0
	C14.6,13.5,14.6,13.5,14.5,13.5c0.1,0,0.1,0.1,0,0.2C14.5,13.7,14.5,13.6,14.5,13.5z M14.6,14.1c0,0-0.1,0-0.1,0s-0.1,0-0.1-0.1
	c0-0.1-0.1,0,0,0C14.5,14.1,14.5,14.1,14.6,14.1C14.6,14.1,14.6,14.2,14.6,14.1c0.1,0,0.1,0,0.1,0C14.8,14,14.7,14.1,14.6,14.1z
	 M16.6,3.6C16.6,3.6,16.6,3.6,16.6,3.6C16.6,3.6,16.6,3.6,16.6,3.6z M4.3,2.2c0,0-0.1-0.1-0.2-0.1c-0.1,0-0.1,0-0.2,0
	c-0.1,0-0.2,0-0.2-0.1C3.9,2,3.9,2,3.9,2c0,0-0.1,0.1-0.2,0.1c0,0,0-0.2,0-0.2C3.8,1.8,3.7,2,3.7,2c0,0,0,0,0,0c0,0,0-0.1,0-0.1
	c0,0,0,0.1,0,0.1c0,0,0,0-0.1,0C3.4,2,3.4,2,3.3,2c0,0,0,0.1-0.1,0C3.2,2,3,2,3.1,2c0.1,0,0.1-0.1,0.1-0.1c0,0,0,0-0.1,0
	C3.1,1.9,3.1,2,3,2c0,0,0,0,0,0c0,0,0-0.1,0-0.1s0,0,0,0.1c0,0,0,0,0,0c0,0,0,0.1,0,0.1c-0.1,0,0,0.1-0.1,0c-0.1,0-0.1,0-0.1,0
	c0-0.1,0-0.1,0-0.1S2.6,2.1,2.7,2.1c0,0,0,0.1,0,0.1c0,0-0.6,0-0.7,0c-0.1,0-0.4,0-0.6,0.1c-0.2,0.1-0.3,0-0.2,0c0,0,0.1,0,0.1,0
	c0.1,0,0.1-0.1,0.2-0.1c0.1,0,0.1,0,0.2,0c0,0,0.1-0.1,0.1-0.1c0.1,0,0.2,0,0.2,0c0.1,0,0.1,0,0.1,0c0,0-0.3-0.1-0.3-0.1
	c0,0-0.1-0.1-0.1-0.1c0,0-0.1,0,0-0.1c0.1-0.1,0.1-0.1,0.1-0.1c0,0,0.1,0,0.1,0c0,0,0-0.1,0-0.1c0,0-0.1,0-0.1,0s-0.1,0-0.1,0
	c0,0,0-0.1,0-0.1c0,0-0.1,0-0.1-0.1c0-0.1,0-0.1,0-0.1c0.1,0,0.1-0.1,0.1-0.1c0,0,0,0.1-0.1,0.1c-0.1,0-0.1,0.1,0,0.2
	c0.1,0,0,0.1,0,0.1c0,0-0.1,0-0.1,0c0,0,0,0.1,0,0.1s0,0.1-0.1,0.1c0,0,0,0.1-0.1,0c0,0,0-0.1,0-0.1c0,0,0-0.1,0-0.1s0,0-0.1-0.1
	c0-0.1,0-0.1-0.1-0.1c-0.1,0,0,0-0.1-0.1c-0.1,0,0,0-0.1-0.1S0.9,1.4,0.9,1.4c0,0.1,0.1,0.3,0.2,0.4c0.1,0,0.2,0.2,0.1,0.2
	c0,0.1,0,0.1,0,0.2s-0.1,0-0.1,0.1S1,2.2,1,2.2s-0.1,0-0.2,0.1c0,0,0.1,0,0.2,0c0,0,0,0.1-0.1,0.1c0,0-0.2,0-0.2,0.1c0,0,0,0,0,0
	s0.2,0,0.3,0c0.1,0,0.4,0,0.5-0.1c0.1,0,0.8-0.1,0.9-0.2c0.1,0,0.3,0,0.3,0c0,0,0.4,0,0.4,0s0.2,0,0.2,0c0,0,0.2,0.1,0.2,0
	c0,0,0-0.2,0-0.1c0.1,0.1,0.2,0.1,0.2,0.1c0,0-0.1-0.1,0-0.1c0.1,0,0.1,0.1,0.2,0.1c0,0,0.1,0.1,0.1,0c0,0,0.1,0,0.1,0c0,0,0,0,0,0
	c0,0,0,0,0,0c0.1,0,0.1,0,0.2,0C4.2,2.3,4.3,2.3,4.3,2.2C4.3,2.2,4.3,2.3,4.3,2.2z M5.9,3.3c0-0.1-0.1,0-0.1,0
	C5.7,3.2,5.8,3.2,5.9,3.3c0-0.1-0.1-0.2-0.1-0.2s0,0-0.1,0.1c-0.1,0,0,0.1-0.1,0.2c0,0,0,0-0.1,0s0-0.1,0-0.1c0-0.1,0,0-0.1,0
	c0,0,0.1-0.1,0.1-0.1s0,0-0.1,0.1c0,0,0,0-0.1,0c0,0,0,0-0.1,0c0,0-0.1,0-0.1-0.1c0,0,0,0-0.1,0c0,0,0,0-0.1,0c0,0-0.1,0-0.1,0
	c0,0,0,0,0-0.1c0,0-0.1-0.1-0.1-0.1s0,0,0.1-0.1s0.1-0.1,0.1-0.1c0-0.1,0,0,0.1,0c0,0,0.1,0,0.1,0c0,0,0.1,0,0.1,0c0,0,0-0.1,0-0.1
	c0,0,0.1,0,0.1,0c0,0-0.1-0.1-0.1-0.1c0,0,0,0,0.1-0.1c0,0,0,0,0,0s0,0,0,0c0,0,0,0,0,0c-0.1,0-0.1,0.1-0.1,0.1c0,0.1,0,0-0.1,0
	c0,0,0-0.1-0.1,0c0,0,0,0,0,0.1c0,0.1-0.1,0-0.1,0c0,0,0,0.1,0,0c0,0,0-0.1-0.1-0.2C4.9,2.5,4.9,2.4,4.9,2.5c0,0,0,0.1,0,0.1
	c0,0-0.1-0.1-0.1-0.1c0,0,0,0.1-0.1,0.1c0,0-0.1,0-0.1,0.1c0,0.1,0.1,0.1,0.1,0.2c0,0,0,0,0-0.1s0,0,0.1,0c0,0,0,0,0,0.1
	c0,0,0.1,0,0.1,0c0,0.1,0,0.1,0.1,0.1C5,3,5,3,5,3c0,0-0.2-0.1-0.2-0.1S4.9,3,4.9,3c0,0,0.2,0.1,0.2,0.1c0,0,0-0.1,0-0.1s0,0,0.1,0
	c0,0,0.1,0,0.1,0c0,0,0,0,0.1,0c0,0,0.1,0.1,0.1,0.1c0,0,0,0,0.1,0c0,0,0.1,0.1,0.1,0.1c0,0,0.1,0,0.1,0c0,0,0.1,0,0.1,0
	C5.8,3.4,5.8,3.4,5.9,3.3c-0.1,0,0,0.2,0,0.2S5.9,3.3,5.9,3.3z M6.1,4C6.1,4,6.1,4,6.1,4C6,3.9,5.9,3.7,5.9,3.7
	c0,0.1-0.1,0.1-0.1,0.2c0,0.1,0,0.5,0.1,0.5c0,0,0.1,0,0.1,0s0-0.3,0-0.3C6.1,4.1,6.1,4,6.1,4z M16.6,7C16.7,7,16.7,7,16.6,7
	c0.1,0.1,0.2,0.1,0.2,0.1c0,0,0.1,0,0-0.1c0,0,0-0.1-0.1-0.1c0,0,0,0,0,0C16.7,6.9,16.7,6.8,16.6,7C16.6,6.9,16.6,7,16.6,7z M16.9,7
	c0,0,0,0.2,0,0.3c0,0,0,0-0.1,0c0,0-0.1,0-0.1,0c-0.1,0,0,0,0,0c0,0,0,0,0.1,0c0.1,0,0.1,0,0.1,0c0,0,0-0.1,0.1-0.1
	C17,7.2,17,7,16.9,7z M17.4,7.2C17.4,7.2,17.4,7.1,17.4,7.2C17.3,7.1,17.3,7.1,17.4,7.2c-0.1,0-0.1,0-0.1,0
	C17.2,7.3,17.2,7.3,17.4,7.2C17.3,7.3,17.3,7.3,17.4,7.2C17.4,7.3,17.3,7.2,17.4,7.2z M17.4,7.5C17.4,7.5,17.4,7.5,17.4,7.5
	c0-0.1,0-0.1-0.1-0.1C17.4,7.4,17.4,7.5,17.4,7.5C17.4,7.5,17.4,7.5,17.4,7.5z M18,7.2C18,7.1,17.8,7,17.8,7l0.1,0.4
	c0,0,0.1,0.3,0.1,0.4S18,8,18.1,8c0,0,0,0.2,0,0.2c0,0.1,0.1,0.2,0.1,0.2c0,0,0.2,0.4,0.2,0.4c0,0,0.2,0.6,0.3,0.8
	c0.1,0.2,0.3,0.5,0.3,0.5s0.2,0.7,0.2,0.8s0.1,0.3,0.1,0.3c0,0,0.1,0.3,0.2,0.3c0,0,0,0.1,0,0.2c0,0,0.3,0.5,0.3,0.5
	s0.1,0.3,0.1,0.4c0,0.1,0.1,0.5,0.1,1c0,0.6-0.1,0.7-0.1,0.8s0,0.4-0.1,0.5c-0.1,0.1-0.1,0.3-0.1,0.4c0,0.1-0.1,0.5-0.1,0.5
	c0,0.1,0,0.2,0,0.2c0,0-0.2,0.2-0.2,0.2c0,0.1-0.1,0.1-0.1,0.2c0,0.1-0.1,0.1-0.1,0.2s0,0.1,0,0.2c0,0-0.1,0.1-0.2,0.1
	c0,0-0.1,0-0.1,0.1c-0.1,0.2-0.2,0.1-0.3,0c-0.1,0-0.1,0.1-0.1,0.2c-0.1,0-0.3-0.2-0.2-0.4c0-0.1,0.1-0.1,0-0.2
	c-0.1,0-0.2-0.1-0.2-0.1c-0.1,0-0.2-0.1-0.2-0.1c0.1,0,0.3-0.1,0.2-0.1c-0.1-0.1-0.2-0.1-0.2-0.2c-0.1,0-0.3-0.1-0.4-0.1
	c0-0.1-0.1-0.1-0.1-0.2c0-0.1-0.3-0.2-0.4-0.3c-0.1,0-0.3-0.1-0.3-0.1c0,0-0.2-0.1-0.2,0c0,0.1-0.1-0.1-0.2-0.1c-0.1,0-0.2,0-0.3,0
	c-0.1,0,0,0.1,0,0.1c-0.1,0-0.1-0.1-0.1-0.1c-0.1,0,0,0-0.1,0c-0.1,0-0.1,0-0.1,0c0,0,0,0,0-0.1c0,0,0.1-0.1-0.1-0.1
	c-0.1,0-0.3-0.3-0.2-0.4c0-0.1,0-0.2,0-0.3c0-0.1,0-0.5-0.1-0.5c0,0,0,0-0.2,0c-0.1,0-0.1,0-0.2,0c-0.1,0-0.1-0.1,0-0.1
	c0,0,0.1,0,0.1-0.1c0,0,0-0.1,0.1-0.1c0,0,0.1-0.1,0.1-0.2c0,0,0.2-0.2,0.2-0.2c0.1,0,0-0.1-0.1-0.1c0,0-0.2,0.2-0.2,0.2
	c0,0-0.1,0.1,0,0.1c0,0.1-0.1,0.2-0.2,0.1c-0.1,0-0.1-0.1-0.1-0.1c0-0.1,0-0.2,0-0.3c0-0.1,0-0.3,0-0.4c0-0.1,0-0.1,0.1-0.2
	c0-0.1,0-0.1-0.1-0.1c-0.1,0-0.1-0.1,0-0.1c0.1,0,0.1,0,0.2,0c0,0,0.2,0,0.2-0.1c0-0.1-0.1-0.3-0.1-0.3c0,0-0.1,0-0.1,0
	c0,0,0,0.2,0,0.2s0,0-0.1,0.1s-0.1,0-0.1,0c-0.1,0-0.1,0-0.1,0.1c0,0.1-0.1,0.1,0,0.1c0,0-0.1,0-0.1-0.1c0-0.1-0.1,0-0.1,0
	c0,0-0.1,0-0.1-0.1c0-0.1-0.2-0.2-0.3-0.3c0,0.1,0.2,0.3,0.2,0.4c0,0,0.1,0.1,0.1,0.1c0,0.1,0.1,0.2,0,0.2c0,0-0.1,0-0.1,0
	c-0.1,0-0.2,0-0.2-0.1c0-0.1-0.1-0.3-0.2-0.3c-0.1-0.1-0.2-0.3-0.2-0.5c0-0.2-0.1-0.2-0.1-0.2c-0.1,0-0.1-0.1,0-0.1
	c0.1,0.1,0-0.2,0-0.3c-0.1-0.1-0.2-0.1-0.3-0.2C13,11,12.9,11,13,11c0,0,0.1,0.1,0.1,0c0,0-0.1-0.1-0.1-0.1c0.1,0,0.1,0,0.2,0
	c0.1,0.1,0-0.1,0.1-0.1c0.1,0,0.1-0.2,0.1-0.3c0.1-0.1,0.1-0.2,0.2-0.2c0.1-0.1,0.1-0.1,0.2-0.2s0.1-0.2,0-0.3
	c-0.1-0.1-0.1-0.2-0.1-0.1c0,0-0.1-0.1-0.1,0c0,0.1-0.1,0.2,0,0.2c0.1,0.1,0,0.1,0,0.1c-0.1,0-0.1,0-0.1,0c0,0,0-0.1,0-0.2
	c0-0.1,0.1-0.1-0.1-0.2C13.2,9.5,13,9.3,13,9.4c0,0,0.1,0.1,0.1,0.1s-0.1,0.1-0.1,0.2c0,0,0,0.1,0,0.1c0.1,0,0.1,0.1,0.2,0.1
	c0,0.1,0.1,0.1,0.1,0.2c0,0.1,0,0.2,0,0.2c0,0.1,0,0.1-0.1,0.1c-0.1,0-0.1,0-0.1,0s0,0.1,0,0.1c0,0,0-0.2-0.1-0.3
	c-0.1-0.1-0.1-0.1-0.1-0.1c0,0-0.1-0.2-0.1-0.3c0.1-0.1,0.2-0.5,0.2-0.6c0-0.1-0.1-0.2-0.1-0.3c0-0.1,0.1-0.1,0.1-0.1
	c0-0.1,0.1-0.3,0.1-0.3c0-0.1,0-0.1,0.1-0.1c0,0,0.1-0.2,0.1-0.3c0-0.1,0.1,0,0.1-0.1c0-0.1-0.1-0.2,0.1-0.2c0.1,0,0-0.1,0-0.1
	c0-0.1,0.2-0.1,0.1-0.2c-0.1-0.1,0.1-0.1,0-0.2c0-0.1-0.1,0-0.1-0.1s0.1-0.1,0-0.2c-0.1,0,0-0.1,0-0.1c0-0.1-0.1-0.1-0.2-0.1
	c0,0-0.1-0.1-0.1-0.2c0-0.1,0,0,0-0.1c0-0.1,0-0.1,0-0.2c0-0.1,0-0.1,0-0.1c-0.1,0,0-0.1,0-0.2C13,6,12.8,6,12.8,6
	c0,0,0.1-0.1,0-0.1c-0.1,0,0-0.1,0-0.1c-0.1,0-0.1,0-0.1,0.1c-0.1,0-0.1,0.1-0.1,0.1c-0.1,0-0.1,0-0.2,0c-0.1,0-0.1,0-0.2,0
	c0,0.1-0.1,0-0.1,0c0-0.1,0-0.1,0.1-0.2c0.1-0.1,0,0,0-0.2c0,0,0-0.1,0-0.1c0-0.1,0-0.1,0-0.2c0-0.1,0-0.1,0-0.2c0,0,0,0,0.1-0.1
	c0-0.1,0-0.1,0.1-0.2c0,0-0.1,0-0.1,0.1s-0.1,0.2-0.1,0.2c0,0.1,0,0.1-0.1,0.1c-0.1,0-0.1,0.1-0.1,0.2c0,0,0,0-0.1-0.1
	c0-0.1,0-0.2-0.1-0.2c-0.1-0.1-0.1-0.1-0.1,0c0,0-0.1,0-0.2,0c-0.1,0,0,0.1-0.1,0.1c0,0-0.1,0-0.1,0c0-0.1,0-0.1,0-0.1
	c-0.1,0-0.1-0.2-0.1-0.1c0,0-0.1-0.1-0.1-0.2c0-0.1-0.1-0.2-0.1-0.2c0-0.1-0.1-0.1-0.1-0.1s-0.1,0-0.1-0.1s0,0-0.1-0.1
	c0,0-0.1,0-0.1-0.1c0-0.1-0.1-0.1-0.1-0.1c0-0.1,0-0.1,0-0.1c-0.1,0-0.1,0-0.1-0.1s0-0.1,0-0.1c-0.1,0,0,0-0.1-0.1
	c0-0.1,0,0-0.1-0.1c-0.1,0-0.1-0.1-0.1-0.1c-0.1,0,0-0.1-0.1-0.1c-0.1,0-0.1-0.1-0.1,0c0,0-0.1,0-0.1,0c-0.1,0-0.1,0-0.1,0
	s0-0.1-0.1-0.1s-0.1,0-0.1-0.1c0-0.1-0.1,0-0.1-0.1c0-0.1,0,0-0.1,0c-0.1,0-0.1,0-0.1,0.1c-0.1,0-0.1,0-0.2,0c0,0,0-0.1-0.1-0.1
	C9.1,3.1,9,3.1,9,3c0,0,0,0.1-0.1,0.1c0,0-0.1,0-0.1,0c0,0,0,0.1,0,0.1c0,0,0,0-0.1,0c-0.1,0-0.1-0.1-0.1,0c0,0.1,0,0,0,0.1
	c0,0.1-0.1,0-0.1,0.1s-0.1,0.1,0,0.1c0.1,0,0,0-0.1,0c-0.1,0-0.1,0-0.1,0c0-0.1-0.1,0-0.1-0.1c0-0.1-0.1,0-0.1,0c0,0,0,0,0,0
	c0,0,0,0,0,0s0,0-0.1,0c-0.1,0-0.1,0-0.1-0.1c0-0.1-0.1,0-0.1-0.1c0,0-0.2-0.1-0.2-0.1s0.1,0.1,0.1,0.1S8,3.4,8,3.4
	c0,0,0.1,0.1,0.1,0.1S8,3.5,8,3.5c0,0,0,0.1,0,0.1c-0.1,0.2-0.1,0-0.1,0c0,0.1-0.1,0.1-0.1,0.2c0,0,0.1-0.1,0.1-0.1c0,0,0.1,0,0.1,0
	s0.1-0.1,0.1-0.2c0,0,0-0.1,0,0c0.1,0,0.1,0,0.2,0s0-0.1,0.1,0c0,0.1,0.1,0.1,0.1,0.1c0.1,0,0.1,0,0.1,0.1s0.1,0,0.1,0
	c0,0,0,0.1,0,0.1s0,0-0.1,0s0,0-0.1,0c-0.1,0-0.1,0-0.2,0c-0.1,0-0.4,0.2-0.4,0.2c0,0-0.2,0.1-0.3,0.2c0,0.1,0,0-0.1,0.1
	c-0.1,0-0.2,0.1-0.2,0.1c0,0.1-0.1,0-0.1,0c0,0,0-0.1,0-0.1c0,0,0.1-0.1,0.1-0.1s0,0,0,0c0,0-0.1,0-0.1,0c0,0-0.1,0-0.1,0
	C7,4,7,4,7,4s0,0-0.1-0.1c0-0.1,0,0,0-0.1c0-0.1,0,0,0-0.1c0-0.1,0-0.1,0-0.2c-0.2-0.2-0.2,0-0.1,0.2c0,0.1,0.1,0.1,0,0.1
	s0,0.1,0,0.1s0-0.1,0-0.1c0,0-0.1,0-0.1,0s0-0.1,0,0c0,0.1,0,0,0,0.1c-0.1,0-0.1,0-0.1,0c0,0-0.1-0.1-0.1,0c0,0,0,0.1,0,0.1
	c0.1,0,0,0.1,0.1,0.1s-0.1,0.1,0,0.1c0.1,0,0.1,0,0.1,0c0,0,0.1,0,0.1-0.1c0-0.1,0.2,0.1,0.2,0.1c0,0,0.2,0.2-0.1,0.1
	c-0.1,0-0.6,0.1-0.6,0.1C6.1,4.5,6,4.5,6,4.5s-0.2,0-0.2-0.6c0,0,0,0,0.1,0s0.1-0.1,0-0.2c-0.1,0-0.1-0.1-0.2-0.1
	c-0.1,0,0,0-0.1-0.1C5.5,3.4,5.4,3.4,5.4,3.3c0-0.1-0.2-0.1-0.5-0.3C4.6,2.9,4.4,2.7,4.2,2.6C4.1,2.6,3.6,2.3,3,2.3
	c-0.5,0-0.8-0.1-1.4,0.1C1,2.6,0.8,2.5,0.8,2.5c-0.2,0-0.4,0.2-0.3,0c0,0,0,0,0.1-0.1c0,0,0-0.1,0-0.1s-0.1,0-0.1,0
	c0,0,0-0.1,0.1-0.1c0,0,0.1,0,0.1-0.1c0,0,0.1,0,0.1,0c0,0,0,0,0,0c0,0,0-0.1-0.1-0.1c0,0-0.1,0-0.1-0.1c0,0-0.1-0.1-0.1-0.1
	c0,0,0,0-0.1,0c-0.1,0,0.1,0,0.1,0c0-0.1,0.2-0.3,0.2-0.3c0,0,0-0.2-0.1-0.2c-0.1,0-0.2-0.1-0.2-0.2c0-0.1-0.1-0.2-0.2-0.2
	c0-0.1-0.1-0.1,0-0.3c0-0.1,0-0.2,0-0.2h6.9c0,0,0,0.1,0,0.1C7,0.5,7,0.6,7,0.7s0.1,0.1,0.1,0.2c0,0.1-0.1,0.2,0,0.3
	c0.1,0,0,0.1,0.1,0.1c0.1,0,7,0.5,7,0.5s-0.1,0.1,0,0.1C14.3,1.9,14.3,2,14.3,2c0,0,0,0.2,0,0.2c0,0,0.1,0.1,0.1,0.1
	c0,0,0.2,0,0.2,0c0,0,0.1,0,0.1-0.1c0-0.1,0-0.2,0-0.4c0.1-0.1,0.1-0.2,0-0.3c-0.1-0.1-0.1-0.2-0.1-0.3c0-0.1,0.1-0.2,0.1-0.2
	c0,0,0.1,0,0.1-0.1c0,0,0.1-0.1,0.1-0.1l1.1,0.4c0,0,0.1,0.3,0.1,0.3c-0.1,0-0.1,0-0.1,0.1c0,0-0.1-0.2-0.1-0.3c-0.1,0,0,0.2,0,0.2
	s-0.1,0-0.1-0.1c0,0-0.1,0.1,0,0.1c0,0-0.1-0.1-0.2-0.2c-0.1-0.1,0.1,0.2,0.1,0.2c0,0-0.3-0.1-0.3-0.2c0-0.1,0,0.1-0.1,0
	c-0.1-0.1,0.2,0.2,0.1,0.3c-0.1,0.1,0.1,0,0.3,0c0,0,0.1,0,0.2,0c0,0.1-0.1,0.1,0,0.1c0.1,0,0.2,0,0.2,0c0,0,0.1,0,0.1-0.1
	c-0.1-0.1,0.1,0,0,0.2c-0.1,0.2,0,0-0.1,0c-0.1,0-0.1,0-0.1,0.1c0,0-0.1,0-0.1-0.1c0,0,0,0.1,0,0.1c0,0-0.1,0-0.1,0c0,0,0,0,0,0.1
	s0,0.1-0.1,0.2c-0.1,0-0.1,0.1,0,0.2c0.1,0.1,0,0.1,0,0.1c0,0.1,0,0.2-0.1,0.2c-0.1,0-0.2,0-0.2,0.1c0,0,0.2-0.1,0.2,0
	c0,0.1,0.1,0.2,0,0.2c-0.1,0-0.1-0.1-0.1-0.1c-0.1,0-0.1,0-0.2,0c-0.1,0,0.1,0,0.2,0.1c0.1,0.1,0.1,0.2,0.2,0.2c0.1,0,0.2,0,0.2,0.1
	c-0.1,0.1-0.2,0-0.1,0.1c0,0.1,0.2,0.4,0.2,0.4c0.1,0,0.1,0.1,0,0.2c0,0.1-0.1,0.1-0.1,0.1s-0.2-0.1-0.2,0c0,0.1,0,0,0.1,0.1
	c0.1,0,0.1,0,0,0.1c0,0,0,0.1,0.1,0.1c0.1,0,0.1,0.1,0,0.1c-0.1,0-0.2-0.1-0.2,0c0,0.1-0.1,0.1-0.1,0.1c0.1,0,0.1,0.2,0,0.2
	C15.5,5,15.4,5,15.4,5c0,0,0.1,0,0.2,0c0,0.1,0.2,0.1,0.2,0.1c0,0.1-0.1,0-0.1,0.1c0,0.1,0.1,0.1,0.1,0.1c0,0-0.1,0.1-0.1,0.1
	s-0.1,0-0.1,0c0,0,0.2,0.1,0.2,0.1s0.1,0.1,0.1,0.2c0,0.1-0.1,0.2,0,0.2c0.1,0,0.1,0,0.1,0c0.1,0,0.1,0,0.1,0.1c0,0.1,0,0.1,0,0.2
	c0,0,0.2,0.2,0.3,0.2c0.1,0,0.1,0.1,0.1,0.2c-0.1,0,0,0.1,0,0.3c0,0.1,0,0.1,0.1,0.1s0-0.1,0-0.2c0-0.1,0.1-0.3,0.1-0.3
	s-0.1-0.1-0.1-0.2c0,0,0,0,0-0.1c0,0,0.1-0.2,0-0.2c-0.1,0-0.2,0-0.2,0.1c-0.1,0-0.2-0.2-0.2-0.2c0,0,0.1-0.1,0.1-0.1
	c0,0-0.1,0-0.1-0.1c0,0,0.1-0.1,0.1-0.1L16,5.5c0,0-0.1-0.2-0.2-0.2c-0.1,0-0.1,0-0.1-0.1c0.1,0,0-0.2,0-0.2c0,0,0-0.2-0.1-0.3
	s-0.1-0.1,0.1-0.1c0.1,0,0.2,0,0.2,0.1c0,0.1,0.1,0.1,0.1,0.1C16,5,16,5,16,5c0.1,0,0.1,0.1,0.1,0.1c0,0.1,0,0.2,0.1,0.2
	c0.1,0,0.2,0,0.2-0.1c0-0.1-0.1-0.1-0.1-0.1s-0.1,0-0.1-0.1c0,0-0.1-0.1-0.1-0.2c0,0-0.1-0.1-0.1-0.1c0-0.1,0-0.1-0.1-0.1
	c0,0,0-0.1,0-0.1c0,0-0.2-0.1-0.1-0.1c0.1,0,0.1-0.1,0.2-0.1c0,0,0-0.2,0.1-0.2c0,0.1,0.1,0.2,0.1,0.2c0,0-0.1-0.2-0.1-0.2
	c0,0,0-0.1-0.1-0.1c0,0,0-0.2,0-0.2c0,0-0.2-0.1-0.1-0.1c0,0,0.1-0.1,0.1-0.1c0,0.1,0.1,0,0.1,0.1c0,0,0-0.1-0.1-0.2
	c-0.1-0.1-0.3-0.1-0.3-0.2s0-0.2,0.1-0.2c0,0-0.1-0.2,0-0.1C15.9,3,16,3.1,16,3.1c0,0-0.2-0.1-0.2-0.1c-0.1,0-0.2,0.1-0.1,0
	c0.1-0.1,0.1-0.1,0.1-0.1c0,0,0-0.1,0-0.1c0,0-0.1-0.1-0.1-0.1c0,0,0.1-0.1,0.1-0.1c0,0,0.1-0.1,0-0.1c0-0.1,0-0.1,0.1-0.1
	c0.1,0,0.1-0.1,0.2-0.1s0.1,0.1,0.2,0.1c0,0.1,0,0.2,0,0.2c0,0.1,0,0.1,0,0.2c-0.1,0-0.1,0.2,0,0.1c0,0,0.1-0.2,0.1-0.1
	c0,0,0,0.1,0,0.1c0,0,0-0.2,0-0.2c0,0-0.1-0.3-0.1-0.3c0-0.1,0-0.2,0-0.2s0,0.1,0,0.2s0.3,1.2,0.3,1.3c0-0.1-0.2-0.4-0.2-0.5
	c0,0,0,0.3,0.2,0.6c0,0,0,0.3,0,0.3c0,0,0.2,0.3,0.2,0.4s0,0.3,0.1,0.3c0,0,0-0.2,0-0.3c0-0.1-0.1-0.2-0.1-0.2s-0.1-0.3-0.1-0.3
	c0-0.1,0-0.2,0-0.2s0.1,0.3,0.1,0.3c0,0.1,0.4,1.1,0.4,1.4c0,0,0.1,0.1,0.1,0.1s0.3,0.7,0.3,0.7c0,0,0.2,0.5,0.2,0.6
	C17.9,6.8,18,7.1,18,7.2L18,7.2z M18.4,7.6L18.4,7.6c0.1,0.1,0.2,0.1,0.2,0.2c0,0,0,0.1,0,0.2c0,0,0.1,0.2,0,0.2c0,0-0.1,0-0.1,0.2
	c0,0.3,0,0.5,0,0.7c0.1,0.2,0.5,1.1,0.5,1.2l0.1,0.4c0,0,0.1,0.3,0.1,0.3c0,0-0.1-0.1-0.1-0.1S19,10.1,19,10.1l0-0.1l-0.1-0.3
	c0,0-0.1-0.2-0.1-0.2s-0.1-0.1-0.1-0.1S18.4,9,18.4,8.9c0-0.1,0-0.4,0-0.4L18.5,8l0-0.2C18.6,7.9,18.5,7.8,18.4,7.6
	c0,0.1,0,0.1,0,0.2c0,0-0.1,0.3-0.1,0.4c0,0,0,0.3,0,0.4c0,0.1,0-0.2-0.1-0.3c0,0,0,0.3,0.1,0.3c0,0,0,0.1,0,0.1
	c0,0-0.1-0.4-0.1-0.5c0.1-0.1,0-0.3,0.1-0.3C18.3,7.8,18.3,7.7,18.4,7.6C18.4,7.7,18.4,7.7,18.4,7.6L18.4,7.6z M13.4,10
	C13.4,10,13.4,10,13.4,10C13.4,10,13.4,10,13.4,10z"/>
</svg>
