<?xml version="1.0" encoding="utf-8"?>
<!-- Generator: Adobe Illustrator 18.0.0, SVG Export Plug-In . SVG Version: 6.00 Build 0)  -->
<!DOCTYPE svg PUBLIC "-//W3C//DTD SVG 1.1//EN" "http://www.w3.org/Graphics/SVG/1.1/DTD/svg11.dtd">
<svg version="1.1" id="state" xmlns="http://www.w3.org/2000/svg" xmlns:xlink="http://www.w3.org/1999/xlink" x="0px" y="0px"
	 viewBox="0 0 400 400" enable-background="new 0 0 400 400" xml:space="preserve">
<path fill="#69C8C9" d="M363.9,346.8c-0.6,0.7-0.9-0.5-0.7-1.1C363.3,345.8,364.5,346.1,363.9,346.8z M362,346.8
	c-0.6,0.7-1.1,0.4-0.5-0.7C361.5,346.2,362.6,346.1,362,346.8z M345,382.9c-1.1,0.2,0.5,1.6,0.8,0.8C346,382.9,345,382.9,345,382.9z
	 M346.9,381c-1.1,0.2,0.5,1.6,0.8,0.8C348,381,346.9,381,346.9,381z M365.1,372.3c-1.1,0.2,0.5,1.6,0.8,0.8
	C366.2,372.3,365.1,372.3,365.1,372.3z M373.8,364.7c-1.1,0.2,0.5,1.6,0.8,0.8C374.8,364.7,373.8,364.7,373.8,364.7z M376.7,362.7
	c-1.1,0.2,0.5,1.6,0.8,0.8C377.7,362.7,376.7,362.7,376.7,362.7z M331.4,384.8c-0.9-0.8-1.7-0.1-2.2,0c-0.6,0.1-1.5,0.4-2,0.6
	s-0.2,1.7,0.3,1.2c0.5-0.6,0.8-1.4,1.6-1.2s1.6-1,1.6,0s-0.4,1.7,0.2,1.4C331.4,386.6,332.3,385.5,331.4,384.8z M310.9,310.2
	c-0.8-0.6-0.8-0.7-0.8-0.7c-0.7,1.1-0.7,0.8,0,1.8c0.7,1.2,0.7,1.3,1.1,1.4c0.4,0.1,0.2-1.4,1.1-1.5
	C313,311.3,311.7,310.8,310.9,310.2z M159.6,80.5c-0.8,0.1-2.6,1.4-2.6,1.4c0.9-0.1,3.5-0.8,3.6-1.2c0.2-0.3,0-0.9-0.1-1.2
	C160.4,79.9,160,80.5,159.6,80.5z M130.7,88.6c-1-0.1-0.8-1.2-1.9-0.8c-1.2,0.4-3.7,0.6-3.7,0.6c1.4,0.1,4.3,1.4,5.6,2.3
	c1.2,0.9,1.7,0.9,2.5,0.4C133.8,90.6,131.6,88.7,130.7,88.6z M160.7,79c-0.1,0.1-0.1,0.2-0.1,0.5C160.8,79.2,160.8,78.9,160.7,79z
	 M154.6,82.7c-0.8,0.2-4.9,4.6-4.9,4.6s-2.6,1.2-3.7,1.5c-1.2,0.3-5.9,4.1-6.8,4.4c-1,0.3-2.2,0.3-3-0.2s-2.3-1.1-2.3-1.1
	c0.7,0.7,1.9,1.9,1.9,1.9s2.8,0,3.8-0.7c1.1-0.7,4.3-3.3,5.6-3.6c1.2-0.4,3-1.2,3.6-1.2c0.8-0.2,5.6-4.6,5.7-5
	C154.6,83.1,155.4,82.5,154.6,82.7z M290.4,270.5c0.5-0.9-0.6-0.7-0.7-1.6c-0.1-1,0.7-1.6,0-1.6s-1.2-1-1.7-1c-0.6,0-1.3,0.3-1,0.7
	c1.2,1.2,1.2,1.8,1.7,2.5c0.6,0.7,0.9,1.4,0.9,2.9c0,1.4,0.3,2.3,0.9,3.1c0.6,0.8,0.4,2.3,1.2,2.8c0.8,0.5,1.2,0.7,1.2,0
	c-0.1-0.7-0.6-0.8-0.7-2.1c-0.1-1.2-0.1-1.3-0.5-2.3c-0.4-1-0.2-1.2,0.2-2.1s1.9-0.6,0.9-1.1s-1.1-0.9-0.9-0.1
	c0.2,0.8-0.5,2.6-0.8,3C290.8,273.8,290.2,271,290.4,270.5z M292.8,281.8c-0.8,0.2-1.3,0.4-2.4,0.1s-1.5-0.5-2.1-1.4
	c-0.6-1-1.2-0.3-0.2,0.3c1,0.6,2.5,2,3.5,2c1,0,1.4,0.8,2.1,0c0.7-0.8,0.8-1.1,1.2-1.6C295.3,280.6,293.7,281.5,292.8,281.8z
	 M332.8,71.1c0,0.1,0,0.1,0.1,0.2C332.9,71.2,332.8,71.2,332.8,71.1z M86.8,44.4c-0.2-0.8-2.1-1.7-3.3-1.6c-1.2,0.2-2.5-0.2-3.6-0.2
	c-1.2,0.1-3.7-0.5-3.1-1.2c0.7-0.7,1.9-1.7,1.6-2.3c-0.3-0.7-2.3,2.7-3.1,2.2c-0.8-0.5,0.1-3.6,0.6-4.8c0.6-1.2-1.8,3.8-2.9,3.6
	c-0.6-0.1,0.1-0.6,0.1-0.8c0.9-0.6-0.4-2.9-0.8-2c-0.3,0.5-0.2,2.1-0.2,2.3c-0.3,0.2-0.7,0.3-1.2,0.3c-2.1-0.3-3.9-0.2-4.5,0.6
	c-0.6,0.8-0.8,1.6-2,0.9c-1.2-0.8-3.6-1.4-2.1-2.3c1.4-0.9,1.2-1.8,1.8-1.3c0.7,0.5-0.2-0.8-1.5,0c-1.2,0.8-1.2,1.8-1.8,1.4
	c-0.2-0.1-0.4-0.4-0.5-0.7c-0.2-0.7-0.4-1.2-0.4-1.2s0.1,0.7,0.4,1.2c0.2,0.6-0.7,0.5-0.9,0.9c-0.5,0.8,0.8,1.7-0.6,1.9
	c-1.3,0.2-1,1.4-2.5,0.9s-2.2,0.8-1.9-0.8s0.8-1.8,0.8-1.8s-2.5,2.1-1.7,2.9c0.8,0.8,0.4,1.1-0.4,1.2c-0.8,0.1-11.5,0.2-13.3,0.7
	c-1.7,0.4-8.9,0.9-12.9,2.2c-3.9,1.3-5.3,0.8-4.4,0.2s1.7,0.2,2.7-0.5s2.3-1.7,3.4-1.7s2.9,0,3.6-0.4c0.8-0.4,1.2-1.2,2.2-1.3
	c1.2-0.1,3.3-0.3,4.2-0.3c1,0,1.4,0,2,0.1c0.6,0.1-5.9-1.7-6.6-2.6c-0.8-0.9-1.1-1.2-1.6-1.5c-0.6-0.3-1.2-0.1,0.1-1.1
	c1.2-1,1.2-2.2,2.1-2.2c0.9,0,1.4,0.2,1.8-0.2c0.4-0.4,0.4-1.2,0.2-1.6c-0.2-0.4-1.2,0.9-1.2,0.9s-1.4,0.3-2.1,0.6
	c0.3-0.4,0.6-1.1,0.1-1.4c-0.8-0.7-1.3-0.8-1.7-1.7c-0.3-1.1-0.9-1.1,0.2-1.3c1.2-0.3,3-1.8,3-2.4s-0.8,1.2-2.7,1.5
	c-1.9,0.4-1.6,2.6-0.7,3.6c1,1,0.9,2,0.2,2.2c-0.7,0.2-1.4,0.2-1.3,1c0.1,0.8-0.5,1.5-0.6,2.7c-0.1,1.2-0.8,1.2-1.1,1.8
	c-0.3,0.6-0.8,1.7-1.2,0.8c-0.4-0.9-0.2-1.2-0.2-2.1c0-0.8-0.2-1.7-0.1-2.5c0.1-0.8-0.7-0.2-1.5-1.3s0.3-1-1.2-1.7
	c-1.5-0.8-0.8-0.7-2.1-1.1c-1.4-0.4-0.9-0.9-1.7-2.1S18,27.7,18,27.7c0,1.8,1.8,6.2,3.4,7.2c1.5,1,3.2,3.2,2.9,4.4
	c-0.3,1.2,0.6,2.6-0.6,3.4s-1.7,0.4-2.5,1.2c-0.8,0.8-1.3,0.4-1.9,1c-0.6,0.6-3,0.7-3.6,1.2c-0.6,0.5,2.9-1,3.2,0
	c0.3,1-0.8,2-1.7,1.9c-0.9-0.1-4.3,0.8-4.7,1.2c-0.4,0.3-0.9,0.8-0.9,0.8s4.4-0.8,5.7-0.4c1.2,0.4,8-0.8,9.9-1.5
	c1.9-0.8,15.5-2.9,18.4-3.1s5.2-0.6,5.7-0.3c0.5,0.3,7.4-0.1,7.4-0.1s4.1-0.2,4.7,0.1c0.6,0.3,3.6,1,4.4,0.8
	c0.8-0.2-0.6-3.4,0.9-2.3s3.6,2.2,4,1.9c0.4-0.4-1.2-2.8,0-2.3c1.2,0.5,2.1,1.3,3,2.3c0.8,0.9,1.7,2.2,3,1c0.2,0.5,1.2,0.5,1,0
	c-0.1-0.2,0.5-0.7,0.2-0.8c-0.2-0.4-0.9-0.4-0.2-0.5c1.6-0.2,2.7,0.2,3.5,0.8c0.8,0.7,2.1,1,2.7,0.3C86.4,44.9,87,45.1,86.8,44.4z
	 M117.7,65.4c-0.1-1-1.2,0.2-2.2-0.2c-1.1-0.4,0.3-1,0.9-1.5c0.6-0.6-0.3-2.2-0.1-1.4c0.2,0.8,0,0.9-1.1,1.5
	c-1.1,0.7-0.4,2.9-1.1,3.1s-0.8-0.2-1.7-1c-0.9-0.8,0.2-1.9,0-3c-0.2-1.1-0.9-0.1-1.8,0c-1,0.1,1.8-2.7,1.8-2.7s-0.8,0.4-1.7,1
	c-0.9,0.6-0.7,0.3-1.3-0.3c-0.8-0.7-0.8,0.1-1.7,0.7c-0.9,0.6-1-0.2-1-1.1s-0.7-0.2-1.2-0.5c-0.7-0.3-0.6,0.3-1.2,0.8
	c-0.6,0.5-1.2-0.1-1.5-0.5c-0.3-0.4-0.5-0.4-0.9-1.4s-2.4-1.2-2.4-1.2s0.8-0.6,1.3-1.1c0.5-0.5,1.1-1.2,1.7-2.3
	c0.7-1.1,0.6-0.2,1.2-0.8c0.7-0.6,1.6,0.2,1.5-0.3s1.2,0.4,1.2,0.1c0-0.3,0.4-1.1,1-1.7c0.6-0.8,1.7,1,1.4,0.5
	c-0.2-0.5-1.4-1-1.5-2.2c0-0.7,0.5-1,1.1-1.2c0.8-0.1,0.9-0.1,0.9-0.1s-0.4,0-0.9,0.1c-0.2,0-0.4,0-0.6,0.1
	c-1.4,0.2-1.3,1.3-1.5,2.6c-0.2,1.2-0.8,0.8-1.4,0.8c-0.8-0.1-0.8-1.2-1.2-0.7c-0.3,0.7,0,0-0.8,1.1s-1.2,0.1-2.1,0.9
	c-1,0.8-0.8,1.2-0.8,0.6s-0.2-1.8-1.3-3.1c-1.2-1.2-1.1-2.7-1.2-1.8c-0.1,0.8,0.2,1.7-0.5,1.8c-0.7,0.2-1.8-1.5-1.5-1.1
	c0.3,0.5-0.1,1.2-1,1.4c-0.9,0.3-1.4,0.2-2.3,1.4c-0.9,1.2,1.7,2.8,2.5,3.3c0,0,0.1-0.8,0.6-1.1c0.5-0.3,0.6-0.2,1.2-0.2
	s0,0.5,0.2,1.2c0.2,0.8,2.2-0.9,1.6,0.6s0.4,2.1,1.2,2.4c0.8,0.2,0.7,0.7,0.7,1.2s-3-1.2-3-1.2s1.2,1.2,1.7,1.8s4.1,1.8,3.6,1.6
	c-0.7-0.2-0.9-1.3-0.5-1.5c0.4-0.2,1,0.8,1.2,0.7c0.3-0.1,1.2-0.2,1.7,0.8c0.7,1,0.4,0,1.7,0.7c0.9,0.4,1.6,2.2,2.3,2.1
	c1,0,0.5,0.2,1.3,0.4c0.9,0.2,1.1,1.1,1.6,2c0.6,1,1.2,0.5,2.1,0.5c1,0,1.1,0.6,1.2-0.2c0.2-0.8,0.4,0.1,0.8-0.7
	c0.4-0.8,1.8,1.3,1.8,1.3S117.8,66.3,117.7,65.4z M122.2,79.8c-0.7-0.6-0.9-0.8-1.3-1.2c-0.5-0.5-2.1-3.9-2.1-3.9
	c-0.1,1.2-1.2,1.9-1.3,3.1S116.9,88,119.8,88c0.9,0,2,0,2,0s0-5.4,0.4-6C122.6,81.4,122.9,80.3,122.2,79.8z M332.7,139.9
	c0.9,0.4,1.1,0.2,1.9,0.8c0.9,0.5,1.3,0.5,1.9,0.4c0.6-0.1,1.1-0.6,0.8-1.4s-0.7-1.8-1.2-1.8c-0.5,0-0.5,0-0.5,0
	c-1.1-0.2-2.1-1-2.6,0C332.6,138.7,331.7,139.5,332.7,139.9z M338.6,139.1c0,0,0.5,4.4,0,5.2s-0.9,0.7-1.9,0.9s-1.1,0.4-2.5,0.8
	c-1.4,0.4-0.6,0.7,0,0.8c0.6,0.2,0.9,0.6,2.2,0.8s1.2-0.4,2.2-0.9s0.8-1.2,1.2-1.7C340.5,144.1,339.3,140.6,338.6,139.1z M347,143.6
	c0.7-0.6,0-1.2,0-1.2c-0.4,0.1-1.5-0.7-1.7,0s-1,1.2-0.7,1.8c0.3,0.8-0.2,1.2,0.7,1.4c0.8,0.2,1.5,0.8,1.7,0
	C347.1,145.1,346.3,144.2,347,143.6z M348.9,150c0-0.6-0.2-0.8-0.3-1.2c-0.2-0.3-0.5-1.2-0.8-1.4c0,0-0.4,2,0,1.9
	C348.2,149.3,348.9,150.6,348.9,150z M360.3,143.5c-1.2-0.9-3.5-2.6-3.5-2.6l1.1,7.1c0,0,2,6.4,2,7.7s0.9,3.8,1.2,4.2
	s0.8,3.6,0.9,4.6c0.1,1.2,1.2,3.4,1.5,3.9s3.9,8.1,4,8.8c0.2,0.8,3.9,12.2,6.2,16.6c2.3,4.4,5.1,10.8,5.1,10.8s4,13.2,4.5,15
	c0.5,1.8,1.9,5.5,2.4,6c0.5,0.7,2.5,5.8,3.1,6.4c0.7,0.7,0.9,3,0.8,3.3c-0.1,0.3,5.6,10.7,5.6,10.7s2.5,6.6,2.5,7.2
	c0,2.1,2.1,9.5,1.3,20.8c-0.8,11.3-1.5,14.8-1.5,15.5s-0.8,9-1.2,10.1c-1,2-1.7,5.4-1.3,8.3c0.1,1.2-2.6,9-2.6,10
	c0,1,0.5,4.1-0.3,4.6c-0.8,0.5-4.3,3.2-4.8,4.4c-0.5,1.2-1.6,2.8-2.1,4.2c-0.5,1.4-2.4,2.6-2.4,3.4c0,0.8,0.2,2.4-0.2,3.1
	c-0.3,0.7-2.9,1.4-3.6,1.9c-0.8,0.5-2.3,0.4-2.7,2.4c-1,4.3-4.6,1-5.6,0.2c-1-0.8-1.5,2.3-2.8,3.1c-1.2,0.8-5.4-4.2-5-7.9
	c0.1-1.2,1.2-2.9,0-3.6c-1.2-0.8-3.2-1-4.5-1.2c-1.2-0.2-4.9-1.2-3.5-1.6c1.4-0.5,5.3-1.7,3.8-2.9c-1.4-1.2-3.3-2.4-5-3.6
	c-1.4-1-6.9-1.7-7-2.9c-0.2-1.2-2.2-2.7-2.4-3.8c-0.2-1.2-5.3-4.6-7.9-5.3c-2.6-0.7-5.8-1.6-6-2.2c-0.2-0.7-3.2-1.2-3.6-0.2
	c-0.3,1-1.6-1.7-3.6-2.2c-1.9-0.5-4.5-0.8-5.5-0.2c-1,0.6,0.5,1.2-0.8,1.1c-1.2-0.1-1-1.2-2.2-1.2c-1.2,0-0.1,0.2-1.5-0.2
	c-1.4-0.4-1.8,0.8-1.8,0c0-0.8,0.3-0.8,0-1.6c-0.3-0.8,1.2-1.6-1-1.6c-2.1,0-5.1-6.2-4.8-7.9c0.3-1.6-0.7-4-0.3-5.3
	c0.3-1.2-0.5-9.1-1-9.9c-0.5-0.8-0.7-0.8-3.1-0.8s-2.2,0.5-3.4-0.3c-1.2-0.8-1.6-2.4-0.7-2.9s1.2-0.7,1.9-1.2
	c0.7-0.7,0.8-1.9,1.4-1.9s1.7-2.4,1.7-3.2c0-0.8,3.2-3.6,4.1-3.6c1,0-0.5-1.7-1.2-1.2c-0.8,0.7-4.6,3.6-4.6,4.5s-1.2,1.3-1,2.9
	s-2.7,3.4-4.5,2.9c-1.7-0.5-2.4-1-1.6-2.4c0.8-1.4-0.2-3.6-0.7-5.1c-0.5-1.6,0-6.7,0.8-8.4c0.8-1.6,0.1-2.2,1-3.4
	c0.8-1.2-0.3-1.4-1.7-1.9c-1.4-0.5-2.4-1.7-0.8-2.2c1.6-0.5,2.8-0.5,3.6-0.7c0.8-0.2,3.3-1,3.1-2.2c-0.2-1.2-2.2-6-1.4-6.5
	c0.8-0.7-1.7-0.8-1.6,0.2c0.1,1,0.2,5,0.2,5s-0.8,1-1.7,1.6s-1.2,0.2-2.4-0.3c-1.2-0.5-1.6,0.3-2.1,1.4c-0.5,1.2-1.2,1.2-1,1.7
	s-1-0.7-1.7-2.2c-0.8-1.6-1.2,0-1,0.5c0.3,0.5-1.6-0.2-2.1-1.4c-0.5-1.2-4.4-4.6-5.3-6c0.8,1.4,4.3,6.6,4.8,7.1
	c0.7,0.7,1.8,1.6,2,2.7c0.2,1.2,1.3,3.4,0.5,3.8c-0.8,0.5-1.3,0.7-2.8,0c-1.4-0.7-3.6,0-4.1-1.9c-0.5-1.9-2.7-5.6-3.6-6.5
	c-1-1-4-5.6-4.8-9.9c-0.8-4.3-1.6-3.8-2.6-4.6s-1.4-2.6-0.8-2.1c2.1,1.5,0.6-4.1-0.9-6c-1.4-1.9-4.3-2.4-5.3-4
	c-1-1.6-2.2-2.6-1.2-2.2c1,0.4,1.9,1.2,2.1,0.7c0.2-0.7-2.6-1.6-1.4-2.2c1.2-0.7,2-0.6,3,0.6c1,1.2,0.7-1.2,1.9-1.9
	c1.2-0.8,1.1-4.1,2.5-6.4c1.4-2.2,1.8-3.3,3.7-4.6c1.9-1.3,2.9-2.2,3.1-3.8s2.1-3.4,0.5-5.5c-1.6-2.1-1.6-3.4-2.2-2.6
	c-0.7,0.8-1.2-1.9-1.7-0.3c-0.7,1.6-1.6,3.2-0.2,4.3c1.4,1.2,0.7,1.2-0.8,1.2c-1.2,0.1-2,0.3-2.3,0.6c0.2-0.7,0.5-2.7,0.2-4.1
	c-0.3-1.9,1.8-1-1-3.2c-2.9-2.3-7-7.2-7.5-5.1c-0.2,0.8,1,2.1,1,2.1s-2.7,2.6-2.4,3.1c0.3,0.5-0.5,1.6,0.6,1.8s2.7,1.4,3.1,2.6
	c0.5,1.2,2,2.4,1.2,3.6c-0.8,1.2-0.6,3.6-0.3,4.7c0.3,1.2-0.3,1.7-2.3,1.1c-2.1-0.7-2.7-0.9-2.7-0.9s-0.1,2.1-0.1,2.7
	c0,0.7-0.5-3.8-1.6-5.5c-1.2-1.6-2-1.2-2.7-1.7c-0.7-0.6-3-4.5-1.8-6c1.2-1.5,4-9.3,3.6-11c-0.5-1.7-1.2-4-1-5.1
	c0.3-1.2,1.6-1.7,2.6-2.7c1-1,1.3-5.6,1.5-7s0.5-1.9,1.2-2.6c0.8-0.7,1.6-5,2.5-6.4s1.5-0.7,1.3-2.7c-0.2-2.1-2.8-4,1-5
	c1.6-0.4-0.4-1.4,0.1-2.6c0.5-1.2,3.3-1.2,2.2-3.4c-1.2-2.1,1-1.9,0.7-3.2c-0.3-1.2-1.2-0.8-1.2-2.2s1-2.1-0.3-3.1
	c-1.2-1,0.2-1.2-0.7-2.7c-0.8-1.4-2.8-1.2-3.6-1.6c-0.8-0.3-1.2-1.3-2-3.1c-0.8-1.7,0.1-0.1-0.2-1.8c-0.3-1.7,0.3-1.4-0.5-3.2
	c-0.8-1.7,0.3-1.9-0.8-2.4c-1.2-0.5-0.3-1.9,0.3-3.1c0.7-1.2-2.2-0.2-1.4-1.2c0.8-1,1-1.7-0.3-1.7c-1.2,0,0.3-2.4-0.8-2.1
	c-1.2,0.3-1.5,0.2-2.5,1.2c-1,1-1.2,2.4-2.2,1.7c-1.6-1-2.5-0.8-4.4-0.7c-1.9,0.2-2.9-0.3-3.4,0.8c-0.5,1.2-2.7,0.8-2-0.5
	c0.7-1.2,0.2-1.7,1.2-3.6c1.1-2,0-0.2,0.4-3.1c0.1-0.7-0.6-2-0.7-2.7c-0.1-2-0.6-2.3,0.2-3.4c0.8-1.2,0.3-2.2,0.8-3.1
	c0.5-0.9,0.8,0.5,1-1.7c0.2-2.2,0.5-2.2,1.2-3.2c0.8-1-2.2,0.5-2.2,1.9s-1.7,3.6-1.2,4.8c0.5,1.2-0.5,1.4-1.6,1.9
	c-1.2,0.5-1.2,2.4-1.6,3.1c-0.4,0.7-0.9,0.3-1-1.9c-0.1-1.1-0.7-3.6-1.6-4.8c-1-1.2-1.7-1.2-2.6-0.5c-0.8,0.7-1.7-0.9-3.2-0.8
	c-1.4,0.2-0.7,1.6-1.5,2c-0.8,0.3-1.2,0-1.4-1c-0.2-1,0.7-1-0.7-1.7c-1.2-0.8-2.4-3.3-1.6-2.1c0.4,0.6-1.2-1.6-1.4-3.5
	c-0.4-2.3-1.9-4-1.2-5s-1.7-1.4-2.4-1.2s-1.9-0.9-2.4-1.4c-0.5-0.5-0.2-0.7-1-1s-2.1-0.8-2.5-2.4c-0.3-1.6-2.1-1.2-1.6-2.6
	c0.5-1.2,0.3-1.7-0.7-1.9c-1-0.2-1.4-0.2-1.4-1.4s0.5-1.6-0.8-2.2c-1.2-0.7-0.5-0.2-1.3-1.2c-0.9-1.2-0.4-1-1.6-1.4
	s-1.2-2.2-2.2-2.4c-1.1-0.2-0.9-1.9-2-2.6c-1.2-0.7-1.5-1.1-2.3-0.9c-0.8,0.2-1.3-0.9-2.5-0.8c-1.2,0.2-1.8,0-1.8-0.8
	c0-0.8-0.7-1.2-1.6-1.2s-1-0.7-1-1.8c0-1.2-1.5-0.6-1.1-1.5c0.5-1-0.3-0.5-1.4,0c-1.2,0.5-1.2,0.7-2.7,1.2c-1.6,0.5-2.3,0.7-3.3,0.2
	c-1-0.5-0.9-1.7-2.3-1.2c-1.4,0.6-2.7-0.3-3.1-1c-0.5-0.7-0.5,1.9-2.6,2.1c-0.7,0.1-1.2-0.2-1,0.8c0.2,1,0,1.2-0.2,1.9
	c-0.2,0.8,0.2,0.3-1-0.3c-1.2-0.7-1.7-1.2-2.1,0c-0.3,1.2,0.3-0.8-0.3,1.2c-0.7,1.9-2.6,0.3-1.9,1.7s-1,1.6,0.3,2.2
	c1.2,0.7-0.7,0.7-1.7,0.7c-1.2,0-1.2,0.7-1.2-0.8c-0.2-1.4-1.2-0.2-1.2-1.6c0-1.4-1.2-0.8-1,0c0.2,0.8-0.5,0.8-1,0
	c-0.5-0.8,0.5,0.8,0.5,0.8s0.2,0.3-1.2,0.5c-1.2,0.2-1.2,0.2-2.1-1.2c-0.9-1.4-1.2-1-2.1-1.9c-0.8-1-3.3-1.5-4-2.3s2.4,2.8,2.4,2.8
	s0.9,1.3,1.5,1.7c0.7,0.3,2.7,1.8,2.7,1.8s-1.9-0.3-1.9,0.3c0,0.7,0,1.8-0.2,2.2c-1.6,3.6-3,0.2-3,0.6c-0.2,1.5-2.5,2.8-2.1,3.1
	c0.4,0.3,1.3-1.2,2.3-1.7c0.8-0.4,1.7,0.4,1.7,0.4s2.2-2.2,2.2-3.2c0-1-0.7-1.2,0.7-1c1.2,0.2,2.9,0.7,3.1,0
	c0.2-0.7,0.7-1.4,1.2-0.3c0.5,1.2,1.4,1.2,2.4,1.2c1,0,1.2,0.2,2,1.2c0.8,1,2.3,0.2,2.3,1c0,0.8,0,1.9,0,1.9s-0.7,0-1.9-0.5
	c-1.2-0.5-0.8-1-2.7-0.7c-1.9,0.3-1.7-0.2-3.8,0.2c-2.1,0.3-7.5,3.2-7.9,3.6c-0.4,0.5-4.8,2.9-5.5,3.8c-0.7,1-1,0.7-2.1,1
	c-1.2,0.3-5,1.4-5,2.4s-1.4,0.5-1.2-0.5c0.2-1,0.3-1.2,1-1.7c0.7-0.7,1.4-1.4,1.4-1.4s-0.5-0.3-1-0.8c-0.5-0.5-1.4,0.3-1.7,1
	c-0.3,0.7-1.6-0.2-1.9-1c-0.3-0.8-0.5-0.8-1.7-1c-1.2-0.2-0.7-0.2-1-1.4c-0.3-1.2,0.7-0.2-0.1-1.5c-0.8-1.2-0.6-0.8-0.4-2.1
	c0.2-1.2-0.2-2.5-0.8-3.1c-3.6-4-3.6,0-2.3,3.5c0.5,1.3,1,1.7,0.5,2.2c-0.5,0.5,0,1.2-0.5,1.2c-0.5,0-0.2-1.2-1-1
	c-0.8,0.2-1.2-0.7-1.6-0.7s-0.3-2.2-0.8-0.8s0,0.9-1,1.7c-1,0.9-1.7,0.1-2.2,0.8c-0.5,0.7-2.2-1.4-1.7-0.5c0.5,1-0.7,2,0.8,2.3
	c1.4,0.3,0.5,1.5,1,1.7c0.5,0.2-1,2.8,1,2.3s1.1,0.3,2,0.3c1,0,2.6-0.6,1.9-1.5c-0.7-1,3.3,1.8,4,1.5s4.7,3.2-2,1.6
	c-1-0.2-11.3,1.8-12.3,2.1c-1,0.3-2.4,1-2.4,1s-3.6-0.2-3.8-12.2c0,0,0.7-0.5,1.2-0.8s1-2.9-0.2-3.6c-1.2-0.8-1.8-1.6-3.3-1.6
	s-0.8,0.4-2.5-1.8c-1.7-2.2-3.1-2.1-3.6-3.2c-0.5-1.2-4.8-1.9-10.2-5.7c-5.5-3.7-9.8-7.3-12.9-8.3c-3.1-1-13.3-6.4-24.1-6.7
	c-10.8-0.3-16-2.1-28.5,1.3c-12.5,3.6-16.1,2-16.1,2c-4.8,0.4-8.9,3.6-6.5-0.2c0.5-0.7,0.6-0.9,1.2-1.2c0.7-0.4,0.8-1.1,0.3-1.1
	s-1.1,0.2-1.4-0.6c-0.4-0.8,0.9-1.2,1.2-1.7c0.3-0.7,1.3-0.6,1.9-1.1c0.6-0.5,2-0.2,2.7-0.8c0.7-0.6,0.1-0.8-0.7-0.6
	c-0.8,0.2-0.7-1.2-1.3-1.8c-0.7-0.7-1.4-0.7-2.3-1.2c-0.8-0.5-1.4-2.2-1.5-1.5c0,0-0.4,0-1.6-0.8c-1.2-0.8,1-0.2,1-0.2
	c0.8-1.4,3.6-5.5,3.2-6.4s-0.8-3.1-2.5-3.8c-1.7-0.8-4.3-2.6-5-4C4.1,21,2,18.9,1.2,17.9c-0.9-1.1-2.1-1.6,0-6C2,9.9,1.1,8,1.1,8
	h137c0,0-0.3,1.7,0.7,2.1s1.4,1.9,1.7,3.1c0.3,1.2,1.6,2.6,1.4,4.6c-0.2,2-1.2,4.6,0,5.3c1.2,0.7,0.8,1,2.6,1.6
	C146.2,25.3,284,34.8,284,34.8s-1.2,1.4,0,2.4c1.2,1,1.9,3.1,1.6,3.8c-0.3,0.8-0.9,3.8,0.1,4.6c0.9,0.8,1.1,1.2,1.8,1.2
	c0.8,0,3.6-0.5,4-0.2s2.4,0.3,2.6-1.7c0.2-2.1,0-5,1-7c1-2,1.6-3.6,0.7-5.6c-1-1.9-2.7-4-1.7-6.7c1-2.7,1.6-4.1,2.2-4.5
	c0.6-0.4,2.2-0.5,2.2-1.2s1.2-1.6,1.2-1.6l21.9,8.6c0,0,2.6,6.2,1.4,6.9c-1.2,0.7-2.4,0.5-2.4,1.2c0,0.8-1-4.8-1.9-5.6
	c-1-0.8,0.5,3.4,0.3,4.6s-1-0.8-1.6-1.4s-1.2,1.2-0.8,1.6c0.3,0.5-1.9-2.6-3.4-3.8c-1.4-1.2,2.4,3.6,1.6,3.6
	c-0.8,0.1-5.1-2.7-5.5-3.6c-0.3-1-0.8,1.2-2.1,0c-1.2-1.2,3.4,4.5,2.2,5.7c-1,1,2.7-1,6-0.3c0.7,0.2,2.6-0.7,3.2,0.3
	c0.6,1-1.2,1.7,0.5,1.7c1.6,0,4.2,0,4.1,0.7c-0.1,0.7,1.9,0.3,1-1.2c-1-1.4,1.6,0.8,0.3,3.8c-1.3,3.1,0.1,0.2-1.2,0.2
	c-1.2,0-1.7,0.5-2.4,1.4c-0.7,1-2.1-0.3-2.7-1.2c-0.6-0.9,0,1.2-0.2,2.1c-0.2,0.8-1.2,0.3-2.1,0.8c-0.8,0.5-0.7,0.2-0.2,1.6
	s-0.8,2.7-2.2,3.6c-1.4,1-2.8,1.8-0.5,4.1c1.3,1.3,0.8,1.4,0.2,2.5c-0.7,1.1,0.2,3.6-1,3.5c-1.2-0.2-4,0.8-3.6,1.6
	c0.3,0.8,3.2-1.2,3.6,0s1,3.1,0,3.6c-1,0.6-1-1.9-2.7-1.4c-1.7,0.5-1.6-1-3.1-0.2c-1.4,0.8,2.1,0,3.6,1.7c1.6,1.6,1.6,4.2,3.6,4.2
	s4.5,1,3.6,1.9c-1,1-3.6,0.9-2.8,2c0.8,1.2,3.2,8.3,4.2,8.4c1.2,0.2,1.2,1.9,0.5,3.1c-0.8,1.2-1,1.8-2.9,1.8c-1.9,0-3.1-1.7-3.6,0
	s0.7,0.6,1.9,1.2c1.2,0.7,1.2,0.8,0.5,1.2c-0.7,0.3,0.7,1.2,1.6,2.1c1,0.9,1.7,2.4-0.3,2.1c-2.1-0.3-3.6-1.1-4.1,0
	c-0.5,1.1-2.2,1.7-1.2,2.7c1.2,1,2.9,3.1,0.8,3.4c-2.1,0.3-3.8,1.1-4,1.5c-0.2,0.5,2.4-0.6,3.3,0.6c0.8,1.2,3.1,1.2,3.2,2.6
	c0.2,1.2-2.6,0.2-2.1,1.2c0.5,1.2,1.9,1.6,1.4,2.4c-0.5,0.8-1,1.4-1,1.4s-2.9-0.8-2.1,0c0.8,0.8,3.6,2.2,3.6,2.2s1.9,2.1,1.7,3.4
	c-0.2,1.2-1.2,3.1,0.5,3.2c1.6,0.2,1.6,1,2.7,1c1.2,0,1.6-0.3,2.1,1c0.5,1.2,0,2.4,0.5,3.4c0.5,1,4.6,3.6,5.8,4.5
	c1.2,0.8,2.1,2.5,1.1,3c-1.2,0.5-0.7,1.7-0.2,5.7c0.2,1.2,0.8,2.9,1.9,2.9s-0.2-1.2,0-3.2s1.3-5.8,1.3-5.8s-1.4-2.6-2.4-3.1
	c-1-0.5,0.3-1,0.5-1.9s1.4-4.8-0.7-4.6c-2.1,0.2-3.6,0.3-4.6,1.2c-1,0.8-3.4-3.6-3.6-4.3c-0.2-0.7,1.6-2.1,1.6-2.9
	c0-0.8-1.2-0.2-1.6-1c-0.5-0.8,1.9-2.4,1.9-2.4l-2.7-1.6c0,0-2.6-4-3.8-3.2c-1.2,0.8-2.6-0.3-1.4-1c1.2-0.7,0.2-3.6-0.5-4
	c-0.7-0.3-0.5-5-1.2-5.3s-1-1.9,1-1.7c1.9,0.2,3.2,0,4.1,1.2s1.4,1.6,1.2,2.9c-0.2,1.2,0.3,2.2,1.2,2.4c1,0.2,2.1,1.2,2.1,2.6
	c0,1.2,0.1,4.8,2,4.6c1.9-0.2,4.3-0.8,3.6-2.4c-0.8-1.6-1.4-2.7-2.6-2.7s-1.7-0.8-1.7-1.6c0-0.9-1.4-2.6-2.2-3.4
	c-0.8-0.8-1.6-1.4-2.1-2.6c-0.5-1.2-0.7-1.7-1.2-1.6c-0.5,0.2,0.8-2.2,0-2.9c-0.8-0.7-3.8-2.4-2.1-2.7s2.6-2,3.4-1.4
	c0.8,0.6,0.8-4.2,1.4-3.3c0.7,1,2.1,3.2,2.6,3.3c0.5,0.1-1.9-3.3-1.7-3.8c0.2-0.7-1-1.9-1.6-1.9s-0.8-4.5-0.2-4.5
	c0.6,0-3.1-1.9-2.2-2.9c0.8-1,1.2-2.7,2.2-1.4c1,1.2,1.4,0.8,1.4,1.4c0,0.7,0.7-2.6-1.4-3.6c-2.1-1-6.2-2.1-6.2-3.6s0.5-3.6,1.4-3.4
	s-1.7-3.4,0.7-2.9c2.4,0.5,4.1,1.9,4.5,1.2c0.3-0.7-3.6-2.6-4.8-2.4c-1.2,0.2-3.8,2.3-2.2-0.2c1.6-2.5,2.4-2.5,2.9-2.5
	c0.5,0-0.2-2-0.8-2.8c-0.7-0.8-2.4-1.9-1.6-2.7c0.6-0.6,1.2-1.6,2.1-1.8c0.9-0.2,1.2-1.2,1-1.9c-0.5-1.2-0.4-1.6,1-1.5
	c1.4,0.2,2.2-2.2,3.6-1.6c1.4,0.6,2.9,1,3.2,2.4c0.3,1.4,0.7,3.1,1,4.3c0.3,1.2,0.5,2.6-0.5,3.4c-1,0.8-1.6,4.3-0.2,2.3
	c0,0,1.4-3.2,1.6-2.5c0.1,0.6,0.1,1.7,1,2.1c0.1-1,0.2-3.2-0.2-3.8c-0.5-1-1.7-5.5-1.7-7c0-1.6,0.6-4.9,0.6-4.9s0.3,1.2,0.3,4.2
	c0,3,5.2,24.3,5.8,26.4c-0.5-1.2-4-8.4-4-10c0,0-0.9,6.7,3.2,11.6c0.8,1,0.7,6.2,1,7c0.3,0.8,3,5.7,3,7.1s0.8,5.4,1.6,6.3
	c0,0,0.2-3.2-0.6-5.3c-0.8-2.1-1.2-3.4-1.2-3.4s-2.1-5.6-2-6.9c0.2-1.2,0-4,0-4s1.2,5.6,1.5,6.9c0.2,1,7.5,22.4,8.4,27.9
	c0.3,0.9,1.4,2.4,1.4,2.4s6.5,13.2,6.9,13.7c0.4,0.6,4.6,10.1,5,11.4c0.4,1.3,3.1,5.7,3.6,6.1L360.3,143.5z M368.2,152.7l2,0.8
	c0.2,0.3,1.3,2.1,1.8,2.7c0.5,0.6,0.4,2.4,0.6,3.2c0.2,1,1.6,3.2,0.7,3.8c-1,0.7-2.2-0.4-2.8,3.3c-0.8,5.3-0.7,9.3,0.3,14
	c1,4.6,9.4,22.9,9.8,23.8l2.1,7c0,0,1.9,5.4,2.1,6s-1.2-1.7-1.2-2s-4.4-12.6-4.4-12.6l-0.6-1.6l-2.6-5.5c0,0-1.7-3.6-2-4.6
	c-0.3-1-1.2-2.2-1.2-2.2s-4-9.4-3.9-10.5c0.1-1.2,0-7.3,0-7.3l1.4-10l0.9-3.6c0,0-1.2-2.3-1.8-2.7c-0.6-0.4-0.4,0.5-0.6,1.2
	c-0.2,0.8-2.1,6.9-2.1,7.4s-0.4,6.3-0.2,7.4c0.2,1.1-0.2-4.2-1.5-6.1c-0.2-0.3,0.4,5.8,1.1,6.9c0.5,0.9-0.4,1,0.1,1.7
	c0.4,0.8-3-8.6-2-10.3c1.4-2.4-0.2-5.4,1-6c1.2-0.8,1.1-3,1.6-2.7c0.6,0.2,1.2-0.8,1.3-1.2L368.2,152.7z M268.1,199.9
	c-0.1,0.1-0.1,0.1-0.1,0.2C268,200.3,268.1,200.2,268.1,199.9z"/>
</svg>
