<?xml version="1.0" encoding="utf-8"?>
<!-- Generator: Adobe Illustrator 18.0.0, SVG Export Plug-In . SVG Version: 6.00 Build 0)  -->
<!DOCTYPE svg PUBLIC "-//W3C//DTD SVG 1.1//EN" "http://www.w3.org/Graphics/SVG/1.1/DTD/svg11.dtd">
<svg version="1.1" id="Layer_1" xmlns="http://www.w3.org/2000/svg" xmlns:xlink="http://www.w3.org/1999/xlink" x="0px" y="0px"
	 viewBox="0 0 397.7 381.8" enable-background="new 0 0 397.7 381.8" xml:space="preserve">
<path fill="#FFFFFF" d="M160,71.1c0.1,0.4,0.2,0.9,0.1,1.2c-0.2,0.5-2.8,1.1-3.7,1.2c0,0,1.8-1.4,2.5-1.4
	C159.4,72,159.8,71.5,160,71.1z M160.1,70.6c-0.1,0.1-0.1,0.2-0.1,0.5C160.2,70.8,160.2,70.6,160.1,70.6z M367.9,146.1
	c-0.2-0.2-0.3-0.1-0.4,0c0.2,0.1,0.4,0.1,0.6,0.2C368,146.2,367.9,146.1,367.9,146.1z M289.1,272.3c-1-0.4-1.5-0.5-2.1-1.4
	s-1.1-0.3-0.2,0.3c1,0.6,2.5,2,3.4,2C290.3,273.2,290.4,272.8,289.1,272.3z M291.5,261.1c-1-0.5-1.1-0.9-0.9-0.1
	c0.1,0.4,0,1-0.2,1.6c0.1-0.1,0.1-0.3,0.2-0.5C291,261.2,292.5,261.6,291.5,261.1z M290.3,262.6c-0.1,0.2-0.1,0.4-0.2,0.5
	C290.2,263,290.3,262.8,290.3,262.6z M289,261c0.5-0.9-0.6-0.6-0.7-1.6c-0.1-1,0.6-1.7,0-1.6c-0.6,0-1.1-1-1.7-1
	c-0.6,0,0.2,2.5,0.8,3.1c0.6,0.6,0.2,1.6,0.9,2.9c0.8,1.4,1.9,5,2,5.8c0.1,0.9,1.2,0.6,1.1,0c-0.1-0.6-0.6-0.8-0.6-2.1
	c-0.1-1.3-0.1-1.4-0.5-2.3c-0.2-0.5-0.2-0.8-0.2-1.1c-0.1,0.4-0.3,0.7-0.4,0.8C289.4,264.3,288.8,261.5,289,261z M309.4,300.5
	c-0.8-0.6-1.4,0.1-0.8,1.2c0.6,1.1,0.6,1.4,1,1.4c0.4,0.1,0.2-1.4,1-1.5C311.6,301.6,310.2,301.1,309.4,300.5z M154,74.3
	c-0.8,0.2-4.9,4.5-4.9,4.5s-2.6,1.3-3.8,1.6c-1.2,0.3-5.8,4.1-6.8,4.4c-1,0.3-2.2,0.3-2.9-0.2c-0.7-0.5-2.3-1-2.3-1
	c0.7,0.6,1.9,1.9,1.9,1.9s2.8,0,3.8-0.6c1-0.6,4.3-3.3,5.5-3.7c1.2-0.4,2.9-1.1,3.7-1.3c0.7-0.2,5.6-4.5,5.6-4.9
	C154.1,74.6,154.8,74.1,154,74.3z M365,160.5c0,0.6,0,1.1,0.1,1.4C365.2,162.3,365.2,161.6,365,160.5z M368.8,152.3l-1.4,9.9
	c0,0,0.1,6.1,0,7.2c-0.1,1.1,4,10.4,4,10.4s0.9,1.4,1.1,2.2c0.2,0.9,2,4.5,2,4.5l2.5,5.4l0.6,1.6l3.3,8.4l-2.1-7
	c-0.5-1-8.8-19-9.8-23.6c-1-4.6-1.1-8.7-0.3-13.9c0.6-3.7,1.8-2.6,2.8-3.3c1-0.6-0.4-2.9-0.6-3.8c-0.2-0.8-0.1-2.6-0.6-3.2
	c-0.2-0.3-1.1-0.6-2.1-0.9c0.6,0.7,1.5,2.5,1.5,2.5L368.8,152.3z M364.6,162.7c-0.7-1.2-1.2-7.2-1.1-6.9c0.8,1.1,1.2,3.3,1.4,4.7
	c0-2.1,0.3-5.6,0.3-5.9c0-0.5,1.9-6.6,2.1-7.3c0.1-0.4,0.1-0.9,0.2-1.2c-1-0.3-1.9-0.6-2.2-0.7c-0.6-0.2,0.7,3-0.4,3.7
	c-1.1,0.7-0.8,2.6-2.2,5c-0.8,1.3,1.3,7.8,1.9,9.7C364.7,163.5,365,163.3,364.6,162.7z M130.3,80.2c-1-0.1-0.8-1.1-1.9-0.7
	c-1.1,0.4-3.7,0.6-3.7,0.6c1.4,0.1,4.3,1.4,5.5,2.3c1.2,0.9,1.8,0.9,2.5,0.4C133.3,82.3,131.2,80.3,130.3,80.2z M364.7,164.3
	c0.1,0.1,0-0.1-0.1-0.5C364.6,164,364.6,164.2,364.7,164.3z M359.8,336.3c-0.6,1-0.1,1.3,0.5,0.6
	C360.8,336.3,359.8,336.3,359.8,336.3z M266.9,190.9c-0.1,0.1-0.1,0.1-0.1,0.2C266.8,191.2,266.8,191.1,266.9,190.9z M224.3,88.9
	c0,0.1,0.1,0.2,0.2,0.3C224.6,89.4,224.5,89.3,224.3,88.9z M361.1,320.9c0.1,0,0.2-0.1,0.2-0.1C360.9,320.9,360.7,321,361.1,320.9z
	 M397.2,264.7c-0.8,11.3-1.6,14.7-1.6,15.4c0,0.6-0.8,9-1.3,10c-1,2-1.7,5.3-1.4,8.2c0.1,1.1-2.6,9-2.6,9.9s0.5,4.1-0.3,4.6
	c-0.8,0.5-4.3,3.2-4.8,4.4c-0.5,1.2-1.6,2.8-2.1,4.2s-2.4,2.5-2.4,3.3c0,0.8-0.2,1.3-0.5,1.9c-0.3,0.6-2.5,2.6-3.3,3
	s-1.5,0.7-2.7,2.4c-3.1,4.4-4.4-3.4-5.3-4.2c-1-0.8-1.6,5.1-2.9,5.8c-1.3,0.8-3.4-0.9-3.1-4.5c0.1-1.3,2.3-3.4,1.1-4.2
	c-1.3-0.8,3.5-5.4,2.3-5.6c-0.9-0.1-3.9,0.9-5,1.4c0.5-0.5-3.2-1.5-4.5-2.6c-1.4-1.1-2.3-2.6-4.1-3.8c-1.4-0.9-6.4-2.2-6.6-3.3
	c-0.2-1.1-1.4-2-2.4-2.5c-3.2-1.4-7.2-6.3-9.8-6.9c-2.5-0.6-5.1-0.5-5.2-1.1s-3.7-2.2-4-1.2c-0.3,1-0.6-1-2.5-1.4
	c-1.9-0.5-4.5-2.1-5.5-1.7c-1,0.5-1,0.4-2.3,0.2s-4.2,0.3-4.5-0.5c-0.3-0.8,2-2.1-0.1-2.1c-2.1,0-5.3-5.6-5-7.2
	c0.3-1.6-0.2-3.5,0.1-4.8c0.3-1.3-1.5-9.7-2-10.4c-0.5-0.8-0.6-0.8-3-0.8c-2.4,0-2.2,0.5-3.3-0.3c-1.1-0.8-1.6-2.4-0.6-2.9
	s1.3-0.6,1.9-1.3c0.6-0.6,0.8-1.9,1.4-1.9s1.8-2.4,1.8-3.2c0-0.8,3.2-3.7,4.1-3.7s-0.5-1.8-1.3-1.1c-0.8,0.6-4.6,3.7-4.6,4.5
	s-1.1,1.3-1,2.9c0.2,1.5-1.3,1.5-2.9,2.8c-1.4,1.1-3-1-2.2-2.5c0.8-1.4-0.2-3.4-0.7-5c-0.5-1.6-0.2-5.9,0.6-7.5
	c0.8-1.6,0.2-2.1,1-3.2c0.8-1.1-1-2.3-2.4-2.7c-1.4-0.5-2.4-1.8-0.8-2.2c1.6-0.5,2.8-0.5,3.6-0.6c0.8-0.2,3.3-1,3.1-2.2
	c-0.2-1.3-1.4-6.1-0.6-6.7c0.8-0.6-1.8-0.2-1.7,0.7c0.2,1-0.6,4.6-0.6,4.6s-0.8,1-1.8,1.6c-1,0.6-1.1,0.2-2.4-0.3
	c-1.3-0.5-1.6,0.3-2.1,1.4c-0.5,1.1-1.1,1.3-1,1.8c0.2,0.5-1-0.6-1.8-2.2c-0.8-1.6-1.3,0-1,0.5c0.3,0.5-1.6-0.2-2.1-1.4
	c-0.4-1.2-4.4-4.6-5.3-6c0.8,1.4,4.3,6.6,4.8,7.1c0.6,0.6,1.8,1.6,2,2.7c0.2,1.1,1.3,3.3,0.5,3.8s-1.4,0.6-2.8,0
	c-1.4-0.6-3,0.1-3.5-1.8s-3.3-5.7-4.3-6.6c-1-1-3-3.8-3.8-8c-0.8-4.3-2.6-5.6-3.5-6.4c-1-0.8-1.5-2.5-0.8-2.1
	c2.1,1.5,0.6-5.5-0.8-7.4c-1.4-1.9-3.2-1.4-4.2-3c-1-1.6,0.4-0.8,0.6-1.4c0.2-0.6-2.2-1.2-1.1-1.8c1.1-0.6,0.8-0.8,1.8,0.3
	c1,1.1,0.6-1.1,1.9-1.9c1.3-0.8,1.5-3.6,3-5.8c1.4-2.2,2.1-2.2,4.1-3.5c1.9-1.3,3.3-3.3,3.5-4.9c0.2-1.6,1.6-3.8,0-5.8
	c-1.6-2.1-2.4-3.5-3-2.7c-0.6,0.8-1.1-1.9-1.8-0.3c-0.6,1.6-1.6,3.2-0.2,4.3c1.4,1.1,0.6,1.1-0.8,1.3c-1.2,0.1-2,0.3-2.3,0.6
	c0.2-0.7,0.5-2.7,0.2-4.1c-0.3-1.9,1.5-2.1-1.3-4.3c-2.8-2.3-6.4-4.5-7.8-5.6c-0.6-0.5,1.6,3.7,1.6,3.7s-2.7,2.5-2.4,3
	c0.3,0.5-0.5,1.7,0.6,1.8c1.1,0.2,2.6,1.4,3.1,2.5c0.5,1.1,2,2.4,1.2,3.5c-0.8,1.1-0.6,3.6-0.3,4.7c0.3,1.1-0.3,1.7-2.3,1
	c-2.1-0.6-2.6-1.8-2.6-1.8s-0.2,3-0.2,3.7c0,0.6-0.5-3.8-1.6-5.4c-1.1-1.6-2-1.1-2.7-1.8s-2-4.1-0.9-5.7c1.1-1.6,4.2-9.9,3.7-11.7
	s-0.9-3.3-0.6-4.4c0.3-1.1,0.2-2.1,1.2-3c1-1,2.9-4.4,3-5.8s-0.1-2.8,0.7-3.5c0.8-0.6,1.1-3.7,1.9-5.1c0.8-1.4,2.1-1.8,1.9-3.8
	c-0.2-2.1,3.4-9.1,2.3-11.2c-1.1-2.1,1-1.9,0.6-3.2c-0.3-1.3-1.3-0.8-1.3-2.2c0-1.4,2.1-3,0.9-3.9c-1.3-1-1-0.4-1.8-1.8
	c-0.8-1.4-2.4-2.3-3.2-2.6c-0.8-0.3-1.5-0.3-2.3-2.1c-0.8-1.8,0.1-0.1-0.2-1.8c-0.3-1.8,0.3-1.4-0.5-3.2c-0.8-1.8,0.3-1.9-0.8-2.4
	c-1.1-0.5-0.3-1.9,0.3-3c0.6-1.1-0.4-0.8,0.4-1.8c0.8-1-2.3,1-0.8-2.4c0.5-1.2-1-1.1-2.1-0.7c-1.1,0.3-1.5,0.2-2.5,1.1
	c-1,1-1.2,1.5-2.2,0.8c-1.6-1-2.5,0.1-4.4,0.3c-1.9,0.2-2.9-0.3-3.4,0.8c-0.5,1.1-0.2-0.5,0.5-1.8c0.6-1.3-1.3,0-0.4-1.9
	c1-2-1-0.6-0.6-3.4c0.1-0.7-0.6-2-0.6-2.7c-0.1-2,0.4-1.5,1.2-2.6c0.8-1.1-0.7-3-0.2-3.8c0.5-0.8,1.9,0.4,2-1.8
	c0.2-2.2,1.2-3.1,2-4.1c0.8-1-2.6,1.8-2.6,3.2s-3.2,3.1-2.7,4.4c0.5,1.3-0.5,1.4-1.6,1.9c-1.1,0.5-1.3,2.4-1.6,3
	c-0.3,0.6-0.8,0.2-0.9-1.9c-0.1-1-0.6-3.7-1.6-4.8c-1-1.1-1.8-1.1-2.5-0.5c-0.8,0.6-1.7-0.9-3.1-0.7c-1.4,0.2-0.7,1.7-1.5,2
	c-0.8,0.3,0-2.8-1.2-3.6c-1.1-0.7-2.7-1.9-2.6-1.6c-0.4-0.6-1.1-1.9-1.3-3.2c-0.4-2.2-0.3-2.9,0.5-3.9c0.8-1-3.4-2.5-4-2.2
	c-0.6,0.3-1.4-2.3-2.2-2.6c-0.8-0.3-2.5-0.7-2.9-2.3c-0.3-1.6-2.1-4.2-3.1-4.4c-1-0.2-1-3-2.2-3.7c-1.3-0.6-0.5-0.2-1.4-1.3
	c-0.9-1.1-0.8-3.9-1.9-4.1c-1.1-0.2-1.5-1.8-2.6-2.4c-1.1-0.6-1.8-1.4-2.6-1.2c-0.8,0.2-1.6-0.6-2.7-0.5c-1.1,0.2-1.3-1.7-2.3-1.7
	c-1,0-1.4-0.8-1.4-1.9c0-1.1-1.9-2.1-1.4-3.1c0.5-1-1.4,1-2.5,1.4c-1.1,0.5-0.8-0.3-2.4,0.2c-1.6,0.5-1.9,0.7-2.9,0.2
	c-1-0.5-1.6-0.9-3.1-0.4c-1.4,0.5-1.2-2.5-3.5-1.3c-0.7,0.4-0.1,1.6-2.3,1.8c-0.7,0.1-1,0.5-0.9,1.5c0.2,1,0,1.1-0.2,1.9
	c-0.2,0.8,0.2,0.3-0.9-0.3c-1.1-0.6-1.4-2.2-1.8-1.1c-0.3,1.1,0,0.3-0.6,2.2c-0.6,1.9-2.5,0.3-1.9,1.8c0.6,1.4-1,1.6,0.3,2.2
	c1.3,0.6-0.6,0.6-1.8,0.6c-1.1,0-0.6-0.2-0.7-1.6s-1.6,0.7-1.6-0.7s-1.1-0.8-1,0c0.2,0.8-0.5,0.8-1,0c-0.5-0.8,0.5,0.8,0.5,0.8
	s0.2,0.3-1.1,0.5c-1.3,0.2-1.3,0.2-2.1-1.3s-1.3-1-2.1-1.9c-0.8-1-3.2-1.5-4-2.3c-0.8-0.8,2.4,2.8,2.4,2.8s0.9,1.4,1.5,1.7
	c0.6,0.3,2.6,1.8,2.6,1.8s-1.9-0.3-1.9,0.3c0,0.6,0,1.8-0.2,2.2c-1.6,3.6-2.9,0.2-3,0.6c-0.2,1.5-2.5,2.8-2.1,3
	c0.4,0.3,1.3-1.2,2.3-1.7c0.8-0.3,1.8,0.4,1.8,0.4S161,64,161,63c0-1-0.6-1.1,0.6-1c1.3,0.2,2.9,0.6,3,0c0.2-0.6,0.6-1.4,1.1-0.3
	c0.5,1.1,1.4,1.1,2.4,1.1c1,0,1.2,0.2,2,1.1c0.8,1,2.3,0.2,2.3,1c0,0.8,0,1.9,0,1.9s-0.6,0-1.9-0.5c-1.3-0.5-0.8-1-2.7-0.6
	c-1.9,0.3-1.8-0.2-3.8,0.2c-2.1,0.3-7.5,3.2-7.8,3.7c-0.3,0.5-4.8,2.9-5.4,3.8c-0.6,1-1,0.6-2.1,1c-1.1,0.3-4.9,1.4-4.9,2.4
	c0,1-1.4,0.5-1.3-0.5c0.2-1,0.3-1.1,1-1.8c0.6-0.6,1.4-1.4,1.4-1.4s-0.5-0.3-1-0.8s-1.4,0.3-1.8,1c-0.3,0.6-1.6-0.2-1.9-1
	c-0.3-0.8-0.5-0.8-1.8-1s-0.6-0.2-1-1.4c-0.3-1.3,0.7-0.2-0.1-1.5c-0.8-1.3-0.6-0.8-0.4-2.1c0.2-1.3-0.1-2.5-0.7-3.1
	c-3.5-4-3.6,0-2.3,3.4c0.5,1.3,1,1.8,0.5,2.2c-0.5,0.5,0,1.2-0.5,1.2c-0.5,0-0.2-1.1-1-1c-0.8,0.2-1.1-0.6-1.6-0.6s-0.3-2.2-0.8-0.8
	s0,0.9-1,1.7c-1,0.8-1.7,0.1-2.2,0.7c-0.5,0.6-2.2-1.4-1.8-0.5c0.5,1-0.6,2,0.8,2.3c1.4,0.3,0.5,1.5,1,1.7c0.5,0.2-1,2.8,1,2.3
	c1.9-0.5,1,0.3,2,0.3c1,0,2.6-0.6,1.9-1.5c-0.6-1,3.2,1.8,4,1.5c0.8-0.3,4.7,3.1-2,1.6c-1-0.2-11.3,1.8-12.2,2.1c-1,0.3-2.4,1-2.4,1
	s-3.5-0.2-3.8-12.1c0,0,0.6-0.5,1.1-0.8c0.5-0.3,1-2.9-0.2-3.7c-1.1-0.8-1.9-1.6-3.3-1.6s-0.7,0.4-2.5-1.8c-1.8-2.2-3-2.1-3.5-3.2
	c-0.5-1.1-4.8-1.9-10.2-5.6c-5.4-3.7-9.7-7.2-12.8-8.2c-3-1-13.2-5.6-24-6c-10.8-0.3-15.9-2.1-28.3,1.4c-12.4,3.5-16,2-16,2
	c-4.8,0.4-7.2,2.5-6.5-0.2c0.2-0.8,0.6-0.9,1.2-1.3c0.6-0.4,0.8-1,0.3-1s-1,0.2-1.5-0.6c-0.4-0.8,0.8-1.1,1.1-1.8
	c0.3-0.6,1.4-0.6,1.9-1c0.5-0.5,2-0.2,2.7-0.7c0.7-0.5,0.1-0.8-0.6-0.6c-0.7,0.2-0.6-1.1-1.4-1.8c-0.7-0.7-1.5-0.6-2.3-1.1
	c-0.8-0.5-1.5-2.2-1.5-1.5c0,0-0.4,0-1.6-0.7s0.8-0.3,0.8-0.3c0.8-1.4,3.6-5.4,3.2-6.4c-0.4-1-0.8-3-2.5-3.8c-1.8-0.8-4.3-2.5-4.9-4
	C4.4,13,2.3,11,1.5,9.9c-0.9-1.1-2.1-1.6,0-6C2.4,1.9,1.4,0,1.4,0h136.2c0,0-0.3,1.8,0.6,2.1c1,0.3,1.4,1.9,1.8,3
	c0.3,1.1,1.6,2.5,1.4,4.6s-1.2,4.6,0,5.3c1.3,0.6,0.8,1,2.5,1.6c1.8,0.6,138.7,10,138.7,10s-1.1,1.4,0,2.4s1.9,3,1.6,3.8
	c-0.3,0.8-0.8,3.8,0.1,4.6c0.9,0.8,1,1.3,1.8,1.3c0.8,0,3.5-0.5,4-0.2c0.5,0.3,2.4,0.3,2.5-1.8c0.2-2.1,0-4.9,1-7s1.6-3.7,0.6-5.6
	s-2.7-4-1.8-6.7c1-2.7,1.6-4.1,2.2-4.5c0.6-0.3,2.2-0.5,2.2-1.3c0-0.8,1.1-1.6,1.1-1.6l21.8,8.6c0,0,2.5,6.2,1.4,6.8
	c-1.1,0.6-2.4,0.5-2.4,1.3s-1-4.8-1.9-5.6c-1-0.8,0.5,3.3,0.3,4.6c-0.2,1.3-1-0.8-1.6-1.4c-0.6-0.6-1.1,1.1-0.8,1.6
	c0.3,0.5-1.9-2.5-3.3-3.8c-1.4-1.3,2.4,3.5,1.6,3.7c-0.8,0.2-5.1-2.7-5.4-3.7c-0.3-1-0.8,1.1-2.1,0c-1.3-1.1,3.3,4.5,2.2,5.6
	c-0.9,1,2.7-1,5.9-0.2c0.6,0.1,2.5-0.6,3.2,0.3s-1.1,1.8,0.5,1.8c1.6,0,4.2,0,4.1,0.6c-0.1,0.6,1.9,0.3,1-1.1
	c-1-1.4,1.6,0.8,0.3,3.8c-1.4,3,0.1,0.2-1.2,0.2c-1.3,0-1.8,0.5-2.4,1.4c-0.6,1-2.1-0.3-2.7-1.1c-0.6-0.8,0,1.3-0.2,2.1
	c-0.2,0.8-1.3,0.3-2.1,0.8c-0.8,0.5-0.6,0.2-0.2,1.6c0.5,1.4-0.8,2.7-2.2,3.7c-1.4,1-2.8,1.8-0.5,4.1c1.4,1.3,0.8,1.4,0.2,2.5
	c-0.6,1,0.2,3.6-1,3.4c-1.1-0.2-4,0.8-3.7,1.6c0.3,0.8,3.2-1.1,3.7,0c0.5,1.1,1,3,0,3.7c-1,0.6-1-1.9-2.7-1.4c-1.8,0.5-1.6-1-3-0.2
	c-1.4,0.8,2.1,0,3.7,1.7c1.6,1.6,1.6,4.2,3.7,4.2c2.1,0,4.5,1,3.5,1.9s-3.6,0.9-2.8,2c0.8,1.1,3.1,8.2,4.2,8.4
	c1.1,0.2,1.3,1.9,0.5,3c-0.8,1.1-1,1.8-2.9,1.8c-1.9,0-3-1.7-3.5,0s0.6,0.6,1.9,1.2c1.3,0.6,1.1,0.8,0.5,1.1
	c-0.6,0.3,0.6,1.3,1.6,2.1s1.8,2.4-0.3,2.1c-2.1-0.3-3.7-1-4.1,0s-2.2,1.7-1.1,2.7c1.1,1,2.9,3,0.8,3.3c-2.1,0.3-3.8,1-4,1.5
	c-0.2,0.5,2.4-0.6,3.2,0.6c0.8,1.1,3,1.3,3.2,2.5c0.2,1.3-2.5,0.2-2.1,1.3c0.5,1.1,1.9,1.6,1.4,2.4c-0.5,0.8-1,1.4-1,1.4
	s-2.9-0.8-2.1,0c0.8,0.8,3.5,2.2,3.5,2.2s1.9,2.1,1.8,3.3c-0.2,1.3-1.1,3,0.5,3.2c1.6,0.2,1.6,1,2.7,1c1.1,0,1.6-0.3,2.1,1
	c0.5,1.3,0,2.4,0.5,3.3s4.6,3.7,5.7,4.5c1.1,0.8,2.1,2.5,1,2.9c-1.1,0.5-0.7,1.7-0.2,5.6c0.2,1.3,0.7,2.9,1.9,2.9
	c1.1,0-0.2-1.3,0-3.2c0.2-1.9,1.3-5.7,1.3-5.7s-1.4-2.5-2.4-3c-1-0.5,0.3-1,0.5-1.9c0.2-1,1.4-4.8-0.6-4.6c-2.1,0.2-3.7,0.3-4.6,1.1
	c-1,0.8-3.3-3.7-3.5-4.3c-0.2-0.6,1.6-2.1,1.6-2.9c0-0.8-1.1-0.2-1.6-1c-0.5-0.8,1.9-2.4,1.9-2.4l-2.7-1.6c0,0-2.5-4-3.8-3.2
	c-1.3,0.8-2.5-0.3-1.4-1c1.1-0.6,0.2-3.7-0.5-4c-0.6-0.3-0.5-4.9-1.1-5.3c-0.6-0.3-1-1.9,1-1.8c1.9,0.2,3.2,0,4.1,1.1
	c1,1.1,1.4,1.6,1.3,2.9c-0.2,1.3,0.3,2.2,1.3,2.4s2.1,1.3,2.1,2.5c0,1.3,0.1,4.8,2,4.6c1.9-0.2,4.3-0.8,3.5-2.4
	c-0.8-1.6-1.4-2.7-2.5-2.7c-1.1,0-1.8-0.8-1.8-1.6s-1.4-2.5-2.2-3.3c-0.8-0.8-1.6-1.4-2.1-2.5c-0.5-1.1-0.6-1.8-1.1-1.6
	c-0.5,0.2,0.8-2.2,0-2.9c-0.8-0.6-3.8-2.4-2.1-2.7c1.8-0.3,2.5-2,3.3-1.4c0.8,0.6,0.8-4.2,1.4-3.2c0.6,1,2.1,3.1,2.5,3.2
	c0.5,0.1-0.8-2.8-0.6-3.5c0.2-0.6-2.1-2.3-2.7-2.3c-0.6,0-0.8-4.5-0.2-4.5s-3-1.9-2.2-2.9c0.8-1,1.2-2.7,2.2-1.4
	c1,1.3,1.5,0.8,1.5,1.4c0,0.6,0.6-2.5-1.4-3.5c-2.1-1-6.2-2.1-6.2-3.5c0-1.4,0.5-3.5,1.4-3.3c1,0.2-1.8-3.3,0.6-2.9
	c2.4,0.5,4.1,1.9,4.5,1.3c0.3-0.6-3.7-2.5-4.8-2.4c-1.1,0.2-3.8,2.3-2.2-0.2c1.6-2.5,2.4-2.5,2.9-2.5s-0.2-2-0.8-2.8
	c-0.6-0.8-2.4-1.9-1.6-2.7c0.6-0.6,1.2-1.6,2.1-1.8c0.8-0.2,1.2-1.1,0.9-1.9c-0.4-1.2-0.4-1.7,1-1.5c1.4,0.2,2.2-2.2,3.7-1.6
	c1.4,0.6,2.9,1,3.2,2.4c0.3,1.4,0.6,3,1,4.3c0.3,1.3,0.5,2.5-0.5,3.3c-1,0.8-1.6,4.3-0.2,2.3c0,0,1.4-3.1,1.6-2.5
	c0.1,0.5,0.1,1.7,0.9,2.1c0.1-1,0.2-3.1-0.1-3.8c-0.5-1-1.8-5.4-1.8-7c0-1.6,0.6-4.8,0.6-4.8s0.3,1.2,0.3,4.2
	c0,2.9,5.1,24.2,5.7,26.3c-0.5-1.2-4-8.4-4-10c0,0-0.9,6.7,3.1,11.5c0.8,1,0.7,6.2,1,7c0.3,0.8,3,5.7,3,7c0,1.4,0.8,5.4,1.6,6.3
	c0,0,0.2-3.2-0.6-5.3c-0.8-2.1-1.3-3.3-1.3-3.3s-2.1-5.6-2-6.8c0.2-1.3,0-4,0-4s1.2,5.5,1.5,6.9c0.2,1,7.5,22.2,8.4,27.8
	c0.3,0.9,1.5,2.4,1.5,2.4s6.5,13.1,6.9,13.7c0.4,0.6,4.5,10,4.9,11.4c0.4,1.4,3,5.6,3.5,6.1l-0.1,1.4c-1.3-0.9-6.2-8.1-6.2-8.1
	l3.8,12.7c0,0,2,6.4,2,7.6c0,1.3,0.9,3.8,1.3,4.2c0.4,0.4,0.8,3.5,0.9,4.6c0.1,1.1,1.1,3.3,1.5,3.9c0.4,0.6,3.9,8,4.1,8.8
	c0.2,0.7,3.9,12.1,6.2,16.5c2.3,4.4,5.1,10.7,5.1,10.7s4,13,4.5,14.9c0.5,1.8,1.9,5.4,2.4,6c0.5,0.6,2.5,5.7,3.1,6.4
	c0.6,0.6,0.9,2.9,0.8,3.3c-0.1,0.3,5.5,10.6,5.5,10.6s2.5,6.6,2.5,7.2C395.9,246,398,253.4,397.2,264.7z M88.4,35
	c-0.2-0.7-3.9-0.5-5-0.4c-1.1,0.2-2.5-0.2-3.6-0.2c-1.1,0.1-3.7-0.5-3.1-1.1c0.6-0.6,1.9-1.7,1.6-2.3c-0.3-0.6-2.3,2.7-3.1,2.2
	c-0.8-0.5,0.1-3.6,0.6-4.8c-0.4,0.7-2,3.8-2.8,3.6c-0.6-0.1,0.1-0.5,0.1-0.8c0.8-0.6-0.4-2.8-0.8-2c-0.2,0.5-0.2,2.1-0.2,2.3
	c-0.3,0.2-0.7,0.3-1.2,0.2c-2.1-0.3-3.9-0.2-4.5,0.6c-0.6,0.7-0.7,1.6-2,0.9c-1.3-0.7-3.5-1.4-2.1-2.3c1.4-0.9,1.2-1.9,1.8-1.4
	c0.6,0.5-0.2-0.7-1.5,0c-1.3,0.7-1.3,1.8-1.8,1.4c-0.2-0.1-0.4-0.4-0.5-0.7c-0.2-0.6-0.4-1.2-0.4-1.2s0.1,0.6,0.4,1.2
	c0.2,0.6-0.7,0.5-0.9,0.9c-0.5,0.7,0.7,1.8-0.5,1.9c-1.3,0.2-1,1.4-2.5,0.9c-1.5-0.6-2.2,0.8-1.9-0.7c0.3-1.5,0.7-1.8,0.7-1.8
	s-2.5,2.1-1.7,2.9c0.8,0.8,0.4,1-0.4,1.1c-0.8,0.1-11.5,0.2-13.2,0.6c-1.8,0.4-8.9,0.9-12.8,2.2c-3.9,1.4-5.3,0.8-4.4,0.2
	c0.9-0.6,1.8,0.2,2.7-0.5c1-0.6,2.3-1.8,3.3-1.8c1,0,2.9,0,3.7-0.4c0.8-0.4,1.1-1.3,2.2-1.4c1.1-0.1,3.3-0.3,4.2-0.3
	c1,0,3,0,3.5,0.1c0.6,0.1-7.4-1.7-8.2-2.5c-0.8-0.9-1-1.2-1.6-1.5c-0.6-0.3-1.1-0.1,0.1-1c1.2-1,1.4-0.8,2.3-0.8
	c0.9,0,3.2-2.5,3.6-2.9c0.4-0.4-1.6,0-1.7-0.3c-0.2-0.3-1.2,0.8-1.2,0.8s-1.5,0.3-2.1,0.6c0.3-0.4,0.6-1.1,0.1-1.5
	c-0.8-0.6-1.4-0.7-1.7-1.8c-0.3-1-0.9-1,0.2-1.4c1.1-0.3,2.9-1.8,2.9-2.4c0-0.6-0.7,1.2-2.6,1.5S31,23.7,32,24.7c1,1,0.9,2,0.2,2.2
	c-0.6,0.2-1.4,0.2-1.4,1c0.1,0.7-0.5,1.5-0.6,2.7c-0.1,1.2-0.7,1.3-1,1.8c-0.3,0.6-0.7,1.7-1.1,0.8c-0.4-0.9,0.6-1.2,0.6-2
	c0-0.8,0-1.7,0.1-2.4c0.2-0.7-1.6-0.4-2.5-1.5c-0.9-1.1,0.3-1-1.2-1.7c-1.5-0.7-0.7-0.6-2.1-1c-1.4-0.4-0.8-0.9-1.7-2.1
	c-0.9-1.2-2.8-2.9-2.8-2.9c0,1.8,1.8,6.2,3.3,7.2c1.5,1,3.2,3.1,2.9,4.4c-0.3,1.3,0.6,2.5-0.5,3.3c-1.1,0.8-1.8,0.4-2.5,1.1
	s-1.4,0.4-1.9,1c-0.6,0.6-3,0.7-3.5,1.2c-0.6,0.5,2.9-1,3.1,0c0.2,1-0.8,2-1.7,1.9c-0.9-0.1-4.3,0.8-4.7,1.1
	c-0.4,0.3-0.9,0.7-0.9,0.7s4.4-0.8,5.6-0.4c1.2,0.4,7.9-0.8,9.8-1.5c1.9-0.7,15.4-2.9,18.4-3c2.9-0.2,5.2-0.6,5.6-0.3
	c0.4,0.2,7.3-0.1,7.3-0.1s4.1-0.2,4.7,0.1c0.6,0.3,3.6,1,4.4,0.8c0.8-0.2-0.6-3.3,0.9-2.3c1.4,1,3.7,2.2,4.1,1.9
	c0.4-0.4-1.1-2.7,0-2.3c1.1,0.5,2.1,1.3,2.9,2.3c0.8,0.9,1.7,2.2,2.9,0.9c0.2,0.5,1.2,0.5,1,0c-0.1-0.2,1.4,0,1.1-0.1
	c-0.1-0.4,1.5-1.1,2.3-0.4c0.8,0.6,4.1,0.8,4.6,0.2C88.2,36.6,88.6,35.7,88.4,35z M118.2,60.1c0,0-0.8-2.1-0.9-3
	c-0.1-1-1.2,0.2-2.2-0.2s0.3-1,0.9-1.5c0.6-0.6-0.3-2.2-0.1-1.4c0.2,0.8,0,0.9-1.1,1.5c-1.1,0.6-0.4,2.9-1,3c-0.6,0.2-0.8-0.2-1.7-1
	c-0.9-0.7,0.2-1.9,0-2.9c-0.2-1-0.9-0.1-1.8,0c-1,0.1,1.8-2.6,1.8-2.6s-0.8,0.4-1.7,1c-0.9,0.6-0.6,0.3-1.4-0.3
	c-0.7-0.6-0.8,0.1-1.7,0.6c-0.9,0.6-1-0.2-1-1c0-0.8-0.6-0.2-1.3-0.5c-0.6-0.3-0.6,0.3-1.1,0.7c-0.6,0.4-1.3-0.1-1.5-0.5
	c-0.2-0.4-0.5-0.4-0.9-1.4c-0.4-1-2.4-1.2-2.4-1.2s0.8-0.6,1.3-1c0.5-0.5,1.1-1.3,1.7-2.3c0.6-1,0.6-0.2,1.3-0.7s1.6,0.2,1.5-0.3
	c-0.1-0.5,1.3,0.4,1.3,0.1c0-0.3,0.4-1,1-1.8c0.6-0.7,1.7,1,1.4,0.5c-0.2-0.5-1.4-1-1.5-2.2c0-0.7,0.5-1,1-1.1
	c0.8-0.1,0.8-0.1,0.8-0.1s-0.4,0-0.8,0.1c-0.2,0-0.4,0-0.6,0.1c-1.4,0.2-1.4,1.4-1.5,2.6c-0.2,1.3-0.7,0.8-1.4,0.7
	c-0.7-0.1-0.8-1.3-1.1-0.6c-0.3,0.6,0,0-0.7,1c-0.7,1-1.2,0.1-2.1,0.9c-1,0.8-0.7,1.1-0.7,0.6c0-0.6-0.2-1.8-1.4-3.1
	c-1.1-1.3-1-2.6-1.1-1.8c-0.1,0.8,0.2,1.7-0.5,1.8c-0.6,0.2-1.8-1.5-1.5-1c0.3,0.5-0.1,1.1-1,1.4c-0.9,0.3-1.4,0.2-2.3,1.4
	c-0.9,1.3,1.7,2.8,2.5,3.3c0,0,0.1-0.8,0.6-1s0.6-0.2,1.3-0.2c0.7,0,0,0.5,0.2,1.3c0.2,0.8,2.2-0.9,1.6,0.6
	c-0.6,1.4,0.4,2.1,1.2,2.4c0.8,0.2,0.6,0.6,0.6,1.3c0,0.6-2.9-1.3-2.9-1.3s1.3,1.1,1.8,1.8c0.5,0.7,4.1,1.8,3.5,1.6
	c-0.6-0.2-0.9-1.4-0.5-1.5c0.4-0.2,1,0.7,1.3,0.6c0.3-0.1,1.1-0.2,1.8,0.8c0.6,1,0.4,0,1.7,0.6c0.9,0.4,1.6,2.2,2.3,2.1
	c1,0,0.5,0.2,1.4,0.4c0.9,0.2,1,1,1.6,2c0.6,1,1.2,0.5,2.1,0.5s1,0.6,1.2-0.2c0.2-0.8,0.4,0.1,0.8-0.6
	C116.8,58.1,118.2,60.1,118.2,60.1z M121.9,71.4c-0.6-0.6-0.9-0.7-1.4-1.3c-0.5-0.6-2.1-3.9-2.1-3.9c-0.1,1.3-1.2,1.9-1.4,3
	c-0.2,1.1-0.5,10.3,2.4,10.3c0.9,0,2,0,2,0s0-5.3,0.4-5.9C122.2,73,122.5,71.9,121.9,71.4z M331.1,131.2c0.9,0.4,1,0.2,1.9,0.7
	c0.9,0.5,1.4,0.5,1.9,0.4c0.6-0.1,1-0.6,0.7-1.4c-0.3-0.9-0.6-1.8-1.1-1.8s-0.5,0-0.5,0c-1-0.2-2.1-1-2.5,0
	C331,130,330.2,130.8,331.1,131.2z M337,130.4c0,0,0.5,4.4,0,5.1c-0.5,0.7-0.9,0.6-1.9,0.9c-1.1,0.2-1,0.4-2.5,0.7
	c-1.5,0.3-0.6,0.6,0,0.8c0.6,0.2,0.9,0.6,2.2,0.7c1.4,0.2,1.2-0.4,2.2-0.9c1-0.5,1.4-0.4,2-1C339.6,136.1,337.7,131.8,337,130.4z
	 M345.3,133.7c-0.4,0.1-1.5-0.6-1.7,0c-0.2,0.6-1,1.1-0.6,1.8c0.3,0.7-0.2,1.2,0.6,1.4c0.8,0.2,1.5,0.7,1.7,0c0.2-0.7-0.6-1.5,0-2.1
	C345.9,134.4,345.3,133.7,345.3,133.7z M348.1,142.9c0-0.6-1-2.5-1.2-2.8c-0.2-0.3-0.5-1.1-0.8-1.4c0,0-0.4,2,0,1.9
	C346.5,140.5,348.1,143.5,348.1,142.9z M382,300.1c0,0-1.4-1.9-1.9-2.7c-0.5-0.8-1.8-2.2-1.8-2.2l-0.6,2.2c-0.2,1.9-3.5,8.4-3.5,9.5
	c0,1.1-2.1,5.4-1.6,5.4s2.5,2.9,2.5,2.9s1.8-2.1,3.4-3.8c1.6-1.8,1.6-2.5,1.6-4.1c0-1.6-0.8-3.5,0-4.5
	C380.9,301.9,382,300.1,382,300.1z M331.2,62.7c0,0.1,0,0.1,0,0.2C331.3,62.9,331.2,62.9,331.2,62.7z M374.8,352.7
	c-1,0.2,0.5,1.6,0.8,0.8C375.9,352.7,374.8,352.7,374.8,352.7z M361.5,335.8c-0.2,0.6,0.1,1.7,0.6,1.1S361.5,335.8,361.5,335.8z
	 M345.2,370.9c-1,0.2,0.5,1.6,0.8,0.8C346.3,370.9,345.2,370.9,345.2,370.9z M343.3,372.8c-1,0.2,0.5,1.6,0.8,0.8
	C344.4,372.8,343.3,372.8,343.3,372.8z M327.6,374.7c-0.6,0.1-1.5,0.4-2,0.6c-0.5,0.2-0.2,1.7,0.3,1.2c0.5-0.6,0.8-1.5,1.6-1.2
	c0.8,0.3,1.6-0.9,1.6,0c0,0.9-0.4,1.7,0.2,1.4c0.6-0.2,1.4-1.3,0.6-2C329,374,328.2,374.6,327.6,374.7z M372,354.6
	c-1,0.2,0.5,1.6,0.8,0.8C373,354.6,372,354.6,372,354.6z M363.4,362.3c-1,0.2,0.5,1.6,0.8,0.8C364.4,362.3,363.4,362.3,363.4,362.3z
	"/>
</svg>
