<?xml version="1.0" encoding="utf-8"?>
<!-- Generator: Adobe Illustrator 18.0.0, SVG Export Plug-In . SVG Version: 6.00 Build 0)  -->
<!DOCTYPE svg PUBLIC "-//W3C//DTD SVG 1.1//EN" "http://www.w3.org/Graphics/SVG/1.1/DTD/svg11.dtd">
<svg version="1.1" id="state" xmlns="http://www.w3.org/2000/svg" xmlns:xlink="http://www.w3.org/1999/xlink" x="0px" y="0px"
	 viewBox="0 0 400 400" enable-background="new 0 0 400 400" xml:space="preserve">
<path fill="#69C8C9" d="M376.7,362.7c-1.1,0.2,0.5,1.6,0.8,0.8C377.7,362.7,376.7,362.7,376.7,362.7z M311.4,310.9
	c-1.1,0.2,0.5,1.6,0.8,0.8C312.4,310.9,311.4,310.9,311.4,310.9z M128.8,87.9c-1.2,0.4-3.7,0.6-3.7,0.6c1.4,0.1,4.6,1.2,5.6,2.3
	C131.4,91.9,129.9,87.5,128.8,87.9z M160.7,79c-0.1,0.1-0.1,0.2-0.1,0.5C160.8,79.2,160.8,78.9,160.7,79z M290.4,270.5
	c0.5-0.9-0.6-0.7-0.7-1.6c-0.1-1,0.7-1.6,0-1.6s-1.2-1-1.7-1c-0.6,0,0.2,2.5,0.8,3.2c0.6,0.7,0.9,1.4,0.9,2.9c0,1.4,0.3,2.3,0.9,3.1
	c0.6,0.8,1.7,2,1.6,0.8c-0.1-1.2-0.1-1.3-0.5-2.3c-0.4-1-0.2-1.2,0.2-2.1s1.9-0.6,0.9-1.1c-1.1-0.5-1.1-0.9-0.9-0.1
	c0.2,0.8-0.5,2.6-0.8,3C290.8,273.8,290.2,271,290.4,270.5z M332.8,71.1c0,0.1,0,0.1,0.1,0.2C332.9,71.2,332.8,71.2,332.8,71.1z
	 M117.7,65.4c-0.1-1-1.2,0.2-2.2-0.2c-1.1-0.4,0.3-1,0.9-1.5c0.6-0.6-0.3-2.2-0.1-1.4c0.2,0.8,0,0.9-1.1,1.5
	c-1.1,0.7-0.4,2.9-1.1,3.1s-0.8-0.2-1.7-1c-0.9-0.8,0.2-1.9,0-3c-0.2-1.1-0.9-0.1-1.8,0c-1,0.1,1.8-2.7,1.8-2.7s-0.8,0.4-1.7,1
	c-0.9,0.6-0.7,0.3-1.3-0.3c-0.8-0.7-0.8,0.1-1.7,0.7c-0.9,0.6-1-0.2-1-1.1s-0.7-0.2-1.2-0.5c-0.7-0.3-0.6,0.3-1.2,0.8
	c-0.6,0.5-1.2-0.1-1.5-0.5c-0.3-0.4-0.5-0.4-0.9-1.4s-2.4-1.2-2.4-1.2s0.8-0.6,1.3-1.1c0.5-0.5,1.1-1.2,1.7-2.3
	c0.7-1.1,0.6-0.2,1.2-0.8c0.7-0.6,1.6,0.2,1.5-0.3s1.2,0.4,1.2,0.1c0-0.3,0.4-1.1,1-1.7c0.6-0.8,1.7,1,1.4,0.5
	c-0.2-0.5-1.4-1-1.5-2.2c0-0.7,0.5-1,1.1-1.2c0.8-0.1,0.9-0.1,0.9-0.1s-0.4,0-0.9,0.1c-0.2,0-0.4,0-0.6,0.1
	c-1.4,0.2-1.3,1.3-1.5,2.6c-0.2,1.2-0.8,0.8-1.4,0.8c-0.8-0.1-0.8-1.2-1.2-0.7c-0.3,0.7,0,0-0.8,1.1s-1.2,0.1-2.1,0.9
	c-1,0.8-0.8,1.2-0.8,0.6s-0.2-1.8-1.3-3.1c-1.2-1.2-1.1-2.7-1.2-1.8c-0.1,0.8,0.2,1.7-0.5,1.8c-0.7,0.2-1.8-1.5-1.5-1.1
	c0.3,0.5-0.1,1.2-1,1.4c-0.9,0.3-1.4,0.2-2.3,1.4c-0.9,1.2,1.7,2.8,2.5,3.3c0,0,0.1-0.8,0.6-1.1c0.5-0.3,0.6-0.2,1.2-0.2
	s0,0.5,0.2,1.2c0.2,0.8,2.2-0.9,1.6,0.6s0.4,2.1,1.2,2.4c0.8,0.2,0.7,0.7,0.7,1.2s-3-1.2-3-1.2s1.2,1.2,1.7,1.8s4.1,1.8,3.6,1.6
	c-0.7-0.2-0.9-1.3-0.5-1.5c0.4-0.2,1,0.8,1.2,0.7c0.3-0.1,1.2-0.2,1.7,0.8c0.7,1,0.4,0,1.7,0.7c0.9,0.4,1.6,2.2,2.3,2.1
	c1,0,0.5,0.2,1.3,0.4c0.9,0.2,1.1,1.1,1.6,2c0.6,1,1.2,0.5,2.1,0.5c1,0,1.1,0.6,1.2-0.2c0.2-0.8,0.4,0.1,0.8-0.7
	c0.4-0.8,1.8,1.3,1.8,1.3S117.8,66.3,117.7,65.4z M332.7,139.9c0.9,0.4,1.1,0.2,1.9,0.8c0.9,0.5,1.3,0.5,1.9,0.4
	c0.6-0.1,1.1-0.6,0.8-1.4s-0.7-1.8-1.2-1.8c-0.5,0-0.5,0-0.5,0c-1.1-0.2-2.1-1-2.6,0C332.6,138.7,331.7,139.5,332.7,139.9z
	 M338.6,139.1c0,0,0.5,4.4,0,5.2s-0.9,0.7-1.9,0.9s-1.1,0.4-2.5,0.8c-1.4,0.4-0.6,0.7,0,0.8c0.6,0.2,0.9,0.6,2.2,0.8
	s1.2-0.4,2.2-0.9s0.8-1.2,1.2-1.7C340.5,144.1,339.3,140.6,338.6,139.1z M347,143.6c0.7-0.6,0-1.2,0-1.2c-0.4,0.1-1.5-0.7-1.7,0
	s-1,1.2-0.7,1.8c0.3,0.8-0.2,1.2,0.7,1.4c0.8,0.2,1.5,0.8,1.7,0C347.1,145.1,346.3,144.2,347,143.6z M348.9,150
	c0-0.6-0.2-0.8-0.3-1.2c-0.2-0.3-0.5-1.2-0.8-1.4c0,0-0.4,2,0,1.9C348.2,149.3,348.9,150.6,348.9,150z M352.8,154.8
	c0-0.6-0.2-0.8-0.3-1.2c-0.2-0.3-3.1-1.3-3.5-1.6c0,0,2.2,2.2,2.6,2.1C352,154.1,352.8,155.4,352.8,154.8z M16.3,49.4
	c-4.8,0.4-8.9,3.6-6.5-0.2c0.5-0.7,0.6-0.9,1.2-1.2c0.7-0.4,0.8-1.1,0.3-1.1s-1.1,0.2-1.4-0.6c-0.4-0.8,0.9-1.2,1.2-1.7
	c0.3-0.7,1.3-0.6,1.9-1.1c0.6-0.5,2-0.2,2.7-0.8c0.7-0.6,0.1-0.8-0.7-0.6c-0.8,0.2-0.7-1.2-1.3-1.8c-0.7-0.7-1.4-0.7-2.3-1.2
	c-0.8-0.5-1.4-2.2-1.5-1.5c0,0-0.4,0-1.6-0.8c-1.2-0.8,1-0.2,1-0.2c0.8-1.4,3.6-5.5,3.2-6.4s-0.8-3.1-2.5-3.8c-1.7-0.8-4.3-2.6-5-4
	C4.1,21,2,18.9,1.2,17.9c-0.9-1.1-2.1-1.6,0-6C2,9.9,1.1,8,1.1,8h137c0,0-0.3,1.7,0.7,2.1s1.4,1.9,1.7,3.1c0.3,1.2,1.6,2.6,1.4,4.6
	c-0.2,2-1.2,4.6,0,5.3c1.2,0.7,0.8,1,2.6,1.6C146.2,25.3,284,34.8,284,34.8s-1.2,1.4,0,2.4c1.2,1,1.9,3.1,1.6,3.8
	c-0.3,0.8-0.9,3.8,0.1,4.6c0.9,0.8,1.1,1.2,1.8,1.2c0.8,0,3.6-0.5,4-0.2s2.4,0.3,2.6-1.7c0.2-2.1,0-5,1-7c1-2,1.6-3.6,0.7-5.6
	c-1-1.9-2.7-4-1.7-6.7c1-2.7,1.6-4.1,2.2-4.5c0.6-0.4,2.2-0.5,2.2-1.2s1.2-1.6,1.2-1.6l21.9,8.6c0,0,2.6,6.2,1.4,6.9
	c-1.2,0.7-2.4,0.5-2.4,1.2c0,0.8-1-4.8-1.9-5.6c-1-0.8,0.5,3.4,0.3,4.6s-1-0.8-1.6-1.4s-1.2,1.2-0.8,1.6c0.3,0.5-1.9-2.6-3.4-3.8
	c-1.4-1.2,2.4,3.6,1.6,3.6c-0.8,0.1-5.1-2.7-5.5-3.6c-0.3-1-0.8,1.2-2.1,0c-1.2-1.2,3.4,4.5,2.2,5.7c-1,1,2.7-1,6-0.3
	c0.7,0.2,2.6-0.7,3.2,0.3c0.6,1-1.2,1.7,0.5,1.7c1.6,0,4.2,0,4.1,0.7c-0.1,0.7,1.9,0.3,1-1.2c-1-1.4,1.6,0.8,0.3,3.8
	c-1.3,3.1,0.1,0.2-1.2,0.2c-1.2,0-1.7,0.5-2.4,1.4c-0.7,1-2.1-0.3-2.7-1.2c-0.6-0.9,0,1.2-0.2,2.1c-0.2,0.8-1.2,0.3-2.1,0.8
	c-0.8,0.5-0.7,0.2-0.2,1.6s-0.8,2.7-2.2,3.6c-1.4,1-5.2,2-2.9,4.3c1.3,1.3,4.1,0.1,3.6,1.2c-0.7,1.1-0.8,4.8-1.9,4.6
	c-1.2-0.2-4,0.8-3.6,1.6c0.3,0.8,3.2-1.2,3.6,0s1,3.1,0,3.6c-1,0.6-1-1.9-2.7-1.4c-1.7,0.5-1.6-1-3.1-0.2c-1.4,0.8,2.1,0,3.6,1.7
	c1.6,1.6,1.6,4.2,3.6,4.2s4.5,1,3.6,1.9c-1,1-3.6,0.9-2.8,2c0.8,1.2,3.2,8.3,4.2,8.4c1.2,0.2,1.2,1.9,0.5,3.1
	c-0.8,1.2-1,1.8-2.9,1.8c-1.9,0-3.1-1.7-3.6,0s0.7,0.6,1.9,1.2c1.2,0.7,1.2,0.8,0.5,1.2c-0.7,0.3,0.7,1.2,1.6,2.1
	c1,0.9,1.7,2.4-0.3,2.1c-2.1-0.3-3.6-1.1-4.1,0c-0.5,1.1-2.2,1.7-1.2,2.7c1.2,1,2.9,3.1,0.8,3.4c-2.1,0.3-3.8,1.1-4,1.5
	c-0.2,0.5,2.4-0.6,3.3,0.6c0.8,1.2,3.1,1.2,3.2,2.6c0.2,1.2-2.6,0.2-2.1,1.2c0.5,1.2,1.9,1.6,1.4,2.4c-0.5,0.8-1,1.4-1,1.4
	s-2.9-0.8-2.1,0c0.8,0.8,3.6,2.2,3.6,2.2s1.9,2.1,1.7,3.4c-0.2,1.2-1.2,3.1,0.5,3.2c1.6,0.2,1.6,1,2.7,1c1.2,0,1.6-0.3,2.1,1
	c0.5,1.2,0,2.4,0.5,3.4c0.5,1,4.6,3.6,5.8,4.5c1.2,0.8,2.1,2.5,1.1,3c-1.2,0.5-0.7,1.7-0.2,5.7c0.2,1.2,0.8,2.9,1.9,2.9
	s-0.2-1.2,0-3.2s1.3-5.8,1.3-5.8s-1.4-2.6-2.4-3.1c-1-0.5,0.3-1,0.5-1.9s1.4-4.8-0.7-4.6c-2.1,0.2-3.6,0.3-4.6,1.2
	c-1,0.8-3.4-3.6-3.6-4.3c-0.2-0.7,1.6-2.1,1.6-2.9c0-0.8-1.2-0.2-1.6-1c-0.5-0.8,1.9-2.4,1.9-2.4l-2.7-1.6c0,0-2.6-4-3.8-3.2
	c-1.2,0.8-2.6-0.3-1.4-1c1.2-0.7,0.2-3.6-0.5-4c-0.7-0.3-0.5-5-1.2-5.3s-1-1.9,1-1.7c1.9,0.2,3.2,0,4.1,1.2s1.4,1.6,1.2,2.9
	c-0.2,1.2,0.3,2.2,1.2,2.4c1,0.2,2.1,1.2,2.1,2.6c0,1.2,0.1,4.8,2,4.6c1.9-0.2,4.3-0.8,3.6-2.4c-0.8-1.6-1.4-2.7-2.6-2.7
	s-1.7-0.8-1.7-1.6c0-0.9-1.4-2.6-2.2-3.4c-0.8-0.8-1.6-1.4-2.1-2.6c-0.5-1.2-0.7-1.7-1.2-1.6c-0.5,0.2,0.8-2.2,0-2.9
	c-0.8-0.7-3.8-2.4-2.1-2.7s2.6-2,3.4-1.4c0.8,0.6,0.8-4.2,1.4-3.3c0.7,1,2.1,3.2,2.6,3.3c0.5,0.1-1.9-3.3-1.7-3.8
	c0.2-0.7-1-1.9-1.6-1.9s-0.8-4.5-0.2-4.5c0.6,0-3.1-1.9-2.2-2.9c0.8-1,1.2-2.7,2.2-1.4c1,1.2,1.4,0.8,1.4,1.4c0,0.7,0.7-2.6-1.4-3.6
	c-2.1-1-6.2-2.1-6.2-3.6s0.5-3.6,1.4-3.4s-1.7-3.4,0.7-2.9c2.4,0.5,4.1,1.9,4.5,1.2c0.3-0.7-3.6-2.6-4.8-2.4
	c-1.2,0.2-3.8,2.3-2.2-0.2c1.6-2.5,2.4-2.5,2.9-2.5c0.5,0-0.2-2-0.8-2.8c-0.7-0.8-2.4-1.9-1.6-2.7c0.6-0.6,1.2-1.6,2.1-1.8
	c0.9-0.2,1.2-1.2,1-1.9c-0.5-1.2-0.4-1.6,1-1.5c1.4,0.2,2.2-2.2,3.6-1.6c1.4,0.6,2.9,1,3.2,2.4c0.3,1.4,0.7,3.1,1,4.3
	c0.3,1.2,0.5,2.6-0.5,3.4c-1,0.8-1.6,4.3-0.2,2.3c0,0,1.4-3.2,1.6-2.5c0.1,0.6,0.1,1.7,1,2.1c0.1-1,0.2-3.2-0.2-3.8
	c-0.5-1-1.7-5.5-1.7-7c0-1.6,0.6-4.9,0.6-4.9s0.3,1.2,0.3,4.2c0,3,5.2,24.3,5.8,26.4c-0.5-1.2-4-8.4-4-10c0,0-0.9,6.7,3.2,11.6
	c0.8,1,0.7,6.2,1,7c0.3,0.8,3,5.7,3,7.1s0.8,5.4,1.6,6.3c0,0,4,8,5,13.6c0.3,0.9,2.6,4.1,2.6,4.1s5.2,14.7,5.6,15.2
	c0.4,0.6,6,8.6,6.3,10c0.4,1.3,3.5,7.5,3.9,8l-8-11l5.1,15.2c0,0,2,6.4,2,7.7s0.9,3.8,1.2,4.2s0.8,3.6,0.9,4.6
	c0.1,1.2,1.2,3.4,1.5,3.9c0.4,0.6,3.9,8.1,4,8.8c0.2,0.8,3.9,12.2,6.2,16.6c2.3,4.4,5.1,10.8,5.1,10.8s4,13.2,4.5,15
	c0.5,1.8,1.9,5.5,2.4,6c0.5,0.7,2.5,5.8,3.1,6.4c0.7,0.7,0.9,3,0.8,3.3c-0.1,0.3,5.6,10.7,5.6,10.7s1.2,6.6,1.2,7.2
	c0,2.1,3.5,9.5,2.7,20.8c-0.8,11.3-1.5,14.8-1.5,15.5s-4.7,9.7-5.3,10.8c-1.9,3.6,2.3,4.7,2.6,7.6c0.1,1.2-2.6,9-2.6,10
	c0,1,0.5,4.1-0.3,4.6c-0.8,0.5-4.3,3.2-4.8,4.4s-1.6,2.8-2.1,4.2c-0.5,1.4-2.4,2.6-2.4,3.4c0,0.8,0.2,2.4-0.2,3.1
	c-0.3,0.7-2.9,1.4-3.6,1.9c-0.8,0.5-1,1.3-2.7,2.4c-1.2,0.7-3.2-0.7-3.6-2.1c-0.3-1.4,0.8-4.3-0.5-5.5c-1.2-1.2-4.8-1.9-3.4-2.6
	c1.4-0.7,2.7-3.8,3.6-3.6c0.8,0.3,1.2-1.4,2.6-1.6c1.4-0.2,1.6-2.2,3.1-2.2c1.4,0,0.8-3.4,2.4-3.6s1.2-2.1,2.1-2.9
	c1-0.8,2.4-4.3,1.7-5.1c-0.7-0.8-1.2-3.6,0.3-3.6c1.4,0,1.2-1.9,1.7-2.1c2.1-0.8,1.2-3.4,0.5-3.2s-2.9-1-3.6-0.5s-1.9-0.3-1.9-0.3
	s-1.4-1.2-2.1-0.5s-1.6-0.2-1.7,0.3c-0.2,0.5-2.1,0-2.1,0.5s-2.4-0.3-2.6,0.3c-0.2,0.7-3.4,0-2.6,1.2c0.8,1.2,3.6,1,3.6,2.1
	s0.2,2.4-0.7,2.9c-0.8,0.5-1,3.4-1.4,3.8c-0.5,0.5-1.7,3.2-3.1,4.3c-1.2,1-7.7,8.2-9.1,7c-1.4-1.2-2.4-1.7-4.1-2.9
	c-1.4-1-6.5-2.2-6.7-3.4s-3.1-1.9-3.2-3.1c-0.2-1.2-6.5-3.6-9.1-5.5c-2.1-1.5-5-1-5.1-1.6c-0.2-0.7-3.6-2.7-4-1.7
	c-0.3,1-3.1-1.2-5-1.7c-1.9-0.5-2.2-0.3-3.2,0.2s-1.2-0.8-2.4-1c-1.2-0.2-2.7-1.4-4.8-1.4c-2.1,0-6.4-5.5-6-7c0.3-1.6-0.7-4-0.3-5.3
	c0.3-1.2-0.5-9.1-1-9.9c-0.5-0.8,0.5-2.7-1.9-2.7s-4.8,0.2-3.8-0.3s2.4-3.6,3.1-3.6s0.8-3.1,0.8-3.8c0-0.8,3.2-3.6,4.1-3.6
	c0.6,0,8.1-1.9,7.5-2.2c-0.3-0.2-8.5,0.9-8.8,1.2c-0.8,0.7-4.6,3.6-4.6,4.5s-1.2,1.3-1,2.9c0.2,1.5-1.7,2.7-3.6,2.2
	c-1.7-0.5-2.4-0.2-1.6-1.6c0.8-1.4,0.3-3.4-0.2-5c-0.5-1.6-1.4-7-0.7-8.6c0.8-1.6,0.1-2.2,1-3.4c0.8-1.2,0.2-4.6,1.1-4.8
	c0.8-0.2,3.3-1,3.1-2.2s-1.1-8.2-0.3-8.8s-2.9,1.4-2.7,2.4s0.2,5,0.2,5s-0.8,1-1.7,1.6c-1,0.7-1.2,0.2-2.4-0.3
	c-1.2-0.5-1.6,0.3-2.1,1.4c-0.5,1.2-1.2,1.2-1,1.7c0.2,0.5-1-0.7-1.7-2.2c-0.8-1.6-1.2,0-1,0.5c0.3,0.5-1.6-0.2-2.1-1.4
	c-0.5-1.2-4.4-4.6-5.3-6c0.8,1.4,4.3,6.6,4.8,7.1c0.7,0.7,1.8,1.6,2,2.7c0.2,1.2-0.9,4.5-2.3,3.8c-1.4-0.7-3.6,0-4.1-1.9
	c-0.5-1.9-2.7-5.6-3.6-6.5c-1-1-4-5.6-4.8-9.9c-0.8-4.3-1.6-3.8-2.6-4.6c-1-0.8-1.4-2.6-0.8-2.1c2.1,1.5,0.6-4.1-0.9-6
	c-1.4-1.9-4.3-2.4-5.3-4c-1-1.6,0.7-1,0.9-1.6c0.2-0.7,0.6-2.8,1.5-1.7c1,1.2,0.7-1.2,1.9-1.9c1.2-0.8,1.1-4.1,2.5-6.4
	c1.4-2.2,1.8-3.3,3.7-4.6c1.9-1.3,2.9-2.2,3.1-3.8c0.2-1.6,2.1-3.4,0.5-5.5c-1.6-2.1,0.2-4.5-0.5-3.6c-0.7,0.8-2.2-2.4-2.9-0.8
	s-2.2,4.8-0.8,6c1.4,1.2,0.7,1.2-0.8,1.2c-1.2,0.1-2,0.3-2.3,0.6c0.2-0.7,0.5-2.7,0.2-4.1c-0.3-1.9,1.8-1-1-3.2
	c-2.9-2.3-7-7.2-7.5-5.1c-0.2,0.8,1,2.1,1,2.1s-2.7,2.6-2.4,3.1c0.3,0.5-0.5,1.6,0.6,1.8c1.1,0.2,2.7,1.4,3.1,2.6
	c0.5,1.2,2,2.4,1.2,3.6c-0.8,1.2-0.6,3.6-0.3,4.7c0.3,1.2-0.3,1.7-2.3,1.1c-2.1-0.7-2.7-0.9-2.7-0.9s-0.6-1.2-1.7-2.7
	c-1.2-1.6-2-1.2-2.7-1.7s-3-4.5-1.8-6c1.2-1.5,4-9.3,3.6-11c-0.5-1.7,3.2,1,3.6-0.2c0.3-1.2-2.9-6.7-1.9-7.7c1-1,1.3-5.6,1.5-7
	c0.2-1.4,0.5-1.9,1.2-2.6c0.8-0.7,1.6-5,2.5-6.4s3-0.5,2.9-2.6c-0.2-2.1-0.7-3.4,0.3-4.6c1-1.3-1.2-1.9-0.8-3.1
	c0.5-1.2,3.3-1.2,2.2-3.4c-1.2-2.1,1-1.9,0.7-3.2s-1.2-0.8-1.2-2.2s-0.2-4.3-1-5.8c-0.8-1.4-4.7-3-5.6-4.7c-0.8-1.7,0.1-0.1-0.2-1.8
	c-0.3-1.7,0.3-1.4-0.5-3.2c-0.8-1.7,0.3-1.9-0.8-2.4c-1.2-0.5-0.3-1.9,0.3-3.1c0.7-1.2,0.8-4-0.5-4c-1.2,0-1.6-2.4-2.7-2.1
	c-1.2,0.3-1,1.2-1.9,2.2c-1,1-1.4,1-2.4,0.3c-1.6-1-2.6-0.5-4.5-0.3c-1.9,0.2-2.6,0.8-3.1,1.9c-0.5,1.2-1.8-2.2-0.9-4.1
	c1.1-2,0-0.2,0.4-3.1c0.1-0.7-0.6-2-0.7-2.7c-0.1-2-0.6-2.3,0.2-3.4c0.8-1.2,0.3-2.2,0.8-3.1c0.5-0.9,2.4-2.7,2.6-5
	c0.2-2.2-0.5-5.6,0.3-6.5c0.8-1-1.2,6-1.2,7.4c0,1.4-3.2,4.5-2.7,5.8c0.5,1.2-0.5,1.4-1.6,1.9c-1.2,0.5-1.2,2.4-1.6,3.1
	c-0.4,0.7-0.9,0.3-1-1.9c-0.1-1.1-0.7-3.6-1.6-4.8c-1-1.2-1.7-1.2-2.6-0.5c-0.8,0.7-1.7-0.9-3.2-0.8c-1.4,0.2-0.7,1.6-1.5,2
	c-0.8,0.3-1.2-1.4-1.2-2.4c-0.2-1-3.6-4-3.8-6c-0.4-2.3,1-4.8,1.7-5.8s-4.6-0.7-5.3-0.3c-0.7,0.3-1.9-0.9-2.4-1.4
	c-0.5-0.5-0.2-0.7-1-1s-2.1-0.8-2.5-2.4c-0.3-1.6-2.1-1.2-1.6-2.6c0.5-1.2,0.3-1.7-0.7-1.9c-1-0.2-1.4-0.2-1.4-1.4
	c0-1.2,0.5-1.6-0.8-2.2c-1.2-0.7-0.5-0.2-1.3-1.2c-0.9-1.2-6.3-8.4-7.1-8.4s-0.9-0.8-1.9-0.7c-1.2,0.2-2-0.4-2-1.2
	c0-0.8-0.8-1.1-1.7-1.1c-1,0-1-0.5-1-1.6c0-1.2-2.1-0.7-1.6-1.6c0.5-1-0.8-1.2-1.9-0.8c-1.2,0.5-1.2,0.2-2.9,0.7
	c-1.6,0.5-0.8,1-1.7,0.5c-1-0.5-1.7-1.4-3.2-1c-1.4,0.5-3.4-0.7-3.8-1.2c-0.5-0.7-1.1,2.3-3.2,2.6c-0.7,0.1-0.7,1.4-0.5,2.4
	c0.2,1,0,1.2-0.2,1.9c-0.2,0.8,0.2,0.3-1-0.3c-1.2-0.7-1.7-1.2-2.1,0c-0.3,1.2,0.3-0.8-0.3,1.2c-0.7,1.9-2.6,0.3-1.9,1.7
	s-1,1.6,0.3,2.2c1.2,0.7-0.7,0.7-1.7,0.7c-1.2,0-1.2,0.7-1.2-0.8c-0.1-1.4-1.2-0.2-1.2-1.6s-1.2-0.8-1,0c0.2,0.8-0.5,0.8-1,0
	c-0.5-0.8,0.5,0.8,0.5,0.8s0.2,0.3-1.2,0.5c-1.2,0.2-1.2,0.2-2.1-1.2c-0.9-1.4-1.2-1.2-1.9-2.2c-0.8-1-4-2.4-4.8-3.2
	c-0.8-0.8,3.1,4,3.1,4s0.9,1.3,1.5,1.7c0.7,0.3,2.7,1.8,2.7,1.8s-1.9-0.3-1.9,0.3c0,0.7,0,1.8-0.2,2.2c-1.6,3.6-2.7,0.4-3,0.6
	c-1.8,1.1-5.4,3.6-5,3.7c0.4,0.3,3.6-0.7,4.6-1.2c0.8-0.4,2.3-0.9,2.3-0.9s2.2-2.2,2.2-3.2c0-1-0.7-1.2,0.7-1c1.2,0.2,2.9,0.7,3.1,0
	c0.2-0.7,0.7-1.4,1.2-0.3c0.5,1.2,1.4,1.2,2.4,1.2c1,0,1.2,0.2,2,1.2s2.3,0.2,2.3,1s0,1.9,0,1.9s-0.7,0-1.9-0.5s-0.8-1-2.7-0.7
	s-1.7-0.2-3.8,0.2c-2.1,0.3-7.5,3.2-7.9,3.6c-0.4,0.5-4.8,2.9-5.5,3.8s-1,0.7-2.1,1c-1.2,0.3-5,1.4-5,2.4c0,1-1.4,0.5-1.2-0.5
	c0.2-1,0.3-1.2,1-1.7c0.7-0.7,4.1-2.9,4.1-2.9s-1.2-0.5-1.7-1c-0.5-0.5-2.9-0.2-3.2,0.5c-0.3,0.7-2.1,1.9-2.4,1.2
	c-0.3-0.8-0.5-0.8-1.7-1c-1.2-0.2-0.7-0.2-1-1.4c-0.3-1.2,0.7-0.2-0.1-1.5c-0.8-1.2-0.6-0.8-0.4-2.1c0.2-1.2-0.2-5-0.8-5.7
	c-3.6-4-3.6,2.6-2.3,6c0.5,1.3,1,1.7,0.5,2.2s0,1.2-0.5,1.2c-0.5,0-0.2-1.2-1-1c-0.8,0.2-1.2-0.7-1.6-0.7c-0.5,0-0.3-2.2-0.8-0.8
	c-0.5,1.4,0,0.9-1,1.7c-1,0.9-1.7,0.1-2.2,0.8c-0.5,0.7-2.2-1.4-1.7-0.5c0.5,1-0.7,2,0.8,2.3c1.4,0.3,0.5,1.5,1,1.7
	c0.5,0.2-1,2.8,1,2.3c1.9-0.5,1.1,0.3,2,0.3c1,0,2.6-0.6,1.9-1.5c-0.7-1,3.3,1.8,4,1.5s4.7,3.2-2,1.6c-1-0.2-10.1,0.3-11,0.6
	c-1,0.3-1-2.4-3.4-9.4c0,0-4,0.5-3.6,0.2c0.5-0.3,1.4-4,0.3-4.8c-1.2-0.8-1.8-1.6-3.3-1.6s-0.8,0.4-2.5-1.8
	c-1.7-2.2-3.1-2.1-3.6-3.2c-0.5-1.2-4.8-1.9-10.2-5.7c-5.5-3.7-9.8-7.3-12.9-8.3c-3.1-1-13.3-6-24.1-6.2l-15.2-1.2
	c3-0.2,5.2-0.6,5.7-0.3s7.4-0.1,7.4-0.1s4.1-0.2,4.7,0.1s3.6,1,4.4,0.8c0.8-0.2-0.6-3.4,0.9-2.3s3.6,2.2,4,1.9
	c0.4-0.4-1.2-2.8,0-2.3s2.1,1.3,3,2.3c0.8,0.9,1.7,2.2,3,1c0.2,0.5,1.2,0.5,1,0c-0.1-0.2,0.5-0.7,0.2-0.8c-0.2-0.4-0.9-0.4-0.2-0.5
	c1.6-0.2,2.7,0.2,3.5,0.8c0.8,0.7,2.1,1,2.7,0.3c0.6-0.7,1.2-0.5,1-1.2c-0.2-0.7-2.1-1.7-3.3-1.6c-1.2,0.2-2.5-0.2-3.6-0.2
	c-1.2,0.1-3.7-0.5-3.1-1.2c0.7-0.7,1.9-1.7,1.6-2.3c-0.3-0.7-2.3,2.7-3.1,2.2c-0.8-0.5,0.1-3.6,0.6-4.8c0.6-1.2-1.8,3.8-2.9,3.6
	c-0.6-0.1,0.1-0.6,0.1-0.8c0.9-0.6-0.4-2.9-0.8-2c-0.3,0.5-0.2,2.1-0.2,2.3c-0.3,0.2-0.7,0.3-1.2,0.3c-2.1-0.3-3.9-0.2-4.5,0.6
	s-0.8,1.6-2,0.9c-1.2-0.8-3.6-1.4-2.1-2.3c1.4-0.9,1.2-1.8,1.8-1.3c0.7,0.5-0.2-0.8-1.5,0c-1.2,0.8-1.2,1.8-1.8,1.4
	c-0.2-0.1-0.4-0.4-0.5-0.7C60.2,38,60,37.4,60,37.4s0.1,0.7,0.4,1.2c0.2,0.6-0.7,0.5-0.9,0.9c-0.5,0.8,0.8,1.7-0.6,1.9
	c-1.3,0.2-1,1.4-2.5,0.9c-1.5-0.6-2.2,0.8-1.9-0.8c0.3-1.5,0.8-1.8,0.8-1.8s-2.5,2.1-1.7,2.9s0.4,1.1-0.4,1.2
	c-0.8,0.1-11.5,0.2-13.3,0.7c-1.7,0.4-8.9,0.9-12.9,2.2c-3.9,1.3-5.3,0.8-4.4,0.2s1.7,0.2,2.7-0.5s2.3-1.7,3.4-1.7s2.9,0,3.6-0.4
	c0.8-0.4,1.2-1.2,2.2-1.3c1.2-0.1,3.3-0.3,4.2-0.3c1,0,1.4,0,2,0.1c0.6,0.1-5.9-1.7-6.6-2.6s-1.1-1.2-1.6-1.5
	c-0.6-0.3-1.2-0.1,0.1-1.1c1.2-1,1.2-2.2,2.1-2.2c0.9,0,1.4,0.2,1.8-0.2c0.4-0.4,0.4-1.2,0.2-1.6s-1.2,0.6-1.2,0.6s-1.4,0.3-2.1,0.6
	c0.3-0.4,0.6-1.1,0.1-1.4c-0.8-0.7-1.3-0.8-1.7-1.7c-0.3-1.1-0.9-1.1,0.2-1.3c1.2-0.3,3-1.8,3-2.4s-0.8,1.2-2.7,1.5
	c-1.9,0.4-1.6,2.6-0.7,3.6c1,1,0.9,2,0.2,2.2c-0.7,0.2-1.4,0.2-1.3,1c0.1,0.8-0.5,1.5-0.6,2.7c-0.1,1.2-0.8,1.2-1.1,1.8
	s-0.8,1.7-1.2,0.8c-0.4-0.9-0.2-1.2-0.2-2.1c0-0.8-0.2-1.7-0.1-2.5c0.1-0.8-0.7-0.2-1.5-1.3c-0.9-1.2,0.3-1-1.2-1.7
	c-1.5-0.8-0.8-0.7-2.1-1.1c-1.4-0.4-0.9-0.9-1.7-2.1C20,29.2,18,27.6,18,27.6c0,1.8,1.8,6.2,3.4,7.2c1.5,1,3.2,3.2,2.9,4.4
	c-0.3,1.2,0.6,2.6-0.6,3.4c-1.2,0.8-1.7,0.4-2.5,1.2s-1.3,0.4-1.9,1c-0.6,0.6-3,0.7-3.6,1.2s2.9-1,3.2,0c0.3,1-0.8,2-1.7,1.9
	L16.3,49.4z M367.9,153.8l2.1,0.4c0.2,0.3,1.6,1.2,2.1,1.8s0.4,2.4,0.6,3.2c0.2,1,1.6,3.2,0.7,3.8s-2.2-0.4-2.8,3.3
	c-0.8,5.3,0.1,9.4,0.8,13.8c0.8,4.7,1.6,8.3,1.6,8.3l-4-16.5l1.7-10.8l0.9-3.6c0,0-1.2-2.3-1.8-2.7c-0.6-0.4-0.4,0.5-0.6,1.2
	c-0.2,0.8-2.1,6.9-2.1,7.4c0,0.5-0.4,6.3-0.2,7.4s0-5.7-1.4-7.6c-0.2-0.3,0.3,7.2,1,8.4c0.5,0.9-0.4,1,0.1,1.7c0.4,0.8-3-8.6-2-10.3
	c1.4-2.4,1-4.9,2.1-5.6c1.2-0.8,0-3.5,0.5-3.2C367.6,154.5,367.9,153.8,367.9,153.8z M268.1,199.9c-0.1,0.1-0.1,0.1-0.1,0.2
	C268,200.3,268.1,200.2,268.1,199.9z"/>
</svg>
