<?xml version="1.0" encoding="utf-8"?>
<!-- Generator: Adobe Illustrator 18.0.0, SVG Export Plug-In . SVG Version: 6.00 Build 0)  -->
<!DOCTYPE svg PUBLIC "-//W3C//DTD SVG 1.1//EN" "http://www.w3.org/Graphics/SVG/1.1/DTD/svg11.dtd">
<svg version="1.1" id="Layer_1" xmlns="http://www.w3.org/2000/svg" xmlns:xlink="http://www.w3.org/1999/xlink" x="0px" y="0px"
	 viewBox="0 0 397.7 381.8" enable-background="new 0 0 397.7 381.8" xml:space="preserve">
<path fill="#FFFFFF" d="M290.4,265.6c0,0,0.2,0.4,0,1.2C290.1,267.5,289.4,265.8,290.4,265.6z M289.1,261.2c0.3-0.8-1.1-3-1.1-3
	C287,258.5,288.8,262,289.1,261.2z M331.2,62.7c0,0.1,0,0.1,0,0.2C331.3,62.9,331.3,62.9,331.2,62.7z M364.7,164.3
	c0.1,0.1,0-0.1-0.1-0.5C364.6,164,364.6,164.2,364.7,164.3z M365.1,161.9c0.2,0.7,0.3-2.4,0.1-5.2
	C365.1,158.6,365,161.2,365.1,161.9z M364.7,162.7c-0.7-1.2-3-8.5-0.4-9.8c0.8-0.4,0.8,2.2,0.9,3.8c0.1-1.1,0.1-1.9,0.1-2.1
	c0-0.5,1.3-7.4,1.5-8.1s0.5-0.8,1.1-0.4c0.6,0.4,1.8,2.7,1.8,2.7l-0.9,3.5l-1.7,10.7c0,0,0.5,0.1,1,2.2c1.1,4.6,2.5,12.9,2,9.8
	c-0.7-4.3-2.3-12.3-1.5-17.5c0.6-3.7,1-3.1,1.9-3.8c1-0.6-0.2-1.7-0.4-2.6c-0.2-0.8,0.5-3.3,0-3.9c-0.5-0.6-1.8-1.5-2.1-1.8
	l-2.1-0.4c0,0-0.2,0.6-0.8,0.4c-0.6-0.2,0.6,2.5-0.5,3.2c-1.1,0.7,0.5,1.4-2.1,5.6c-0.8,1.3,1.3,7.8,1.9,9.7
	C364.7,163.5,365,163.3,364.7,162.7z M310,301.2c-1,0.2,0.5,1.6,0.8,0.8C311,301.2,310,301.2,310,301.2z M358.9,134.9
	c0.1,0.1,0.2,0.2,0.2,0.3L358.9,134.9z M397.3,264.7c-0.8,11.3-1.6,14.7-1.6,15.4c0,0.6-4.6,6.8-5.1,7.8c-1.9,3.7-0.7,7.8,1.1,10.7
	c0.6,1-1.8,7.3-1.8,8.2s1.1,5.5,0.3,6s-5.3,2-5.8,3.2c-0.5,1.2-1.8,3.7-2.2,5.1c-0.5,1.4-1.6,1.4-1.6,2.2s-1.8,1.9-2.1,2.5
	c-0.3,0.6-0.6,3.3-1.4,3.8c-0.8,0.5-1.4-1.9-3.2-0.9c-1.1,0.6-2.7,2.6-3,1.2c-0.3-1.4,3.9-5.3,2.6-6.4c-1.3-1.1,1.4-4.1,2.9-4.3
	c1.4-0.2-1.3-5.6-0.2-4.5c6.5,6.6,6.9,0.2,7.8-1c0.9-1.3,0-3,2.7-3.7c1.2-0.3,1.4-4.6,0.7-5.4c-0.6-0.8-1.1-3.8,0.3-3.8
	c1.4,0,0.4-5.7,1-5.9c1.4-0.6,0.4-4-0.3-7.4c-0.2-0.8-2.7,0.9-2.9,0.9c-0.6,0.2-2.7-1.8-3.3-1.3c-0.6,0.5-9.2-1.4-9.2-0.9
	s-3.2,2.2-3.3,2.9c-0.2,0.6-3.5,5.5-2.7,6.6c0.8,1.1-1.4,2.7-1.9,3.1s-3.6-3.4-4.7-2.1c-2.4,3-2,0.8-3.6,3c-2.1,2.9-4.6,4.1-6.3,3
	c-1.4-0.9-1.8,3.4-2,2.2c-0.2-1.1-7.3-5.2-7.5-6.3c-0.2-1.1,1.7,7.5-2.1,1.6c-1.4-2.2-8.1-1.3-8.2-1.9c-0.2-0.6-2.6-3.4-2.9-2.5
	c-0.3,1-5-1.9-6.9-2.4c-1.9-0.5-3.9,0.6-5.2,0.4c-1.3-0.2-2.8-1.8-4.9-1.8c-2.1,0-6.7-3.9-6.4-5.5c0.3-1.6-0.6-4-0.3-5.3
	c0.3-1.3-0.5-9.1-1-9.9s1.2-2.6-1.2-2.6c-2.4,0-2.1-0.9-1.2-1.3s-1-2.5-0.3-2.5s0.8-3,0.8-3.8c0-0.8,3.2-3.7,4.1-3.7
	c0.6,0,8-1.9,7.5-2.2c-0.3-0.2-8.5,0.9-8.8,1.1c-0.8,0.6-4.6,3.7-4.6,4.5c0,0.8-1.1,1.3-1,2.9c0.2,1.5-1.3,1.4-3,1
	c-1.8-0.5-2.9,1.1-2.1-0.3c0.8-1.4,0.3-3.3-0.2-4.9c-0.5-1.6-1.7-6.2-0.9-7.8c0.8-1.6,1-2.2,1.8-3.3c0.8-1.1-0.4-5.4,0.4-5.6
	c0.8-0.2,3.8-1.2,3.1-2.2c-3.7-5.5,0.6-9.5,1.4-10.2c0.8-0.6-4.6,2.9-4.4,3.8s0.2,4.9,0.2,4.9s-0.8,1-1.8,1.6
	c-1,0.6-1.1,0.2-2.4-0.3c-1.3-0.5-3.7,1.6-4.5,0c-0.8-1.6-2.5-0.5-3-1.8c-0.4-1.2-4.6-2.8-5.5-4.2c0.8,1.4,4.7,6.4,4.8,7.1
	c0.7,3.9-3,6.2-3.5,4.3c-0.5-1.9-3.6-5.2-4.6-6.2c-1-1-4-5.6-4.8-9.9c-0.8-4.3-1.6-3.8-2.5-4.6c-1-0.8-1.5-2.5-0.8-2.1
	c2.1,1.5,1-5.6-0.4-7.5c-1.4-1.9-4.7-1-5.7-2.5c-1-1.6,0.7-1,0.8-1.6c0.2-0.6,0.6-2.8,1.6-1.7c1,1.1,0.6-1.1,1.9-1.9
	c1.3-0.8,1.7-3.8,3.1-6c1.4-2.2,2.6-2,4.5-3.3c1.9-1.3,2.3-1.8,2.4-3.3s1.3-5.4-0.3-7.5c-1.6-2.1,0.2-4.5-0.5-3.7
	c-0.6,0.8-2.2-2.4-2.9-0.8c-0.6,1.6-2.2,4.8-0.8,5.9c1.4,1.1,0.1,1-1.3,1.2c-1.2,0.1-1.3-2-1.5-3.4c-0.3-1.9,1.8-0.9-1-3.2
	c-2.8-2.3-7-7.2-7.4-5.1c-0.2,0.8,1,2.1,1,2.1s-2.7,2.5-2.4,3c0.3,0.5-0.5,1.7,0.6,1.8c1.1,0.2,2.6,1.4,3.1,2.5
	c0.5,1.1,2,2.4,1.2,3.5c-0.8,1.1-0.6,3.6-0.3,4.7c0.3,1.1-0.3,0.8-2.3,0.2c-2.1-0.6-2.6,0-2.6,0s-0.3-3.9-1.4-5.5
	c-1.1-1.6-2.1,1.2-2.7,0.5c-0.6-0.6-2.4-3.1-1.3-4.7c1.1-1.6,3.3-10.1,2.8-11.8c-0.5-1.8,3.6,2.1,3.9,1c0.3-1.1-3.2-7.8-2.2-8.8
	c1-1,1.9-3.6,2.1-5.1c0.2-1.4-0.1-3.8,0.7-4.5c0.8-0.6,2.1-3.3,2.9-4.7c0.8-1.4,2.5-2.1,2.4-4.2c-0.2-2.1-0.6-3.3,0.3-4.6
	c1-1.3,2.5-4.3,1.4-6.4c-1.1-2.1,1-1.9,0.6-3.2c-0.3-1.3-2-1-1.3-2.2c0.8-1.3,1.1-4.6,0.3-6c-0.8-1.4-4.5-1-5.3-2.8
	c-0.8-1.8-0.8-2-1.1-3.8c-0.3-1.8-0.2-1.1-1-2.8c-0.8-1.8,1.6-1.9,0.4-2.4c-1.1-0.5-1.6-1.9-0.9-3c0.6-1.1,0.8-4-0.5-4
	c-1.3,0-1.5-3.7-2.7-3.4c-1.1,0.3-1,2.6-1.9,3.6c-1,1-1.4,1-2.4,0.3c-1.6-1-2.5-0.5-4.5-0.3c-1.9,0.2-2.1-0.3-2.6,0.8
	c-0.5,1.1-1.1-1.4-0.2-3.3c1-2-1.1,0.1-0.7-2.7c0.1-0.7,0.6-1.9,0.6-2.5c-0.1-2-0.4-1.3,0.4-2.3c0.8-1.1-0.2-3.4,0.2-4.2
	s2.2-4,2.4-6.2c0.2-2.2,1.1-9.9,0.2-11.5c-0.6-1.1-2,12.3-2,13.7s-3.2,4.5-2.7,5.7c0.5,1.3-0.5,1.4-1.6,1.9
	c-1.1,0.5-2.4,3.3-2.5,1.1c-0.1-1,0.3-4.3-0.7-5.4c-1-1.1-2.1-1.6-2.9-1c-0.8,0.6-2.1-1.4-3.5-1.3c-1.4,0.2-1.4,1.4-2.2,1.7
	c-0.8,0.3-0.9,0.6-0.8-0.4c0.3-2.1-3.1-4.5-3.4-6.4c-0.4-2.2,2.5-7,1.5-6.2c-2,1.4-5.3,1.4-5.4,0.7c-0.3-4.6-2.5-3.3-3.4-2.4
	c-0.6,0.6-4.2-7.8-4.2-9.1c0-1.3-1.5-0.8-2.8-1.4c-1.3-0.6-0.5-0.2-1.4-1.3c-0.9-1.1-4.4-7.8-5.2-7.6c-0.8,0.2-2.7-1.4-3.8-1.3
	c-1.1,0.2-2-0.3-2-1.1c0-0.8-0.8-1.1-1.8-1.1s-1-0.5-1-1.6c0-1.1-2.1-0.6-1.6-1.6c0.5-1,0.3-1.8-0.8-1.3c-1.1,0.5-2.5-0.2-4.1,0.3
	c-1.6,0.5-0.6,1.8-1.6,1.3c-1-0.5-1.8-1.4-3.2-1c-1.4,0.5-3.3-0.6-3.8-1.3c-0.5-0.6-1.1,2.3-3.2,2.5c-0.7,0.1-0.6,1.4-0.5,2.4
	c0.2,1,0,1.1-0.2,1.9c-0.2,0.8,0.2,0.3-0.9-0.3c-1.1-0.6-1.8-1.1-2.1,0c-0.3,1.1,0.3-0.8-0.3,1.1c-0.6,1.9-2.5,0.3-1.9,1.8
	c0.6,1.4-1,1.6,0.3,2.2c1.3,0.6-0.6,0.6-1.8,0.6c-1.1,0-1.1,0.6-1.3-0.8s0.5-0.8,0.5-2.3s-3.3-0.8-3.1,0c0.2,0.8,0.1,1.5-0.4,0.7
	c-0.5-0.8,0,0,0,0s0.6,1.1-0.6,1.3c-1.3,0.2-1.3,0.2-2.1-1.3c-0.8-1.4-1.1-1.3-1.9-2.2c-0.8-1-4.8-3.2-5.6-4
	c-0.8-0.8,2.6,4.6,2.6,4.6s2,1.5,2.7,1.8c0.6,0.3,2.6,1.8,2.6,1.8s-1.9-0.3-1.9,0.3c0,0.6,0,1.8-0.2,2.2c-1.6,3.6-2.7,0.4-3,0.6
	c-1.8,1.1-5.3,3.5-5,3.7c0.4,0.3,3.6-0.7,4.6-1.1c0.8-0.3,2.3-0.9,2.3-0.9S161,64,161,63c0-1-0.6-1.1,0.6-1c1.3,0.2,2.9,0.6,3,0
	c0.2-0.6,0.6-1.4,1.1-0.3c0.5,1.1,1.4,1.1,2.4,1.1c1,0,1.2,0.2,2,1.1c0.8,1,2.3,2.9,2.3,2.9s-0.6,0-1.9-0.5c-1.3-0.5-0.8-1-2.7-0.6
	s-1.8-0.2-3.8,0.2c-2.1,0.3-7.5,3.2-7.8,3.7c-0.3,0.5-4.8,2.9-5.4,3.8c-0.6,1-1,0.6-2.1,1c-1.1,0.3-4.9,1.4-4.9,2.4
	c0,1-1.4,0.5-1.3-0.5c0.2-1,0.3-1.1,1-1.8c0.6-0.6,4.1-2.9,4.1-2.9s-1.3-0.5-1.8-1c-0.5-0.5-2.9-0.2-3.2,0.5
	c-0.3,0.6-2.1,1.9-2.4,1.1c-0.3-0.8-0.5-0.8-1.8-1c-1.3-0.2-0.6-0.2-1-1.4c-0.3-1.3,0.7-0.2-0.1-1.5c-0.8-1.3-0.6-0.8-0.4-2.1
	c0.2-1.3-0.2-5-0.8-5.6c-1.6-1.8-4.5-2.1-4.8-0.8c-0.4,1.5,2.3,2.3,2.6,6.8c0.1,1.4,1,1.8,0.5,2.2c-0.5,0.5,0,1.2-0.5,1.2
	s-0.2-1.1-1-1c-0.8,0.2,0.4-3.6-0.1-3.6c-0.5,0-1.8,0.8-2.3,2.2s-1.1-0.2-2,0.6c-1,0.8-0.7,1.2-1.2,1.8c-0.5,0.6-3.1-3.4-2.6-2.4
	c0.5,1,0.3,3.9,1.7,4.2s-2.4,3.7-1.9,3.9c0.5,0.2,2,0.6,3.9,0.1c1.9-0.5,1,0.3,2,0.3c1,0,5.2,0.3,6,0c0.8-0.3,4.7,3.1-2,1.6
	c-1-0.2-9.3,0.9-10.2,1.2c-1,0.3-1.7-3-4.1-10c0,0-2.1-3.8-3.2-4.6c-1.1-0.8-1.9-1.6-3.3-1.6s-0.7,0.4-2.5-1.8
	c-1.8-2.2-3-2.1-3.5-3.2c-0.5-1.1-4.7-1.9-10.2-5.6c-5.4-3.7-9.7-7.2-12.8-8.2c-3-1-13.2-5.6-24-6l-15.1-1.3
	c2.9-0.2,5.2-0.6,5.6-0.3c0.4,0.2,7.3-0.1,7.3-0.1s4.1-0.2,4.7,0.1c0.6,0.3,3.6,1,4.4,0.8c0.8-0.2-0.6-3.3,0.9-2.3
	c1.4,1,3.7,2.2,4.1,1.9c0.4-0.4-1.1-2.7,0-2.3c1.1,0.5,2.1,1.3,2.9,2.3c0.8,0.9,1.7,2.2,2.9,0.9c0.2,0.5,1.2,0.5,1,0
	c-0.1-0.2,0.5-0.7,0.2-0.8c-0.1-0.4-0.9-0.4-0.2-0.5c1.6-0.2,2.6,0.2,3.4,0.8c0.8,0.6,2.1,1,2.6,0.3c0.6-0.6,5.4-2.6,5.1-3.3
	c-0.2-0.7-6.3,0.4-7.4,0.6c-1.1,0.2-2.5-0.2-3.6-0.2c-1.1,0.1-3.7-0.5-3.1-1.1c0.6-0.6,1.9-1.7,1.6-2.3c-0.3-0.6-2.3,2.7-3.1,2.2
	c-0.8-0.5,0.1-3.6,0.6-4.8c-0.4,0.7-2,3.8-2.8,3.6c-0.6-0.1,0.1-0.5,0.1-0.8c0.8-0.6-0.4-2.8-0.8-2C72,29.8,72,31.4,72,31.6
	c-0.3,0.2-0.7,0.3-1.2,0.2c-2.1-0.3-3.9-0.2-4.5,0.6c-0.6,0.7-0.7,1.6-2,0.9s-3.5-1.4-2.1-2.3s1.2-1.9,1.8-1.4
	c0.6,0.5-0.2-0.7-1.5,0c-1.3,0.7-1.3,1.8-1.8,1.4c-0.2-0.1-0.4-0.4-0.5-0.7c-0.2-0.6-0.4-1.2-0.4-1.2s0.1,0.6,0.4,1.2
	c0.2,0.6-0.7,0.5-0.9,0.9c-0.5,0.7,0.7,1.8-0.5,1.9c-1.3,0.2-1,1.4-2.5,0.9c-1.5-0.6-2.2,0.8-1.9-0.7c0.3-1.5,0.7-1.8,0.7-1.8
	s-2.5,2.1-1.7,2.9c0.8,0.8,0.4,1-0.4,1.1C52.4,35.5,41.7,35.6,40,36c-1.8,0.4-8.9,0.9-12.8,2.2c-3.9,1.4-2.6,0.4-1.7-0.2
	c1-0.6,2.3-1.8,3.3-1.8s2.9,0,3.7-0.4c0.8-0.4,1.1-1.3,2.2-1.4c1.1-0.1,3.3-0.3,4.2-0.3c1,0,1.4,0,2,0.1c0.6,0.1-5.8-1.7-6.6-2.5
	c-0.8-0.9-1-1.2-1.6-1.5c-0.6-0.3-0.6-0.5,0.6-1.4s1-0.5,1.9-0.5c0.9,0,1.1-1.1,1.5-1.5c0.4-0.4,3.5-2.6,3.4-2.9
	c-0.2-0.3-4.3,2.1-4.3,2.1s-1.5,0.3-2.1,0.6c0.3-0.4,0.6-1.1,0.1-1.5c-0.8-0.6-1.4-0.7-1.7-1.8c-0.3-1-0.9-1,0.2-1.4
	c1.1-0.3,2.9-1.8,2.9-2.4c0-0.6-0.7,1.2-2.6,1.5c-1.9,0.3-1.6,2.5-0.6,3.5c1,1,0.9,2,0.2,2.2c-0.6,0.2-1.4,0.2-1.4,1
	c0.1,0.7-0.5,1.5-0.6,2.7c-0.1,1.2-0.7,1.3-1,1.8c-0.3,0.6-0.7,1.7-1.1,0.8c-0.4-0.9-0.2-1.3-0.2-2.1c0-0.8-0.2-1.8-0.1-2.5
	s-0.6-0.2-1.5-1.4c-0.9-1.1,0.3-1-1.2-1.7c-1.5-0.7-0.7-0.6-2.1-1c-1.4-0.4-0.8-0.9-1.7-2.1c-0.9-1.2-2.6-5-2.6-5
	c-1.5,1.4-2.4,3.3,3.1,9.3c1.2,1.3,3.2,3.1,2.9,4.4c-0.3,1.3,0.6,2.5-0.5,3.3c-1.1,0.8-1.8,0.4-2.5,1.1c-0.7,0.7-1.4,0.4-1.9,1
	c-0.6,0.6-3,0.7-3.5,1.2c-0.6,0.5,2.9-1,3.1,0c0.2,1-0.8,2-1.7,1.9l-1.5,0.8c-4.8,0.4-6.9,3.3-6,0.6c0.2-0.8,0.6-0.9,1.2-1.3
	c0.6-0.4,0.8-1,0.3-1s-1,0.2-1.5-0.6c-0.4-0.8,0.8-1.1,1.1-1.8c0.3-0.6,1.9,0.1,2.4-0.4c0.5-0.5,1.5-0.9,2.2-1.4
	c0.7-0.5,0.1-0.8-0.6-0.6c-0.7,0.2-0.6-1.1-1.4-1.8c-0.7-0.7-1.5-0.6-2.3-1.1c-0.8-0.5-1.5-2.2-1.5-1.5c0,0-0.4,0-1.6-0.7
	s0.8-0.3,0.8-0.3c0.8-1.4,3.6-5.4,3.2-6.4c-0.4-1-0.8-3-2.5-3.8c-1.8-0.8-4.3-2.5-4.9-4C4.5,13,2.4,11,1.5,9.9c-0.9-1.1-2.1-1.6,0-6
	C2.4,1.9,1.5,0,1.5,0h136.2c0,0-0.3,1.8,0.6,2.1c1,0.3,1.4,1.9,1.8,3c0.3,1.1,1.6,2.5,1.4,4.6s-1.2,4.6,0,5.3c1.3,0.6,0.8,1,2.5,1.6
	c1.8,0.6,138.7,10,138.7,10s-1.1,1.4,0,2.4s1.9,3,1.6,3.8c-0.3,0.8-0.8,3.8,0.1,4.6c0.9,0.8,1,1.3,1.8,1.3c0.8,0,3.5-0.5,4-0.2
	c0.5,0.3,2.4,0.3,2.5-1.8c0.2-2.1,0-4.9,1-7s1.6-3.7,0.6-5.6s-2.7-4-1.8-6.7c1-2.7,1.6-4.1,2.2-4.5c0.6-0.3,2.2-0.5,2.2-1.3
	c0-0.8,1.1-1.6,1.1-1.6l21.8,8.6c0,0,2.5,6.2,1.4,6.8c-1.1,0.6-2.4,0.5-2.4,1.3s-1-4.8-1.9-5.6c-1-0.8,0.5,3.3,0.3,4.6
	c-0.2,1.3-1-0.8-1.6-1.4c-0.6-0.6-1.1,1.1-0.8,1.6c-0.3-0.5-3.2-5-4.5-6.2c-1.4-1.3,3.6,5.9,2.8,6s-6.4-4.5-6.7-5.4
	c-0.3-1-1.1,2.5-2.4,1.4c-1.3-1.1,5,4.8,3.9,6c-0.9,1,2.7-1,5.9-0.2c0.6,0.1,2.5-0.6,3.2,0.3s-1.1,1.8,0.5,1.8s4.2,0,4.1,0.6
	c-0.1,0.6,1.9,0.3,1-1.1c-1-1.4,1.6,0.8,0.3,3.8c-1.4,3,0.1,0.2-1.2,0.2c-1.3,0-1.8,0.5-2.4,1.4c-0.6,1-2.1-0.3-2.7-1.1
	c-0.6-0.8,0,1.3-0.2,2.1c-0.2,0.8-4.7-0.4-5.5,0.1c-0.8,0.5,2.8,0.9,3.2,2.3s-0.8,2.7-2.2,3.7c-1.4,1-5.2,2-2.9,4.3
	c1.4,1.3,4.1,0.1,3.5,1.1c-0.6,1-0.8,4.8-1.9,4.6c-1.1-0.2-4,0.8-3.7,1.6c0.3,0.8,3.2-1.1,3.7,0c0.5,1.1,1,3,0,3.7
	c-1,0.6-1-1.9-2.7-1.4c-1.8,0.5-1.6-1-3-0.2c-1.4,0.8,2.1,0,3.7,1.7c1.6,1.6,1.6,4.2,3.7,4.2c2.1,0,4.5,1,3.5,1.9
	c-1,1-3.6,0.9-2.8,2c0.8,1.1,3.1,8.2,4.2,8.4c1.1,0.2,1.3,1.9,0.5,3c-0.8,1.1-1,1.8-2.9,1.8c-1.9,0-4.2-1.3-4.7,0.4
	c-0.5,1.7,1.8,0.2,3.1,0.8s1.1,0.8,0.5,1.1c-0.6,0.3,0.6,1.3,1.6,2.1c1,0.8,1.8,2.4-0.3,2.1c-2.1-0.3-3.7-1-4.1,0
	c-0.5,1.1-2.2,1.7-1.1,2.7c1.1,1,2.9,3,0.8,3.3c-2.1,0.3-4.8-0.5-5,0c-0.2,0.5,3.4,1,4.2,2.1c0.8,1.1,3,1.3,3.2,2.5
	c0.2,1.3-2.5,0.2-2.1,1.3c0.5,1.1,1.9,1.6,1.4,2.4c-0.5,0.8-1,1.4-1,1.4s-2.9-0.8-2.1,0c0.8,0.8,3.5,2.2,3.5,2.2s1.9,2.1,1.8,3.3
	c-0.2,1.3-1.1,3,0.5,3.2c1.6,0.2,1.6,1,2.7,1c1.1,0,1.6-0.3,2.1,1c0.5,1.3,0,2.4,0.5,3.3c0.5,1,4.6,3.7,5.7,4.5
	c1.1,0.8,2.1,2.5,1,2.9c-1.1,0.5-0.7,1.7-0.2,5.6c0,0-1.6,1.9-0.7,1.9s1.4,1.6,2.5,1.6c1.1,0,1.3,0.5,3,0.5c1.8,0,1.9,1.1,3.3,1.1
	s1.6,1.1,1.4,1.9c-0.2,0.8-0.6,1.1-2.2,1.8s-3.3,2.1-2.2,2.2c1.1,0.2,2.5,1.1,2.5,1.1s1.1-1,2.2-1.8c1.1-0.8,2.1,0,2.1-1
	c0-1-0.8-2.2-0.8-3.2s0.3-0.5,2.1-0.3c1.8,0.2,3.2-1,3.3-1.6c0.2-0.6-2.7-0.6-3.5-0.3s-2.4-0.6-2.9-1.8c-0.5-1.1-2.4-1-3.8-1.4
	c-1.4-0.5-2.1,1.1-3,1.6c-1,0.5-1.6-2.7-1.6-2.7c0.2-1.9,1.3-5.7,1.3-5.7s-1.4-2.5-2.4-3s0.3-1,0.5-1.9c0.2-1,1.4-4.8-0.6-4.6
	c-2.1,0.2-3.7,0.3-4.6,1.1c-1,0.8-3.3-3.7-3.5-4.3c-0.2-0.6,1.6-2.1,1.6-2.9c0-0.8-1.1-0.2-1.6-1c-0.5-0.8,1.9-2.4,1.9-2.4l-2.7-1.6
	c0,0-2.5-4-3.8-3.2c-1.3,0.8-2.5-0.3-1.4-1c1.1-0.6,0.2-3.7-0.5-4s-0.5-4.9-1.1-5.3c-0.6-0.3-1-1.9,1-1.8c1.9,0.2,3.2,0,4.1,1.1
	c1,1.1,1.4,1.6,1.3,2.9c-0.2,1.3,0.3,2.2,1.3,2.4c1,0.2,2.1,1.3,2.1,2.5s0.1,4.8,2,4.6c1.9-0.2,4.3-0.8,3.5-2.4
	c-0.8-1.6-1.4-2.7-2.5-2.7c-1.1,0-1.8-0.8-1.8-1.6c0-0.8-1.4-2.5-2.2-3.3c-0.8-0.8-1.6-1.4-2.1-2.5c-0.5-1.1-0.6-1.8-1.1-1.6
	c-0.5,0.2,0.8-2.2,0-2.9c-0.8-0.6-3.8-2.4-2.1-2.7c1.8-0.3,2.5-2,3.3-1.4c0.8,0.6,0.8-4.2,1.4-3.2s2.1,3.1,2.5,3.2
	c0.5,0.1-0.4-3.7-0.2-4.3c0.2-0.6-2.5-1.4-3.1-1.4c-0.6,0-0.8-4.5-0.2-4.5s-3-1.9-2.2-2.9c0.8-1,1.2-2.7,2.2-1.4
	c1,1.3,1.5,0.8,1.5,1.4c0,0.6,0.6-2.5-1.4-3.5c-2.1-1-6.2-2.1-6.2-3.5s0.5-3.5,1.4-3.3c1,0.2-1.8-3.3,0.6-2.9
	c2.4,0.5,4.1,1.9,4.5,1.3c0.3-0.6-3.7-2.5-4.8-2.4c-1.1,0.2-3.8,2.3-2.2-0.2c1.6-2.5,2.4-2.5,2.9-2.5s-0.2-2-0.8-2.8
	c-0.6-0.8-2.4-1.9-1.6-2.7c0.6-0.6,1.2-1.6,2.1-1.8c0.8-0.2,1.2-1.1,0.9-1.9c-0.4-1.2-0.4-1.7,1-1.5c1.4,0.2,2.2-2.2,3.7-1.6
	c1.4,0.6,2.9,1,3.2,2.4c0.3,1.4,0.6,3,1,4.3c0.3,1.3,0.5,2.5-0.5,3.3c-1,0.8-1.6,4.3-0.2,2.3c0,0,1.4-3.1,1.6-2.5
	c0.1,0.5-1,2.4-0.2,2.8c0.1-1,1.4-3.9,1-4.5c-0.5-1-1.8-5.4-1.8-7c0-1.6,0.9-3.7,0.9-3.7s-1.1,0.2,0,3c2.8,6.9,1,23.3,4.8,27.8
	c0.8,1,0.7,6.2,1,7c0.3,0.8,3.2,5.7,3,7c-0.4,3.1,0.8,5.4,1.6,6.3c0,0,4,8,4.9,13.5c0.3,0.9,2.5,4.1,2.5,4.1s5.2,14.6,5.6,15.1
	c0.4,0.6,5.9,8.6,6.3,9.9c0.4,1.2,2.9,6.3,3.7,7.6l-9.6-15.5l6.9,19.9c0,0,2,6.4,2,7.6c0,1.3,0.9,3.8,1.3,4.2
	c0.4,0.4,0.8,3.5,0.9,4.6c0.1,1.1,1.1,3.3,1.5,3.9c0.4,0.6,3.9,8,4.1,8.8c0.2,0.7,3.9,12.1,6.2,16.5c2.3,4.4,5.1,10.7,5.1,10.7
	s4,13,4.5,14.9c0.5,1.8,1.9,5.4,2.4,6c0.5,0.6,2.5,5.7,3.1,6.4c0.6,0.6,1,3.9,0.8,3.3c-0.1-0.3,5.5,10.6,5.5,10.6s-0.5,3.8-0.5,4.3
	C393,243.1,398.1,253.4,397.3,264.7z M118.3,60.1c0,0-0.8-2.1-0.9-3c-0.1-1-1.2,0.2-2.2-0.2c-1-0.5,0.3-1,0.9-1.5
	c0.6-0.6-0.3-2.2-0.1-1.4c0.2,0.8,0,0.9-1.1,1.5c-1.1,0.6-0.4,2.9-1,3c-0.6,0.2-0.8-0.2-1.7-1c-0.9-0.7,0.2-1.9,0-2.9
	c-0.2-1-0.9-0.1-1.8,0c-1,0.1,1.8-2.6,1.8-2.6s-0.8,0.4-1.7,1c-0.9,0.6-0.6,0.3-1.4-0.3c-0.7-0.6-0.8,0.1-1.7,0.6
	c-0.9,0.6-1-0.2-1-1c0-0.8-0.6-0.2-1.3-0.5c-0.6-0.3-0.6,0.3-1.1,0.7s-1.3-0.1-1.5-0.5c-0.2-0.4-0.5-0.4-0.9-1.4s-2.4-1.2-2.4-1.2
	s0.8-0.6,1.3-1c0.5-0.5,1.1-1.3,1.7-2.3c0.6-1,0.6-0.2,1.3-0.7c0.7-0.5,1.6,0.2,1.5-0.3c-0.1-0.5,1.3,0.4,1.3,0.1c0-0.3,0.4-1,1-1.8
	c0.6-0.7,1.7,1,1.4,0.5c-0.2-0.5-1.4-1-1.5-2.2c0-0.7,3.2,0.1,3.7,0c0.8-0.1-1.3-3.3-1.3-3.3s-1.1,2.1-1.5,2.2
	c-0.2,0-0.7-0.9-0.9-0.9c-1.4,0.2-1.1,2.3-1.2,3.6c-0.2,1.3-0.7,0.8-1.4,0.7c-0.7-0.1-0.8-1.3-1.1-0.6c-0.3,0.6,0,0-0.7,1
	c-0.7,1-1.2,0.1-2.1,0.9c-1,0.8-0.7,1.1-0.7,0.6c0-0.6-0.2-1.8-1.4-3.1c-1.1-1.3-1-2.6-1.1-1.8c-0.1,0.8,0.2,1.7-0.5,1.8
	c-0.6,0.2-1.8-1.5-1.5-1C96,42,92,41,91.1,41.4c-0.9,0.3,2.2,1.8,1.3,3c-0.9,1.3,1.7,2.8,2.5,3.3c0,0,0.1-0.8,0.6-1
	c0.5-0.2,0.6-0.2,1.3-0.2c0.7,0,0,0.5,0.2,1.3c0.2,0.8,2.2-0.9,1.6,0.6c-0.6,1.4,0.4,2.1,1.2,2.4c0.8,0.2,0.6,0.6,0.6,1.3
	s-2.9-1.3-2.9-1.3s1.3,1.1,1.8,1.8s4.1,1.8,3.5,1.6c-0.6-0.2-0.9-1.4-0.5-1.5c0.4-0.2,1,0.7,1.3,0.6c0.3-0.1,1.1-0.2,1.8,0.8
	c0.6,1,0.4,0,1.7,0.6c0.9,0.4,1.6,2.2,2.3,2.1c1,0,0.5,0.2,1.4,0.4s1,1,1.6,2c0.6,1,1.2,0.5,2.1,0.5s1,0.6,1.2-0.2
	c0.2-0.8,0.4,0.1,0.8-0.6C116.9,58.1,118.3,60.1,118.3,60.1z M351.6,140.6c-0.8,0.3-1.3,1.9-1.6,2.9s-1.4,0.2-1.4-0.5
	c0-0.6-0.8-1.8-1-2.9c-0.2-1.1-1.4-2.5-1.8-3.3c-0.3-0.8,1.4-1.9,1-1.8c-0.5,0.2-1.5-0.2-1.5-0.2c0.6-0.6,0-1.2,0-1.2
	c-0.4,0.1-1.5-0.6-1.7,0c-0.2,0.6-1,1.1-0.6,1.8c0.3,0.7-0.2,1.2,0.6,1.4c0,0,0.7,0.2,1.4,0.8c0.6,0.6,0.5,1.6,0,2.5
	c-0.5,1,0.6,1,1.4,1.8c0.8,0.8,0.2,2.2,0.6,2.1c0.5-0.2,2.5,1.3,2.5,2.2s2.5,0.8,1.8-0.5c-0.8-1.3-0.2,0,0.2-2.2
	c0.3-2.2,0.8-1.3,1.3-1.9C353.3,141.1,352.4,140.3,351.6,140.6z M376.6,255.4c0-0.8-0.6-2.1-1.4-4c0,0-0.5,2.6-0.8,3.4
	c-0.3,0.8-0.8,2.7-0.7,3.5c0.1,0.7-0.3,1.7-0.3,2.3c0,0.6-2.7,3-2.7,3s-2.9,7.3-1.7,8.1c1.3,0.8,2.4,2.3,4.8,1.1
	c2.4-1.2,2.5-7.9,2.5-7.9s0.6-1.3,0-2.6c-0.6-1.3,0.9-1,1.2-2.9c0.3-1.9-1.1-1.6-0.1-1.9S376.6,256.2,376.6,255.4z M315,26.1
	C315,26.1,315,26.1,315,26.1C315.1,26.1,315.1,26.1,315,26.1z"/>
</svg>
