<?xml version="1.0" encoding="utf-8"?>
<!-- Generator: Adobe Illustrator 18.0.0, SVG Export Plug-In . SVG Version: 6.00 Build 0)  -->
<!DOCTYPE svg PUBLIC "-//W3C//DTD SVG 1.1//EN" "http://www.w3.org/Graphics/SVG/1.1/DTD/svg11.dtd">
<svg version="1.1" id="state" xmlns="http://www.w3.org/2000/svg" xmlns:xlink="http://www.w3.org/1999/xlink" x="0px" y="0px"
	 viewBox="0 0 400 400" enable-background="new 0 0 400 400" xml:space="preserve">
<g>
	<path fill="#69C8C9" d="M291.7,276.2c0.3-0.8,0-1.2,0-1.2C290.6,275.3,291.4,277.1,291.7,276.2z"/>
	<path fill="#69C8C9" d="M290.4,270.8c0.3-0.8-1.1-3.1-1.1-3.1C288.2,268,290.1,271.5,290.4,270.8z"/>
	<path fill="#69C8C9" d="M332.8,71.1c0,0.1,0,0.1,0.1,0.2C332.9,71.2,332.8,71.2,332.8,71.1z"/>
	<path fill="#69C8C9" d="M366.5,173.3c0.1,0.1,0-0.1-0.1-0.5C366.4,172.9,366.4,173.1,366.5,173.3z"/>
	<path fill="#69C8C9" d="M366.9,170.8c0.2,0.7,0.3-2.4,0.1-5.3C366.9,167.5,366.7,170.1,366.9,170.8z"/>
	<path fill="#69C8C9" d="M366.4,171.6c-0.7-1.2-3-8.5-0.4-9.8c0.8-0.4,0.8,2.2,0.9,3.7c0.1-1.1,0.1-1.9,0.1-2.1
		c0-0.5,1.3-7.5,1.5-8.2s0.6-0.8,1.2-0.4s1.8,2.7,1.8,2.7l-0.9,3.6l-1.7,10.8c0,0,0.6,0.1,1.1,2.2c1.1,4.6,2.5,13,2,9.8
		c-0.7-4.3-2.3-12.3-1.4-17.6c0.6-3.6,1-3.2,1.9-3.8c1-0.7-0.2-1.7-0.4-2.7c-0.2-0.8,0.5-3.4,0-3.8c-0.5-0.6-1.8-1.5-2.1-1.8
		l-2.1-0.4c0,0-0.3,0.6-0.8,0.4c-0.5-0.2,0.6,2.5-0.5,3.2c-1.2,0.8,0.5,1.4-2.1,5.6c-0.9,1.3,1.3,7.9,1.9,9.8
		C366.5,172.4,366.8,172.3,366.4,171.6z"/>
	<path fill="#69C8C9" d="M311.4,310.9c-1.1,0.2,0.5,1.6,0.8,0.8C312.4,310.9,311.4,310.9,311.4,310.9z"/>
	<path fill="#69C8C9" d="M360.6,143.7c0.1,0.1,0.2,0.3,0.2,0.3L360.6,143.7z"/>
	<path fill="#69C8C9" d="M394.9,250.4c0-0.6,0.5-4.3,0.5-4.3s-5.7-10.9-5.6-10.7c0.2,0.6-0.1-2.7-0.8-3.3c-0.7-0.7-2.7-5.8-3.1-6.4
		c-0.4-0.7-1.9-4.2-2.4-6c-0.5-1.8-4.5-15-4.5-15s-2.8-6.3-5.1-10.8c-2.3-4.4-6-15.8-6.2-16.5c-0.2-0.8-3.6-8.3-4-8.8
		c-0.4-0.6-1.4-2.8-1.5-3.9c-0.1-1.2-0.5-4.2-0.9-4.6c-0.4-0.4-1.2-3-1.2-4.2c0-1.2-2-7.7-2-7.7l-7-20l9.7,15.6
		c-0.9-1.3-3.4-6.4-3.7-7.6c-0.4-1.3-6-9.4-6.3-10c-0.4-0.6-5.6-15.2-5.6-15.2s-2.3-3.3-2.6-4.1c-0.9-5.6-5-13.6-5-13.6
		c-0.8-1-2-3.3-1.6-6.3c0.2-1.3-2.7-6.2-3-7.1c-0.3-0.8-0.2-6-1-7c-3.7-4.5-2-21-4.8-28c-1.2-2.8,0-3.1,0-3.1s-1,2.1-1,3.6
		c0,1.6,1.2,6,1.7,7c0.4,0.7-1,3.6-1.1,4.6c-0.8-0.4,0.4-2.3,0.2-2.8c-0.2-0.7-1.6,2.5-1.6,2.5c-1.4,2-0.8-1.5,0.2-2.3
		c1-0.8,0.8-2.1,0.5-3.4c-0.3-1.2-0.7-2.9-1-4.3s-1.7-1.7-3.2-2.4c-1.4-0.7-2.2,1.7-3.6,1.6c-1.4-0.2-1.4,0.3-1,1.5
		c0.3,0.8-0.1,1.7-1,1.9s-1.4,1.2-2.1,1.8c-0.8,0.8,1,1.9,1.6,2.7s1.2,2.8,0.8,2.8s-1.2,0-2.9,2.5s1.2,0.3,2.2,0.2
		c1.2-0.2,5.1,1.7,4.8,2.4c-0.3,0.7-2.1-0.8-4.5-1.2s0.3,3.1-0.7,2.9c-1-0.2-1.4,1.9-1.4,3.4s4.1,2.6,6.2,3.6c2.1,1,1.4,4.1,1.4,3.6
		c0-0.7-0.5-0.2-1.4-1.4c-1-1.2-1.4,0.5-2.2,1.4c-0.8,1,2.9,2.9,2.2,2.9s-0.4,4.2,0.3,4.2s3.3,0.8,3.2,1.4c-0.2,0.7,0.7,4.5,0.2,4.3
		c-0.5-0.1-1.9-2.3-2.6-3.3c-0.7-1-0.7,3.8-1.4,3.3c-0.8-0.6-1.6,1.1-3.4,1.4c-1.7,0.3,1.2,2.1,2.1,2.7c0.8,0.7-0.5,3.1,0,2.9
		c0.5-0.2,0.7,0.5,1.2,1.6c0.5,1.2,1.2,1.7,2.1,2.6c0.8,0.8,2.2,2.6,2.2,3.4c0,0.8,0.7,1.6,1.7,1.6c1.2,0,1.7,1.2,2.6,2.7
		c0.8,1.6-1.6,2.2-3.6,2.4c-1.9,0.2-2-3.4-2-4.6c0-1.2-1.2-2.4-2.1-2.6c-1-0.2-1.4-1.2-1.2-2.4c0.2-1.2-0.3-1.7-1.2-2.9
		c-1-1.2-2.2-1-4.1-1.2c-1.9-0.2-1.6,1.4-1,1.7s0.5,5,1.2,5.3s1.6,3.4,0.5,4s0.2,1.7,1.4,1c1.2-0.8,3.8,3.2,3.8,3.2l2.7,1.6
		c0,0-2.4,1.6-1.9,2.4c0.5,0.8,1.6,0.2,1.6,1c0,0.8-1.7,2.2-1.6,2.9c0.2,0.7,2.6,5.1,3.6,4.3c1-0.8,2.6-1,4.6-1.2
		c2.1-0.2,0.8,3.6,0.7,4.6s-1.4,1.4-0.5,1.9c1,0.5,2.4,3.1,2.4,3.1s-1.2,3.8-1.3,5.8c0,0,0.6,3.2,1.5,2.7c1-0.5,1.6-2.1,3.1-1.6
		c1.4,0.5,3.4,0.3,3.8,1.4c0.5,1.2,2.1,2.1,2.9,1.7c0.8-0.4,3.6-0.3,3.6,0.3c-0.2,0.7-1.6,1.7-3.4,1.6c-1.7-0.2-2.1-0.7-2.1,0.3
		s0.8,2.2,0.8,3.2c0,1-1,0.2-2.1,1s-2.2,1.7-2.2,1.7s-1.4-1-2.6-1.2c-1.2-0.2,0.7-1.6,2.2-2.2c1.5-0.6,2.1-1,2.2-1.7
		c0.2-0.8,0-1.9-1.4-1.9c-1.4,0-1.6-1.2-3.4-1.2c-1.7,0-1.9-0.5-3.1-0.5s-1.6-1.6-2.6-1.6s0.7-1.9,0.7-1.9c-0.5-3.9-0.9-5.2,0.2-5.7
		c1.2-0.5,0.1-2.1-1.1-3c-1.2-0.8-5.3-3.6-5.8-4.5c-0.5-1,0-2.1-0.5-3.4c-0.5-1.2-1-1-2.1-1s-1.2-0.8-2.7-1
		c-1.6-0.2-0.7-1.9-0.5-3.2c0.2-1.2-1.7-3.4-1.7-3.4s-2.7-1.4-3.6-2.2c-0.8-0.8,2.1,0,2.1,0s0.5-0.7,1-1.4c0.5-0.8-1-1.2-1.4-2.4
		c-0.5-1.2,2.2,0,2.1-1.2c-0.2-1.2-2.4-1.4-3.2-2.6c-0.8-1.2-4.4-1.6-4.2-2.1c0.2-0.5,3,0.3,5,0c2.1-0.3,0.3-2.4-0.8-3.4
		c-1.2-1,0.7-1.6,1.2-2.7c0.5-1.1,2.1-0.4,4.1,0c2.1,0.3,1.2-1.2,0.3-2.1c-1-0.8-2.2-1.7-1.6-2.1c0.7-0.3,0.8-0.5-0.5-1.2
		c-1.2-0.7-3.6,1-3.1-0.8s2.8-0.5,4.7-0.5c1.9,0,2.1-0.7,2.9-1.8c0.8-1.2,0.7-2.9-0.5-3.1c-1.2-0.2-3.5-7.3-4.2-8.4
		c-0.8-1.2,1.8-1.1,2.8-2c1-1-1.4-1.9-3.6-1.9c-2.1,0-2.1-2.6-3.6-4.2c-1.6-1.6-5.1-0.9-3.6-1.7c1.4-0.8,1.2,0.7,3.1,0.2
		c1.8-0.5,1.7,2.1,2.7,1.4c1-0.7,0.5-2.6,0-3.6c-0.5-1.2-3.4,0.8-3.6,0c-0.3-0.8,2.6-1.7,3.6-1.6c1.2,0.2,1.2-3.6,1.9-4.6
		c0.7-1.1-2.1,0.2-3.6-1.2c-2.3-2.3,1.4-3.4,2.9-4.3c1.4-1,2.7-2.2,2.2-3.6s-4-1.8-3.3-2.3s5.4,0.8,5.5-0.1c0.2-0.8-0.5-2.9,0.2-2.1
		c0.7,0.8,2.1,2.1,2.7,1.2c0.7-1,1.2-1.4,2.4-1.4c1.2,0-0.2,2.9,1.2-0.2c1.3-3.1-1.2-5.3-0.3-3.8c1,1.4-1.2,1.7-1,1.2
		c0.1-0.7-2.5-0.7-4.1-0.7c-1.6,0,0.2-0.8-0.5-1.7c-0.7-1-2.6-0.2-3.2-0.3c-3.3-0.8-6.9,1.2-6,0.3c1.2-1.2-5.2-7.1-3.8-6
		c1.2,1.2,2.1-2.4,2.4-1.4c0.3,1,6,5.6,6.8,5.5c0.9-0.1-4.2-7.4-2.8-6c1.3,1.2,4.2,5.8,4.5,6.2c-0.3-0.5,0.2-2.2,0.8-1.5
		c0.7,0.7,1.4,2.7,1.6,1.4c0.2-1.2-1.2-5.5-0.3-4.6c1,0.8,1.9,6.4,1.9,5.6c0-0.9,1.2-0.7,2.4-1.2c1.2-0.7-1.4-6.9-1.4-6.9l-21.9-8.6
		c0,0-1.2,0.8-1.2,1.6c0,0.8-1.6,1-2.2,1.2s-1.2,1.7-2.2,4.5c-1,2.7,0.8,4.8,1.7,6.7c1,1.9,0.3,3.6-0.7,5.6c-1,2-0.8,5-1,7
		c-0.2,2.1-2.1,2.1-2.6,1.7c-0.5-0.3-3.2,0.2-4,0.2c-0.8,0-1-0.5-1.8-1.2c-0.9-0.8-0.4-3.8-0.1-4.6c0.3-0.8-0.5-2.9-1.6-3.8
		c-1.2-1,0-2.4,0-2.4s-137.7-9.4-139.4-10.1c-1.7-0.7-1.2-1-2.6-1.6c-1.3-0.7-0.2-3.2,0-5.3c0.2-2.1-1.2-3.6-1.4-4.6
		c-0.3-1.2-0.8-2.7-1.7-3.1c-1-0.4-0.7-2-0.7-2H1.1c0,0,1,1.9,0.1,3.8c-2.1,4.4-0.9,5,0,6C2,19,4.1,21,4.8,22.5c0.7,1.4,3.2,3.2,5,4
		c1.7,0.8,2.1,2.9,2.5,3.8c0.5,1-2.4,5-3.2,6.4c0,0-2-0.4-0.9,0.3s1.6,0.8,1.6,0.8c0-0.7,0.7,1.1,1.5,1.5c0.8,0.5,1.5,0.4,2.3,1.2
		c0.8,0.8,0.7,2.1,1.3,1.8c0.7-0.3,1.3,0.1,0.7,0.6c-0.7,0.5-1.6,1-2.2,1.4s-2.1-0.3-2.5,0.4c-0.3,0.7-1.5,1-1.2,1.7
		c0.4,0.8,1,0.6,1.4,0.6s0.3,0.7-0.3,1.1c-0.7,0.4-1,0.5-1.2,1.2c-0.9,2.8,1.2-0.2,6-0.6l1.5-0.8c0.9,0.1,1.9-1,1.7-1.9
		c-0.2-1-3.6,0.5-3.2,0c0.5-0.5,3-0.6,3.6-1.2c0.6-0.6,1.2-0.3,1.9-1c0.8-0.7,1.3-0.3,2.5-1.2c1.2-0.8,0.2-2.1,0.6-3.4
		c0.3-1.2-1.6-3.1-2.9-4.4c-5.5-6-4.6-8-3.1-9.4c0,0,1.7,3.8,2.6,5s0.3,1.7,1.7,2.1c1.4,0.4,0.7,0.3,2.1,1.1
		c1.5,0.8,0.3,0.6,1.2,1.7c0.9,1.2,1.7,0.7,1.5,1.3s0.1,1.7,0.1,2.5c0,0.8-0.2,1.2,0.2,2.1c0.4,0.9,0.8-0.2,1.2-0.8
		c0.4-0.6,1-0.7,1.1-1.8c0.1-1.2,0.7-2,0.6-2.7c-0.1-0.8,0.8-0.8,1.3-1c0.7-0.2,0.8-1.2-0.2-2.2c-1-1-1.2-3.2,0.7-3.6
		c1.9-0.4,2.7-2.1,2.7-1.5s-1.8,2.1-3,2.4c-1.2,0.3-0.6,0.3-0.2,1.3c0.3,1.1,0.9,1.2,1.7,1.7c0.5,0.4,0.2,1.1-0.1,1.4
		c0.6-0.3,2.1-0.6,2.1-0.6s4.2-2.5,4.3-2.1c0.1,0.4-3,2.6-3.4,3s-0.6,1.5-1.4,1.5s-0.7-0.5-1.9,0.5c-1.2,1-1.2,1.2-0.6,1.4
		c0.6,0.3,0.8,0.7,1.6,1.5c0.8,0.9,7.2,2.7,6.6,2.6c-0.6-0.1-1.1-0.1-2-0.1c-1,0-3.1,0.2-4.2,0.3c-1.2,0.1-1.4,1-2.2,1.3
		c-1.2,0.2-3,0.2-4,0.2s-2.4,1.2-3.4,1.7c-1,0.7-2.2,1.6,1.7,0.2c3.9-1.3,11.1-1.8,12.9-2.2c1.7-0.4,12.5-0.6,13.3-0.7
		c0.8-0.1,1.2-0.3,0.4-1.2c-0.8-0.8,1.7-2.9,1.7-2.9s-0.4,0.3-0.8,1.8c-0.3,1.5,0.4,0.2,1.9,0.8c1.5,0.6,1.2-0.8,2.5-0.9
		c1.3-0.1,0.1-1.2,0.6-1.9c0.2-0.4,1.1-0.3,0.9-0.9c-0.3-0.6-0.4-1.2-0.4-1.2s0.2,0.6,0.4,1.2c0.1,0.3,0.3,0.6,0.5,0.7
		c0.6,0.4,0.6-0.8,1.8-1.4c1.2-0.8,2.1,0.5,1.5,0c-0.6-0.5-0.4,0.5-1.8,1.3s0.8,1.6,2.1,2.3s1.4-0.2,2-0.9c0.6-0.8,2.4-0.9,4.5-0.6
		c0.6,0.1,1,0,1.2-0.3c0-0.2,0-1.8,0.2-2.3c0.4-0.9,1.6,1.4,0.8,2c0.1,0.3-0.7,0.7-0.1,0.8c0.9,0.2,2.5-2.9,2.9-3.6
		c-0.6,1.2-1.4,4.3-0.6,4.8c0.8,0.5,2.8-2.9,3.1-2.2c0.3,0.7-1,1.7-1.6,2.3c-0.7,0.7,2,1.2,3.1,1.2c1.2-0.1,2.5,0.3,3.6,0.2
		c1.2-0.2,7.2-1.2,7.5-0.6s-4.6,2.7-5.2,3.4c-0.6,0.7-1.8,0.3-2.7-0.3c-0.8-0.7-1.8-1-3.5-0.8c-0.7,0.1,0.1,0.1,0.2,0.5
		c0.3,0.1-0.3,0.6-0.2,0.8c0.2,0.5-0.8,0.5-1,0c-1.2,1.3-2.1,0-3-1c-0.9-1-1.8-1.8-3-2.3s0.4,1.9,0,2.3s-2.7-0.9-4-1.9
		c-1.3-1.1-0.1,2.1-0.9,2.3s-3.8-0.5-4.4-0.8c-0.6-0.3-4.7-0.1-4.7-0.1s-6.9,0.4-7.4,0.2c-0.5-0.2-2.7,0.2-5.7,0.3L60.9,46
		C71.7,46.3,82,51.1,85,52c3,1,7.4,4.5,12.9,8.3c5.5,3.7,9.7,4.6,10.2,5.7c0.5,1.2,1.7,1,3.6,3.2c1.8,2.2,1.1,1.8,2.5,1.8
		s2.2,0.8,3.3,1.6c1.2,0.8,3.2,4.6,3.2,4.6c2.4,7,3.2,10.4,4.1,10.1c1-0.3,9.3-1.4,10.3-1.2c6.7,1.5,2.8-1.9,2-1.6c-0.8,0.3-5,0-6,0
		s-0.1-0.8-2-0.3c-1.9,0.5-3.5,0-3.9-0.1c-0.5-0.2,3.4-3.6,1.9-3.9c-1.4-0.4-1.2-3.3-1.7-4.2c-0.5-1,2.2,3.1,2.7,2.4
		s0.2-1.1,1.2-1.8c1-0.8,1.5,0.9,2-0.6s1.8-2.2,2.3-2.2c0.5,0-0.7,3.8,0.1,3.6c0.8-0.2,0.5,1,1,1s0-0.8,0.5-1.2
		c0.5-0.4-0.4-0.8-0.5-2.2c-0.3-4.5-3.1-5.3-2.6-6.8c0.4-1.2,3.3-1.1,4.9,0.8c0.6,0.7,1,4.4,0.8,5.7c-0.2,1.2-0.4,0.8,0.4,2.1
		c0.8,1.3-0.2,0.2,0.1,1.5c0.3,1.2-0.3,1.2,1,1.4c1.2,0.2,1.4,0.2,1.7,1c0.3,0.8,2.1-0.5,2.4-1.2c0.3-0.7,2.7-1,3.2-0.5s1.7,1,1.7,1
		s-3.6,2.2-4.1,2.9c-0.7,0.7-0.8,0.8-1,1.7s1.2,1.4,1.2,0.5s3.8-2.1,5-2.4c1.2-0.3,1.4,0,2.1-1c0.7-1,5.1-3.4,5.5-3.8
		c0.4-0.5,5.8-3.4,7.9-3.6s1.9,0.2,3.8-0.2c1.9-0.4,1.4,0.2,2.7,0.7c1.2,0.5,1.9,0.5,1.9,0.5s-1.4-1.9-2.3-2.9c-0.8-1-1.1-1.2-2-1.2
		s-1.9,0-2.4-1.2c-0.5-1.2-1-0.3-1.2,0.3c-0.2,0.7-1.7,0.2-3.1,0c-1.2-0.2-0.7,0-0.7,1s-2.2,3.1-2.2,3.1s-1.5,0.6-2.3,0.9
		c-1.1,0.5-4.3,1.3-4.6,1.2c-0.4-0.3,3.2-2.7,5-3.7c0.3-0.2,1.3,3.1,3-0.6c0.2-0.5,0.2-1.6,0.2-2.2c0-0.7,1.9-0.3,1.9-0.3
		s-2-1.5-2.7-1.8c-0.7-0.3-2.7-1.8-2.7-1.8s-3.5-5.5-2.7-4.6s4.8,3.1,5.6,4c0.8,1,1.2,0.8,1.9,2.2c0.8,1.4,0.8,1.4,2.1,1.2
		c1.2-0.2,0.7-1.2,0.7-1.2s-0.5-0.8,0,0c0.5,0.8,0.6,0.1,0.4-0.7c-0.2-0.8,3.1-1.4,3.1,0s-0.6,0.9-0.5,2.3s0.2,0.8,1.2,0.8
		c1.2,0,3.1,0,1.7-0.7c-1.2-0.7,0.3-0.8-0.3-2.2c-0.7-1.4,1.2,0.2,1.9-1.7c0.7-1.9,0,0,0.3-1.2c0.3-1.2,1-0.7,2.1,0
		c1.2,0.7,0.8,1.2,1,0.3c0.2-0.8,0.4-1,0.2-1.9c-0.2-1-0.2-2.3,0.5-2.4c2.1-0.2,2.7-3.2,3.2-2.6c0.5,0.7,2.4,1.7,3.8,1.2
		s2.2,0.5,3.2,1c1,0.5,0-0.8,1.6-1.2c1.6-0.5,3.1,0.2,4.1-0.3c1.2-0.5,1.2,0.3,0.8,1.2c-0.5,1,1.6,0.5,1.6,1.6c0,1.2,0,1.6,1,1.6
		c1,0,1.7,0.3,1.7,1.1c0,0.8,1,1.3,2,1.2c1.2-0.2,3,1.4,3.7,1.2s4.4,6.5,5.3,7.7c0.9,1.2,0.1,0.7,1.3,1.2c1.2,0.7,2.8,0.2,2.8,1.4
		c0,1.2,3.6,9.7,4.2,9.1c0.9-0.9,3.1-2.3,3.4,2.4c0.1,0.7,3.4,0.8,5.4-0.7c1.1-0.8-1.8,4-1.4,6.2c0.3,1.9,3.6,4.3,3.5,6.4
		c-0.1,1,0,0.8,0.8,0.4c0.8-0.3,0.8-1.5,2.2-1.6c1.4-0.2,2.7,1.9,3.6,1.2c0.8-0.7,1.9-0.2,2.9,1c1,1.2,0.7,4.4,0.7,5.5
		c0.1,2.1,1.4-0.7,2.6-1.2c1.2-0.5,2.1-0.7,1.6-1.9c-0.5-1.2,2.7-4.3,2.7-5.8s1.3-14.8,2-13.7c1,1.6,0,9.3-0.2,11.5
		c-0.2,2.2-1.9,5.5-2.4,6.2c-0.5,0.8,0.6,3.1-0.3,4.2c-0.8,1.1-0.5,0.3-0.4,2.4c0,0.7-0.5,1.9-0.6,2.6c-0.4,2.9,1.7,0.7,0.8,2.7
		c-1,1.9-0.3,4.5,0.2,3.4c0.5-1.2,0.7-0.7,2.6-0.8c1.9-0.2,2.9-0.7,4.5,0.3c1.1,0.7,1.4,0.7,2.4-0.3c1-1,0.8-3.3,1.9-3.6
		c1.2-0.3,1.4,3.5,2.7,3.5c1.2,0,1.2,2.9,0.5,4s-0.2,2.5,1,3c1.2,0.5-1.2,0.7-0.5,2.4c0.8,1.7,0.8,1.1,1.1,2.9
		c0.3,1.7,0.4,2,1.2,3.8c0.8,1.7,4.5,1.3,5.4,2.8c0.8,1.4,0.5,4.8-0.3,6c-0.8,1.2,1,1,1.2,2.2c0.3,1.2-1.7,1.2-0.7,3.2
		c1.2,2.1-0.5,5.1-1.4,6.4c-1,1.2-0.5,2.6-0.3,4.6c0.2,2.1-1.6,2.8-2.4,4.2c-0.8,1.4-2.1,4.1-2.9,4.8c-0.8,0.7-0.6,3.1-0.7,4.5
		c-0.1,1.4-1.2,4.1-2.1,5.1c-1,1,2.6,7.7,2.2,8.8c-0.3,1.2-4.4-2.8-3.9-1c0.5,1.7-1.7,10.3-2.8,11.9c-1.2,1.6,0.7,4.1,1.3,4.8
		c0.7,0.7,1.6-2.1,2.8-0.6c1.2,1.6,1.4,5.5,1.4,5.5s0.6-0.7,2.6,0c2.1,0.7,2.7,1,2.3-0.2c-0.3-1.2-0.5-3.6,0.3-4.7
		c0.8-1.1-0.8-2.4-1.2-3.6c-0.5-1.2-2-2.4-3.1-2.6c-1.2-0.2-0.3-1.3-0.6-1.8c-0.3-0.5,2.4-3.1,2.4-3.1s-1.2-1.2-1-2.1
		c0.4-2.1,4.6,2.9,7.5,5.1c2.9,2.3,0.7,1.2,1,3.2c0.2,1.4,0.4,3.6,1.5,3.4c1.4-0.2,2.8,0,1.3-1.2c-1.4-1.2,0.2-4.3,0.8-6
		c0.7-1.6,2.2,1.6,2.9,0.8c0.7-0.8-1.2,1.6,0.5,3.6c1.6,2.1,0.5,6,0.3,7.5s-0.6,2.1-2.5,3.4c-1.9,1.2-3.1,1.1-4.5,3.4
		c-1.4,2.2-1.9,5.3-3.2,6c-1.2,0.8-1,3.1-1.9,1.9c-1-1.2-1.4,1.1-1.5,1.7c-0.2,0.7-1.8,0-0.9,1.6c1,1.6,4.3,0.7,5.8,2.6
		c1.4,1.9,2.5,9,0.4,7.5c-0.7-0.5-0.2,1.2,0.8,2.1c1,0.8,1.7,0.3,2.6,4.6c0.8,4.3,3.8,8.9,4.8,9.9c1,1,4.1,4.3,4.6,6.2
		s4.2-0.4,3.6-4.3c-0.1-0.7-4-5.7-4.8-7.1c0.9,1.4,5.1,3.1,5.6,4.2c0.5,1.2,2.2,0.2,3.1,1.7c0.8,1.6,3.3-0.5,4.5,0
		c1.2,0.5,1.4,1,2.4,0.3c1-0.7,1.7-1.6,1.7-1.6s0-4-0.2-5c-0.2-1,5.2-4.5,4.4-3.8s-5.2,4.7-1.4,10.3c0.8,1.1-2.3,2.1-3.1,2.2
		c-0.8,0.2,0.4,4.5-0.4,5.7c-0.8,1.2-1,1.7-1.8,3.3c-0.8,1.6,0.4,6.2,0.9,7.9c0.5,1.6,1,3.6,0.2,5c-0.8,1.4,0.3-0.2,2.1,0.3
		c1.7,0.5,3.2,0.6,3-1s1-2.1,1-2.9c0-0.8,3.8-3.8,4.6-4.5c0.3-0.3,8.4-1.3,8.8-1.2c0.5,0.4-6.9,2.2-7.5,2.2c-1,0-4.1,2.9-4.1,3.6
		c0,0.8-0.2,3.8-0.8,3.8c-0.6,0,1.2,2.1,0.3,2.6c-1,0.5-1.2,1.3,1.2,1.3s0.8,1.8,1.2,2.7c0.5,0.9,1.2,8.6,1,9.9
		c-0.3,1.2,0.7,3.6,0.3,5.3c-0.3,1.6,4.3,5.5,6.4,5.5s3.6,1.7,4.9,1.8c1.2,0.1,3.3-0.9,5.2-0.4c1.9,0.5,6.6,3.4,6.9,2.4
		s2.7,1.8,2.9,2.5s6.8-0.3,8.3,1.9c3.8,6,2-2.7,2.1-1.5c0.2,1.2,7.4,5.2,7.5,6.3c0.2,1.2,0.5-3.2,2-2.2c1.7,1.2,4.2-0.1,6.3-3
		c1.6-2.2,1.2,0,3.6-3c1.1-1.3,4.2,2.6,4.7,2.1c0.5-0.5,2.7-2,1.9-3.2c-0.8-1.2,2.6-6,2.8-6.6c0.2-0.7,3.4-2.4,3.4-2.9
		s8.6,1.3,9.2,0.9c0.7-0.5,2.7,1.5,3.4,1.3c0.2-0.1,2.7-1.7,2.9-0.9c0.8,3.4,1.7,6.8,0.3,7.4c-0.6,0.2,0.5,6-1,6
		c-1.4,0-1,3.1-0.3,3.8c0.7,0.8,0.5,5.1-0.8,5.4c-2.8,0.8-1.8,2.4-2.8,3.7c-0.9,1.2-1.3,7.6-7.8,1c-1.1-1.1,1.7,4.4,0.3,4.5
		c-1.4,0.2-4.1,3.2-2.9,4.3c1.2,1.2-3,5.1-2.7,6.5c0.3,1.4,1.9-0.6,3-1.2c1.8-1.1,2.4,1.3,3.3,0.9c0.8-0.5,1.1-3.2,1.3-3.8
		c0.3-0.7,2.1-1.7,2.1-2.6s1.2-0.8,1.6-2.2c0.5-1.4,1.7-3.9,2.2-5.1c0.5-1.2,5-2.7,5.9-3.2c0.9-0.5-0.3-5.1-0.3-6s2.4-7.3,1.8-8.3
		c-1.8-3-3-7.1-1.1-10.8c0.6-1.1,5.2-7.2,5.2-7.9s0.8-4,1.5-15.5C400,262.8,394.9,252.5,394.9,250.4z M116.8,67.1
		c-0.4,0.8-0.6-0.2-0.8,0.7c-0.2,0.9-0.3,0.2-1.2,0.2c-1,0-1.6,0.5-2.1-0.5c-0.6-1-0.8-1.8-1.6-2c-0.9-0.2-0.4-0.4-1.3-0.4
		c-0.8,0-1.4-1.7-2.3-2.1c-1.3-0.7-1.1,0.3-1.7-0.7c-0.7-1-1.4-0.9-1.7-0.8c-0.3,0.1-0.9-0.8-1.2-0.7c-0.4,0.2-0.2,1.2,0.5,1.5
		c0.7,0.2-3.1-0.9-3.6-1.6C99.1,60,97.8,59,97.8,59s3,1.9,3,1.2s0.2-1.1-0.7-1.2c-0.8-0.2-1.7-1-1.2-2.4c0.6-1.4-1.4,0.2-1.6-0.6
		c-0.2-0.8,0.6-1.2-0.2-1.2c-0.8,0-0.8-0.1-1.2,0.2c-0.5,0.3-0.6,1.1-0.6,1.1c-0.8-0.5-3.5-2-2.5-3.3c0.9-1.2-2.2-2.7-1.3-3.1
		c0.9-0.3,4.9,0.7,4.6,0.2c-0.3-0.5,0.9,1.2,1.5,1.1c0.7-0.2,0.4-1.1,0.5-1.8c0.1-0.8,0,0.6,1.2,1.8c1.2,1.2,1.3,2.6,1.3,3.1
		c0,0.6-0.2,0.2,0.8-0.6c1-0.8,1.4,0.2,2.1-0.9c0.8-1.1,0.4-0.4,0.8-1.1c0.3-0.7,0.4,0.6,1.2,0.7c0.8,0.1,1.2,0.6,1.4-0.8
		c0.2-1.2-0.2-3.5,1.2-3.6c0.3,0,0.8,0.9,0.9,0.9c0.4-0.1,1.5-2.2,1.5-2.2s2.1,3.3,1.2,3.4c-0.5,0.1-3.8-0.7-3.7,0
		c0.1,1.2,1.2,1.7,1.5,2.2c0.2,0.5-0.9-1.2-1.4-0.5c-0.6,0.8-1,1.4-1,1.7c0,0.3-1.3-0.6-1.2-0.1c0.1,0.5-0.8-0.2-1.5,0.3
		s-0.7-0.3-1.2,0.8c-0.7,1.1-1.2,1.8-1.7,2.3c-0.5,0.5-1.3,1.1-1.3,1.1s2,0.2,2.4,1.2c0.4,1,0.7,1.1,0.9,1.4c0.2,0.4,1,0.9,1.5,0.5
		c0.6-0.4,0.5-1.1,1.2-0.8c0.7,0.3,1.2-0.3,1.2,0.5c0,0.8,0.1,1.6,1,1.1s1-1.2,1.7-0.7c0.8,0.7,0.5,0.9,1.3,0.3c0.9-0.6,1.7-1,1.7-1
		s-2.8,2.7-1.8,2.7c1,0,1.7-1.1,1.8,0c0.2,1.1-0.9,2.2,0,3c0.9,0.8,1.1,1.2,1.7,1c0.7-0.2,0-2.4,1.1-3.1c1.1-0.7,1.3-0.8,1.1-1.5
		c-0.2-0.8,0.7,0.9,0.1,1.4s-1.9,1.1-0.9,1.5c1.1,0.5,2.1-0.8,2.2,0.2c0.1,1,0.9,3.1,0.9,3.1S117.1,66.3,116.8,67.1z M354.5,150.6
		c-0.5,0.7-1-0.3-1.2,1.9c-0.3,2.2-1,1-0.2,2.2c0.8,1.2-1.7,1.4-1.7,0.5c0-1-2.1-2.4-2.6-2.2s0.2-1.2-0.7-2.1
		c-0.8-0.8-1.9-0.8-1.4-1.7c0.5-1,0.7-1.9,0-2.6s-1.3-0.8-1.3-0.8c-0.8-0.2-0.3-0.8-0.7-1.4c-0.3-0.8,0.5-1.2,0.7-1.8
		c0.2-0.7,1.2,0.1,1.7,0c0,0,0.7,0.7,0,1.2c0,0,1,0.3,1.4,0.2c0.5-0.2-1.2,1-1,1.7c0.3,0.8,1.6,2.2,1.7,3.4c0.1,1.2,1,2.2,1,2.9
		s1.2,1.4,1.4,0.5s0.8-2.6,1.6-2.9C354,149.1,355,149.9,354.5,150.6z M379.2,267c-1,0.3,0.5,0,0.1,1.9c-0.3,1.9-1.8,1.6-1.2,2.9
		c0.7,1.2,0,2.6,0,2.6s-0.2,6.7-2.6,8c-2.4,1.2-3.6-0.3-4.8-1.1c-1.2-0.8,1.7-8.2,1.7-8.2s2.7-2.4,2.7-3.1s0.3-1.6,0.3-2.4
		c0-0.8,0.5-2.7,0.8-3.5c0.3-0.8,0.8-3.5,0.8-3.5c0.8,1.9,1.4,3.2,1.4,4C378.4,265.6,380.1,266.7,379.2,267z"/>
	<path fill="#69C8C9" d="M316.5,34.2L316.5,34.2C316.6,34.3,316.5,34.3,316.5,34.2z"/>
</g>
</svg>
