<?xml version="1.0" encoding="utf-8"?>
<!-- Generator: Adobe Illustrator 18.0.0, SVG Export Plug-In . SVG Version: 6.00 Build 0)  -->
<!DOCTYPE svg PUBLIC "-//W3C//DTD SVG 1.1//EN" "http://www.w3.org/Graphics/SVG/1.1/DTD/svg11.dtd">
<svg version="1.1" id="state" xmlns="http://www.w3.org/2000/svg" xmlns:xlink="http://www.w3.org/1999/xlink" x="0px" y="0px"
	 viewBox="0 0 400 400" enable-background="new 0 0 400 400" xml:space="preserve">
<g>
	<path fill="#69C8C9" d="M224.4,89.5c0.2-0.2,0.1-0.4,0-0.5C224.3,89.4,224.3,89.7,224.4,89.5z"/>
	<path fill="#69C8C9" d="M311.4,310.9c-1.1,0.2,0.5,1.6,0.8,0.8C312.4,310.8,311.4,310.9,311.4,310.9z"/>
	<path fill="#69C8C9" d="M393.9,308.4c-0.5-1.4-1.1-3.6-2.4-1.9c-1.3,1.7-1.2,2.4-0.2,2.8s1.5,0.9,1,1.2c-0.6,0.3,0,2.7-0.9,1.5
		c-0.9-1.2-1.7-1.3-1.7-1.3c-1.4,0-0.3,3.8,0.3,4.6c0.7,0.8,0.8,3.7-0.2,4.6c-1,0.9-3.6,0.5-4,3.8c-0.2,1.4-4.2,4.9-5.7,5
		c-1.4,0.2-4.6,3.9-3.4,5c1.2,1.2-2.2,3.9-1.9,5.4c0.3,1.4,0.7,0,1.8-0.6c1.8-1.1,2.1,0.7,3,0.2c0.9-0.5,0.5-2.3,0.8-3
		c0.3-0.7,2.1-1.7,2.1-2.6s1.2-0.8,1.6-2.2c0.5-1.4,1.7-3.9,2.2-5.1c0.5-1.2,5-2.7,5.9-3.2c0.8-0.5-0.9-5.2-0.9-6.1
		S394.1,309.5,393.9,308.4z"/>
	<path fill="#69C8C9" d="M360.6,143.7c0.1,0.1,0.2,0.3,0.2,0.3L360.6,143.7z"/>
	<path fill="#69C8C9" d="M332.8,71.1c0,0.1,0,0.1,0.1,0.2C332.9,71.2,332.8,71.2,332.8,71.1z"/>
	<path fill="#69C8C9" d="M290.4,270.8c0.3-0.8-1.1-3.1-1.1-3.1C288.2,268,290.1,271.5,290.4,270.8z"/>
	<path fill="#69C8C9" d="M393.9,250c-0.3-0.5,1.5-3.9,1.5-3.9s-5.6-10.4-5.6-10.7c0.1-0.3-0.1-2.7-0.8-3.3c-0.7-0.7-2.7-5.8-3.1-6.4
		c-0.4-0.7-1.9-4.2-2.4-6c-0.5-1.8-4.5-15-4.5-15s-2.8-6.3-5.1-10.8c-2.3-4.4-6-15.8-6.2-16.5c-0.2-0.8-3.6-8.3-4-8.8
		c-0.4-0.6-1.4-2.8-1.5-3.9c-0.1-1.2-0.5-4.2-0.9-4.6c-0.4-0.4-1.2-3-1.2-4.2c0-1.2-2-7.7-2-7.7L353,133l7.8,10.8
		c-0.9-1.3-3.4-6.4-3.7-7.6c-0.4-1.3-6-9.4-6.3-10c-0.4-0.6-5.6-15.2-5.6-15.2s-2.3-3.3-2.6-4.1c-0.9-5.6-5.8-14.6-5.8-14.6
		c-0.8-1-0.8-4-0.8-5.4c0-1.4-2.7-6.2-3-7.1c-0.3-0.8-0.2-6-1-7c-3.7-4.5-4.7-18.1-4.8-18.5c-0.2-0.7-1.6,2.5-1.6,2.5
		c-1.4,2-0.8-1.5,0.2-2.3s0.8-2.1,0.5-3.4s-0.7-2.9-1-4.3c-0.3-1.4-1.7-1.7-3.2-2.4c-1.4-0.7-2.2,1.7-3.6,1.6
		c-1.4-0.2-1.4,0.3-1,1.5c0.3,0.8-0.1,1.7-1,1.9s-1.4,1.2-2.1,1.8c-0.8,0.8,1,1.9,1.6,2.7c0.7,0.8,1.2,2.8,0.8,2.8s-1.2,0-2.9,2.5
		c-1.6,2.5,1.2,0.3,2.2,0.2c1.2-0.2,5.1,1.7,4.8,2.4c-0.3,0.7-2.1-0.8-4.5-1.2c-2.4-0.5,0.3,3.1-0.7,2.9s-1.4,1.9-1.4,3.4
		c0,1.4,4.1,2.6,6.2,3.6c2.1,1,1.4,4.1,1.4,3.6c0-0.6-0.5-0.2-1.4-1.4c-1-1.2-1.4,0.5-2.2,1.4c-0.8,1,2.9,2.9,2.2,2.9
		s-0.5,4.5,0.2,4.5s3.3,0.8,3.2,1.4c-0.2,0.7,0.7,4.5,0.2,4.3c-0.5-0.1-1.9-2.3-2.6-3.3c-0.7-1-0.7,3.8-1.4,3.3
		c-0.8-0.6-1.6,1.1-3.4,1.4c-1.7,0.3,1.2,2.1,2.1,2.7c0.9,0.6-0.5,3.1,0,2.9c0.5-0.2,0.7,0.5,1.2,1.6c0.5,1.2,1.2,1.7,2.1,2.6
		c0.8,0.8,2.2,2.6,2.2,3.4c0,0.8,1.2,0.6,1.7,1.6c2.7,6,6.8-1.5,7.6,0c0.8,1.6-6.7,4.9-8.6,5.1c-1.9,0.2-2-3.4-2-4.6
		c0-1.2-1.2-2.4-2.1-2.6c-1-0.2-1.4-1.2-1.2-2.4c0.2-1.2-0.3-1.7-1.2-2.9c-1-1.2-2.2-1-4.1-1.2c-1.9-0.2-1.6,1.4-1,1.7
		s0.5,5,1.2,5.3s1.6,3.4,0.5,4s0.2,1.7,1.4,1c1.2-0.8,3.8,3.2,3.8,3.2l2.7,1.6c0,0,0,1.2,0.5,1.9c0.5,0.8-0.9,0.7-0.9,1.4
		c0,0.8-1.6,2.7-1.4,3.4s2.4,4.6,3.4,3.8c1-0.8,2.6-1,4.6-1.2c2.1-0.2,0.8,3.6,0.7,4.6c-0.2,1-1.4,1.4-0.5,1.9
		c1,0.5,2.4,3.1,2.4,3.1s-1.2,3.8-1.3,5.8c0,0,0.6,3.2,1.5,2.7s1.6-2.1,3.1-1.6c1.4,0.5,3.4,0.3,3.8,1.4c0.5,1.2,2.1,2.1,2.9,1.7
		c0.8-0.3,3.6-0.3,3.6,0.3c-0.2,0.7-1.6,1.7-3.4,1.6s-2.1-0.7-2.1,0.3c0,1,0.8,2.2,0.8,3.2s-1,0.2-2.1,1c-1.2,0.8-2.2,1.7-2.2,1.7
		s-1.4-1-2.6-1.2s0.7-1.6,2.2-2.2c1.6-0.7,2.1-1,2.2-1.7c0.2-0.8,0-1.9-1.4-1.9c-1.4,0-1.6-1.2-3.4-1.2s-1.9-0.5-3.1-0.5
		s-1.6-1.6-2.6-1.6c-1,0,0.7-1.9,0.7-1.9c-0.5-3.9-0.9-5.2,0.2-5.7c1.2-0.5,0.1-2.1-1.1-3c-1.2-0.8-5.3-3.6-5.8-4.5
		c-0.5-1,0-2.1-0.5-3.4c-0.5-1.2-1.6,0.1-2.8,0.1c-1.2,0-0.5-1.9-2-2c-1.6-0.2-1.4-1.2-1.3-2.5c0.2-1.2-1-4-1-4s-3.6-2.2-4.3-3.1
		c-0.8-0.8,1.8-0.9,1.8-0.9s1.5,1,2,0.2c0.5-0.8-1-1.2-1.4-2.4s-0.1-0.5-0.3-1.7c-0.2-1.2-0.1-1-0.9-2.1c-0.8-1.2-5.8-1.7-5.7-2.2
		c0.2-0.5,4.3,0.5,6.4,0.2c2.1-0.3,0.3-2.4-0.8-3.4c-1.2-1,0.7-1.6,1.2-2.7s2.1-0.4,4.1,0c2.1,0.3,1.2-1.2,0.3-2.1
		c-1-0.8-2.2-1.7-1.6-2.1c0.7-0.3,0.8-0.5-0.5-1.2c-1.2-0.7-3.6,1-3.1-0.8c0.5-1.7,2.8-0.5,4.7-0.5c1.9,0,2.1-0.7,2.9-1.8
		c0.8-1.2,0.7-2.9-0.5-3.1c-1.2-0.2-3.5-7.3-4.2-8.4c-0.8-1.2,1.8-1.1,2.8-2c1-1-1.4-1.9-3.6-1.9c-2.1,0-2.1-2.6-3.6-4.2
		c-1.5-1.6-5.1-0.9-3.6-1.7c1.4-0.8,1.2,0.7,3.1,0.2c1.7-0.5,1.7,2.1,2.7,1.4c1-0.7,0.5-2.6,0-3.6s-3.4,0.8-3.6,0s2.6-1.7,3.6-1.6
		c1.2,0.2,1.2-3.6,1.9-4.6c0.5-0.7-0.8-0.3-1.9-0.5c-0.6-0.1-5.4,6.9-5.9,6.5c-0.2-0.2,6.3-7.9,3.7-7.8c-2.2,0.1,2.1-2.8,3.4-3.6
		c1.4-1,2.7-2.2,2.2-3.6s-0.7-1.2,0.2-1.6c0.9-0.5,1.9,0,2.1-0.8c0.2-0.8-0.5-2.9,0.2-2.1c0.7,0.8,2.1,2.1,2.7,1.2
		c0.7-1,1.2-1.4,2.4-1.4s-0.2,2.9,1.2-0.2c1.3-3.1-2-5.8-1.1-4.3c1,1.4-1.2,3.3-1.1,2.7c0.1-0.7-1.6-1.6-3.3-1.6s0.2-0.8-0.5-1.7
		c-0.7-1-2.6-0.2-3.2-0.3c-3.3-0.8-6.6,1.3-6,0.2c1.2-2.1-1.8-4.8-3.3-5.8c1-0.1,1.5-2.5,1.8-1.6c0.3,1,4.8,4.1,5.6,3.9
		c0.8-0.2-3-5.9-1.5-4.6c1.3,1.2,3.2,4.1,3.5,4.6c-0.3-0.5,1.2-0.6,1.9,0.1c0.7,0.7,1.4,2.7,1.6,1.4c0.2-1.2-1.2-5.5-0.3-4.6
		s1.9,6.4,1.9,5.6c0-0.8,0.7-0.4,1.7-1c1.2-0.7-2.4-7-2.4-7l-20.2-9c0,0-1.2,0.8-1.2,1.6s-1.6,1-2.2,1.2c-0.7,0.3-1.2,1.7-2.2,4.5
		s0.8,4.8,1.7,6.7s0.3,3.6-0.7,5.6c-1,2.1-0.8,5-1,7c-0.2,2.1-2.1,2.1-2.6,1.7s-3.2,0.2-4,0.2s-1-0.5-1.8-1.2
		c-0.9-0.8-0.4-3.8-0.1-4.6c0.3-0.8-0.5-2.9-1.6-3.8c-1.2-1,0-2.4,0-2.4s-137.7-9.5-139.4-10.2c-1.7-0.7-1.2-1-2.6-1.6
		c-1.2-0.7-0.2-3.2,0-5.3c0.2-2.1-1.2-3.6-1.4-4.6c-0.3-1.2-0.8-2.7-1.7-3.1c-1-0.4-0.7-2-0.7-2H1.1c0,0,1,1.9,0.1,3.8
		c-2.1,4.4-0.9,5,0,6C2,19,4.1,21,4.8,22.5c0.7,1.4,3.2,3.2,5,4c1.7,0.8,2.1,2.9,2.5,3.8c0.5,1-2.4,5-3.2,6.4c0,0-2-0.4-0.9,0.3
		s1.6,0.8,1.6,0.8c0-0.7,0.9,0.2,1.1,1.2c0.4,1.8,2.8,0,3.5,0.8c0.7,0.8-0.1,2.9,0.6,2.7c0.7-0.2,1.3,0.1,0.7,0.6
		c-0.7,0.5-2.2,0.2-2.7,0.8c-0.5,0.6-1.6,0.4-1.9,1.1c-0.3,0.7-0.2,2.3,0.3,2.3s0.3,0.7-0.3,1.1c-0.7,0.4-0.9,0.6-1.2,1.2
		c-0.7,1.2,0.9-0.2,5.8-0.6l1.9-0.8c0.9,0.1,0.9,0,0.6-1c-0.3-1-3.2,0-2.6-0.5c0.6-0.5,3.6-1.1,4-1.6c0.5-0.6,1.2-0.3,1.9-1
		c0.8-0.7,1.3-0.3,2.5-1.2c1.2-0.8,0.2-2.1,0.6-3.4c0.3-1.2-1.5-3.3-2.9-4.4c-4.3-3.6-4.1-9.2-4.1-11c0,0,3.6,5.6,4.4,6.7
		c0.9,1.2-0.5,1.7,1,2.1c1.4,0.4,0.7,0.3,2.1,1.1c1.5,0.8,0.3,0.6,1.2,1.7c0.9,1.2,2.7,0.4,2.5,1.2c-0.2,0.8-0.5,1.2-0.5,2
		c0,0.8,0.6,2.6,1,2c0.3-0.6,1-0.7,1.1-1.8c0.1-1.2,0.7-2,0.6-2.7c-0.1-0.8,0.8-0.8,1.3-1c0.7-0.2,0.8-1.2-0.2-2.2
		c-1-1-1.2-3.2,0.7-3.6c1.9-0.3,2.7-2.7,2.7-2.1c0,0.6-1.5,3-2.6,3.3c-1.2,0.3,0.2,0.4,0.6,1.4c0.3,1.1-0.3,0.8,0.6,1.3
		c0.5,0.4,2,0.9,2,0.9s5.3-3.1,5.5-2.8s-4.1,3.2-4.5,3.6s-2.2,1.7-3.5,2.7c-1.2,1-0.6,0.8-0.6,0.8c0.6,0.3,0.8,0.7,1.6,1.5
		c0.8,0.9,9.3,2.9,8.7,2.8c-0.6-0.1-3,0.2-3.9,0.2c-1,0-3.3-0.2-4.4-0.2c-1.2,0.1-0.1,0.7-0.9,1.2c-0.8,0.4-4.2,1.2-5.3,1.2
		s-2.2,0.6-3.2,1.2s-2.4,1.2,1.4-0.2s11.1-1.8,12.9-2.2c1.7-0.4,12.5-0.6,13.3-0.7c0.8-0.1,1.2-0.3,0.4-1.2
		c-0.8-0.8,1.7-2.9,1.7-2.9s-0.4,0.3-0.8,1.8c-0.3,1.5,0.4,0.2,1.9,0.8c1.5,0.6,1.2-0.8,2.5-0.9c1.2-0.2,0.1-1.2,0.6-1.9
		c0.2-0.4,1.1-0.3,0.9-0.9c-0.3-0.6-0.4-1.2-0.4-1.2s0.2,0.6,0.4,1.2c0.1,0.3,0.3,0.6,0.5,0.7c0.6,0.4,0.6-0.8,1.8-1.4
		c1.2-0.8,2.1,0.5,1.5,0c-0.7-0.5-0.4,0.5-1.8,1.3c-1.4,0.9,0.8,1.6,2.1,2.3c1.3,0.7,1.4-0.2,2-0.9c0.6-0.8,2.4-0.9,4.5-0.6
		c0.6,0.1,1,0,1.2-0.3c0-0.2,0-1.8,0.2-2.3c0.4-0.9,1.6,1.4,0.8,2c0.1,0.3-0.7,0.7-0.1,0.8c0.9,0.2,2.5-2.9,2.9-3.6
		c-0.6,1.2-1.4,4.3-0.6,4.8c0.8,0.5,2.8-2.9,3.1-2.2c0.3,0.7-1,1.7-1.6,2.3c-0.7,0.7,2,1.2,3.1,1.2c1.2-0.1,2.5,0.3,3.6,0.2
		c1.2-0.2,7.2-1.2,7.5-0.6S87,45,86.4,45.7c-0.6,0.7-2.7,0.8-3.5,0.1c-0.8-0.7-3.7,2.1-4.3,0c-1.2,1.3-2.1,0-3-1
		c-0.9-1-1.8-1.8-3-2.3c-1.2-0.5,0.4,1.9,0,2.3c-0.4,0.4-2.7-0.9-4-1.9c-1.4-1.1-0.1,2.1-0.9,2.3c-0.8,0.2-3.8-0.5-4.4-0.8
		c-0.6-0.3-4.7-0.1-4.7-0.1l2.1,1.7c13.1-0.2,21.1,5,24.1,6c3,1,7.4,4.5,12.9,8.3c0.6,0.4,1.1,0.8,1.6,1.1L97.6,59c0,0,3,1.9,3,1.2
		c0-0.7,0.2-1.1-0.7-1.2c-0.8-0.2-4.8-3.1-4.8-3.1c-0.8-0.5-3.5-2-2.5-3.3c0.9-1.2-2.2-2.7-1.3-3.1c0.9-0.3,4.9,0.7,4.6,0.2
		c-0.3-0.5,1.9,0,2-0.8c0.1-0.8,0,0.6,1.2,1.8c1.2,1.2,1.3,2.6,1.3,3.1s-0.2,0.2,0.8-0.6s1.4,0.2,2.1-0.9s0.4-0.4,0.8-1.1
		c0.3-0.7,0.4,0.6,1.2,0.7c0.8,0.1,1.2,0.6,1.4-0.8c0.2-1.2-0.2-3.5,1.2-3.6c0.3,0,0.8,0.9,0.9,0.9c0.4-0.1,0.1-3.4,0.1-3.4
		s3.6,4.4,2.7,4.5c-0.5,0.1-3.8-0.7-3.7,0c0.1,1.2,1.9,2.6,1.8,3.1c-0.2,1-1.5-1.6-2.1-1s0.1,1.3-0.7,1.3c-0.3,0-1.3-0.6-1.2-0.1
		c0.1,0.5-0.8-0.2-1.5,0.3c-0.8,0.5-0.7-0.3-1.2,0.8c-0.7,1.1-1.2,1.8-1.7,2.3c-0.5,0.5-1.3,1.1-1.3,1.1s2,0.2,2.4,1.2
		c0.4,1.1,0.7,1.1,0.9,1.4c0.2,0.4,1,0.9,1.5,0.5c0.6-0.4,0.5-1.1,1.2-0.8c0.7,0.3,1.2-0.3,1.2,0.5s0.1,1.6,1,1.1
		c0.9-0.6,1-1.2,1.7-0.7c0.8,0.6,0.5,0.9,1.3,0.3c0.9-0.6,1.7-1,1.7-1s-2.8,2.7-1.8,2.7c1-0.1,1.7-1.1,1.8,0c0.2,1.1,1.1,4,1.7,3.9
		c0.7-0.2,0-2.4,1.1-3.1c1.1-0.7,1.3-0.8,1.1-1.5c-0.2-0.8,0.7,0.9,0.1,1.4s-1.9,1.1-0.9,1.5s2.1-0.8,2.2,0.2c0.1,1,1.6,0.9,1.6,0.9
		s-0.3,3.4-1.2,4c-0.5,0.4-1.2-0.6-2.3-2.7c-0.4-0.8-0.9,0.3-1.8,0.3c-1,0-0.5-0.6-1.6-0.6c-0.8,0-1.9-0.8-2.9-1.8
		c-0.5-0.6-1.4-1.5-2.3-1.9c-1.3-0.7-1.2-0.5-1.8-1.4c-0.7-1-1.4-0.9-1.7-0.8c-0.3,0.1-0.9-0.8-1.2-0.7c-0.4,0.2-0.1,1.1,0.5,1.5
		c0.9,0.7,1.5,1.6,1.5,1.6c2,0.9,3.4,1.4,3.6,2c0.5,1.2,1.7,1,3.6,3.2c1.7,2.2,1.1,1.8,2.5,1.8s2.2,0.8,3.3,1.6
		c1.1,0.9,3.2,4.6,3.2,4.6c2.4,7,2.4,9.8,3.4,9.4c1-0.3,10-0.8,11-0.6c6.7,1.5,2.8-1.9,2-1.6c-0.8,0.3-5,0-6,0c-1,0-0.1-0.8-2-0.3
		c-1.9,0.5-0.5-2.1-1-2.3c-0.5-0.2,0.5-1.3-1-1.7c-1.4-0.4-0.3-1.3-0.8-2.3c-0.5-1,1.2,1.2,1.7,0.5c0.5-0.7,1.2,0.1,2.2-0.8
		c1-0.9,0.5-0.2,1-1.7c0.5-1.5,0.3,0.8,0.8,0.8c0.5,0,0.8,0.8,1.6,0.7c0.8-0.2,0.5,1,1,1c0.5,0,0-0.8,0.5-1.2s-0.8-2.2-2.5-3
		c-0.8-0.3,2-2.1,1-3.6c-1.1-1.5-3.6-2.5-3.6-3.3c0.1-1.1,4,1.4,3.4,0c-1.3-2.9,2.6,0.5,3.6,1.6c0.6,0.7,1,4.4,0.8,5.7
		c-0.2,1.2-0.4,0.8,0.4,2.1c0.8,1.2-0.2,0.2,0.1,1.5c0.3,1.2-0.3,1.2,1,1.4c1.2,0.2,1.4,0.2,1.7,1c0.3,0.8,2.1-0.5,2.4-1.2
		c0.3-0.7,2.7-1,3.2-0.5c0.5,0.5,1.7,1,1.7,1s-3.6,2.2-4.1,2.9c-0.7,0.7-0.8,0.8-1,1.7c-0.2,1,1.2,1.4,1.2,0.5s3.8-2.1,5-2.4
		c1.2-0.3,1.4,0,2.1-1c0.7-1,5.1-3.4,5.5-3.8c0.3-0.5,5.8-3.4,7.9-3.6s1.9,0.2,3.8-0.2s1.4,0.2,2.7,0.7c1.2,0.5,0.5-1.4-0.4-2.4
		c-0.8-1-1.1-1.2-2-1.2c-1,0-1.9,0-2.4-1.2c-0.5-1.2-1-0.3-1.2,0.3c-0.2,0.7-1.7,0.2-3.1,0c-1.2-0.2-0.7,0-0.7,1
		c0,1-2.2,3.1-2.2,3.1s-1.5,0.6-2.3,0.9c-1.1,0.5-4.3,1.3-4.6,1.2c-0.4-0.3,3.2-2.7,5-3.7c0.3-0.2,1.3,3.1,3-0.6
		c0.2-0.5,0.2-1.6,0.2-2.2c0-0.7,1.9-0.3,1.9-0.3s-2-1.5-2.7-1.8s-2.7-1.8-2.7-1.8s-3.5-5.5-2.7-4.6c0.8,0.8,4.8,3.1,5.6,4
		c0.8,1,1.2,0.8,1.9,2.2s0.8,1.4,2.1,1.2s-0.9-2.1-0.9-2.1s0.9-2.1,1.3-1.3s1.7,2.1,1.6,1.3c-0.2-0.8,1.1-2.1,1.1-0.8
		s1.2-0.6,1.3,0.9c0.2,1.4-0.6,3.1,0.6,3.1s1.7-0.7,0.5-1.2c-1.2-0.7,0.4-1.3-0.2-2.8c-0.7-1.4,1.4,0.2,2-1.7
		c0.7-1.9,0.9-1.2,1.2-2.3c0.3-1.2,0.5-0.7,1.5,0c1.2,0.7,2,1.6,1.8,0.7c-0.2-1,0-3.2,0.7-3.2c2.1-0.2-0.4-3.8,0.1-3.3
		c0.2,0.3,1.3,1,2.6,1.6c0.3,0.1,3-4.5,3.3-4.4c0.7,0.3-2,5.3-2,6.7c0,1.2,2.6-1.1,2.9-1.2c1.4-0.5,3.5,0.1,5.1-0.4
		c1.6-0.5,2-0.5,3.1-1c1.2-0.5,3.5,0.1,3,1.1c-0.5,1,0.2,1.3,0.2,2.5s0,1.6,1,1.6c1,0,1.7,0.3,1.7,1.1c0,0.8,1.5,0.6,2.6,0.5
		c1.2-0.2,2.7,1.6,3.5,1.4s4.1,7.1,5,8.2c0.9,1.2,0.1,0.7,1.3,1.2c1.2,0.7,2.8,1.4,2.8,2.7c0,1.2,3.6,5.6,4.1,6.1
		c1.4,1.4,3.6,0.4,4.3,3.4c0.1,0.6,2.6,1,3.1,1.5c0.3-1.2,1.3-3.5,1.4-2.7c0.1,0.5-1.5,6.7-1.4,7.4c0.3,1.9,4,3.8,3.7,6
		c-0.1,1,1.2-0.7,2.6-0.8c1.4-0.2,2.8,1,3.6,0.3s1.8,0.8,2.8,1.9c1,1.2,0.7,4.4,0.7,5.5c0.1,2.1,1.4-0.7,2.6-1.2
		c1.2-0.5,2.1-0.7,1.6-1.9c-0.5-1.2,2.7-4.3,2.7-5.8s1.3-14.8,2-13.7c1,1.6,0,9.3-0.2,11.5c-0.2,2.2-1.9,5.5-2.4,6.2
		c-0.5,0.8-0.8,4.5-0.7,6.5c0,0.7,0.3,2,0.2,2.7c-0.4,2.9,1.1,0.6,0,2.7c-1,1.9,0.9,2.7,2.8,2.6c1.9-0.2,3.2-2,4.8-1
		c1.1,0.7,1.2,1.9,2.1,1c1-1,0.8-3,1.9-3.3s1.3,3.1,2.7,3.1c1.2,0,2.4,3.1,1.7,4.2s-0.8,3.6,0,5.3c0.8,1.7-0.7,1.4-0.3,3.2
		c0.3,1.7-0.6,0.1,0.2,1.8c0.8,1.7,6.9,3.2,7.7,4.6c0.8,1.4-0.1,4.3-0.1,5.8s-0.1,1.1,0.2,2.4c0.3,1.2-1.7,1.2-0.7,3.2
		c1.2,2.1,0.1,6-0.9,7.3c-1,1.2-1.1,1.7-0.9,3.7c0.2,2.1-1.7,2.7-2.5,4.1c-0.8,1.4-2,4.1-2.8,4.8c-0.8,0.7-0.4,2.9-0.6,4.3
		c-0.2,1.4-1.2,4.3-2.2,5.3c-1,1,2.8,8.8,2.5,10c-0.3,1.2-4.6-3.8-4.1-2.1c0.5,1.7-2.4,9.4-3.6,11s1.3,5,2,5.6
		c0.7,0.7,1.2-4.8,2.4-3.3c1.2,1.6,1.8,8.2,1.8,8.2s0.8-1.1,2.9-0.4c2.1,0.7,2.4,1.3,2.1,0.2c-0.3-1.2-0.5-3.6,0.3-4.7
		c0.8-1.2-0.8-2.4-1.2-3.6c-0.5-1.2-2-2.4-3.1-2.6c-1.2-0.2-0.3-1.3-0.6-1.8c-0.3-0.5,2.4-3.1,2.4-3.1s-1.2-1.2-1-2.1
		c0.4-2.1,5.3,0,8.2,2.3c2.9,2.3,0,4.1,0.3,6c0.2,1.4,3.6,4.1,2.9,2.2c-0.7-1.7,0.2-4.3,0.8-6c0.7-1.6,2.2,1.6,2.9,0.8
		c0.7-0.8-0.3,1.6,1.2,3.6c1.6,2.1-0.3,6-0.5,7.5c-0.2,1.6-0.6,2.1-2.5,3.4c-1.9,1.2-3.1,1.2-4.5,3.6c-1.4,2.2-1.9,5-3.2,5.9
		c-1.2,0.9-1,3.1-1.9,1.9c-1-1.2-1.4,1.1-1.5,1.7c-0.1,0.7-0.3,0.1,0.7,1.7c1,1.6,2.8,0.5,4.2,2.4c1.4,1.9,2.5,9,0.4,7.5
		c-0.7-0.5-0.2,1.2,0.8,2.1c1,0.8,3.4,1.9,4.2,6.2c0.8,4.3,2.2,7.4,3.2,8.4c1,1,3.7,2.9,4.2,4.8c0.5,1.9,3.8-0.5,3.7-1.5
		c-0.2-1.2-5.1-5-5.8-5.7c-0.5-0.5,1.1-3.8,0.2-5.3c0.9,1.4,6,5.5,6.4,6.7c0.5,1.2,2.2,0.2,3.1,1.7c0.8,1.6,3.3-0.5,4.5,0
		s1.4,1,2.4,0.3c1-0.7,1.7-1.6,1.7-1.6s0-4-0.2-5c-0.1-0.7,2.4-2.6,3.6-3.6c-1.3,1.5-3.8,6.2-0.6,9.9c0.9,1-2.3,2.1-3.1,2.2
		c-0.8,0.2,0,4.8-0.8,6c-0.8,1.2,0.1,2.1-0.8,3.7c-0.8,1.6,1.8,4.4,1.3,6c-1,3.2-0.8,6.4,1.4,5.8c1.4-0.4,3.6-2.4,3.6-3.3
		c0-0.8,3.8-3.8,4.6-4.5c3.4-2.4,12.1-1,12.4-0.8c0.5,0.4-10.5,1.8-11.1,1.8c-1,0-4.1,2.9-4.1,3.6c0,0.8-0.2,3.8-0.8,3.8
		s0.8,3.8,3.2,3.8s-0.2,1.6,0.3,2.4c0.5,0.8,0.6,8.9,0.2,10.3c-0.3,1.2,0.7,3.6,0.3,5.3c-0.3,1.6,5.8,4.5,7.9,4.5
		c2.1,0,2.7,1.9,3.9,2c1.2,0.1,0.8-2.8,2.7-2.3s7.9,4.3,8.2,3.4c0.3-1,6,3,10.5,3.8c5.3,1,9.1,0.3,9.2,1.4c0.2,1.2,4.3,0.3,5.8,1.2
		c1.7,1.2,0.4-9.1,2.1-9.4c2.7-0.3,6-0.2,8.4-3.3c1.1-1.3,3.9-3.6,3.1-4.7c-0.8-1.2,5.5,0.4,5.7-0.2c0.2-0.7,4.6,2.8,4.6,2.3
		c0-0.5,6.5-0.5,7.2-1s3.6,3.3,4,3.6c0.8,0.5,1-1.5,1.8-2.1s1.8,1.3,3,1.4c1.2,0.1,1.2-2.5,2.3-3.7c1.2-1.2,1.5-3.6,1.5-3.6
		c0-0.7,0.8-4,1.5-15.5C400,262.8,395.8,252.7,393.9,250z M129.1,61.9c-0.4,0-1.3-3.8-1.4-5.9c0,0,1.4,2.9,1.4,3.6
		C129.1,60.5,129.5,61.9,129.1,61.9z M152.2,73.2c-1,1.1-0.9,1.1-0.9,0.5c0-0.6,0.4-1.7,0.8-2.1c0.4-0.4-0.1-1-0.8-2.5
		c0,0,0.3,0.8,1.8,1.1C154.7,70.4,153.1,72.1,152.2,73.2z M381.2,217.4c0,0,0,0,0.8,0.9c0.8,0.9,0,2.7-0.8,2.3
		C380.4,220.2,380.7,218.8,381.2,217.4z M348.2,150.8c-0.8-0.8-1.9-0.8-1.4-1.7c0.5-1,0.7-1.9,0-2.6s-1.3-0.8-1.3-0.8
		c-0.8-0.2-0.3-0.8-0.7-1.4s0.5-1.2,0.7-1.8s1.2,0.1,1.7,0c0,0,0.7,0.7,0,1.2c0,0,1,0.3,1.4,0.2c0.5-0.2-1.2,1-1,1.7
		c0.3,0.8,1.6,2.2,1.7,3.4c0.2,1.2,1,2.2,1,2.9s1.2,1.4,1.4,0.5c0.3-1,0.8-2.6,1.6-2.9c0.8-0.3,1.7,0.5,1.2,1.2
		c-0.5,0.7-1-0.3-1.2,1.9c-0.3,2.2,2.7,7,3.5,8.3c0.8,1.2-5.4-4.6-5.4-5.6c0-1-2.1-2.4-2.6-2.2C348.2,153.1,348.9,151.7,348.2,150.8
		z M352.3,258.6c-1.3-4.2-3.2-5.6-3.1-7.3c0.1-2.7,1.4-5.3,4.5-5c3.1,0.3,2.7-1.6,2.7-2.2c0-0.7,0.9-2.7,0.9-3.5s0.4-3.3,1.2-3.6
		c3.3-1.3,10.1,8.6,9.7,10.6c-0.3,1.9,0.4,0.6,0.9,5.4c0.5,4.8-5.9,12-8.6,12.7C357.6,266.3,353.6,262.7,352.3,258.6z M382.5,265.2
		c-1,0.3-1.6,0.1-1.9,2c-0.3,1.9-2.3,1.6-1.7,2.9c0.7,1.2-1.2-0.5-0.8,4.3c0.5,4.8-2.7,11.1-5.5,11.9c-2.8,0.8-6.3-4.4-7.7-5
		c-2.3-1-4.3,1.9-6.8-1.5c-2.9-3.9-2.9-9.9-2.8-11.6c0.1-2.7,7.5,1.7,10.6,2c3.1,0.3,3.8-0.5,3.8-1.1c0-0.7,1.3-1.9,1.3-2.7
		c0-0.8,1.2-7.9,1.4-8.6c0.3-0.8,4.4,1.7,4.4,1.7c0.8,1.9,2,3.2,2,3.9C379.1,264.1,383.5,264.8,382.5,265.2z M388.9,239.9
		c0,0.9-1.3,2.1-1.3,2.1s0-2.3,0-3.4c0-1.1-1.5-3-1.5-3.7s-1.2,0-2,0.8c-0.8,0.8-0.2-1.2-0.1-2.1c0.1-1,0-3.7,0-4.7
		c0-1-2.5-3.1-1.7-4.2c0.8-1.2,2.8,5,2.8,5s0.5,2.5,0.6,3.1c0.1,0.6,2.8,3.7,3.3,4.1S388.9,239.2,388.9,239.9z"/>
	<path fill="#69C8C9" d="M316.5,34.2L316.5,34.2C316.6,34.3,316.5,34.3,316.5,34.2z"/>
	<path fill="#69C8C9" d="M268,200.2c0,0.1,0,0,0.1-0.2C268.1,200,268,200.1,268,200.2z"/>
</g>
</svg>
