<?xml version="1.0" encoding="utf-8"?>
<!-- Generator: Adobe Illustrator 18.0.0, SVG Export Plug-In . SVG Version: 6.00 Build 0)  -->
<!DOCTYPE svg PUBLIC "-//W3C//DTD SVG 1.1//EN" "http://www.w3.org/Graphics/SVG/1.1/DTD/svg11.dtd">
<svg version="1.1" id="Layer_1" xmlns="http://www.w3.org/2000/svg" xmlns:xlink="http://www.w3.org/1999/xlink" x="0px" y="0px"
	 viewBox="0 0 397.7 381.8" enable-background="new 0 0 397.7 381.8" xml:space="preserve">
<path fill="#FFFFFF" d="M223.1,80.6c0.1,0.2,0.2,0.3,0,0.5C223,81.3,223,81,223.1,80.6z M309.6,301.2c-1,0.2,0.5,1.6,0.8,0.8
	C310.6,301.2,309.6,301.2,309.6,301.2z M387.7,304.6c-0.6,0.3,0.3,2.2-0.5,3.2c-0.8,1,0.3,2.2,0.3,2.2c-1,0.8-3.6,0.5-4.1,3.8
	c-0.2,1.4-4.5,6.4-5.9,6.5c-1.4,0.2-4.3,2.4-3,3.5c1.3,1.1-2.2,3.9-1.9,5.4c0.3,1.4,1.8-1.6,2.9-2.2c1.8-1,1,2.3,1.8,1.8
	c0.8-0.5,0.2-4.5,0.6-5.1c0.3-0.6,1.4-1.4,1.4-2.2s0.8-0.5,1.3-1.9c0.5-1.4,3-2.4,3.4-3.6c0.5-1.2,3.9-3.6,4.7-4.1
	c0.8-0.5,0.3-4.3,0.3-5.3C388.9,306.7,388.3,304.3,387.7,304.6z M358.5,134.9c0.1,0.1,0.2,0.2,0.2,0.3L358.5,134.9z M330.8,62.7
	c0,0.1,0,0.1,0,0.2C330.9,62.9,330.9,62.9,330.8,62.7z M288.7,261.2c0.3-0.8-1.1-3-1.1-3C286.6,258.5,288.4,262,288.7,261.2z
	 M300,12.8c0.3,1.1,1.1,0,3.3,0s0,1.6-0.8,1.6c-0.8,0-3.2-1.1-3-0.3c0.2,0.8,3.7,1.6,3.7,1.6s2.1,0,2.5,0s0.8,0.8,0.8,1.4
	c0,0.6-2.5,0-2.5,0l-4.3-0.8c0,0,1.1,1,1.3,2.1s1.8,0,4.3,0s2.1,0,2.5,0c0.5,0,0.8-1.4,1.9-2.5c1.1-1.1,2.2,2.5,3,1.6
	s3.3,1.3,5.3,1.6c0,0,3.5,6.3,2.4,6.9c-1.1,0.6-1.7,0.2-1.7,1c0,0.8-1-4.8-1.9-5.6c-1-0.8,0.5,3.3,0.3,4.6c-0.2,1.3-1-0.8-1.6-1.4
	c-0.6-0.6-2.1-0.6-1.9-0.1c-0.3-0.5-2.1-3.4-3.4-4.6c-1.4-1.3,2.3,4.4,1.6,4.6c-0.8,0.2-5.2-3-5.5-3.9c-0.3-0.8-0.9,1.5-1.8,1.6
	c1.5,1,4.6,3.6,3.3,5.8c-0.7,1.1,2.7-1,5.9-0.2c0.6,0.1,2.5-0.6,3.2,0.3c0.6,1-1.1,1.8,0.5,1.8c1.6,0,3.3,1,3.2,1.6
	c-0.1,0.6,2-1.2,1.1-2.6c-1-1.4,2.4,1.3,1.1,4.3c-1.4,3,0.1,0.2-1.2,0.2c-1.3,0-1.8,0.5-2.4,1.4c-0.6,1-2.1-0.3-2.7-1.1
	c-0.6-0.8,0,1.3-0.2,2.1c-0.2,0.8-1.3,0.3-2.1,0.8c-0.8,0.5-0.6,0.2-0.2,1.6c0.5,1.4-0.8,2.7-2.2,3.7c-1.3,0.9-5.5,3.7-3.4,3.6
	c2.6-0.1-4,7.5-3.7,7.8c0.4,0.4,5.2-6.5,5.8-6.5c1.2,0.1,2.4-0.2,2,0.5c-0.6,1-0.8,4.8-1.9,4.6c-1.1-0.2-4,0.8-3.7,1.6
	c0.3,0.8,3.2-1.1,3.7,0c0.5,1.1,1,3,0,3.7c-1,0.6-1-1.9-2.7-1.4c-1.8,0.5-1.6-1-3-0.2c-1.4,0.8,2.1,0,3.7,1.7s1.6,4.2,3.7,4.2
	c2.1,0,4.5,1,3.5,1.9c-1,1-3.6,0.9-2.8,2c0.8,1.1,3.1,8.2,4.2,8.4c1.1,0.2,1.3,1.9,0.5,3c-0.8,1.1-1,1.8-2.9,1.8
	c-1.9,0-4.2-1.3-4.7,0.4c-0.5,1.7,1.8,0.2,3.1,0.8c1.3,0.6,1.1,0.8,0.5,1.1c-0.6,0.3,0.6,1.3,1.6,2.1c1,0.8,1.8,2.4-0.3,2.1
	c-2.1-0.3-3.7-1-4.1,0s-2.2,1.7-1.1,2.7c1.1,1,2.9,3,0.8,3.3c-2.1,0.3-6.2-0.6-6.4-0.2c-0.2,0.5,4.8,1.1,5.6,2.2
	c0.8,1.1,0.7,0.8,0.9,2.1c0.2,1.3-0.2,0.6,0.3,1.8s1.9,1.6,1.4,2.4c-0.5,0.8-2-0.2-2-0.2s-2.6,0-1.8,0.8c0.8,0.8,4.3,3,4.3,3
	s1.1,2.7,0.9,4c-0.2,1.3-0.3,2.3,1.3,2.5c1.6,0.2,0.9,2,2,2c1.1,0,2.2-1.4,2.7-0.1c0.5,1.3,0,2.4,0.5,3.3s4.6,3.7,5.7,4.5
	c1.1,0.8,2.1,2.5,1,2.9c-1.1,0.5-0.7,1.7-0.2,5.6c0,0-1.6,1.9-0.7,1.9c1,0,1.4,1.6,2.5,1.6s1.3,0.5,3,0.5c1.8,0,1.9,1.1,3.3,1.1
	s1.6,1.1,1.4,1.9c-0.2,0.8-0.6,1.1-2.2,1.8c-1.6,0.6-3.3,2.1-2.2,2.2c1.1,0.2,2.5,1.1,2.5,1.1s1.1-1,2.2-1.8c1.1-0.8,2.1,0,2.1-1
	c0-1-0.8-2.2-0.8-3.2c0-1,0.3-0.5,2.1-0.3c1.8,0.2,3.2-1,3.3-1.6c0.2-0.6-2.7-0.6-3.5-0.3c-0.8,0.3-2.4-0.6-2.9-1.8
	c-0.5-1.1-2.4-1-3.8-1.4c-1.4-0.5-2.1,1.1-3,1.6s-1.6-2.7-1.6-2.7c0.2-1.9,1.3-5.7,1.3-5.7s-1.4-2.5-2.4-3c-1-0.5,0.3-1,0.5-1.9
	c0.2-1,1.4-4.8-0.6-4.6c-2.1,0.2-3.7,0.3-4.6,1.1c-1,0.8-3.2-3.2-3.4-3.8c-0.2-0.6,1.5-2.5,1.5-3.3c0-0.8,1.3-0.6,0.8-1.4
	c-0.5-0.8-0.5-1.9-0.5-1.9l-2.7-1.6c0,0-2.5-4-3.8-3.2c-1.3,0.8-2.5-0.3-1.4-1c1.1-0.6,0.2-3.7-0.5-4c-0.6-0.3-0.5-4.9-1.1-5.3
	c-0.6-0.3-1-1.9,1-1.8c1.9,0.2,3.2,0,4.1,1.1c1,1.1,1.4,1.6,1.3,2.9c-0.2,1.3,0.3,2.2,1.3,2.4c1,0.2,2.1,1.3,2.1,2.5
	c0,1.3,0.2,4.3,2,4.6c6.1,1,9.4-3.5,8.6-5.1c-0.8-1.6-4.9,5.8-7.6,0c-0.5-1-1.8-0.8-1.8-1.6c0-0.8-1.4-2.5-2.2-3.3
	c-0.8-0.8-1.6-1.4-2.1-2.5c-0.5-1.1-0.6-1.8-1.1-1.6s0.8-2.2,0-2.9s-3.8-2.4-2.1-2.7c1.8-0.3,2.5-2,3.3-1.4c0.8,0.6,0.8-4.2,1.4-3.2
	c0.6,1,2.1,3.1,2.5,3.2c0.5,0.1-0.4-3.7-0.2-4.3c0.2-0.6-2.5-1.4-3.1-1.4s-0.8-4.5-0.2-4.5c0.6,0-3-1.9-2.2-2.9
	c0.8-1,1.2-2.7,2.2-1.4c1,1.3,1.5,0.8,1.5,1.4c0,0.6,0.6-2.5-1.4-3.5c-2.1-1-6.2-2.1-6.2-3.5c0-1.4,0.5-3.5,1.4-3.3
	c1,0.2-1.8-3.3,0.6-2.9c2.4,0.5,4.1,1.9,4.5,1.3c0.3-0.6-3.7-2.5-4.8-2.4c-1.1,0.2-3.8,2.3-2.2-0.2c1.6-2.5,2.4-2.5,2.9-2.5
	c0.5,0-0.2-2-0.8-2.8c-0.6-0.8-2.4-1.9-1.6-2.7c0.6-0.6,1.2-1.6,2.1-1.8c0.8-0.2,1.2-1.1,0.9-1.9c-0.4-1.2-0.4-1.7,1-1.5
	c1.4,0.2,2.2-2.2,3.7-1.6c1.4,0.6,2.9,1,3.2,2.4c0.3,1.4,0.6,3,1,4.3c0.3,1.3,0.5,2.5-0.5,3.3c-1,0.8-1.6,4.3-0.2,2.3
	c0,0,1.4-3.1,1.6-2.5c0.1,0.5,1,13.9,4.8,18.5c0.8,1,0.7,6.2,1,7c0.3,0.8,3,5.7,3,7c0,1.4-0.2,6.2,0.6,7.2c0,0,5,7.1,5.9,12.6
	c0.3,0.9,2.4,6.1,2.4,6.1s5.3,12.6,5.7,13.1c0.4,0.6,5.9,8.6,6.3,9.9c0.4,1.2,2.9,6.3,3.7,7.6l-10.8-16.8l8.1,21.2c0,0,2,6.4,2,7.6
	c0,1.3,0.9,3.8,1.3,4.2c0.4,0.4,0.8,3.5,0.9,4.6c0.1,1.1,1.1,3.3,1.5,3.9c0.4,0.6,2.8,8.1,2.9,8.8c0.2,0.7,5,12,7.3,16.4
	c2.3,4.4,5.1,10.7,5.1,10.7s4,13,4.5,14.9c0.5,1.8,1.9,5.4,2.4,6c0.5,0.6,2.5,5.7,3.1,6.4c0.6,0.6,1.3,6.1,1.2,6.4
	c-0.1,0.3,5.1,7.4,5.1,7.4s-3,2.5-2.7,2.9c1.9,2.6,7.3,13.7,6.5,25c-0.8,11.3-3,12.9-3,13.5c0,0,1,4.3-0.1,5.4
	c-1.1,1.2-3.8-0.8-4.7-0.2s-1.7,0.3-2.4-0.2c-0.5-0.4-2.5-3-3.2-2.5c-0.6,0.5-8.3,1.6-8.3,2.1s-5.4-5.4-5.6-4.8
	c-0.2,0.6-4.6-2.2-3.8-1.1c0.8,1.1-4.1,3.4-5.4,4.5c-3.7,2.9-3.7,7.8-6.4,8.1c-1.8,0.2-4.6-1-5.9,1.8c-0.7,1.6-2.2,8.2-2.3,7
	c-0.2-1.1-3.7-1.1-9-2.1c-4.4-0.8-10.5-5.9-10.8-4.9c-0.3,1-5.8,0-7.7-0.4s-3.9-0.5-5.9-0.5c-2.1,0-7.2-2.2-6.8-3.8
	c0.3-1.6-2.2-3.9-1.9-5.2c0.3-1.3,0.3-9.4-0.2-10.2s2.1-2.4-0.2-2.4c-2.4,0-3.8-3.8-3.2-3.8s0.8-3,0.8-3.8c0-0.8,3.2-3.7,4.1-3.7
	c0.6,0,11.6-1.5,11-1.8c-0.3-0.2-8.9-1.7-12.3,0.7c-0.8,0.6-6.2,2.7-6.2,3.5c0,0.8-0.3,2.7-1.8,3.1c-2.1,0.6-2.6-1.6-1.7-4.7
	c0.5-1.6-2.1-4.4-1.3-6c0.8-1.6-0.1-2.6,0.7-3.7c0.8-1.1,0-5.8,0.8-5.9c0.8-0.2,4-1.3,3.1-2.2c-3.3-3.7-0.8-8.4,0.5-9.9
	c-1.2,0.9-3.6,2.8-3.5,3.5c0.2,1,0.2,4.9,0.2,4.9s-0.8,1-1.8,1.6c-1,0.6-1.1,0.2-2.4-0.3c-1.3-0.5-3.7,1.6-4.5,0
	c-0.8-1.6-2.5-0.5-3-1.8c-0.4-1.2-5.5-5.2-6.4-6.6c0.8,1.4-0.7,4.8-0.2,5.3c0.6,0.6,5.6,4.5,5.7,5.6c0.2,1.1-3.2,3.5-3.7,1.6
	c-0.5-1.9-3.3-3.9-4.2-4.8c-1-1-2.4-4-3.2-8.3c-0.8-4.3-3.2-5.4-4.2-6.2c-1-0.8-1.5-2.5-0.8-2.1c2.1,1.5,1-5.6-0.4-7.5
	c-1.4-1.9-3.3-0.8-4.2-2.4c-1-1.6-0.8-1.1-0.7-1.7c0.2-0.6,0.6-2.8,1.6-1.7s1.6,1.6,2.6,1s1.2-1.4,1.9-0.6c0.7,0.8,1.8,4.9,2.8,4.9
	c1,0,2.1-0.5,2.1-0.5s-2.1,0.5-2.4-1.6c-0.3-2.1-0.3-2.4,0.3-2.4c0.6,0,2.5-1.9,3.5-1.6c1,0.3,4.9,3.2,6.4,3.2s-2.2-0.8-3.2-2.4
	c-1-1.6-2.1-2.7-2.5-2.7s-2.9,1.1-3.8,1.1s-2.7,0.5-3.8,0.5c-1.1,0-1.8-2.2-1.1-2.5c0.6-0.3,1.5-4.5,2.5-4.1c2.5,1,2.5-2.2,4.5-3.5
	c1.9-1.3,2.3-1.8,2.4-3.3c0.2-1.6,2.1-5.4,0.5-7.5c-1.6-2.1-0.6-4.5-1.3-3.7c-0.6,0.8-2.2-2.4-2.9-0.8c-0.6,1.6-1.7,3.2-1,4.8
	c0.8,1.8-1.4,0-1.7-1.4c-0.3-1.9,1.5-3.5-1.3-5.8s-7.7-4.4-8.1-2.3c-0.2,0.8,1,2.1,1,2.1s-2.7,2.5-2.4,3c0.3,0.5-0.5,1.7,0.6,1.8
	c1.1,0.2,3.7,9.6,4,10.7c0.3,1.1,0,0.4-2.1-0.2c-2.1-0.6-2.9,0.4-2.9,0.4s-0.7-6.6-1.8-8.2c-1.1-1.6-1.7,3.9-2.4,3.2
	c-0.6-0.6-3.1-4-2-5.6c1.1-1.6,4-9.2,3.5-11c-0.5-1.8,3.8,3.2,4.1,2.1c0.3-1.1-3.4-8.9-2.5-9.9c1-1,2.1-3.8,2.2-5.3
	c0.2-1.4-0.2-3.7,0.6-4.3c0.8-0.6,2-3.3,2.8-4.8c0.8-1.4,2.7-2.1,2.5-4.1c-0.2-2.1-0.1-2.5,0.8-3.7c1-1.3,2-5.2,0.9-7.2
	c-1.1-2.1,1-1.9,0.6-3.2c-0.3-1.3-0.2-0.9-0.2-2.3c0-1.4,0.9-4.3,0.1-5.7c-0.8-1.4-4.3-2.5-5.1-4.3c-0.8-1.8-2.4-0.4-2.7-2.1
	c-0.3-1.8,1.1-1.4,0.3-3.1c-0.8-1.8-0.6-4.1,0-5.3c0.6-1.1-0.5-4.2-1.8-4.2c-1.3,0-1.5-3.4-2.7-3.1c-1.1,0.3-1,2.3-1.9,3.3
	c-1,1-1.1-0.4-2.1-1c-1.6-1-2.8,0.8-4.7,1c-1.9,0.2-2.6-0.7-1.6-2.6c1-2-1.6,0.3-1.2-2.5c0.1-0.7,1-4.1,1-4.8c-0.1-2-1-3.6-0.5-4.4
	c0.5-0.8,2.2-4,2.4-6.2c0.2-2.2,1.1-9.9,0.2-11.5c-0.6-1.1-2,12.3-2,13.7c0,1.4-3.2,4.5-2.7,5.7c0.5,1.3-0.5,1.4-1.6,1.9
	c-1.1,0.5-2.4,3.3-2.5,1.1c-0.1-1,0.3-4.3-0.7-5.4c-1-1.1-2-2.5-2.8-1.9c-0.8,0.6-2.1-0.5-3.6-0.3c-1.4,0.2-2.7,1.8-2.6,0.8
	c0.3-2.1-3.4-4-3.7-5.9c-0.1-0.6,1.6-6.9,1.5-7.4c-0.2-0.8-1.1,1.5-1.5,2.6c-0.5-0.6-2.9-1-3.1-1.6c-0.7-3-2.9-1.9-4.3-3.3
	c-0.6-0.6-4.1-4.9-4.1-6.1c0-1.3-1.5-2.1-2.8-2.7c-1.3-0.6-0.5-0.2-1.4-1.3c-0.9-1.1-4.2-8.3-5-8.2c-0.8,0.2-2.3-1.6-3.5-1.4
	c-1.1,0.2-2.6,0.3-2.6-0.5c0-0.8-0.8-1.1-1.8-1.1c-1,0-1-0.5-1-1.6c0-1.1-0.7-1.5-0.2-2.5c0.5-1-1.9-1.6-3-1.1
	c-1.1,0.5-1.5,0.5-3.1,1c-1.6,0.5-3.6-0.1-5,0.4c-0.3,0.1-2.9,2.4-2.9,1.2c0-1.4,2.7-6.4,2-6.7c-0.3-0.1-3,4.5-3.3,4.4
	c-1.3-0.6-2.4-1.3-2.6-1.6c-0.5-0.6,2,3-0.1,3.2c-0.7,0.1-0.9,2.2-0.7,3.2c0.2,1-0.7,0-1.8-0.7c-1.1-0.6-1.2-1.1-1.6,0
	c-0.3,1.1-0.6,0.4-1.2,2.3c-0.6,1.9-2.7,0.2-2,1.7c0.6,1.4-1.1,2.1,0.2,2.8c1.3,0.6,0.6,1.3-0.5,1.3c-1.1,0-0.4-1.7-0.6-3.1
	s-1.3,0.6-1.3-0.8c0-1.4-1.2-0.1-1,0.7c0.2,0.8-1.1-0.5-1.6-1.3c-0.5-0.8-1.3,1.3-1.3,1.3s2.2,1.9,0.9,2.1c-1.3,0.2-1.3,0.2-2.1-1.3
	c-0.8-1.4-1.1-1.3-1.9-2.2c-0.8-1-4.8-3.2-5.6-4c-0.8-0.8,2.6,4.6,2.6,4.6s2,1.5,2.7,1.8c0.6,0.3,2.6,1.8,2.6,1.8s-1.9-0.3-1.9,0.3
	c0,0.6,0,1.8-0.2,2.2c-1.6,3.6-2.7,0.4-3,0.6c-0.4,0.3-3.1,4.5-4.4,3.7c-1.2-0.9-0.9-6.9-1.8-6.2c-0.3,0.3-0.2,6.6-0.5,6.8
	c-1.3,1.2-0.9,2.3-0.8,2.4c0.4,0.3,6-3.6,7-4.1c0.8-0.3,2.3-0.9,2.3-0.9s2.2-2.1,2.2-3.1c0-1-0.6-1.1,0.6-1c1.3,0.2,2.9,0.6,3,0
	c0.2-0.6,0.6-1.4,1.1-0.3c0.5,1.1,1.4,1.1,2.4,1.1c1,0,1.2,0.2,2,1.1c0.8,1,1.6,2.9,0.3,2.4c-1.3-0.5-0.8-1-2.7-0.6
	c-1.9,0.3-1.8-0.2-3.8,0.2c-2.1,0.3-7.5,3.2-7.8,3.7c-0.3,0.5-4.8,2.9-5.4,3.8c-0.6,1-1,0.6-2.1,1s-4.9,1.4-4.9,2.4
	c0,1-1.4,0.5-1.3-0.5c0.2-1,0.3-1.1,1-1.8c0.6-0.6,4.1-2.9,4.1-2.9s-1.3-0.5-1.8-1c-0.5-0.5-3.5-1.8-3.8-1.2
	c-0.3,0.6-3.8,0.2-4.6-1.1c-0.8-1.3-0.6-0.8-0.4-2.1c0.2-1.3-0.2-5-0.8-5.6c-0.9-1.1-6.1-5.1-4.8-2.3c0.7,1.5-2-0.3-2.1,0.8
	c-0.1,0.8,2.5,1.7,3.6,3.2c1.1,1.5-1.7,3.3-1,3.6c1.7,0.7,2.9,2.5,2.5,2.9c-0.5,0.5,0,1.2-0.5,1.2s-0.2-3.7-1-3.5
	c-0.8,0.2-2.7-0.5-3.2-0.5s-2.5,1.9-3,2.5c-0.5,0.6-5.3-3.5-4.8-2.5c0.5,1,4.3,6.2,2.4,8.1c-1,1-0.9,4.2,4,1.8
	c1.8-0.9,0.6,1.1,1.5,1.1c1,0,5.6-0.5,6.4-0.8c0.8-0.3,4.7,3.1-2,1.6c-1-0.2-10,0.2-10.9,0.6c-1,0.3-1-2.4-3.3-9.4
	c0,0-2.1-3.8-3.2-4.6c-1.1-0.8-1.9-1.6-3.3-1.6s-0.7,0.4-2.5-1.8c-1.8-2.2-3-2.1-3.5-3.2c-0.3-0.6-1.6-1.1-3.6-2
	c0,0-0.7-0.9-1.6-1.6c-0.5-0.4-0.9-1.4-0.5-1.5c0.4-0.2,1,0.7,1.3,0.6c0.3-0.1,1.1-0.2,1.8,0.8c0.6,1,0.5,0.8,1.9,1.4
	c0.9,0.4,1.8,1.4,2.3,1.9c1,1,2.1,1.8,2.8,1.8c1.1,0,0.7,0.6,1.6,0.6c1,0,0.9,1.3,1.3,2.1c1.1,2.1,2.2,0.7,2.7,0.2
	c0.8-0.7,1.1-4.1,1.1-4.1s-1.5,0.1-1.6-0.9c-0.1-1-1.2,0.2-2.2-0.2c-1-0.5,0.3-1,0.9-1.5c0.6-0.6-0.3-2.2-0.1-1.4
	c0.2,0.8,0,0.9-1.1,1.5c-1.1,0.6-0.4,2.9-1,3c-0.6,0.2-1.5-2.9-1.7-3.9c-0.2-1-0.9-0.1-1.8,0c-1,0.1,1.8-2.6,1.8-2.6s-0.8,0.4-1.7,1
	c-0.9,0.6-0.6,0.3-1.4-0.3c-0.7-0.6-0.8,0.1-1.7,0.6c-0.9,0.6-1-0.2-1-1c0-0.8-0.6-0.2-1.3-0.5c-0.6-0.3-0.6,0.3-1.1,0.7
	c-0.6,0.4-1.3-0.1-1.5-0.5c-0.2-0.4-0.5-0.4-0.9-1.4c-0.4-1-2.4-1.2-2.4-1.2s0.8-0.6,1.3-1c0.5-0.5,1.1-1.3,1.7-2.3
	c0.6-1,0.6-0.2,1.3-0.7c0.7-0.5,1.6,0.2,1.5-0.3c-0.1-0.5,1,0.1,1.3,0.1c0.7,0,0.1-0.6,0.6-1.3c0.6-0.7,1.9,1.9,2.1,0.9
	c0.1-0.5-1.8-1.8-1.9-3.1c0-0.7,3.2,0.1,3.7,0c0.8-0.1-2.7-4.5-2.7-4.5s0.4,3.3,0,3.4c-0.2,0-0.7-0.9-0.9-0.9
	c-1.4,0.2-1.1,2.3-1.2,3.6c-0.2,1.3-0.7,0.8-1.4,0.7c-0.7-0.1-0.8-1.3-1.1-0.6c-0.3,0.6,0,0-0.7,1s-1.2,0.1-2.1,0.9
	c-1,0.8-0.7,1.1-0.7,0.6c0-0.6-0.2-1.8-1.4-3.1c-1.1-1.3-1-2.6-1.1-1.8c-0.1,0.8-2.3,0.3-2,0.8c0.3,0.5-3.7-0.5-4.6-0.2
	c-0.9,0.3,2.2,1.8,1.3,3c-0.9,1.3,1.7,2.8,2.5,3.3c0,0,4,2.8,4.8,3c0.8,0.2,0.6,0.6,0.6,1.3c0,0.6-2.9-1.3-2.9-1.3l1.8,2.4
	c-0.5-0.3-1.1-0.7-1.6-1c-5.4-3.7-9.7-7.2-12.8-8.2c-3-1-11-6.1-24-6l-2.1-1.7c0,0,4.1-0.2,4.7,0.1c0.6,0.3,3.6,1,4.4,0.8
	c0.8-0.2-0.6-3.3,0.9-2.3c1.4,1,3.7,2.2,4.1,1.9c0.4-0.4-1.1-2.7,0-2.3c1.1,0.5,2.1,1.3,2.9,2.3c0.8,0.9,1.7,2.2,2.9,0.9
	c0.5,2.1,3.5-0.6,4.3,0c0.8,0.6,2.9,0.6,3.4-0.1c0.6-0.6,4.7-2.7,4.5-3.4s-6.3,0.4-7.4,0.6c-1.1,0.2-2.5-0.2-3.6-0.2
	c-1.1,0.1-3.7-0.5-3.1-1.1c0.6-0.6,1.9-1.7,1.6-2.3c-0.3-0.6-2.3,2.7-3.1,2.2c-0.8-0.5,0.1-3.6,0.6-4.8c-0.4,0.7-2,3.8-2.8,3.6
	c-0.6-0.1,0.1-0.5,0.1-0.8c0.8-0.6-0.4-2.8-0.8-2c-0.2,0.5-0.2,2.1-0.2,2.3c-0.3,0.2-0.7,0.3-1.2,0.2c-2.1-0.3-3.9-0.2-4.5,0.6
	c-0.6,0.7-0.7,1.6-2,0.9s-3.5-1.4-2.1-2.3c1.4-0.9,1.2-1.9,1.8-1.4c0.6,0.5-0.2-0.7-1.5,0C61,30.3,61,31.4,60.4,31
	c-0.2-0.1-0.4-0.4-0.5-0.7c-0.2-0.6-0.4-1.2-0.4-1.2s0.1,0.6,0.4,1.2c0.2,0.6-0.7,0.5-0.9,0.9c-0.5,0.7,0.7,1.8-0.5,1.9
	c-1.3,0.2-1,1.4-2.5,0.9c-1.5-0.6-2.2,0.8-1.9-0.7c0.3-1.5,0.7-1.8,0.7-1.8s-2.5,2.1-1.7,2.9c0.8,0.8,0.4,1-0.4,1.1
	C52,35.5,41.3,35.6,39.6,36c-1.8,0.4-8.9,0.9-12.8,2.2s-2.6,0.4-1.7-0.2c1-0.6,2.1-1.2,3.1-1.2c1,0,4.5-0.8,5.3-1.2
	c0.8-0.4-0.3-1,0.9-1.1c1.1-0.1,3.4,0.2,4.4,0.2c1,0,3.3-0.2,3.9-0.2c0.6,0.1-7.9-1.9-8.7-2.8c-0.8-0.9-1-1.2-1.6-1.5
	c0,0-0.6,0.2,0.6-0.7c1.2-1,3-2.3,3.4-2.7s4.6-3.3,4.5-3.6c-0.2-0.3-5.4,2.8-5.4,2.8s-1.5-0.5-2-0.9c-0.8-0.6-0.2-0.3-0.5-1.4
	c-0.3-1-1.7-1.1-0.6-1.4c1.1-0.3,2.6-2.7,2.6-3.3c0-0.6-0.7,1.8-2.6,2.1c-1.9,0.3-1.6,2.5-0.6,3.5c1,1,0.9,2,0.2,2.2
	c-0.6,0.2-1.4,0.2-1.4,1c0.1,0.7-0.5,1.5-0.6,2.7c-0.1,1.2-0.7,1.3-1,1.8c-0.3,0.6-0.9-1.2-0.9-2c0-0.8,0.3-1.3,0.5-2
	c0.2-0.7-1.6,0-2.5-1.1c-0.9-1.1,0.3-1-1.2-1.7c-1.5-0.7-0.7-0.6-2.1-1c-1.4-0.4-0.1-0.9-0.9-2.1c-0.9-1.2-4.4-6.7-4.4-6.7
	c0,1.8-0.2,7.5,4.1,11c1.4,1.1,3.2,3.1,2.9,4.4c-0.3,1.3,0.6,2.5-0.5,3.3c-1.1,0.8-1.8,0.4-2.5,1.1c-0.7,0.7-1.4,0.4-1.9,1
	c-0.6,0.6-3.5,1.2-4.1,1.6s2.4-0.4,2.6,0.5c0.2,1,0.3,1-0.6,0.9l-1.9,0.8c-4.8,0.4-6.3,1.8-5.7,0.6c0.4-0.7,0.6-0.9,1.2-1.3
	c0.6-0.4,0.8-1,0.3-1s-0.6-1.7-0.3-2.3c0.3-0.6,1.4-0.6,1.9-1c0.5-0.5,2-0.2,2.7-0.7c0.7-0.5,0.1-0.8-0.6-0.6
	c-0.7,0.2,0.1-1.9-0.6-2.6c-0.7-0.7-3.1,1.1-3.5-0.7c-0.2-0.9-1-1.8-1-1.1c0,0-0.4,0-1.6-0.7S9,28.6,9,28.6c0.8-1.4,3.6-5.4,3.2-6.4
	c-0.4-1-0.8-3-2.5-3.8c-1.8-0.8-4.3-2.5-4.9-4C4.1,13,2,11,1.1,9.9c-0.9-1.1-2.1-1.6,0-6C2,1.9,1.1,0,1.1,0h136.2
	c0,0-0.3,1.8,0.6,2.1c1,0.3,1.4,1.9,1.8,3c0.3,1.1,1.6,2.5,1.4,4.6c-0.2,2.1-1.2,4.6,0,5.3c1.3,0.6,0.8,1,2.5,1.6s138.7,10,138.7,10
	s-1.1,1.4,0,2.4c1.1,1,1.9,3,1.6,3.8c-0.3,0.8-0.8,3.8,0.1,4.6c0.9,0.8,1,1.3,1.8,1.3c0.8,0,3.5-0.5,4-0.2s2.4,0.3,2.5-1.8
	c0.2-2.1,0-4.9,1-7c1-2.1,1.6-3.7,0.6-5.6c-1-1.9-2.7-4-1.8-6.7s1.6-4.1,2.2-4.5c0.6-0.3,2.2-0.5,2.2-1.3s1.1-1.6,1.1-1.6
	S299.7,11.7,300,12.8z M128.4,51.4c0-0.7-1.4-3.6-1.4-3.6c0.1,2,1.1,5.8,1.4,5.8S128.4,52.1,128.4,51.4z M379,211.3
	c0.7,0.4,1.4-1.4,0.7-2.3s-0.7-0.8-0.7-0.8C378.5,209.7,378.3,211,379,211.3z M346.7,144.1c0.5-0.2,2,2.9,2,3.9c0,1,6.7,5.1,5.9,3.9
	c-0.8-1.3-3.8-6-3.5-8.2c0.3-2.2,0.8-1.3,1.3-1.9c0.5-0.6-0.5-1.4-1.3-1.1c-0.8,0.3-2.8-3.6-3.1-2.6c-0.3,1,0.1,5.6,0.1,5
	s-0.8-1.8-1-2.9c-0.2-1.1-1.4-2.5-1.8-3.3c-0.3-0.8,1.4-1.9,1-1.8c-0.5,0.2-1.5-0.2-1.5-0.2c0.6-0.6,0-1.2,0-1.2
	c-0.4,0.1-1.5-0.6-1.7,0c-0.2,0.6-1,1.1-0.6,1.8c0.3,0.7-0.2,1.2,0.6,1.4c0,0,0.7,0.2,1.4,0.8c0.6,0.6,0.5,1.6,0,2.5s0.6,1,1.4,1.8
	C346.9,142.9,346.3,144.3,346.7,144.1z M368.6,248.3c0.8,1.1-0.3,2.1-1.9,2.4c-1.6,0.3-1.3-1.8-1.3-1.8s1.6-3.4,1.4-5.4
	c-0.4-4.8-1.2-3.5-0.8-5.4c0.3-1.9-6.4-11.8-9.7-10.5c-0.8,0.3-1.2,2.8-1.2,3.6c0.1,0.7-0.8,2.8-0.8,3.5c0,0.6-0.6-0.1-2.7,2.2
	c-3.3,3.7-7.9,1.7-8,4.3c-0.1,1.7,5.3,3.7,6.6,7.9c1.3,4.1,5.3,7.8,8,7c1.1-0.3,2.7-1.6,4.3-3.3c0.9-1,1.6,1.5,0.8,1.8
	c-0.8,0.3-1,2.2-0.2,2.1c0.8-0.2,2.1-0.6,3.2-1.4c1.1-0.8,1.6,2.7,0.8,1.9c-0.8-0.8-2.2,3.3-3.3,3.4c-3.1,0.2-10.4-4.7-10.5-2
	c-0.1,1.4-2.5,8.7-1,12.3c0.3,0.8,3.2-1.4,3.7-0.7c2.5,3.5,4.5,0.6,6.8,1.6c1.4,0.6,4.9,5.7,7.6,5c2.7-0.7,5.8-7,5.4-11.8
	c-0.4-4.8,1.4-3,0.8-4.3c-0.6-1.3,1.4-1,1.7-2.9c0.3-1.9,1-1.7,1.9-2s-3.5-1-3.5-1.8c0-0.8-1.2-2-2-3.9c0,0-6.1-6-6.4-5.2
	C368.4,244.8,367.8,247.2,368.6,248.3z M386.6,227.7c-0.5-0.4-3.1-3.5-3.2-4.1c-0.1-0.6-0.6-3.1-0.6-3.1s-2-6.2-2.8-5
	c-0.7,1.1,1.7,3.2,1.7,4.2s0.1,3.7,0,4.7c-0.1,1-0.7,2.9,0.1,2.1c0.8-0.7,2-1.4,2-0.7c0,0.7,1.6,2.6,1.6,3.7c0,1.1,0,3.3,0,3.3
	s1.3-1.3,1.3-2.1C386.6,229.8,387.1,228.1,386.6,227.7z M314.6,26.1C314.7,26.1,314.7,26.1,314.6,26.1
	C314.7,26.1,314.7,26.1,314.6,26.1z M266.5,191.1c0,0.1,0,0,0.1-0.2C266.5,190.9,266.5,191,266.5,191.1z"/>
</svg>
